<?xml version="1.0" encoding="utf-8" standalone="no"?>
<!DOCTYPE svg PUBLIC "-//W3C//DTD SVG 1.1//EN"
  "http://www.w3.org/Graphics/SVG/1.1/DTD/svg11.dtd">
<svg height="195.106776pt" version="1.1" viewBox="0 0 385.464951 195.106776" width="385.464951pt" xmlns="http://www.w3.org/2000/svg" xmlns:xlink="http://www.w3.org/1999/xlink">
 <metadata>
  <rdf:RDF xmlns:cc="http://creativecommons.org/ns#" xmlns:dc="http://purl.org/dc/elements/1.1/" xmlns:rdf="http://www.w3.org/1999/02/22-rdf-syntax-ns#">
   <cc:Work>
    <dc:type rdf:resource="http://purl.org/dc/dcmitype/StillImage"/>
    <dc:date>2021-10-08T16:07:45.937310</dc:date>
    <dc:format>image/svg+xml</dc:format>
    <dc:creator>
     <cc:Agent>
      <dc:title>Matplotlib v3.4.3, https://matplotlib.org/</dc:title>
     </cc:Agent>
    </dc:creator>
   </cc:Work>
  </rdf:RDF>
 </metadata>
 <defs>
  <style type="text/css">*{stroke-linecap:butt;stroke-linejoin:round;}</style>
 </defs>
 <g id="figure_1">
  <g id="patch_1">
   <path d="M 0 195.106776 
L 385.464951 195.106776 
L 385.464951 0 
L 0 0 
z
" style="fill:none;"/>
  </g>
  <g id="axes_1">
   <g id="patch_2">
    <path d="M 43.464951 170.28 
L 378.264951 170.28 
L 378.264951 7.2 
L 43.464951 7.2 
z
" style="fill:#ffffff;"/>
   </g>
   <g id="patch_3">
    <path clip-path="url(#p44d8f0ccf8)" d="M 58.683133 170.28 
L 61.060974 170.28 
L 61.060974 14.965714 
L 58.683133 14.965714 
z
" style="fill:#1f77b4;"/>
   </g>
   <g id="patch_4">
    <path clip-path="url(#p44d8f0ccf8)" d="M 61.060974 170.28 
L 63.438815 170.28 
L 63.438815 22.04157 
L 61.060974 22.04157 
z
" style="fill:#1f77b4;"/>
   </g>
   <g id="patch_5">
    <path clip-path="url(#p44d8f0ccf8)" d="M 63.438815 170.28 
L 65.816656 170.28 
L 65.816656 170.28 
L 63.438815 170.28 
z
" style="fill:#1f77b4;"/>
   </g>
   <g id="patch_6">
    <path clip-path="url(#p44d8f0ccf8)" d="M 65.816656 170.28 
L 68.194497 170.28 
L 68.194497 170.28 
L 65.816656 170.28 
z
" style="fill:#1f77b4;"/>
   </g>
   <g id="patch_7">
    <path clip-path="url(#p44d8f0ccf8)" d="M 68.194497 170.28 
L 70.572338 170.28 
L 70.572338 158.693097 
L 68.194497 158.693097 
z
" style="fill:#1f77b4;"/>
   </g>
   <g id="patch_8">
    <path clip-path="url(#p44d8f0ccf8)" d="M 70.572338 170.28 
L 72.950179 170.28 
L 72.950179 164.109371 
L 70.572338 164.109371 
z
" style="fill:#1f77b4;"/>
   </g>
   <g id="patch_9">
    <path clip-path="url(#p44d8f0ccf8)" d="M 72.950179 170.28 
L 75.328019 170.28 
L 75.328019 170.28 
L 72.950179 170.28 
z
" style="fill:#1f77b4;"/>
   </g>
   <g id="patch_10">
    <path clip-path="url(#p44d8f0ccf8)" d="M 75.328019 170.28 
L 77.70586 170.28 
L 77.70586 165.361601 
L 75.328019 165.361601 
z
" style="fill:#1f77b4;"/>
   </g>
   <g id="patch_11">
    <path clip-path="url(#p44d8f0ccf8)" d="M 77.70586 170.28 
L 80.083701 170.28 
L 80.083701 168.318675 
L 77.70586 168.318675 
z
" style="fill:#1f77b4;"/>
   </g>
   <g id="patch_12">
    <path clip-path="url(#p44d8f0ccf8)" d="M 80.083701 170.28 
L 82.461542 170.28 
L 82.461542 170.28 
L 80.083701 170.28 
z
" style="fill:#1f77b4;"/>
   </g>
   <g id="patch_13">
    <path clip-path="url(#p44d8f0ccf8)" d="M 82.461542 170.28 
L 84.839383 170.28 
L 84.839383 166.56857 
L 82.461542 166.56857 
z
" style="fill:#1f77b4;"/>
   </g>
   <g id="patch_14">
    <path clip-path="url(#p44d8f0ccf8)" d="M 84.839383 170.28 
L 87.217224 170.28 
L 87.217224 170.28 
L 84.839383 170.28 
z
" style="fill:#1f77b4;"/>
   </g>
   <g id="patch_15">
    <path clip-path="url(#p44d8f0ccf8)" d="M 87.217224 170.28 
L 89.595065 170.28 
L 89.595065 166.862769 
L 87.217224 166.862769 
z
" style="fill:#1f77b4;"/>
   </g>
   <g id="patch_16">
    <path clip-path="url(#p44d8f0ccf8)" d="M 89.595065 170.28 
L 91.972906 170.28 
L 91.972906 168.03202 
L 89.595065 168.03202 
z
" style="fill:#1f77b4;"/>
   </g>
   <g id="patch_17">
    <path clip-path="url(#p44d8f0ccf8)" d="M 91.972906 170.28 
L 94.350747 170.28 
L 94.350747 170.28 
L 91.972906 170.28 
z
" style="fill:#1f77b4;"/>
   </g>
   <g id="patch_18">
    <path clip-path="url(#p44d8f0ccf8)" d="M 94.350747 170.28 
L 96.728588 170.28 
L 96.728588 164.373395 
L 94.350747 164.373395 
z
" style="fill:#1f77b4;"/>
   </g>
   <g id="patch_19">
    <path clip-path="url(#p44d8f0ccf8)" d="M 96.728588 170.28 
L 99.106429 170.28 
L 99.106429 170.28 
L 96.728588 170.28 
z
" style="fill:#1f77b4;"/>
   </g>
   <g id="patch_20">
    <path clip-path="url(#p44d8f0ccf8)" d="M 99.106429 170.28 
L 101.484269 170.28 
L 101.484269 166.855225 
L 99.106429 166.855225 
z
" style="fill:#1f77b4;"/>
   </g>
   <g id="patch_21">
    <path clip-path="url(#p44d8f0ccf8)" d="M 101.484269 170.28 
L 103.86211 170.28 
L 103.86211 170.28 
L 101.484269 170.28 
z
" style="fill:#1f77b4;"/>
   </g>
   <g id="patch_22">
    <path clip-path="url(#p44d8f0ccf8)" d="M 103.86211 170.28 
L 106.239951 170.28 
L 106.239951 170.28 
L 103.86211 170.28 
z
" style="fill:#1f77b4;"/>
   </g>
   <g id="patch_23">
    <path clip-path="url(#p44d8f0ccf8)" d="M 106.239951 170.28 
L 108.617792 170.28 
L 108.617792 163.867977 
L 106.239951 163.867977 
z
" style="fill:#1f77b4;"/>
   </g>
   <g id="patch_24">
    <path clip-path="url(#p44d8f0ccf8)" d="M 108.617792 170.28 
L 110.995633 170.28 
L 110.995633 166.787333 
L 108.617792 166.787333 
z
" style="fill:#1f77b4;"/>
   </g>
   <g id="patch_25">
    <path clip-path="url(#p44d8f0ccf8)" d="M 110.995633 170.28 
L 113.373474 170.28 
L 113.373474 168.145173 
L 110.995633 168.145173 
z
" style="fill:#1f77b4;"/>
   </g>
   <g id="patch_26">
    <path clip-path="url(#p44d8f0ccf8)" d="M 113.373474 170.28 
L 115.751315 170.28 
L 115.751315 166.402612 
L 113.373474 166.402612 
z
" style="fill:#1f77b4;"/>
   </g>
   <g id="patch_27">
    <path clip-path="url(#p44d8f0ccf8)" d="M 115.751315 170.28 
L 118.129156 170.28 
L 118.129156 170.28 
L 115.751315 170.28 
z
" style="fill:#1f77b4;"/>
   </g>
   <g id="patch_28">
    <path clip-path="url(#p44d8f0ccf8)" d="M 118.129156 170.28 
L 120.506997 170.28 
L 120.506997 164.644963 
L 118.129156 164.644963 
z
" style="fill:#1f77b4;"/>
   </g>
   <g id="patch_29">
    <path clip-path="url(#p44d8f0ccf8)" d="M 120.506997 170.28 
L 122.884838 170.28 
L 122.884838 170.28 
L 120.506997 170.28 
z
" style="fill:#1f77b4;"/>
   </g>
   <g id="patch_30">
    <path clip-path="url(#p44d8f0ccf8)" d="M 122.884838 170.28 
L 125.262679 170.28 
L 125.262679 165.037228 
L 122.884838 165.037228 
z
" style="fill:#1f77b4;"/>
   </g>
   <g id="patch_31">
    <path clip-path="url(#p44d8f0ccf8)" d="M 125.262679 170.28 
L 127.640519 170.28 
L 127.640519 170.28 
L 125.262679 170.28 
z
" style="fill:#1f77b4;"/>
   </g>
   <g id="patch_32">
    <path clip-path="url(#p44d8f0ccf8)" d="M 127.640519 170.28 
L 130.01836 170.28 
L 130.01836 163.950956 
L 127.640519 163.950956 
z
" style="fill:#1f77b4;"/>
   </g>
   <g id="patch_33">
    <path clip-path="url(#p44d8f0ccf8)" d="M 130.01836 170.28 
L 132.396201 170.28 
L 132.396201 170.28 
L 130.01836 170.28 
z
" style="fill:#1f77b4;"/>
   </g>
   <g id="patch_34">
    <path clip-path="url(#p44d8f0ccf8)" d="M 132.396201 170.28 
L 134.774042 170.28 
L 134.774042 164.282873 
L 132.396201 164.282873 
z
" style="fill:#1f77b4;"/>
   </g>
   <g id="patch_35">
    <path clip-path="url(#p44d8f0ccf8)" d="M 134.774042 170.28 
L 137.151883 170.28 
L 137.151883 170.28 
L 134.774042 170.28 
z
" style="fill:#1f77b4;"/>
   </g>
   <g id="patch_36">
    <path clip-path="url(#p44d8f0ccf8)" d="M 137.151883 170.28 
L 139.529724 170.28 
L 139.529724 164.049022 
L 137.151883 164.049022 
z
" style="fill:#1f77b4;"/>
   </g>
   <g id="patch_37">
    <path clip-path="url(#p44d8f0ccf8)" d="M 139.529724 170.28 
L 141.907565 170.28 
L 141.907565 170.28 
L 139.529724 170.28 
z
" style="fill:#1f77b4;"/>
   </g>
   <g id="patch_38">
    <path clip-path="url(#p44d8f0ccf8)" d="M 141.907565 170.28 
L 144.285406 170.28 
L 144.285406 163.74728 
L 141.907565 163.74728 
z
" style="fill:#1f77b4;"/>
   </g>
   <g id="patch_39">
    <path clip-path="url(#p44d8f0ccf8)" d="M 144.285406 170.28 
L 146.663247 170.28 
L 146.663247 170.28 
L 144.285406 170.28 
z
" style="fill:#1f77b4;"/>
   </g>
   <g id="patch_40">
    <path clip-path="url(#p44d8f0ccf8)" d="M 146.663247 170.28 
L 149.041088 170.28 
L 149.041088 163.053273 
L 146.663247 163.053273 
z
" style="fill:#1f77b4;"/>
   </g>
   <g id="patch_41">
    <path clip-path="url(#p44d8f0ccf8)" d="M 149.041088 170.28 
L 151.418929 170.28 
L 151.418929 167.14188 
L 149.041088 167.14188 
z
" style="fill:#1f77b4;"/>
   </g>
   <g id="patch_42">
    <path clip-path="url(#p44d8f0ccf8)" d="M 151.418929 170.28 
L 153.796769 170.28 
L 153.796769 168.627961 
L 151.418929 168.627961 
z
" style="fill:#1f77b4;"/>
   </g>
   <g id="patch_43">
    <path clip-path="url(#p44d8f0ccf8)" d="M 153.796769 170.28 
L 156.17461 170.28 
L 156.17461 170.28 
L 153.796769 170.28 
z
" style="fill:#1f77b4;"/>
   </g>
   <g id="patch_44">
    <path clip-path="url(#p44d8f0ccf8)" d="M 156.17461 170.28 
L 158.552451 170.28 
L 158.552451 163.913238 
L 156.17461 163.913238 
z
" style="fill:#1f77b4;"/>
   </g>
   <g id="patch_45">
    <path clip-path="url(#p44d8f0ccf8)" d="M 158.552451 170.28 
L 160.930292 170.28 
L 160.930292 167.933954 
L 158.552451 167.933954 
z
" style="fill:#1f77b4;"/>
   </g>
   <g id="patch_46">
    <path clip-path="url(#p44d8f0ccf8)" d="M 160.930292 170.28 
L 163.308133 170.28 
L 163.308133 170.28 
L 160.930292 170.28 
z
" style="fill:#1f77b4;"/>
   </g>
   <g id="patch_47">
    <path clip-path="url(#p44d8f0ccf8)" d="M 163.308133 170.28 
L 165.685974 170.28 
L 165.685974 165.685974 
L 163.308133 165.685974 
z
" style="fill:#1f77b4;"/>
   </g>
   <g id="patch_48">
    <path clip-path="url(#p44d8f0ccf8)" d="M 165.685974 170.28 
L 168.063815 170.28 
L 168.063815 165.716148 
L 165.685974 165.716148 
z
" style="fill:#1f77b4;"/>
   </g>
   <g id="patch_49">
    <path clip-path="url(#p44d8f0ccf8)" d="M 168.063815 170.28 
L 170.441656 170.28 
L 170.441656 169.593536 
L 168.063815 169.593536 
z
" style="fill:#1f77b4;"/>
   </g>
   <g id="patch_50">
    <path clip-path="url(#p44d8f0ccf8)" d="M 170.441656 170.28 
L 172.819497 170.28 
L 172.819497 170.28 
L 170.441656 170.28 
z
" style="fill:#1f77b4;"/>
   </g>
   <g id="patch_51">
    <path clip-path="url(#p44d8f0ccf8)" d="M 172.819497 170.28 
L 175.197338 170.28 
L 175.197338 163.355015 
L 172.819497 163.355015 
z
" style="fill:#1f77b4;"/>
   </g>
   <g id="patch_52">
    <path clip-path="url(#p44d8f0ccf8)" d="M 175.197338 170.28 
L 177.575179 170.28 
L 177.575179 165.323883 
L 175.197338 165.323883 
z
" style="fill:#1f77b4;"/>
   </g>
   <g id="patch_53">
    <path clip-path="url(#p44d8f0ccf8)" d="M 177.575179 170.28 
L 179.953019 170.28 
L 179.953019 170.28 
L 177.575179 170.28 
z
" style="fill:#1f77b4;"/>
   </g>
   <g id="patch_54">
    <path clip-path="url(#p44d8f0ccf8)" d="M 179.953019 170.28 
L 182.33086 170.28 
L 182.33086 164.675137 
L 179.953019 164.675137 
z
" style="fill:#1f77b4;"/>
   </g>
   <g id="patch_55">
    <path clip-path="url(#p44d8f0ccf8)" d="M 182.33086 170.28 
L 184.708701 170.28 
L 184.708701 170.28 
L 182.33086 170.28 
z
" style="fill:#1f77b4;"/>
   </g>
   <g id="patch_56">
    <path clip-path="url(#p44d8f0ccf8)" d="M 184.708701 170.28 
L 187.086542 170.28 
L 187.086542 166.025434 
L 184.708701 166.025434 
z
" style="fill:#1f77b4;"/>
   </g>
   <g id="patch_57">
    <path clip-path="url(#p44d8f0ccf8)" d="M 187.086542 170.28 
L 189.464383 170.28 
L 189.464383 170.28 
L 187.086542 170.28 
z
" style="fill:#1f77b4;"/>
   </g>
   <g id="patch_58">
    <path clip-path="url(#p44d8f0ccf8)" d="M 189.464383 170.28 
L 191.842224 170.28 
L 191.842224 170.28 
L 189.464383 170.28 
z
" style="fill:#1f77b4;"/>
   </g>
   <g id="patch_59">
    <path clip-path="url(#p44d8f0ccf8)" d="M 191.842224 170.28 
L 194.220065 170.28 
L 194.220065 165.059859 
L 191.842224 165.059859 
z
" style="fill:#1f77b4;"/>
   </g>
   <g id="patch_60">
    <path clip-path="url(#p44d8f0ccf8)" d="M 194.220065 170.28 
L 196.597906 170.28 
L 196.597906 166.621375 
L 194.220065 166.621375 
z
" style="fill:#1f77b4;"/>
   </g>
   <g id="patch_61">
    <path clip-path="url(#p44d8f0ccf8)" d="M 196.597906 170.28 
L 198.975747 170.28 
L 198.975747 170.28 
L 196.597906 170.28 
z
" style="fill:#1f77b4;"/>
   </g>
   <g id="patch_62">
    <path clip-path="url(#p44d8f0ccf8)" d="M 198.975747 170.28 
L 201.353588 170.28 
L 201.353588 170.28 
L 198.975747 170.28 
z
" style="fill:#1f77b4;"/>
   </g>
   <g id="patch_63">
    <path clip-path="url(#p44d8f0ccf8)" d="M 201.353588 170.28 
L 203.731429 170.28 
L 203.731429 165.097577 
L 201.353588 165.097577 
z
" style="fill:#1f77b4;"/>
   </g>
   <g id="patch_64">
    <path clip-path="url(#p44d8f0ccf8)" d="M 203.731429 170.28 
L 206.109269 170.28 
L 206.109269 170.28 
L 203.731429 170.28 
z
" style="fill:#1f77b4;"/>
   </g>
   <g id="patch_65">
    <path clip-path="url(#p44d8f0ccf8)" d="M 206.109269 170.28 
L 208.48711 170.28 
L 208.48711 167.111706 
L 206.109269 167.111706 
z
" style="fill:#1f77b4;"/>
   </g>
   <g id="patch_66">
    <path clip-path="url(#p44d8f0ccf8)" d="M 208.48711 170.28 
L 210.864951 170.28 
L 210.864951 170.28 
L 208.48711 170.28 
z
" style="fill:#1f77b4;"/>
   </g>
   <g id="patch_67">
    <path clip-path="url(#p44d8f0ccf8)" d="M 210.864951 170.28 
L 213.242792 170.28 
L 213.242792 164.916531 
L 210.864951 164.916531 
z
" style="fill:#1f77b4;"/>
   </g>
   <g id="patch_68">
    <path clip-path="url(#p44d8f0ccf8)" d="M 213.242792 170.28 
L 215.620633 170.28 
L 215.620633 167.156968 
L 213.242792 167.156968 
z
" style="fill:#1f77b4;"/>
   </g>
   <g id="patch_69">
    <path clip-path="url(#p44d8f0ccf8)" d="M 215.620633 170.28 
L 217.998474 170.28 
L 217.998474 170.28 
L 215.620633 170.28 
z
" style="fill:#1f77b4;"/>
   </g>
   <g id="patch_70">
    <path clip-path="url(#p44d8f0ccf8)" d="M 217.998474 170.28 
L 220.376315 170.28 
L 220.376315 170.28 
L 217.998474 170.28 
z
" style="fill:#1f77b4;"/>
   </g>
   <g id="patch_71">
    <path clip-path="url(#p44d8f0ccf8)" d="M 220.376315 170.28 
L 222.754156 170.28 
L 222.754156 163.905695 
L 220.376315 163.905695 
z
" style="fill:#1f77b4;"/>
   </g>
   <g id="patch_72">
    <path clip-path="url(#p44d8f0ccf8)" d="M 222.754156 170.28 
L 225.131997 170.28 
L 225.131997 165.882107 
L 222.754156 165.882107 
z
" style="fill:#1f77b4;"/>
   </g>
   <g id="patch_73">
    <path clip-path="url(#p44d8f0ccf8)" d="M 225.131997 170.28 
L 227.509838 170.28 
L 227.509838 168.71094 
L 225.131997 168.71094 
z
" style="fill:#1f77b4;"/>
   </g>
   <g id="patch_74">
    <path clip-path="url(#p44d8f0ccf8)" d="M 227.509838 170.28 
L 229.887679 170.28 
L 229.887679 170.28 
L 227.509838 170.28 
z
" style="fill:#1f77b4;"/>
   </g>
   <g id="patch_75">
    <path clip-path="url(#p44d8f0ccf8)" d="M 229.887679 170.28 
L 232.265519 170.28 
L 232.265519 168.627961 
L 229.887679 168.627961 
z
" style="fill:#1f77b4;"/>
   </g>
   <g id="patch_76">
    <path clip-path="url(#p44d8f0ccf8)" d="M 232.265519 170.28 
L 234.64336 170.28 
L 234.64336 170.28 
L 232.265519 170.28 
z
" style="fill:#1f77b4;"/>
   </g>
   <g id="patch_77">
    <path clip-path="url(#p44d8f0ccf8)" d="M 234.64336 170.28 
L 237.021201 170.28 
L 237.021201 169.216359 
L 234.64336 169.216359 
z
" style="fill:#1f77b4;"/>
   </g>
   <g id="patch_78">
    <path clip-path="url(#p44d8f0ccf8)" d="M 237.021201 170.28 
L 239.399042 170.28 
L 239.399042 170.28 
L 237.021201 170.28 
z
" style="fill:#1f77b4;"/>
   </g>
   <g id="patch_79">
    <path clip-path="url(#p44d8f0ccf8)" d="M 239.399042 170.28 
L 241.776883 170.28 
L 241.776883 169.819843 
L 239.399042 169.819843 
z
" style="fill:#1f77b4;"/>
   </g>
   <g id="patch_80">
    <path clip-path="url(#p44d8f0ccf8)" d="M 241.776883 170.28 
L 244.154724 170.28 
L 244.154724 170.28 
L 241.776883 170.28 
z
" style="fill:#1f77b4;"/>
   </g>
   <g id="patch_81">
    <path clip-path="url(#p44d8f0ccf8)" d="M 244.154724 170.28 
L 246.532565 170.28 
L 246.532565 169.925453 
L 244.154724 169.925453 
z
" style="fill:#1f77b4;"/>
   </g>
   <g id="patch_82">
    <path clip-path="url(#p44d8f0ccf8)" d="M 246.532565 170.28 
L 248.910406 170.28 
L 248.910406 170.144216 
L 246.532565 170.144216 
z
" style="fill:#1f77b4;"/>
   </g>
   <g id="patch_83">
    <path clip-path="url(#p44d8f0ccf8)" d="M 248.910406 170.28 
L 251.288247 170.28 
L 251.288247 170.28 
L 248.910406 170.28 
z
" style="fill:#1f77b4;"/>
   </g>
   <g id="patch_84">
    <path clip-path="url(#p44d8f0ccf8)" d="M 251.288247 170.28 
L 253.666088 170.28 
L 253.666088 170.28 
L 251.288247 170.28 
z
" style="fill:#1f77b4;"/>
   </g>
   <g id="patch_85">
    <path clip-path="url(#p44d8f0ccf8)" d="M 253.666088 170.28 
L 256.043929 170.28 
L 256.043929 170.000888 
L 253.666088 170.000888 
z
" style="fill:#1f77b4;"/>
   </g>
   <g id="patch_86">
    <path clip-path="url(#p44d8f0ccf8)" d="M 256.043929 170.28 
L 258.421769 170.28 
L 258.421769 170.204564 
L 256.043929 170.204564 
z
" style="fill:#1f77b4;"/>
   </g>
   <g id="patch_87">
    <path clip-path="url(#p44d8f0ccf8)" d="M 258.421769 170.28 
L 260.79961 170.28 
L 260.79961 170.204564 
L 258.421769 170.204564 
z
" style="fill:#1f77b4;"/>
   </g>
   <g id="patch_88">
    <path clip-path="url(#p44d8f0ccf8)" d="M 260.79961 170.28 
L 263.177451 170.28 
L 263.177451 170.28 
L 260.79961 170.28 
z
" style="fill:#1f77b4;"/>
   </g>
   <g id="patch_89">
    <path clip-path="url(#p44d8f0ccf8)" d="M 263.177451 170.28 
L 265.555292 170.28 
L 265.555292 169.963171 
L 263.177451 169.963171 
z
" style="fill:#1f77b4;"/>
   </g>
   <g id="patch_90">
    <path clip-path="url(#p44d8f0ccf8)" d="M 265.555292 170.28 
L 267.933133 170.28 
L 267.933133 170.28 
L 265.555292 170.28 
z
" style="fill:#1f77b4;"/>
   </g>
   <g id="patch_91">
    <path clip-path="url(#p44d8f0ccf8)" d="M 267.933133 170.28 
L 270.310974 170.28 
L 270.310974 170.144216 
L 267.933133 170.144216 
z
" style="fill:#1f77b4;"/>
   </g>
   <g id="patch_92">
    <path clip-path="url(#p44d8f0ccf8)" d="M 270.310974 170.28 
L 272.688815 170.28 
L 272.688815 170.28 
L 270.310974 170.28 
z
" style="fill:#1f77b4;"/>
   </g>
   <g id="patch_93">
    <path clip-path="url(#p44d8f0ccf8)" d="M 272.688815 170.28 
L 275.066656 170.28 
L 275.066656 170.28 
L 272.688815 170.28 
z
" style="fill:#1f77b4;"/>
   </g>
   <g id="patch_94">
    <path clip-path="url(#p44d8f0ccf8)" d="M 275.066656 170.28 
L 277.444497 170.28 
L 277.444497 170.053693 
L 275.066656 170.053693 
z
" style="fill:#1f77b4;"/>
   </g>
   <g id="patch_95">
    <path clip-path="url(#p44d8f0ccf8)" d="M 277.444497 170.28 
L 279.822338 170.28 
L 279.822338 170.28 
L 277.444497 170.28 
z
" style="fill:#1f77b4;"/>
   </g>
   <g id="patch_96">
    <path clip-path="url(#p44d8f0ccf8)" d="M 279.822338 170.28 
L 282.200179 170.28 
L 282.200179 170.28 
L 279.822338 170.28 
z
" style="fill:#1f77b4;"/>
   </g>
   <g id="patch_97">
    <path clip-path="url(#p44d8f0ccf8)" d="M 282.200179 170.28 
L 284.578019 170.28 
L 284.578019 170.28 
L 282.200179 170.28 
z
" style="fill:#1f77b4;"/>
   </g>
   <g id="patch_98">
    <path clip-path="url(#p44d8f0ccf8)" d="M 284.578019 170.28 
L 286.95586 170.28 
L 286.95586 170.098955 
L 284.578019 170.098955 
z
" style="fill:#1f77b4;"/>
   </g>
   <g id="patch_99">
    <path clip-path="url(#p44d8f0ccf8)" d="M 286.95586 170.28 
L 289.333701 170.28 
L 289.333701 170.28 
L 286.95586 170.28 
z
" style="fill:#1f77b4;"/>
   </g>
   <g id="patch_100">
    <path clip-path="url(#p44d8f0ccf8)" d="M 289.333701 170.28 
L 291.711542 170.28 
L 291.711542 170.28 
L 289.333701 170.28 
z
" style="fill:#1f77b4;"/>
   </g>
   <g id="patch_101">
    <path clip-path="url(#p44d8f0ccf8)" d="M 291.711542 170.28 
L 294.089383 170.28 
L 294.089383 170.28 
L 291.711542 170.28 
z
" style="fill:#1f77b4;"/>
   </g>
   <g id="patch_102">
    <path clip-path="url(#p44d8f0ccf8)" d="M 294.089383 170.28 
L 296.467224 170.28 
L 296.467224 170.204564 
L 294.089383 170.204564 
z
" style="fill:#1f77b4;"/>
   </g>
   <g id="patch_103">
    <path clip-path="url(#p44d8f0ccf8)" d="M 296.467224 170.28 
L 298.845065 170.28 
L 298.845065 170.28 
L 296.467224 170.28 
z
" style="fill:#1f77b4;"/>
   </g>
   <g id="patch_104">
    <path clip-path="url(#p44d8f0ccf8)" d="M 298.845065 170.28 
L 301.222906 170.28 
L 301.222906 170.28 
L 298.845065 170.28 
z
" style="fill:#1f77b4;"/>
   </g>
   <g id="patch_105">
    <path clip-path="url(#p44d8f0ccf8)" d="M 301.222906 170.28 
L 303.600747 170.28 
L 303.600747 170.272456 
L 301.222906 170.272456 
z
" style="fill:#1f77b4;"/>
   </g>
   <g id="patch_106">
    <path clip-path="url(#p44d8f0ccf8)" d="M 303.600747 170.28 
L 305.978588 170.28 
L 305.978588 170.28 
L 303.600747 170.28 
z
" style="fill:#1f77b4;"/>
   </g>
   <g id="patch_107">
    <path clip-path="url(#p44d8f0ccf8)" d="M 305.978588 170.28 
L 308.356429 170.28 
L 308.356429 170.28 
L 305.978588 170.28 
z
" style="fill:#1f77b4;"/>
   </g>
   <g id="patch_108">
    <path clip-path="url(#p44d8f0ccf8)" d="M 308.356429 170.28 
L 310.734269 170.28 
L 310.734269 170.28 
L 308.356429 170.28 
z
" style="fill:#1f77b4;"/>
   </g>
   <g id="patch_109">
    <path clip-path="url(#p44d8f0ccf8)" d="M 310.734269 170.28 
L 313.11211 170.28 
L 313.11211 170.227195 
L 310.734269 170.227195 
z
" style="fill:#1f77b4;"/>
   </g>
   <g id="patch_110">
    <path clip-path="url(#p44d8f0ccf8)" d="M 313.11211 170.28 
L 315.489951 170.28 
L 315.489951 170.28 
L 313.11211 170.28 
z
" style="fill:#1f77b4;"/>
   </g>
   <g id="patch_111">
    <path clip-path="url(#p44d8f0ccf8)" d="M 315.489951 170.28 
L 317.867792 170.28 
L 317.867792 170.249826 
L 315.489951 170.249826 
z
" style="fill:#1f77b4;"/>
   </g>
   <g id="patch_112">
    <path clip-path="url(#p44d8f0ccf8)" d="M 317.867792 170.28 
L 320.245633 170.28 
L 320.245633 170.28 
L 317.867792 170.28 
z
" style="fill:#1f77b4;"/>
   </g>
   <g id="patch_113">
    <path clip-path="url(#p44d8f0ccf8)" d="M 320.245633 170.28 
L 322.623474 170.28 
L 322.623474 170.242282 
L 320.245633 170.242282 
z
" style="fill:#1f77b4;"/>
   </g>
   <g id="patch_114">
    <path clip-path="url(#p44d8f0ccf8)" d="M 322.623474 170.28 
L 325.001315 170.28 
L 325.001315 170.264913 
L 322.623474 170.264913 
z
" style="fill:#1f77b4;"/>
   </g>
   <g id="patch_115">
    <path clip-path="url(#p44d8f0ccf8)" d="M 325.001315 170.28 
L 327.379156 170.28 
L 327.379156 170.28 
L 325.001315 170.28 
z
" style="fill:#1f77b4;"/>
   </g>
   <g id="patch_116">
    <path clip-path="url(#p44d8f0ccf8)" d="M 327.379156 170.28 
L 329.756997 170.28 
L 329.756997 170.249826 
L 327.379156 170.249826 
z
" style="fill:#1f77b4;"/>
   </g>
   <g id="patch_117">
    <path clip-path="url(#p44d8f0ccf8)" d="M 329.756997 170.28 
L 332.134838 170.28 
L 332.134838 170.28 
L 329.756997 170.28 
z
" style="fill:#1f77b4;"/>
   </g>
   <g id="patch_118">
    <path clip-path="url(#p44d8f0ccf8)" d="M 332.134838 170.28 
L 334.512679 170.28 
L 334.512679 170.28 
L 332.134838 170.28 
z
" style="fill:#1f77b4;"/>
   </g>
   <g id="patch_119">
    <path clip-path="url(#p44d8f0ccf8)" d="M 334.512679 170.28 
L 336.890519 170.28 
L 336.890519 170.28 
L 334.512679 170.28 
z
" style="fill:#1f77b4;"/>
   </g>
   <g id="patch_120">
    <path clip-path="url(#p44d8f0ccf8)" d="M 336.890519 170.28 
L 339.26836 170.28 
L 339.26836 170.28 
L 336.890519 170.28 
z
" style="fill:#1f77b4;"/>
   </g>
   <g id="patch_121">
    <path clip-path="url(#p44d8f0ccf8)" d="M 339.26836 170.28 
L 341.646201 170.28 
L 341.646201 170.28 
L 339.26836 170.28 
z
" style="fill:#1f77b4;"/>
   </g>
   <g id="patch_122">
    <path clip-path="url(#p44d8f0ccf8)" d="M 341.646201 170.28 
L 344.024042 170.28 
L 344.024042 170.28 
L 341.646201 170.28 
z
" style="fill:#1f77b4;"/>
   </g>
   <g id="patch_123">
    <path clip-path="url(#p44d8f0ccf8)" d="M 344.024042 170.28 
L 346.401883 170.28 
L 346.401883 170.28 
L 344.024042 170.28 
z
" style="fill:#1f77b4;"/>
   </g>
   <g id="patch_124">
    <path clip-path="url(#p44d8f0ccf8)" d="M 346.401883 170.28 
L 348.779724 170.28 
L 348.779724 170.28 
L 346.401883 170.28 
z
" style="fill:#1f77b4;"/>
   </g>
   <g id="patch_125">
    <path clip-path="url(#p44d8f0ccf8)" d="M 348.779724 170.28 
L 351.157565 170.28 
L 351.157565 170.272456 
L 348.779724 170.272456 
z
" style="fill:#1f77b4;"/>
   </g>
   <g id="patch_126">
    <path clip-path="url(#p44d8f0ccf8)" d="M 351.157565 170.28 
L 353.535406 170.28 
L 353.535406 170.28 
L 351.157565 170.28 
z
" style="fill:#1f77b4;"/>
   </g>
   <g id="patch_127">
    <path clip-path="url(#p44d8f0ccf8)" d="M 353.535406 170.28 
L 355.913247 170.28 
L 355.913247 170.28 
L 353.535406 170.28 
z
" style="fill:#1f77b4;"/>
   </g>
   <g id="patch_128">
    <path clip-path="url(#p44d8f0ccf8)" d="M 355.913247 170.28 
L 358.291088 170.28 
L 358.291088 170.28 
L 355.913247 170.28 
z
" style="fill:#1f77b4;"/>
   </g>
   <g id="patch_129">
    <path clip-path="url(#p44d8f0ccf8)" d="M 358.291088 170.28 
L 360.668929 170.28 
L 360.668929 170.28 
L 358.291088 170.28 
z
" style="fill:#1f77b4;"/>
   </g>
   <g id="patch_130">
    <path clip-path="url(#p44d8f0ccf8)" d="M 360.668929 170.28 
L 363.046769 170.28 
L 363.046769 170.272456 
L 360.668929 170.272456 
z
" style="fill:#1f77b4;"/>
   </g>
   <g id="matplotlib.axis_1">
    <g id="xtick_1">
     <g id="text_1">
      <!-- $\mathdefault{0}$ -->
      <g transform="translate(54.729567 185.58218)scale(0.12 -0.12)">
       <defs>
        <path d="M 2688 2025 
C 2688 2416 2682 3080 2413 3591 
C 2176 4039 1798 4198 1466 4198 
C 1158 4198 768 4058 525 3597 
C 269 3118 243 2524 243 2025 
C 243 1661 250 1106 448 619 
C 723 -39 1216 -128 1466 -128 
C 1760 -128 2208 -7 2470 600 
C 2662 1042 2688 1559 2688 2025 
z
M 1466 -26 
C 1056 -26 813 325 723 812 
C 653 1188 653 1738 653 2096 
C 653 2588 653 2997 736 3387 
C 858 3929 1216 4096 1466 4096 
C 1728 4096 2067 3923 2189 3400 
C 2272 3036 2278 2607 2278 2096 
C 2278 1680 2278 1169 2202 792 
C 2067 95 1690 -26 1466 -26 
z
" id="CMR17-30" transform="scale(0.015625)"/>
       </defs>
       <use transform="scale(0.996264)" xlink:href="#CMR17-30"/>
      </g>
     </g>
    </g>
    <g id="xtick_2">
     <g id="text_2">
      <!-- $\mathdefault{150}$ -->
      <g transform="translate(228.518169 185.58218)scale(0.12 -0.12)">
       <defs>
        <path d="M 1702 4058 
C 1702 4192 1696 4192 1606 4192 
C 1357 3916 979 3827 621 3827 
C 602 3827 570 3827 563 3808 
C 557 3795 557 3782 557 3648 
C 755 3648 1088 3686 1344 3839 
L 1344 461 
C 1344 236 1331 160 781 160 
L 589 160 
L 589 0 
C 896 0 1216 0 1523 0 
C 1830 0 2150 0 2458 0 
L 2458 160 
L 2266 160 
C 1715 160 1702 230 1702 458 
L 1702 4058 
z
" id="CMR17-31" transform="scale(0.015625)"/>
        <path d="M 730 3692 
C 794 3666 1056 3584 1325 3584 
C 1920 3584 2246 3911 2432 4100 
C 2432 4157 2432 4192 2394 4192 
C 2387 4192 2374 4192 2323 4163 
C 2099 4058 1837 3973 1517 3973 
C 1325 3973 1037 3999 723 4139 
C 653 4171 640 4171 634 4171 
C 602 4171 595 4164 595 4037 
L 595 2203 
C 595 2089 595 2057 659 2057 
C 691 2057 704 2070 736 2114 
C 941 2401 1222 2522 1542 2522 
C 1766 2522 2246 2382 2246 1289 
C 2246 1085 2246 715 2054 421 
C 1894 159 1645 25 1370 25 
C 947 25 518 320 403 814 
C 429 807 480 795 506 795 
C 589 795 749 840 749 1038 
C 749 1210 627 1280 506 1280 
C 358 1280 262 1190 262 1011 
C 262 454 704 -128 1382 -128 
C 2042 -128 2669 440 2669 1264 
C 2669 2030 2170 2624 1549 2624 
C 1222 2624 947 2503 730 2274 
L 730 3692 
z
" id="CMR17-35" transform="scale(0.015625)"/>
       </defs>
       <use transform="scale(0.996264)" xlink:href="#CMR17-31"/>
       <use transform="translate(45.690477 0)scale(0.996264)" xlink:href="#CMR17-35"/>
       <use transform="translate(91.380954 0)scale(0.996264)" xlink:href="#CMR17-30"/>
      </g>
     </g>
    </g>
    <g id="xtick_3">
     <g id="text_3">
      <!-- $\mathdefault{200}$ -->
      <g transform="translate(288.3987 185.58218)scale(0.12 -0.12)">
       <defs>
        <path d="M 2669 989 
L 2554 989 
C 2490 536 2438 459 2413 420 
C 2381 369 1920 369 1830 369 
L 602 369 
C 832 619 1280 1072 1824 1597 
C 2214 1967 2669 2402 2669 3035 
C 2669 3790 2067 4224 1395 4224 
C 691 4224 262 3604 262 3030 
C 262 2780 448 2748 525 2748 
C 589 2748 781 2787 781 3010 
C 781 3207 614 3264 525 3264 
C 486 3264 448 3258 422 3245 
C 544 3790 915 4058 1306 4058 
C 1862 4058 2227 3617 2227 3035 
C 2227 2479 1901 2000 1536 1584 
L 262 146 
L 262 0 
L 2515 0 
L 2669 989 
z
" id="CMR17-32" transform="scale(0.015625)"/>
       </defs>
       <use transform="scale(0.996264)" xlink:href="#CMR17-32"/>
       <use transform="translate(45.690477 0)scale(0.996264)" xlink:href="#CMR17-30"/>
       <use transform="translate(91.380954 0)scale(0.996264)" xlink:href="#CMR17-30"/>
      </g>
     </g>
    </g>
    <g id="xtick_4">
     <g id="text_4">
      <!-- $\mathdefault{255}$ -->
      <g transform="translate(354.267284 185.58218)scale(0.12 -0.12)">
       <use transform="scale(0.996264)" xlink:href="#CMR17-32"/>
       <use transform="translate(45.690477 0)scale(0.996264)" xlink:href="#CMR17-35"/>
       <use transform="translate(91.380954 0)scale(0.996264)" xlink:href="#CMR17-35"/>
      </g>
     </g>
    </g>
   </g>
   <g id="matplotlib.axis_2">
    <g id="ytick_1">
     <g id="text_5">
      <!-- $\mathdefault{0}$ -->
      <g transform="translate(30.611961 174.43109)scale(0.12 -0.12)">
       <use transform="scale(0.996264)" xlink:href="#CMR17-30"/>
      </g>
     </g>
    </g>
    <g id="ytick_2">
     <g id="text_6">
      <!-- $\mathdefault{5000}$ -->
      <g transform="translate(13.05299 136.713307)scale(0.12 -0.12)">
       <use transform="scale(0.996264)" xlink:href="#CMR17-35"/>
       <use transform="translate(45.690477 0)scale(0.996264)" xlink:href="#CMR17-30"/>
       <use transform="translate(91.380954 0)scale(0.996264)" xlink:href="#CMR17-30"/>
       <use transform="translate(137.071431 0)scale(0.996264)" xlink:href="#CMR17-30"/>
      </g>
     </g>
    </g>
    <g id="ytick_3">
     <g id="text_7">
      <!-- $\mathdefault{10000}$ -->
      <g transform="translate(7.2 98.995524)scale(0.12 -0.12)">
       <use transform="scale(0.996264)" xlink:href="#CMR17-31"/>
       <use transform="translate(45.690477 0)scale(0.996264)" xlink:href="#CMR17-30"/>
       <use transform="translate(91.380954 0)scale(0.996264)" xlink:href="#CMR17-30"/>
       <use transform="translate(137.071431 0)scale(0.996264)" xlink:href="#CMR17-30"/>
       <use transform="translate(182.761908 0)scale(0.996264)" xlink:href="#CMR17-30"/>
      </g>
     </g>
    </g>
    <g id="ytick_4">
     <g id="text_8">
      <!-- $\mathdefault{15000}$ -->
      <g transform="translate(7.2 61.277742)scale(0.12 -0.12)">
       <use transform="scale(0.996264)" xlink:href="#CMR17-31"/>
       <use transform="translate(45.690477 0)scale(0.996264)" xlink:href="#CMR17-35"/>
       <use transform="translate(91.380954 0)scale(0.996264)" xlink:href="#CMR17-30"/>
       <use transform="translate(137.071431 0)scale(0.996264)" xlink:href="#CMR17-30"/>
       <use transform="translate(182.761908 0)scale(0.996264)" xlink:href="#CMR17-30"/>
      </g>
     </g>
    </g>
    <g id="ytick_5">
     <g id="text_9">
      <!-- $\mathdefault{20000}$ -->
      <g transform="translate(7.2 23.559959)scale(0.12 -0.12)">
       <use transform="scale(0.996264)" xlink:href="#CMR17-32"/>
       <use transform="translate(45.690477 0)scale(0.996264)" xlink:href="#CMR17-30"/>
       <use transform="translate(91.380954 0)scale(0.996264)" xlink:href="#CMR17-30"/>
       <use transform="translate(137.071431 0)scale(0.996264)" xlink:href="#CMR17-30"/>
       <use transform="translate(182.761908 0)scale(0.996264)" xlink:href="#CMR17-30"/>
      </g>
     </g>
    </g>
   </g>
   <g id="line2d_1">
    <path clip-path="url(#p44d8f0ccf8)" d="M 237.297655 170.28 
L 237.297655 7.2 
" style="fill:none;stroke:#ff0000;stroke-linecap:square;stroke-width:0.8;"/>
   </g>
   <g id="line2d_2">
    <path clip-path="url(#p44d8f0ccf8)" d="M 297.178186 170.28 
L 297.178186 7.2 
" style="fill:none;stroke:#ff0000;stroke-linecap:square;stroke-width:0.8;"/>
   </g>
   <g id="patch_131">
    <path d="M 43.464951 170.28 
L 43.464951 7.2 
" style="fill:none;stroke:#000000;stroke-linecap:square;stroke-linejoin:miter;stroke-width:0.8;"/>
   </g>
   <g id="patch_132">
    <path d="M 378.264951 170.28 
L 378.264951 7.2 
" style="fill:none;stroke:#000000;stroke-linecap:square;stroke-linejoin:miter;stroke-width:0.8;"/>
   </g>
   <g id="patch_133">
    <path d="M 43.464951 170.28 
L 378.264951 170.28 
" style="fill:none;stroke:#000000;stroke-linecap:square;stroke-linejoin:miter;stroke-width:0.8;"/>
   </g>
   <g id="patch_134">
    <path d="M 43.464951 7.2 
L 378.264951 7.2 
" style="fill:none;stroke:#000000;stroke-linecap:square;stroke-linejoin:miter;stroke-width:0.8;"/>
   </g>
  </g>
 </g>
 <defs>
  <clipPath id="p44d8f0ccf8">
   <rect height="163.08" width="334.8" x="43.464951" y="7.2"/>
  </clipPath>
 </defs>
</svg>
