<?xml version="1.0" encoding="utf-8" standalone="no"?>
<!DOCTYPE svg PUBLIC "-//W3C//DTD SVG 1.1//EN"
  "http://www.w3.org/Graphics/SVG/1.1/DTD/svg11.dtd">
<svg height="196.609934pt" version="1.1" viewBox="0 0 391.44926 196.609934" width="391.44926pt" xmlns="http://www.w3.org/2000/svg" xmlns:xlink="http://www.w3.org/1999/xlink">
 <metadata>
  <rdf:RDF xmlns:cc="http://creativecommons.org/ns#" xmlns:dc="http://purl.org/dc/elements/1.1/" xmlns:rdf="http://www.w3.org/1999/02/22-rdf-syntax-ns#">
   <cc:Work>
    <dc:type rdf:resource="http://purl.org/dc/dcmitype/StillImage"/>
    <dc:date>2021-10-09T21:04:32.091373</dc:date>
    <dc:format>image/svg+xml</dc:format>
    <dc:creator>
     <cc:Agent>
      <dc:title>Matplotlib v3.4.3, https://matplotlib.org/</dc:title>
     </cc:Agent>
    </dc:creator>
   </cc:Work>
  </rdf:RDF>
 </metadata>
 <defs>
  <style type="text/css">*{stroke-linecap:butt;stroke-linejoin:round;}</style>
 </defs>
 <g id="figure_1">
  <g id="patch_1">
   <path d="M 0 196.609934 
L 391.44926 196.609934 
L 391.44926 0 
L 0 0 
z
" style="fill:none;"/>
  </g>
  <g id="axes_1">
   <g id="patch_2">
    <path d="M 43.464951 171.783159 
L 378.264951 171.783159 
L 378.264951 8.703159 
L 43.464951 8.703159 
z
" style="fill:#ffffff;"/>
   </g>
   <g id="patch_3">
    <path clip-path="url(#p937924b28e)" d="M 58.683133 171.783159 
L 61.060974 171.783159 
L 61.060974 157.520748 
L 58.683133 157.520748 
z
" style="fill:#1f77b4;"/>
   </g>
   <g id="patch_4">
    <path clip-path="url(#p937924b28e)" d="M 61.060974 171.783159 
L 63.438815 171.783159 
L 63.438815 158.098303 
L 61.060974 158.098303 
z
" style="fill:#1f77b4;"/>
   </g>
   <g id="patch_5">
    <path clip-path="url(#p937924b28e)" d="M 63.438815 171.783159 
L 65.816656 171.783159 
L 65.816656 163.697382 
L 63.438815 163.697382 
z
" style="fill:#1f77b4;"/>
   </g>
   <g id="patch_6">
    <path clip-path="url(#p937924b28e)" d="M 65.816656 171.783159 
L 68.194497 171.783159 
L 68.194497 164.595802 
L 65.816656 164.595802 
z
" style="fill:#1f77b4;"/>
   </g>
   <g id="patch_7">
    <path clip-path="url(#p937924b28e)" d="M 68.194497 171.783159 
L 70.572338 171.783159 
L 70.572338 163.63321 
L 68.194497 163.63321 
z
" style="fill:#1f77b4;"/>
   </g>
   <g id="patch_8">
    <path clip-path="url(#p937924b28e)" d="M 70.572338 171.783159 
L 72.950179 171.783159 
L 72.950179 163.376518 
L 70.572338 163.376518 
z
" style="fill:#1f77b4;"/>
   </g>
   <g id="patch_9">
    <path clip-path="url(#p937924b28e)" d="M 72.950179 171.783159 
L 75.328019 171.783159 
L 75.328019 163.312345 
L 72.950179 163.312345 
z
" style="fill:#1f77b4;"/>
   </g>
   <g id="patch_10">
    <path clip-path="url(#p937924b28e)" d="M 75.328019 171.783159 
L 77.70586 171.783159 
L 77.70586 163.200043 
L 75.328019 163.200043 
z
" style="fill:#1f77b4;"/>
   </g>
   <g id="patch_11">
    <path clip-path="url(#p937924b28e)" d="M 77.70586 171.783159 
L 80.083701 171.783159 
L 80.083701 163.665296 
L 77.70586 163.665296 
z
" style="fill:#1f77b4;"/>
   </g>
   <g id="patch_12">
    <path clip-path="url(#p937924b28e)" d="M 80.083701 171.783159 
L 82.461542 171.783159 
L 82.461542 162.012846 
L 80.083701 162.012846 
z
" style="fill:#1f77b4;"/>
   </g>
   <g id="patch_13">
    <path clip-path="url(#p937924b28e)" d="M 82.461542 171.783159 
L 84.839383 171.783159 
L 84.839383 158.579599 
L 82.461542 158.579599 
z
" style="fill:#1f77b4;"/>
   </g>
   <g id="patch_14">
    <path clip-path="url(#p937924b28e)" d="M 84.839383 171.783159 
L 87.217224 171.783159 
L 87.217224 163.98616 
L 84.839383 163.98616 
z
" style="fill:#1f77b4;"/>
   </g>
   <g id="patch_15">
    <path clip-path="url(#p937924b28e)" d="M 87.217224 171.783159 
L 89.595065 171.783159 
L 89.595065 154.215847 
L 87.217224 154.215847 
z
" style="fill:#1f77b4;"/>
   </g>
   <g id="patch_16">
    <path clip-path="url(#p937924b28e)" d="M 89.595065 171.783159 
L 91.972906 171.783159 
L 91.972906 153.189082 
L 89.595065 153.189082 
z
" style="fill:#1f77b4;"/>
   </g>
   <g id="patch_17">
    <path clip-path="url(#p937924b28e)" d="M 91.972906 171.783159 
L 94.350747 171.783159 
L 94.350747 154.007285 
L 91.972906 154.007285 
z
" style="fill:#1f77b4;"/>
   </g>
   <g id="patch_18">
    <path clip-path="url(#p937924b28e)" d="M 94.350747 171.783159 
L 96.728588 171.783159 
L 96.728588 154.440452 
L 94.350747 154.440452 
z
" style="fill:#1f77b4;"/>
   </g>
   <g id="patch_19">
    <path clip-path="url(#p937924b28e)" d="M 96.728588 171.783159 
L 99.106429 171.783159 
L 99.106429 154.552754 
L 96.728588 154.552754 
z
" style="fill:#1f77b4;"/>
   </g>
   <g id="patch_20">
    <path clip-path="url(#p937924b28e)" d="M 99.106429 171.783159 
L 101.484269 171.783159 
L 101.484269 154.63297 
L 99.106429 154.63297 
z
" style="fill:#1f77b4;"/>
   </g>
   <g id="patch_21">
    <path clip-path="url(#p937924b28e)" d="M 101.484269 171.783159 
L 103.86211 171.783159 
L 103.86211 153.3816 
L 101.484269 153.3816 
z
" style="fill:#1f77b4;"/>
   </g>
   <g id="patch_22">
    <path clip-path="url(#p937924b28e)" d="M 103.86211 171.783159 
L 106.239951 171.783159 
L 106.239951 153.814767 
L 103.86211 153.814767 
z
" style="fill:#1f77b4;"/>
   </g>
   <g id="patch_23">
    <path clip-path="url(#p937924b28e)" d="M 106.239951 171.783159 
L 108.617792 171.783159 
L 108.617792 154.536711 
L 106.239951 154.536711 
z
" style="fill:#1f77b4;"/>
   </g>
   <g id="patch_24">
    <path clip-path="url(#p937924b28e)" d="M 108.617792 171.783159 
L 110.995633 171.783159 
L 110.995633 154.472538 
L 108.617792 154.472538 
z
" style="fill:#1f77b4;"/>
   </g>
   <g id="patch_25">
    <path clip-path="url(#p937924b28e)" d="M 110.995633 171.783159 
L 113.373474 171.783159 
L 113.373474 154.32815 
L 110.995633 154.32815 
z
" style="fill:#1f77b4;"/>
   </g>
   <g id="patch_26">
    <path clip-path="url(#p937924b28e)" d="M 113.373474 171.783159 
L 115.751315 171.783159 
L 115.751315 162.590401 
L 113.373474 162.590401 
z
" style="fill:#1f77b4;"/>
   </g>
   <g id="patch_27">
    <path clip-path="url(#p937924b28e)" d="M 115.751315 171.783159 
L 118.129156 171.783159 
L 118.129156 154.953835 
L 115.751315 154.953835 
z
" style="fill:#1f77b4;"/>
   </g>
   <g id="patch_28">
    <path clip-path="url(#p937924b28e)" d="M 118.129156 171.783159 
L 120.506997 171.783159 
L 120.506997 153.991242 
L 118.129156 153.991242 
z
" style="fill:#1f77b4;"/>
   </g>
   <g id="patch_29">
    <path clip-path="url(#p937924b28e)" d="M 120.506997 171.783159 
L 122.884838 171.783159 
L 122.884838 152.53131 
L 120.506997 152.53131 
z
" style="fill:#1f77b4;"/>
   </g>
   <g id="patch_30">
    <path clip-path="url(#p937924b28e)" d="M 122.884838 171.783159 
L 125.262679 171.783159 
L 125.262679 152.804045 
L 122.884838 152.804045 
z
" style="fill:#1f77b4;"/>
   </g>
   <g id="patch_31">
    <path clip-path="url(#p937924b28e)" d="M 125.262679 171.783159 
L 127.640519 171.783159 
L 127.640519 153.333471 
L 125.262679 153.333471 
z
" style="fill:#1f77b4;"/>
   </g>
   <g id="patch_32">
    <path clip-path="url(#p937924b28e)" d="M 127.640519 171.783159 
L 130.01836 171.783159 
L 130.01836 153.044693 
L 127.640519 153.044693 
z
" style="fill:#1f77b4;"/>
   </g>
   <g id="patch_33">
    <path clip-path="url(#p937924b28e)" d="M 130.01836 171.783159 
L 132.396201 171.783159 
L 132.396201 151.77728 
L 130.01836 151.77728 
z
" style="fill:#1f77b4;"/>
   </g>
   <g id="patch_34">
    <path clip-path="url(#p937924b28e)" d="M 132.396201 171.783159 
L 134.774042 171.783159 
L 134.774042 151.039292 
L 132.396201 151.039292 
z
" style="fill:#1f77b4;"/>
   </g>
   <g id="patch_35">
    <path clip-path="url(#p937924b28e)" d="M 134.774042 171.783159 
L 137.151883 171.783159 
L 137.151883 149.884181 
L 134.774042 149.884181 
z
" style="fill:#1f77b4;"/>
   </g>
   <g id="patch_36">
    <path clip-path="url(#p937924b28e)" d="M 137.151883 171.783159 
L 139.529724 171.783159 
L 139.529724 149.515187 
L 137.151883 149.515187 
z
" style="fill:#1f77b4;"/>
   </g>
   <g id="patch_37">
    <path clip-path="url(#p937924b28e)" d="M 139.529724 171.783159 
L 141.907565 171.783159 
L 141.907565 160.568957 
L 139.529724 160.568957 
z
" style="fill:#1f77b4;"/>
   </g>
   <g id="patch_38">
    <path clip-path="url(#p937924b28e)" d="M 141.907565 171.783159 
L 144.285406 171.783159 
L 144.285406 148.087342 
L 141.907565 148.087342 
z
" style="fill:#1f77b4;"/>
   </g>
   <g id="patch_39">
    <path clip-path="url(#p937924b28e)" d="M 144.285406 171.783159 
L 146.663247 171.783159 
L 146.663247 147.07662 
L 144.285406 147.07662 
z
" style="fill:#1f77b4;"/>
   </g>
   <g id="patch_40">
    <path clip-path="url(#p937924b28e)" d="M 146.663247 171.783159 
L 149.041088 171.783159 
L 149.041088 146.884102 
L 146.663247 146.884102 
z
" style="fill:#1f77b4;"/>
   </g>
   <g id="patch_41">
    <path clip-path="url(#p937924b28e)" d="M 149.041088 171.783159 
L 151.418929 171.783159 
L 151.418929 146.27446 
L 149.041088 146.27446 
z
" style="fill:#1f77b4;"/>
   </g>
   <g id="patch_42">
    <path clip-path="url(#p937924b28e)" d="M 151.418929 171.783159 
L 153.796769 171.783159 
L 153.796769 144.349275 
L 151.418929 144.349275 
z
" style="fill:#1f77b4;"/>
   </g>
   <g id="patch_43">
    <path clip-path="url(#p937924b28e)" d="M 153.796769 171.783159 
L 156.17461 171.783159 
L 156.17461 143.948195 
L 153.796769 143.948195 
z
" style="fill:#1f77b4;"/>
   </g>
   <g id="patch_44">
    <path clip-path="url(#p937924b28e)" d="M 156.17461 171.783159 
L 158.552451 171.783159 
L 158.552451 144.702225 
L 156.17461 144.702225 
z
" style="fill:#1f77b4;"/>
   </g>
   <g id="patch_45">
    <path clip-path="url(#p937924b28e)" d="M 158.552451 171.783159 
L 160.930292 171.783159 
L 160.930292 143.67546 
L 158.552451 143.67546 
z
" style="fill:#1f77b4;"/>
   </g>
   <g id="patch_46">
    <path clip-path="url(#p937924b28e)" d="M 160.930292 171.783159 
L 163.308133 171.783159 
L 163.308133 145.761077 
L 160.930292 145.761077 
z
" style="fill:#1f77b4;"/>
   </g>
   <g id="patch_47">
    <path clip-path="url(#p937924b28e)" d="M 163.308133 171.783159 
L 165.685974 171.783159 
L 165.685974 151.007206 
L 163.308133 151.007206 
z
" style="fill:#1f77b4;"/>
   </g>
   <g id="patch_48">
    <path clip-path="url(#p937924b28e)" d="M 165.685974 171.783159 
L 168.063815 171.783159 
L 168.063815 152.210446 
L 165.685974 152.210446 
z
" style="fill:#1f77b4;"/>
   </g>
   <g id="patch_49">
    <path clip-path="url(#p937924b28e)" d="M 168.063815 171.783159 
L 170.441656 171.783159 
L 170.441656 163.264216 
L 168.063815 163.264216 
z
" style="fill:#1f77b4;"/>
   </g>
   <g id="patch_50">
    <path clip-path="url(#p937924b28e)" d="M 170.441656 171.783159 
L 172.819497 171.783159 
L 172.819497 156.413766 
L 170.441656 156.413766 
z
" style="fill:#1f77b4;"/>
   </g>
   <g id="patch_51">
    <path clip-path="url(#p937924b28e)" d="M 172.819497 171.783159 
L 175.197338 171.783159 
L 175.197338 157.841612 
L 172.819497 157.841612 
z
" style="fill:#1f77b4;"/>
   </g>
   <g id="patch_52">
    <path clip-path="url(#p937924b28e)" d="M 175.197338 171.783159 
L 177.575179 171.783159 
L 177.575179 158.306865 
L 175.197338 158.306865 
z
" style="fill:#1f77b4;"/>
   </g>
   <g id="patch_53">
    <path clip-path="url(#p937924b28e)" d="M 177.575179 171.783159 
L 179.953019 171.783159 
L 179.953019 160.13579 
L 177.575179 160.13579 
z
" style="fill:#1f77b4;"/>
   </g>
   <g id="patch_54">
    <path clip-path="url(#p937924b28e)" d="M 179.953019 171.783159 
L 182.33086 171.783159 
L 182.33086 162.269537 
L 179.953019 162.269537 
z
" style="fill:#1f77b4;"/>
   </g>
   <g id="patch_55">
    <path clip-path="url(#p937924b28e)" d="M 182.33086 171.783159 
L 184.708701 171.783159 
L 184.708701 161.740111 
L 182.33086 161.740111 
z
" style="fill:#1f77b4;"/>
   </g>
   <g id="patch_56">
    <path clip-path="url(#p937924b28e)" d="M 184.708701 171.783159 
L 187.086542 171.783159 
L 187.086542 162.028889 
L 184.708701 162.028889 
z
" style="fill:#1f77b4;"/>
   </g>
   <g id="patch_57">
    <path clip-path="url(#p937924b28e)" d="M 187.086542 171.783159 
L 189.464383 171.783159 
L 189.464383 162.78292 
L 187.086542 162.78292 
z
" style="fill:#1f77b4;"/>
   </g>
   <g id="patch_58">
    <path clip-path="url(#p937924b28e)" d="M 189.464383 171.783159 
L 191.842224 171.783159 
L 191.842224 162.975438 
L 189.464383 162.975438 
z
" style="fill:#1f77b4;"/>
   </g>
   <g id="patch_59">
    <path clip-path="url(#p937924b28e)" d="M 191.842224 171.783159 
L 194.220065 171.783159 
L 194.220065 162.413926 
L 191.842224 162.413926 
z
" style="fill:#1f77b4;"/>
   </g>
   <g id="patch_60">
    <path clip-path="url(#p937924b28e)" d="M 194.220065 171.783159 
L 196.597906 171.783159 
L 196.597906 162.317667 
L 194.220065 162.317667 
z
" style="fill:#1f77b4;"/>
   </g>
   <g id="patch_61">
    <path clip-path="url(#p937924b28e)" d="M 196.597906 171.783159 
L 198.975747 171.783159 
L 198.975747 166.841851 
L 196.597906 166.841851 
z
" style="fill:#1f77b4;"/>
   </g>
   <g id="patch_62">
    <path clip-path="url(#p937924b28e)" d="M 198.975747 171.783159 
L 201.353588 171.783159 
L 201.353588 163.456734 
L 198.975747 163.456734 
z
" style="fill:#1f77b4;"/>
   </g>
   <g id="patch_63">
    <path clip-path="url(#p937924b28e)" d="M 201.353588 171.783159 
L 203.731429 171.783159 
L 203.731429 162.831049 
L 201.353588 162.831049 
z
" style="fill:#1f77b4;"/>
   </g>
   <g id="patch_64">
    <path clip-path="url(#p937924b28e)" d="M 203.731429 171.783159 
L 206.109269 171.783159 
L 206.109269 163.039611 
L 203.731429 163.039611 
z
" style="fill:#1f77b4;"/>
   </g>
   <g id="patch_65">
    <path clip-path="url(#p937924b28e)" d="M 206.109269 171.783159 
L 208.48711 171.783159 
L 208.48711 162.702704 
L 206.109269 162.702704 
z
" style="fill:#1f77b4;"/>
   </g>
   <g id="patch_66">
    <path clip-path="url(#p937924b28e)" d="M 208.48711 171.783159 
L 210.864951 171.783159 
L 210.864951 163.58508 
L 208.48711 163.58508 
z
" style="fill:#1f77b4;"/>
   </g>
   <g id="patch_67">
    <path clip-path="url(#p937924b28e)" d="M 210.864951 171.783159 
L 213.242792 171.783159 
L 213.242792 163.729469 
L 210.864951 163.729469 
z
" style="fill:#1f77b4;"/>
   </g>
   <g id="patch_68">
    <path clip-path="url(#p937924b28e)" d="M 213.242792 171.783159 
L 215.620633 171.783159 
L 215.620633 163.857814 
L 213.242792 163.857814 
z
" style="fill:#1f77b4;"/>
   </g>
   <g id="patch_69">
    <path clip-path="url(#p937924b28e)" d="M 215.620633 171.783159 
L 217.998474 171.783159 
L 217.998474 164.339111 
L 215.620633 164.339111 
z
" style="fill:#1f77b4;"/>
   </g>
   <g id="patch_70">
    <path clip-path="url(#p937924b28e)" d="M 217.998474 171.783159 
L 220.376315 171.783159 
L 220.376315 163.921987 
L 217.998474 163.921987 
z
" style="fill:#1f77b4;"/>
   </g>
   <g id="patch_71">
    <path clip-path="url(#p937924b28e)" d="M 220.376315 171.783159 
L 222.754156 171.783159 
L 222.754156 163.681339 
L 220.376315 163.681339 
z
" style="fill:#1f77b4;"/>
   </g>
   <g id="patch_72">
    <path clip-path="url(#p937924b28e)" d="M 222.754156 171.783159 
L 225.131997 171.783159 
L 225.131997 168.109264 
L 222.754156 168.109264 
z
" style="fill:#1f77b4;"/>
   </g>
   <g id="patch_73">
    <path clip-path="url(#p937924b28e)" d="M 225.131997 171.783159 
L 227.509838 171.783159 
L 227.509838 164.050333 
L 225.131997 164.050333 
z
" style="fill:#1f77b4;"/>
   </g>
   <g id="patch_74">
    <path clip-path="url(#p937924b28e)" d="M 227.509838 171.783159 
L 229.887679 171.783159 
L 229.887679 163.665296 
L 227.509838 163.665296 
z
" style="fill:#1f77b4;"/>
   </g>
   <g id="patch_75">
    <path clip-path="url(#p937924b28e)" d="M 229.887679 171.783159 
L 232.265519 171.783159 
L 232.265519 163.63321 
L 229.887679 163.63321 
z
" style="fill:#1f77b4;"/>
   </g>
   <g id="patch_76">
    <path clip-path="url(#p937924b28e)" d="M 232.265519 171.783159 
L 234.64336 171.783159 
L 234.64336 163.232129 
L 232.265519 163.232129 
z
" style="fill:#1f77b4;"/>
   </g>
   <g id="patch_77">
    <path clip-path="url(#p937924b28e)" d="M 234.64336 171.783159 
L 237.021201 171.783159 
L 237.021201 163.071697 
L 234.64336 163.071697 
z
" style="fill:#1f77b4;"/>
   </g>
   <g id="patch_78">
    <path clip-path="url(#p937924b28e)" d="M 237.021201 171.783159 
L 239.399042 171.783159 
L 239.399042 163.761555 
L 237.021201 163.761555 
z
" style="fill:#1f77b4;"/>
   </g>
   <g id="patch_79">
    <path clip-path="url(#p937924b28e)" d="M 239.399042 171.783159 
L 241.776883 171.783159 
L 241.776883 163.408605 
L 239.399042 163.408605 
z
" style="fill:#1f77b4;"/>
   </g>
   <g id="patch_80">
    <path clip-path="url(#p937924b28e)" d="M 241.776883 171.783159 
L 244.154724 171.783159 
L 244.154724 162.33371 
L 241.776883 162.33371 
z
" style="fill:#1f77b4;"/>
   </g>
   <g id="patch_81">
    <path clip-path="url(#p937924b28e)" d="M 244.154724 171.783159 
L 246.532565 171.783159 
L 246.532565 161.178599 
L 244.154724 161.178599 
z
" style="fill:#1f77b4;"/>
   </g>
   <g id="patch_82">
    <path clip-path="url(#p937924b28e)" d="M 246.532565 171.783159 
L 248.910406 171.783159 
L 248.910406 159.991402 
L 246.532565 159.991402 
z
" style="fill:#1f77b4;"/>
   </g>
   <g id="patch_83">
    <path clip-path="url(#p937924b28e)" d="M 248.910406 171.783159 
L 251.288247 171.783159 
L 251.288247 159.622408 
L 248.910406 159.622408 
z
" style="fill:#1f77b4;"/>
   </g>
   <g id="patch_84">
    <path clip-path="url(#p937924b28e)" d="M 251.288247 171.783159 
L 253.666088 171.783159 
L 253.666088 164.996882 
L 251.288247 164.996882 
z
" style="fill:#1f77b4;"/>
   </g>
   <g id="patch_85">
    <path clip-path="url(#p937924b28e)" d="M 253.666088 171.783159 
L 256.043929 171.783159 
L 256.043929 157.504704 
L 253.666088 157.504704 
z
" style="fill:#1f77b4;"/>
   </g>
   <g id="patch_86">
    <path clip-path="url(#p937924b28e)" d="M 256.043929 171.783159 
L 258.421769 171.783159 
L 258.421769 155.53139 
L 256.043929 155.53139 
z
" style="fill:#1f77b4;"/>
   </g>
   <g id="patch_87">
    <path clip-path="url(#p937924b28e)" d="M 258.421769 171.783159 
L 260.79961 171.783159 
L 260.79961 154.151674 
L 258.421769 154.151674 
z
" style="fill:#1f77b4;"/>
   </g>
   <g id="patch_88">
    <path clip-path="url(#p937924b28e)" d="M 260.79961 171.783159 
L 263.177451 171.783159 
L 263.177451 150.044613 
L 260.79961 150.044613 
z
" style="fill:#1f77b4;"/>
   </g>
   <g id="patch_89">
    <path clip-path="url(#p937924b28e)" d="M 263.177451 171.783159 
L 265.555292 171.783159 
L 265.555292 148.344033 
L 263.177451 148.344033 
z
" style="fill:#1f77b4;"/>
   </g>
   <g id="patch_90">
    <path clip-path="url(#p937924b28e)" d="M 265.555292 171.783159 
L 267.933133 171.783159 
L 267.933133 146.081941 
L 265.555292 146.081941 
z
" style="fill:#1f77b4;"/>
   </g>
   <g id="patch_91">
    <path clip-path="url(#p937924b28e)" d="M 267.933133 171.783159 
L 270.310974 171.783159 
L 270.310974 142.568479 
L 267.933133 142.568479 
z
" style="fill:#1f77b4;"/>
   </g>
   <g id="patch_92">
    <path clip-path="url(#p937924b28e)" d="M 270.310974 171.783159 
L 272.688815 171.783159 
L 272.688815 138.942714 
L 270.310974 138.942714 
z
" style="fill:#1f77b4;"/>
   </g>
   <g id="patch_93">
    <path clip-path="url(#p937924b28e)" d="M 272.688815 171.783159 
L 275.066656 171.783159 
L 275.066656 140.37056 
L 272.688815 140.37056 
z
" style="fill:#1f77b4;"/>
   </g>
   <g id="patch_94">
    <path clip-path="url(#p937924b28e)" d="M 275.066656 171.783159 
L 277.444497 171.783159 
L 277.444497 145.42417 
L 275.066656 145.42417 
z
" style="fill:#1f77b4;"/>
   </g>
   <g id="patch_95">
    <path clip-path="url(#p937924b28e)" d="M 277.444497 171.783159 
L 279.822338 171.783159 
L 279.822338 158.274778 
L 277.444497 158.274778 
z
" style="fill:#1f77b4;"/>
   </g>
   <g id="patch_96">
    <path clip-path="url(#p937924b28e)" d="M 279.822338 171.783159 
L 282.200179 171.783159 
L 282.200179 168.478258 
L 279.822338 168.478258 
z
" style="fill:#1f77b4;"/>
   </g>
   <g id="patch_97">
    <path clip-path="url(#p937924b28e)" d="M 282.200179 171.783159 
L 284.578019 171.783159 
L 284.578019 164.547672 
L 282.200179 164.547672 
z
" style="fill:#1f77b4;"/>
   </g>
   <g id="patch_98">
    <path clip-path="url(#p937924b28e)" d="M 284.578019 171.783159 
L 286.95586 171.783159 
L 286.95586 159.814926 
L 284.578019 159.814926 
z
" style="fill:#1f77b4;"/>
   </g>
   <g id="patch_99">
    <path clip-path="url(#p937924b28e)" d="M 286.95586 171.783159 
L 289.333701 171.783159 
L 289.333701 147.782521 
L 286.95586 147.782521 
z
" style="fill:#1f77b4;"/>
   </g>
   <g id="patch_100">
    <path clip-path="url(#p937924b28e)" d="M 289.333701 171.783159 
L 291.711542 171.783159 
L 291.711542 160.039531 
L 289.333701 160.039531 
z
" style="fill:#1f77b4;"/>
   </g>
   <g id="patch_101">
    <path clip-path="url(#p937924b28e)" d="M 291.711542 171.783159 
L 294.089383 171.783159 
L 294.089383 169.168116 
L 291.711542 169.168116 
z
" style="fill:#1f77b4;"/>
   </g>
   <g id="patch_102">
    <path clip-path="url(#p937924b28e)" d="M 294.089383 171.783159 
L 296.467224 171.783159 
L 296.467224 170.33927 
L 294.089383 170.33927 
z
" style="fill:#1f77b4;"/>
   </g>
   <g id="patch_103">
    <path clip-path="url(#p937924b28e)" d="M 296.467224 171.783159 
L 298.845065 171.783159 
L 298.845065 170.579918 
L 296.467224 170.579918 
z
" style="fill:#1f77b4;"/>
   </g>
   <g id="patch_104">
    <path clip-path="url(#p937924b28e)" d="M 298.845065 171.783159 
L 301.222906 171.783159 
L 301.222906 171.14143 
L 298.845065 171.14143 
z
" style="fill:#1f77b4;"/>
   </g>
   <g id="patch_105">
    <path clip-path="url(#p937924b28e)" d="M 301.222906 171.783159 
L 303.600747 171.783159 
L 303.600747 171.301862 
L 301.222906 171.301862 
z
" style="fill:#1f77b4;"/>
   </g>
   <g id="patch_106">
    <path clip-path="url(#p937924b28e)" d="M 303.600747 171.783159 
L 305.978588 171.783159 
L 305.978588 171.285819 
L 303.600747 171.285819 
z
" style="fill:#1f77b4;"/>
   </g>
   <g id="patch_107">
    <path clip-path="url(#p937924b28e)" d="M 305.978588 171.783159 
L 308.356429 171.783159 
L 308.356429 171.542511 
L 305.978588 171.542511 
z
" style="fill:#1f77b4;"/>
   </g>
   <g id="patch_108">
    <path clip-path="url(#p937924b28e)" d="M 308.356429 171.783159 
L 310.734269 171.783159 
L 310.734269 171.510424 
L 308.356429 171.510424 
z
" style="fill:#1f77b4;"/>
   </g>
   <g id="patch_109">
    <path clip-path="url(#p937924b28e)" d="M 310.734269 171.783159 
L 313.11211 171.783159 
L 313.11211 171.462294 
L 310.734269 171.462294 
z
" style="fill:#1f77b4;"/>
   </g>
   <g id="patch_110">
    <path clip-path="url(#p937924b28e)" d="M 313.11211 171.783159 
L 315.489951 171.783159 
L 315.489951 171.349992 
L 313.11211 171.349992 
z
" style="fill:#1f77b4;"/>
   </g>
   <g id="patch_111">
    <path clip-path="url(#p937924b28e)" d="M 315.489951 171.783159 
L 317.867792 171.783159 
L 317.867792 171.366035 
L 315.489951 171.366035 
z
" style="fill:#1f77b4;"/>
   </g>
   <g id="patch_112">
    <path clip-path="url(#p937924b28e)" d="M 317.867792 171.783159 
L 320.245633 171.783159 
L 320.245633 171.285819 
L 317.867792 171.285819 
z
" style="fill:#1f77b4;"/>
   </g>
   <g id="patch_113">
    <path clip-path="url(#p937924b28e)" d="M 320.245633 171.783159 
L 322.623474 171.783159 
L 322.623474 170.900782 
L 320.245633 170.900782 
z
" style="fill:#1f77b4;"/>
   </g>
   <g id="patch_114">
    <path clip-path="url(#p937924b28e)" d="M 322.623474 171.783159 
L 325.001315 171.783159 
L 325.001315 166.071777 
L 322.623474 166.071777 
z
" style="fill:#1f77b4;"/>
   </g>
   <g id="patch_115">
    <path clip-path="url(#p937924b28e)" d="M 325.001315 171.783159 
L 327.379156 171.783159 
L 327.379156 149.787922 
L 325.001315 149.787922 
z
" style="fill:#1f77b4;"/>
   </g>
   <g id="patch_116">
    <path clip-path="url(#p937924b28e)" d="M 327.379156 171.783159 
L 329.756997 171.783159 
L 329.756997 155.547433 
L 327.379156 155.547433 
z
" style="fill:#1f77b4;"/>
   </g>
   <g id="patch_117">
    <path clip-path="url(#p937924b28e)" d="M 329.756997 171.783159 
L 332.134838 171.783159 
L 332.134838 159.317587 
L 329.756997 159.317587 
z
" style="fill:#1f77b4;"/>
   </g>
   <g id="patch_118">
    <path clip-path="url(#p937924b28e)" d="M 332.134838 171.783159 
L 334.512679 171.783159 
L 334.512679 156.205205 
L 332.134838 156.205205 
z
" style="fill:#1f77b4;"/>
   </g>
   <g id="patch_119">
    <path clip-path="url(#p937924b28e)" d="M 334.512679 171.783159 
L 336.890519 171.783159 
L 336.890519 160.729389 
L 334.512679 160.729389 
z
" style="fill:#1f77b4;"/>
   </g>
   <g id="patch_120">
    <path clip-path="url(#p937924b28e)" d="M 336.890519 171.783159 
L 339.26836 171.783159 
L 339.26836 134.41853 
L 336.890519 134.41853 
z
" style="fill:#1f77b4;"/>
   </g>
   <g id="patch_121">
    <path clip-path="url(#p937924b28e)" d="M 339.26836 171.783159 
L 341.646201 171.783159 
L 341.646201 118.086545 
L 339.26836 118.086545 
z
" style="fill:#1f77b4;"/>
   </g>
   <g id="patch_122">
    <path clip-path="url(#p937924b28e)" d="M 341.646201 171.783159 
L 344.024042 171.783159 
L 344.024042 91.117914 
L 341.646201 91.117914 
z
" style="fill:#1f77b4;"/>
   </g>
   <g id="patch_123">
    <path clip-path="url(#p937924b28e)" d="M 344.024042 171.783159 
L 346.401883 171.783159 
L 346.401883 49.582052 
L 344.024042 49.582052 
z
" style="fill:#1f77b4;"/>
   </g>
   <g id="patch_124">
    <path clip-path="url(#p937924b28e)" d="M 346.401883 171.783159 
L 348.779724 171.783159 
L 348.779724 16.468873 
L 346.401883 16.468873 
z
" style="fill:#1f77b4;"/>
   </g>
   <g id="patch_125">
    <path clip-path="url(#p937924b28e)" d="M 348.779724 171.783159 
L 351.157565 171.783159 
L 351.157565 89.305032 
L 348.779724 89.305032 
z
" style="fill:#1f77b4;"/>
   </g>
   <g id="patch_126">
    <path clip-path="url(#p937924b28e)" d="M 351.157565 171.783159 
L 353.535406 171.783159 
L 353.535406 158.93255 
L 351.157565 158.93255 
z
" style="fill:#1f77b4;"/>
   </g>
   <g id="patch_127">
    <path clip-path="url(#p937924b28e)" d="M 353.535406 171.783159 
L 355.913247 171.783159 
L 355.913247 170.644091 
L 353.535406 170.644091 
z
" style="fill:#1f77b4;"/>
   </g>
   <g id="patch_128">
    <path clip-path="url(#p937924b28e)" d="M 355.913247 171.783159 
L 358.291088 171.783159 
L 358.291088 171.494381 
L 355.913247 171.494381 
z
" style="fill:#1f77b4;"/>
   </g>
   <g id="patch_129">
    <path clip-path="url(#p937924b28e)" d="M 358.291088 171.783159 
L 360.668929 171.783159 
L 360.668929 171.654813 
L 358.291088 171.654813 
z
" style="fill:#1f77b4;"/>
   </g>
   <g id="patch_130">
    <path clip-path="url(#p937924b28e)" d="M 360.668929 171.783159 
L 363.046769 171.783159 
L 363.046769 171.751072 
L 360.668929 171.751072 
z
" style="fill:#1f77b4;"/>
   </g>
   <g id="matplotlib.axis_1">
    <g id="xtick_1">
     <g id="text_1">
      <!-- $\mathdefault{0}$ -->
      <g transform="translate(55.756638 187.085338)scale(0.12 -0.12)">
       <defs>
        <path d="M 2688 2025 
C 2688 2416 2682 3080 2413 3591 
C 2176 4039 1798 4198 1466 4198 
C 1158 4198 768 4058 525 3597 
C 269 3118 243 2524 243 2025 
C 243 1661 250 1106 448 619 
C 723 -39 1216 -128 1466 -128 
C 1760 -128 2208 -7 2470 600 
C 2662 1042 2688 1559 2688 2025 
z
M 1466 -26 
C 1056 -26 813 325 723 812 
C 653 1188 653 1738 653 2096 
C 653 2588 653 2997 736 3387 
C 858 3929 1216 4096 1466 4096 
C 1728 4096 2067 3923 2189 3400 
C 2272 3036 2278 2607 2278 2096 
C 2278 1680 2278 1169 2202 792 
C 2067 95 1690 -26 1466 -26 
z
" id="CMR17-30" transform="scale(0.015625)"/>
       </defs>
       <use transform="scale(0.996264)" xlink:href="#CMR17-30"/>
      </g>
     </g>
    </g>
    <g id="xtick_2">
     <g id="text_2">
      <!-- $\mathdefault{150}$ -->
      <g transform="translate(236.248731 187.085338)scale(0.12 -0.12)">
       <defs>
        <path d="M 1702 4058 
C 1702 4192 1696 4192 1606 4192 
C 1357 3916 979 3827 621 3827 
C 602 3827 570 3827 563 3808 
C 557 3795 557 3782 557 3648 
C 755 3648 1088 3686 1344 3839 
L 1344 461 
C 1344 236 1331 160 781 160 
L 589 160 
L 589 0 
C 896 0 1216 0 1523 0 
C 1830 0 2150 0 2458 0 
L 2458 160 
L 2266 160 
C 1715 160 1702 230 1702 458 
L 1702 4058 
z
" id="CMR17-31" transform="scale(0.015625)"/>
        <path d="M 730 3692 
C 794 3666 1056 3584 1325 3584 
C 1920 3584 2246 3911 2432 4100 
C 2432 4157 2432 4192 2394 4192 
C 2387 4192 2374 4192 2323 4163 
C 2099 4058 1837 3973 1517 3973 
C 1325 3973 1037 3999 723 4139 
C 653 4171 640 4171 634 4171 
C 602 4171 595 4164 595 4037 
L 595 2203 
C 595 2089 595 2057 659 2057 
C 691 2057 704 2070 736 2114 
C 941 2401 1222 2522 1542 2522 
C 1766 2522 2246 2382 2246 1289 
C 2246 1085 2246 715 2054 421 
C 1894 159 1645 25 1370 25 
C 947 25 518 320 403 814 
C 429 807 480 795 506 795 
C 589 795 749 840 749 1038 
C 749 1210 627 1280 506 1280 
C 358 1280 262 1190 262 1011 
C 262 454 704 -128 1382 -128 
C 2042 -128 2669 440 2669 1264 
C 2669 2030 2170 2624 1549 2624 
C 1222 2624 947 2503 730 2274 
L 730 3692 
z
" id="CMR17-35" transform="scale(0.015625)"/>
       </defs>
       <use transform="scale(0.996264)" xlink:href="#CMR17-31"/>
       <use transform="translate(45.690477 0)scale(0.996264)" xlink:href="#CMR17-35"/>
       <use transform="translate(91.380954 0)scale(0.996264)" xlink:href="#CMR17-30"/>
      </g>
     </g>
    </g>
    <g id="xtick_3">
     <g id="text_3">
      <!-- $\mathdefault{200}$ -->
      <g transform="translate(298.363759 187.085338)scale(0.12 -0.12)">
       <defs>
        <path d="M 2669 989 
L 2554 989 
C 2490 536 2438 459 2413 420 
C 2381 369 1920 369 1830 369 
L 602 369 
C 832 619 1280 1072 1824 1597 
C 2214 1967 2669 2402 2669 3035 
C 2669 3790 2067 4224 1395 4224 
C 691 4224 262 3604 262 3030 
C 262 2780 448 2748 525 2748 
C 589 2748 781 2787 781 3010 
C 781 3207 614 3264 525 3264 
C 486 3264 448 3258 422 3245 
C 544 3790 915 4058 1306 4058 
C 1862 4058 2227 3617 2227 3035 
C 2227 2479 1901 2000 1536 1584 
L 262 146 
L 262 0 
L 2515 0 
L 2669 989 
z
" id="CMR17-32" transform="scale(0.015625)"/>
       </defs>
       <use transform="scale(0.996264)" xlink:href="#CMR17-32"/>
       <use transform="translate(45.690477 0)scale(0.996264)" xlink:href="#CMR17-30"/>
       <use transform="translate(91.380954 0)scale(0.996264)" xlink:href="#CMR17-30"/>
      </g>
     </g>
    </g>
    <g id="xtick_4">
     <g id="text_4">
      <!-- $\mathdefault{255}$ -->
      <g transform="translate(366.69029 187.085338)scale(0.12 -0.12)">
       <use transform="scale(0.996264)" xlink:href="#CMR17-32"/>
       <use transform="translate(45.690477 0)scale(0.996264)" xlink:href="#CMR17-35"/>
       <use transform="translate(91.380954 0)scale(0.996264)" xlink:href="#CMR17-35"/>
      </g>
     </g>
    </g>
   </g>
   <g id="matplotlib.axis_2">
    <g id="ytick_1">
     <g id="text_5">
      <!-- $\mathdefault{0}$ -->
      <g transform="translate(30.611961 175.934249)scale(0.12 -0.12)">
       <use transform="scale(0.996264)" xlink:href="#CMR17-30"/>
      </g>
     </g>
    </g>
    <g id="ytick_2">
     <g id="text_6">
      <!-- $\mathdefault{2000}$ -->
      <g transform="translate(13.05299 143.847835)scale(0.12 -0.12)">
       <use transform="scale(0.996264)" xlink:href="#CMR17-32"/>
       <use transform="translate(45.690477 0)scale(0.996264)" xlink:href="#CMR17-30"/>
       <use transform="translate(91.380954 0)scale(0.996264)" xlink:href="#CMR17-30"/>
       <use transform="translate(137.071431 0)scale(0.996264)" xlink:href="#CMR17-30"/>
      </g>
     </g>
    </g>
    <g id="ytick_3">
     <g id="text_7">
      <!-- $\mathdefault{4000}$ -->
      <g transform="translate(13.05299 111.761421)scale(0.12 -0.12)">
       <defs>
        <path d="M 2150 4122 
C 2150 4256 2144 4256 2029 4256 
L 128 1254 
L 128 1088 
L 1779 1088 
L 1779 457 
C 1779 224 1766 160 1318 160 
L 1197 160 
L 1197 0 
C 1402 0 1747 0 1965 0 
C 2182 0 2528 0 2733 0 
L 2733 160 
L 2611 160 
C 2163 160 2150 224 2150 457 
L 2150 1088 
L 2803 1088 
L 2803 1254 
L 2150 1254 
L 2150 4122 
z
M 1798 3703 
L 1798 1254 
L 256 1254 
L 1798 3703 
z
" id="CMR17-34" transform="scale(0.015625)"/>
       </defs>
       <use transform="scale(0.996264)" xlink:href="#CMR17-34"/>
       <use transform="translate(45.690477 0)scale(0.996264)" xlink:href="#CMR17-30"/>
       <use transform="translate(91.380954 0)scale(0.996264)" xlink:href="#CMR17-30"/>
       <use transform="translate(137.071431 0)scale(0.996264)" xlink:href="#CMR17-30"/>
      </g>
     </g>
    </g>
    <g id="ytick_4">
     <g id="text_8">
      <!-- $\mathdefault{6000}$ -->
      <g transform="translate(13.05299 79.675007)scale(0.12 -0.12)">
       <defs>
        <path d="M 678 2176 
C 678 3690 1395 4032 1811 4032 
C 1946 4032 2272 4009 2400 3776 
C 2298 3776 2106 3776 2106 3553 
C 2106 3381 2246 3323 2336 3323 
C 2394 3323 2566 3348 2566 3560 
C 2566 3954 2246 4179 1805 4179 
C 1043 4179 243 3390 243 1984 
C 243 253 966 -128 1478 -128 
C 2099 -128 2688 427 2688 1283 
C 2688 2081 2170 2662 1517 2662 
C 1126 2662 838 2407 678 1960 
L 678 2176 
z
M 1478 25 
C 691 25 691 1200 691 1436 
C 691 1896 909 2560 1504 2560 
C 1613 2560 1926 2560 2138 2120 
C 2253 1870 2253 1609 2253 1289 
C 2253 944 2253 690 2118 434 
C 1978 171 1773 25 1478 25 
z
" id="CMR17-36" transform="scale(0.015625)"/>
       </defs>
       <use transform="scale(0.996264)" xlink:href="#CMR17-36"/>
       <use transform="translate(45.690477 0)scale(0.996264)" xlink:href="#CMR17-30"/>
       <use transform="translate(91.380954 0)scale(0.996264)" xlink:href="#CMR17-30"/>
       <use transform="translate(137.071431 0)scale(0.996264)" xlink:href="#CMR17-30"/>
      </g>
     </g>
    </g>
    <g id="ytick_5">
     <g id="text_9">
      <!-- $\mathdefault{8000}$ -->
      <g transform="translate(13.05299 47.588594)scale(0.12 -0.12)">
       <defs>
        <path d="M 1741 2264 
C 2144 2467 2554 2773 2554 3263 
C 2554 3841 1990 4179 1472 4179 
C 890 4179 378 3759 378 3180 
C 378 3021 416 2747 666 2505 
C 730 2442 998 2251 1171 2130 
C 883 1983 211 1634 211 934 
C 211 279 838 -128 1459 -128 
C 2144 -128 2720 362 2720 1010 
C 2720 1590 2330 1857 2074 2029 
L 1741 2264 
z
M 902 2822 
C 851 2854 595 3051 595 3351 
C 595 3739 998 4032 1459 4032 
C 1965 4032 2336 3676 2336 3262 
C 2336 2669 1670 2331 1638 2331 
C 1632 2331 1626 2331 1574 2370 
L 902 2822 
z
M 2080 1519 
C 2176 1449 2483 1240 2483 851 
C 2483 381 2010 25 1472 25 
C 890 25 448 438 448 940 
C 448 1443 838 1862 1280 2060 
L 2080 1519 
z
" id="CMR17-38" transform="scale(0.015625)"/>
       </defs>
       <use transform="scale(0.996264)" xlink:href="#CMR17-38"/>
       <use transform="translate(45.690477 0)scale(0.996264)" xlink:href="#CMR17-30"/>
       <use transform="translate(91.380954 0)scale(0.996264)" xlink:href="#CMR17-30"/>
       <use transform="translate(137.071431 0)scale(0.996264)" xlink:href="#CMR17-30"/>
      </g>
     </g>
    </g>
    <g id="ytick_6">
     <g id="text_10">
      <!-- $\mathdefault{10000}$ -->
      <g transform="translate(7.2 15.50218)scale(0.12 -0.12)">
       <use transform="scale(0.996264)" xlink:href="#CMR17-31"/>
       <use transform="translate(45.690477 0)scale(0.996264)" xlink:href="#CMR17-30"/>
       <use transform="translate(91.380954 0)scale(0.996264)" xlink:href="#CMR17-30"/>
       <use transform="translate(137.071431 0)scale(0.996264)" xlink:href="#CMR17-30"/>
       <use transform="translate(182.761908 0)scale(0.996264)" xlink:href="#CMR17-30"/>
      </g>
     </g>
    </g>
   </g>
   <g id="line2d_1">
    <path clip-path="url(#p937924b28e)" d="M 245.028217 171.783159 
L 245.028217 8.703159 
" style="fill:none;stroke:#ff0000;stroke-linecap:square;stroke-width:0.8;"/>
   </g>
   <g id="line2d_2">
    <path clip-path="url(#p937924b28e)" d="M 307.143244 171.783159 
L 307.143244 8.703159 
" style="fill:none;stroke:#ff0000;stroke-linecap:square;stroke-width:0.8;"/>
   </g>
   <g id="patch_131">
    <path d="M 43.464951 171.783159 
L 43.464951 8.703159 
" style="fill:none;stroke:#000000;stroke-linecap:square;stroke-linejoin:miter;stroke-width:0.8;"/>
   </g>
   <g id="patch_132">
    <path d="M 378.264951 171.783159 
L 378.264951 8.703159 
" style="fill:none;stroke:#000000;stroke-linecap:square;stroke-linejoin:miter;stroke-width:0.8;"/>
   </g>
   <g id="patch_133">
    <path d="M 43.464951 171.783159 
L 378.264951 171.783159 
" style="fill:none;stroke:#000000;stroke-linecap:square;stroke-linejoin:miter;stroke-width:0.8;"/>
   </g>
   <g id="patch_134">
    <path d="M 43.464951 8.703159 
L 378.264951 8.703159 
" style="fill:none;stroke:#000000;stroke-linecap:square;stroke-linejoin:miter;stroke-width:0.8;"/>
   </g>
  </g>
 </g>
 <defs>
  <clipPath id="p937924b28e">
   <rect height="163.08" width="334.8" x="43.464951" y="8.703159"/>
  </clipPath>
 </defs>
</svg>
