<?xml version="1.0" encoding="utf-8" standalone="no"?>
<!DOCTYPE svg PUBLIC "-//W3C//DTD SVG 1.1//EN"
  "http://www.w3.org/Graphics/SVG/1.1/DTD/svg11.dtd">
<svg height="558pt" version="1.1" viewBox="0 0 558 558" width="558pt" xmlns="http://www.w3.org/2000/svg" xmlns:xlink="http://www.w3.org/1999/xlink">
 <metadata>
  <rdf:RDF xmlns:cc="http://creativecommons.org/ns#" xmlns:dc="http://purl.org/dc/elements/1.1/" xmlns:rdf="http://www.w3.org/1999/02/22-rdf-syntax-ns#">
   <cc:Work>
    <dc:type rdf:resource="http://purl.org/dc/dcmitype/StillImage"/>
    <dc:date>2024-08-11T16:48:06.262395</dc:date>
    <dc:format>image/svg+xml</dc:format>
    <dc:creator>
     <cc:Agent>
      <dc:title>Matplotlib v3.4.3, https://matplotlib.org/</dc:title>
     </cc:Agent>
    </dc:creator>
   </cc:Work>
  </rdf:RDF>
 </metadata>
 <defs>
  <style type="text/css">*{stroke-linecap:butt;stroke-linejoin:round;}</style>
 </defs>
 <g id="figure_1">
  <g id="patch_1">
   <path d="M 0 558 
L 558 558 
L 558 0 
L 0 0 
z
" style="fill:none;"/>
  </g>
  <g id="patch_2">
   <path d="M 7.2 550.8 
L 550.8 550.8 
L 550.8 7.2 
L 7.2 7.2 
z
" style="fill:#ffffff;"/>
  </g>
  <g id="axes_1">
   <g id="Poly3DCollection_1">
    <path clip-path="url(#p779a298812)" d="M 197.385099 276.651568 
L 259.632654 294.950834 
L 295.944879 263.500555 
L 234.444392 245.861032 
z
" style="fill:#aaaaaa;stroke:#aaaaaa;"/>
    <path clip-path="url(#p779a298812)" d="M 259.632654 294.950834 
L 323.233708 313.647995 
L 358.757903 281.516539 
L 295.944879 263.500555 
z
" style="fill:#aaaaaa;stroke:#aaaaaa;"/>
    <path clip-path="url(#p779a298812)" d="M 158.934156 308.598349 
L 221.941891 327.595075 
L 259.632654 294.950834 
L 197.385099 276.651568 
z
" style="fill:#555555;stroke:#555555;"/>
    <path clip-path="url(#p779a298812)" d="M 323.233708 313.647995 
L 388.232889 332.756171 
L 422.925937 299.921165 
L 358.757903 281.516539 
z
" style="fill:#ffffff;stroke:#ffffff;"/>
    <path clip-path="url(#p779a298812)" d="M 221.941891 327.595075 
L 286.345946 347.012789 
L 323.233708 313.647995 
L 259.632654 294.950834 
z
" style="fill:#aaaaaa;stroke:#aaaaaa;"/>
    <path clip-path="url(#p779a298812)" d="M 388.232889 332.756171 
L 454.676813 352.289067 
L 488.493303 318.727147 
L 422.925937 299.921165 
z
" style="fill:#555555;stroke:#555555;"/>
    <path clip-path="url(#p779a298812)" d="M 119.011677 341.767749 
L 182.792569 361.502584 
L 221.941891 327.595075 
L 158.934156 308.598349 
z
" style="fill:#555555;stroke:#555555;"/>
    <path clip-path="url(#p779a298812)" d="M 286.345946 347.012789 
L 352.193258 366.865643 
L 388.232889 332.756171 
L 323.233708 313.647995 
z
" style="fill:#aaaaaa;stroke:#aaaaaa;"/>
    <path clip-path="url(#p779a298812)" d="M 182.792569 361.502584 
L 248.014573 381.683323 
L 286.345946 347.012789 
L 221.941891 327.595075 
z
" style="stroke:#000000;"/>
    <path clip-path="url(#p779a298812)" d="M 352.193258 366.865643 
L 419.532889 387.168429 
L 454.676813 352.289067 
L 388.232889 332.756171 
z
" style="fill:#ffffff;stroke:#ffffff;"/>
    <path clip-path="url(#p779a298812)" d="M 77.531537 376.231324 
L 142.098352 396.748138 
L 182.792569 361.502584 
L 119.011677 341.767749 
z
" style="stroke:#000000;"/>
    <path clip-path="url(#p779a298812)" d="M 248.014573 381.683323 
L 314.727091 402.32525 
L 352.193258 366.865643 
L 286.345946 347.012789 
z
" style="fill:#aaaaaa;stroke:#aaaaaa;"/>
    <path clip-path="url(#p779a298812)" d="M 142.098352 396.748138 
L 208.153154 417.737775 
L 248.014573 381.683323 
L 182.792569 361.502584 
z
" style="stroke:#000000;"/>
    <path clip-path="url(#p779a298812)" d="M 314.727091 402.32525 
L 382.981805 423.444357 
L 419.532889 387.168429 
L 352.193258 366.865643 
z
" style="fill:#aaaaaa;stroke:#aaaaaa;"/>
    <path clip-path="url(#p779a298812)" d="M 208.153154 417.737775 
L 275.74798 439.216772 
L 314.727091 402.32525 
L 248.014573 381.683323 
z
" style="fill:#555555;stroke:#555555;"/>
    <path clip-path="url(#p779a298812)" d="M 275.74798 439.216772 
L 344.937321 461.202444 
L 382.981805 423.444357 
L 314.727091 402.32525 
z
" style="fill:#aaaaaa;stroke:#aaaaaa;"/>
   </g>
   <g id="line2d_1">
    <path clip-path="url(#p779a298812)" d="M 130.378139 368.836718 
L 135.425109 373.906109 
L 140.453567 378.290501 
L 145.466353 382.018558 
L 150.466189 385.118376 
L 155.45568 387.617551 
L 160.437322 389.543247 
L 165.413499 390.922259 
L 170.386493 391.781072 
L 175.35848 392.14592 
L 180.331535 392.04284 
L 185.307633 391.497718 
L 190.288649 390.536344 
L 195.27636 389.184453 
L 200.272445 387.46777 
L 205.278486 385.412048 
L 210.295965 383.043109 
L 215.326266 380.386879 
L 220.370676 377.469419 
L 225.43038 374.316956 
L 230.506461 370.955915 
L 235.599901 367.412938 
L 240.711577 363.714912 
L 245.842262 359.888987 
L 250.992618 355.962594 
L 256.163199 351.963461 
L 261.354446 347.919622 
L 266.566689 343.859429 
L 271.800137 339.811556 
L 277.054882 335.805001 
L 282.330895 331.869088 
L 287.628023 328.033458 
L 292.945987 324.328067 
L 298.284377 320.78317 
L 303.642655 317.42931 
L 309.020148 314.297294 
L 314.416049 311.418175 
L 319.829412 308.82322 
L 325.259153 306.543886 
L 330.704048 304.611776 
" style="fill:none;stroke:#990000;stroke-linecap:square;stroke-width:1.5;"/>
   </g>
   <g id="line2d_2">
    <path clip-path="url(#p779a298812)" d="M 169.29409 274.247786 
L 174.631317 293.819593 
L 179.882375 310.565474 
L 185.059049 324.667621 
L 190.172243 336.29706 
L 195.232052 345.61529 
L 200.247841 352.775743 
L 205.228293 357.925102 
L 210.18146 361.204482 
L 215.114805 362.750502 
L 220.035229 362.696262 
L 224.949102 361.172224 
L 229.862277 358.30702 
L 234.780106 354.228184 
L 239.707451 349.062815 
L 244.648684 342.938185 
L 249.607689 335.98227 
L 254.587861 328.324231 
L 259.592097 320.094834 
L 264.622785 311.426799 
L 269.681795 302.455092 
L 274.770464 293.317149 
L 279.889582 284.153025 
L 285.039372 275.105475 
L 290.219475 266.31995 
L 295.428934 257.944516 
L 300.666177 250.129683 
L 305.929 243.028141 
L 311.214556 236.794409 
L 316.519345 231.584375 
L 321.839203 227.554748 
L 327.169305 224.862406 
L 332.504163 223.663642 
L 337.837632 224.113322 
L 343.162928 226.363944 
L 348.472649 230.56462 
L 353.758797 236.859979 
L 359.01282 245.389011 
L 364.225656 256.28386 
L 369.387782 269.668588 
" style="fill:none;stroke:#990000;stroke-linecap:square;stroke-width:1.5;"/>
   </g>
   <g id="line2d_3">
    <path clip-path="url(#p779a298812)" d="M 208.576163 242.097581 
L 213.317436 233.944005 
L 218.0981 226.771121 
L 222.914898 220.535067 
L 227.764708 215.190195 
L 232.644554 210.689236 
L 237.551617 206.983456 
L 242.483243 204.022814 
L 247.436954 201.756108 
L 252.41045 200.131117 
L 257.401624 199.094733 
L 262.408561 198.59309 
L 267.429545 198.571676 
L 272.463066 198.97544 
L 277.507821 199.748886 
L 282.562719 200.836159 
L 287.626884 202.181116 
L 292.699657 203.727389 
L 297.780598 205.418433 
L 302.869488 207.197561 
L 307.966333 209.007973 
L 313.071361 210.792766 
L 318.18503 212.494934 
L 323.308025 214.057354 
L 328.441262 215.422766 
L 333.58589 216.533726 
L 338.743294 217.332563 
L 343.915099 217.761309 
L 349.103171 217.761622 
L 354.309626 217.274696 
L 359.53683 216.241152 
L 364.78741 214.600918 
L 370.064257 212.293095 
L 375.370539 209.255798 
L 380.709706 205.425992 
L 386.085502 200.739301 
L 391.501982 195.129803 
L 396.96352 188.529798 
L 402.474831 180.869556 
L 408.040985 172.077047 
" style="fill:none;stroke:#990000;stroke-linecap:square;stroke-width:1.5;"/>
   </g>
   <g id="line2d_4">
    <path clip-path="url(#p779a298812)" d="M 245.931591 150.853178 
L 250.858209 159.880064 
L 255.768535 167.209275 
L 260.667916 172.960061 
L 265.561255 177.248152 
L 270.453031 180.186428 
L 275.347311 181.885516 
L 280.247757 182.454341 
L 285.157633 182.000623 
L 290.079808 180.631326 
L 295.016758 178.453063 
L 299.970564 175.572454 
L 304.942907 172.096445 
L 309.935065 168.132583 
L 314.947907 163.789247 
L 319.981882 159.175839 
L 325.037014 154.402929 
L 330.112895 149.582355 
L 335.208669 144.827278 
L 340.323032 140.252183 
L 345.454215 135.972841 
L 350.599983 132.106206 
L 355.757625 128.770269 
L 360.923953 126.083852 
L 366.095293 124.166352 
L 371.267491 123.137419 
L 376.435913 123.116587 
L 381.595447 124.222849 
L 386.740521 126.574171 
L 391.865108 130.286957 
L 396.962745 135.475474 
L 402.026559 142.251217 
L 407.049289 150.722247 
L 412.02332 160.992493 
L 416.940718 173.161028 
L 421.793272 187.321325 
L 426.57254 203.560517 
L 431.2699 221.958651 
L 435.876607 242.587959 
L 440.383845 265.512158 
" style="fill:none;stroke:#990000;stroke-linecap:square;stroke-width:1.5;"/>
   </g>
   <g id="line2d_5">
    <path clip-path="url(#p779a298812)" d="M 155.45568 387.617551 
L 158.766512 392.139543 
L 162.017331 395.014933 
L 165.213943 396.347999 
L 168.361767 396.239001 
L 171.465867 394.784794 
L 174.530974 392.079377 
L 177.561512 388.214398 
L 180.561615 383.279603 
L 183.535146 377.363253 
L 186.485711 370.552493 
L 189.416671 362.933689 
L 192.331152 354.592728 
L 195.232052 345.61529 
L 198.122054 336.087085 
L 201.003624 326.094058 
L 203.879021 315.722567 
L 206.750296 305.059531 
L 209.619299 294.192545 
L 212.487675 283.209968 
L 215.356868 272.200978 
L 218.228121 261.255597 
L 221.102473 250.464688 
L 223.980763 239.919911 
L 226.863623 229.713654 
L 229.75148 219.93893 
L 232.644554 210.689236 
L 235.542859 202.058383 
L 238.446199 194.140291 
L 241.354169 187.028752 
L 244.266158 180.817156 
L 247.181343 175.598192 
L 250.098698 171.463518 
L 253.016993 168.503398 
L 255.934795 166.806318 
L 258.85048 166.458583 
L 261.76223 167.543883 
L 264.668048 170.142861 
L 267.565761 174.332651 
L 270.453031 180.186428 
" style="fill:none;stroke:#ff3333;stroke-linecap:square;stroke-width:1.5;"/>
   </g>
   <g id="line2d_6">
    <path clip-path="url(#p779a298812)" d="M 130.378139 368.836718 
L 130.378139 368.836718 
" style="fill:none;stroke:#808080;stroke-linecap:square;stroke-width:1.5;"/>
   </g>
   <g id="line2d_7">
    <path clip-path="url(#p779a298812)" d="M 130.378139 368.836718 
" style="fill:none;stroke:#1f77b4;stroke-linecap:square;stroke-width:1.5;"/>
    <defs>
     <path d="M 0 5 
C 1.326016 5 2.597899 4.473168 3.535534 3.535534 
C 4.473168 2.597899 5 1.326016 5 0 
C 5 -1.326016 4.473168 -2.597899 3.535534 -3.535534 
C 2.597899 -4.473168 1.326016 -5 0 -5 
C -1.326016 -5 -2.597899 -4.473168 -3.535534 -3.535534 
C -4.473168 -2.597899 -5 -1.326016 -5 0 
C -5 1.326016 -4.473168 2.597899 -3.535534 3.535534 
C -2.597899 4.473168 -1.326016 5 0 5 
z
" id="m7c95f30cb3" style="stroke:#808080;"/>
    </defs>
    <g clip-path="url(#p779a298812)">
     <use style="stroke:#808080;" x="130.378139" xlink:href="#m7c95f30cb3" y="368.836718"/>
    </g>
   </g>
   <g id="line2d_8">
    <path clip-path="url(#p779a298812)" d="M 170.684058 334.652872 
L 169.29409 274.247786 
" style="fill:none;stroke:#808080;stroke-linecap:square;stroke-width:1.5;"/>
   </g>
   <g id="line2d_9">
    <path clip-path="url(#p779a298812)" d="M 169.29409 274.247786 
" style="fill:none;stroke:#ff7f0e;stroke-linecap:square;stroke-width:1.5;"/>
    <defs>
     <path d="M 0 5 
C 1.326016 5 2.597899 4.473168 3.535534 3.535534 
C 4.473168 2.597899 5 1.326016 5 0 
C 5 -1.326016 4.473168 -2.597899 3.535534 -3.535534 
C 2.597899 -4.473168 1.326016 -5 0 -5 
C -1.326016 -5 -2.597899 -4.473168 -3.535534 -3.535534 
C -4.473168 -2.597899 -5 -1.326016 -5 0 
C -5 1.326016 -4.473168 2.597899 -3.535534 3.535534 
C -2.597899 4.473168 -1.326016 5 0 5 
z
" id="me3e1f06c6c" style="stroke:#808080;"/>
    </defs>
    <g clip-path="url(#p779a298812)">
     <use style="fill:#555555;stroke:#808080;" x="169.29409" xlink:href="#me3e1f06c6c" y="274.247786"/>
    </g>
   </g>
   <g id="line2d_10">
    <path clip-path="url(#p779a298812)" d="M 209.482393 301.747623 
L 208.576163 242.097581 
" style="fill:none;stroke:#808080;stroke-linecap:square;stroke-width:1.5;"/>
   </g>
   <g id="line2d_11">
    <path clip-path="url(#p779a298812)" d="M 208.576163 242.097581 
" style="fill:none;stroke:#2ca02c;stroke-linecap:square;stroke-width:1.5;"/>
    <g clip-path="url(#p779a298812)">
     <use style="fill:#555555;stroke:#808080;" x="208.576163" xlink:href="#me3e1f06c6c" y="242.097581"/>
    </g>
   </g>
   <g id="line2d_12">
    <path clip-path="url(#p779a298812)" d="M 246.856175 270.050551 
L 245.931591 150.853178 
" style="fill:none;stroke:#808080;stroke-linecap:square;stroke-width:1.5;"/>
   </g>
   <g id="line2d_13">
    <path clip-path="url(#p779a298812)" d="M 245.931591 150.853178 
" style="fill:none;stroke:#d62728;stroke-linecap:square;stroke-width:1.5;"/>
    <defs>
     <path d="M 0 5 
C 1.326016 5 2.597899 4.473168 3.535534 3.535534 
C 4.473168 2.597899 5 1.326016 5 0 
C 5 -1.326016 4.473168 -2.597899 3.535534 -3.535534 
C 2.597899 -4.473168 1.326016 -5 0 -5 
C -1.326016 -5 -2.597899 -4.473168 -3.535534 -3.535534 
C -4.473168 -2.597899 -5 -1.326016 -5 0 
C -5 1.326016 -4.473168 2.597899 -3.535534 3.535534 
C -2.597899 4.473168 -1.326016 5 0 5 
z
" id="m99b1e6d7f9" style="stroke:#808080;"/>
    </defs>
    <g clip-path="url(#p779a298812)">
     <use style="fill:#aaaaaa;stroke:#808080;" x="245.931591" xlink:href="#m99b1e6d7f9" y="150.853178"/>
    </g>
   </g>
   <g id="line2d_14">
    <path clip-path="url(#p779a298812)" d="M 195.27636 389.184453 
L 195.27636 389.184453 
" style="fill:none;stroke:#808080;stroke-linecap:square;stroke-width:1.5;"/>
   </g>
   <g id="line2d_15">
    <path clip-path="url(#p779a298812)" d="M 195.27636 389.184453 
" style="fill:none;stroke:#9467bd;stroke-linecap:square;stroke-width:1.5;"/>
    <g clip-path="url(#p779a298812)">
     <use style="stroke:#808080;" x="195.27636" xlink:href="#m7c95f30cb3" y="389.184453"/>
    </g>
   </g>
   <g id="line2d_16">
    <path clip-path="url(#p779a298812)" d="M 234.780106 354.228184 
L 234.780106 354.228184 
" style="fill:none;stroke:#808080;stroke-linecap:square;stroke-width:1.5;"/>
   </g>
   <g id="line2d_17">
    <path clip-path="url(#p779a298812)" d="M 234.780106 354.228184 
" style="fill:none;stroke:#8c564b;stroke-linecap:square;stroke-width:1.5;"/>
    <g clip-path="url(#p779a298812)">
     <use style="stroke:#808080;" x="234.780106" xlink:href="#m7c95f30cb3" y="354.228184"/>
    </g>
   </g>
   <g id="line2d_18">
    <path clip-path="url(#p779a298812)" d="M 272.790144 320.593674 
L 272.463066 198.97544 
" style="fill:none;stroke:#808080;stroke-linecap:square;stroke-width:1.5;"/>
   </g>
   <g id="line2d_19">
    <path clip-path="url(#p779a298812)" d="M 272.463066 198.97544 
" style="fill:none;stroke:#e377c2;stroke-linecap:square;stroke-width:1.5;"/>
    <g clip-path="url(#p779a298812)">
     <use style="fill:#aaaaaa;stroke:#808080;" x="272.463066" xlink:href="#m99b1e6d7f9" y="198.97544"/>
    </g>
   </g>
   <g id="line2d_20">
    <path clip-path="url(#p779a298812)" d="M 309.389622 288.207347 
L 309.935065 168.132583 
" style="fill:none;stroke:#808080;stroke-linecap:square;stroke-width:1.5;"/>
   </g>
   <g id="line2d_21">
    <path clip-path="url(#p779a298812)" d="M 309.935065 168.132583 
" style="fill:none;stroke:#7f7f7f;stroke-linecap:square;stroke-width:1.5;"/>
    <g clip-path="url(#p779a298812)">
     <use style="fill:#aaaaaa;stroke:#808080;" x="309.935065" xlink:href="#m99b1e6d7f9" y="168.132583"/>
    </g>
   </g>
   <g id="line2d_22">
    <path clip-path="url(#p779a298812)" d="M 261.663924 409.999147 
L 261.354446 347.919622 
" style="fill:none;stroke:#808080;stroke-linecap:square;stroke-width:1.5;"/>
   </g>
   <g id="line2d_23">
    <path clip-path="url(#p779a298812)" d="M 261.354446 347.919622 
" style="fill:none;stroke:#bcbd22;stroke-linecap:square;stroke-width:1.5;"/>
    <g clip-path="url(#p779a298812)">
     <use style="fill:#555555;stroke:#808080;" x="261.354446" xlink:href="#me3e1f06c6c" y="347.919622"/>
    </g>
   </g>
   <g id="line2d_24">
    <path clip-path="url(#p779a298812)" d="M 300.318424 374.243973 
L 300.666177 250.129683 
" style="fill:none;stroke:#808080;stroke-linecap:square;stroke-width:1.5;"/>
   </g>
   <g id="line2d_25">
    <path clip-path="url(#p779a298812)" d="M 300.666177 250.129683 
" style="fill:none;stroke:#17becf;stroke-linecap:square;stroke-width:1.5;"/>
    <g clip-path="url(#p779a298812)">
     <use style="fill:#aaaaaa;stroke:#808080;" x="300.666177" xlink:href="#m99b1e6d7f9" y="250.129683"/>
    </g>
   </g>
   <g id="line2d_26">
    <path clip-path="url(#p779a298812)" d="M 337.495198 339.855686 
L 338.743294 217.332563 
" style="fill:none;stroke:#808080;stroke-linecap:square;stroke-width:1.5;"/>
   </g>
   <g id="line2d_27">
    <path clip-path="url(#p779a298812)" d="M 338.743294 217.332563 
" style="fill:none;stroke:#1f77b4;stroke-linecap:square;stroke-width:1.5;"/>
    <g clip-path="url(#p779a298812)">
     <use style="fill:#aaaaaa;stroke:#808080;" x="338.743294" xlink:href="#m99b1e6d7f9" y="217.332563"/>
    </g>
   </g>
   <g id="line2d_28">
    <path clip-path="url(#p779a298812)" d="M 373.277393 306.757376 
L 376.435913 123.116587 
" style="fill:none;stroke:#808080;stroke-linecap:square;stroke-width:1.5;"/>
   </g>
   <g id="line2d_29">
    <path clip-path="url(#p779a298812)" d="M 376.435913 123.116587 
" style="fill:none;stroke:#ff7f0e;stroke-linecap:square;stroke-width:1.5;"/>
    <defs>
     <path d="M 0 5 
C 1.326016 5 2.597899 4.473168 3.535534 3.535534 
C 4.473168 2.597899 5 1.326016 5 0 
C 5 -1.326016 4.473168 -2.597899 3.535534 -3.535534 
C 2.597899 -4.473168 1.326016 -5 0 -5 
C -1.326016 -5 -2.597899 -4.473168 -3.535534 -3.535534 
C -4.473168 -2.597899 -5 -1.326016 -5 0 
C -5 1.326016 -4.473168 2.597899 -3.535534 3.535534 
C -2.597899 4.473168 -1.326016 5 0 5 
z
" id="m0e061269d4" style="stroke:#808080;"/>
    </defs>
    <g clip-path="url(#p779a298812)">
     <use style="fill:#ffffff;stroke:#808080;" x="376.435913" xlink:href="#m0e061269d4" y="123.116587"/>
    </g>
   </g>
   <g id="line2d_30">
    <path clip-path="url(#p779a298812)" d="M 329.592694 431.297059 
L 330.704048 304.611776 
" style="fill:none;stroke:#808080;stroke-linecap:square;stroke-width:1.5;"/>
   </g>
   <g id="line2d_31">
    <path clip-path="url(#p779a298812)" d="M 330.704048 304.611776 
" style="fill:none;stroke:#2ca02c;stroke-linecap:square;stroke-width:1.5;"/>
    <g clip-path="url(#p779a298812)">
     <use style="fill:#aaaaaa;stroke:#808080;" x="330.704048" xlink:href="#m99b1e6d7f9" y="304.611776"/>
    </g>
   </g>
   <g id="line2d_32">
    <path clip-path="url(#p779a298812)" d="M 367.348246 394.715275 
L 369.387782 269.668588 
" style="fill:none;stroke:#808080;stroke-linecap:square;stroke-width:1.5;"/>
   </g>
   <g id="line2d_33">
    <path clip-path="url(#p779a298812)" d="M 369.387782 269.668588 
" style="fill:none;stroke:#d62728;stroke-linecap:square;stroke-width:1.5;"/>
    <g clip-path="url(#p779a298812)">
     <use style="fill:#aaaaaa;stroke:#808080;" x="369.387782" xlink:href="#m99b1e6d7f9" y="269.668588"/>
    </g>
   </g>
   <g id="line2d_34">
    <path clip-path="url(#p779a298812)" d="M 403.64433 359.547586 
L 408.040985 172.077047 
" style="fill:none;stroke:#808080;stroke-linecap:square;stroke-width:1.5;"/>
   </g>
   <g id="line2d_35">
    <path clip-path="url(#p779a298812)" d="M 408.040985 172.077047 
" style="fill:none;stroke:#9467bd;stroke-linecap:square;stroke-width:1.5;"/>
    <g clip-path="url(#p779a298812)">
     <use style="fill:#ffffff;stroke:#808080;" x="408.040985" xlink:href="#m0e061269d4" y="172.077047"/>
    </g>
   </g>
   <g id="line2d_36">
    <path clip-path="url(#p779a298812)" d="M 438.563968 325.713552 
L 440.383845 265.512158 
" style="fill:none;stroke:#808080;stroke-linecap:square;stroke-width:1.5;"/>
   </g>
   <g id="line2d_37">
    <path clip-path="url(#p779a298812)" d="M 440.383845 265.512158 
" style="fill:none;stroke:#8c564b;stroke-linecap:square;stroke-width:1.5;"/>
    <g clip-path="url(#p779a298812)">
     <use style="fill:#555555;stroke:#808080;" x="440.383845" xlink:href="#me3e1f06c6c" y="265.512158"/>
    </g>
   </g>
   <g id="line2d_38">
    <path clip-path="url(#p779a298812)" d="M 155.45568 387.617551 
" style="fill:none;stroke:#e377c2;stroke-linecap:square;stroke-width:1.5;"/>
    <defs>
     <path d="M 0 5 
C 1.326016 5 2.597899 4.473168 3.535534 3.535534 
C 4.473168 2.597899 5 1.326016 5 0 
C 5 -1.326016 4.473168 -2.597899 3.535534 -3.535534 
C 2.597899 -4.473168 1.326016 -5 0 -5 
C -1.326016 -5 -2.597899 -4.473168 -3.535534 -3.535534 
C -4.473168 -2.597899 -5 -1.326016 -5 0 
C -5 1.326016 -4.473168 2.597899 -3.535534 3.535534 
C -2.597899 4.473168 -1.326016 5 0 5 
z
" id="m4f8cc022b0" style="stroke:#990000;"/>
    </defs>
    <g clip-path="url(#p779a298812)">
     <use style="fill:#990000;stroke:#990000;" x="155.45568" xlink:href="#m4f8cc022b0" y="387.617551"/>
    </g>
   </g>
   <g id="line2d_39">
    <path clip-path="url(#p779a298812)" d="M 195.232052 345.61529 
" style="fill:none;stroke:#7f7f7f;stroke-linecap:square;stroke-width:1.5;"/>
    <g clip-path="url(#p779a298812)">
     <use style="fill:#990000;stroke:#990000;" x="195.232052" xlink:href="#m4f8cc022b0" y="345.61529"/>
    </g>
   </g>
   <g id="line2d_40">
    <path clip-path="url(#p779a298812)" d="M 232.644554 210.689236 
" style="fill:none;stroke:#bcbd22;stroke-linecap:square;stroke-width:1.5;"/>
    <g clip-path="url(#p779a298812)">
     <use style="fill:#990000;stroke:#990000;" x="232.644554" xlink:href="#m4f8cc022b0" y="210.689236"/>
    </g>
   </g>
   <g id="line2d_41">
    <path clip-path="url(#p779a298812)" d="M 270.453031 180.186428 
" style="fill:none;stroke:#17becf;stroke-linecap:square;stroke-width:1.5;"/>
    <g clip-path="url(#p779a298812)">
     <use style="fill:#990000;stroke:#990000;" x="270.453031" xlink:href="#m4f8cc022b0" y="180.186428"/>
    </g>
   </g>
   <g id="line2d_42">
    <path clip-path="url(#p779a298812)" d="M 221.977725 319.024346 
L 221.102473 250.464688 
" style="fill:none;stroke:#ff0000;stroke-linecap:square;stroke-width:1.5;"/>
   </g>
   <g id="line2d_43">
    <path clip-path="url(#p779a298812)" d="M 221.102473 250.464688 
" style="fill:none;stroke:#1f77b4;stroke-linecap:square;stroke-width:1.5;"/>
    <defs>
     <path d="M 0 5 
C 1.326016 5 2.597899 4.473168 3.535534 3.535534 
C 4.473168 2.597899 5 1.326016 5 0 
C 5 -1.326016 4.473168 -2.597899 3.535534 -3.535534 
C 2.597899 -4.473168 1.326016 -5 0 -5 
C -1.326016 -5 -2.597899 -4.473168 -3.535534 -3.535534 
C -4.473168 -2.597899 -5 -1.326016 -5 0 
C -5 1.326016 -4.473168 2.597899 -3.535534 3.535534 
C -2.597899 4.473168 -1.326016 5 0 5 
z
" id="m53d10740de" style="stroke:#ff0000;"/>
    </defs>
    <g clip-path="url(#p779a298812)">
     <use style="fill:#ff0000;stroke:#ff0000;" x="221.102473" xlink:href="#m53d10740de" y="250.464688"/>
    </g>
   </g>
  </g>
 </g>
 <defs>
  <clipPath id="p779a298812">
   <rect height="543.6" width="543.6" x="7.2" y="7.2"/>
  </clipPath>
 </defs>
</svg>
