<?xml version="1.0" encoding="utf-8" standalone="no"?>
<!DOCTYPE svg PUBLIC "-//W3C//DTD SVG 1.1//EN"
  "http://www.w3.org/Graphics/SVG/1.1/DTD/svg11.dtd">
<svg height="541.532425pt" version="1.1" viewBox="0 0 668.968007 541.532425" width="668.968007pt" xmlns="http://www.w3.org/2000/svg" xmlns:xlink="http://www.w3.org/1999/xlink">
 <metadata>
  <rdf:RDF xmlns:cc="http://creativecommons.org/ns#" xmlns:dc="http://purl.org/dc/elements/1.1/" xmlns:rdf="http://www.w3.org/1999/02/22-rdf-syntax-ns#">
   <cc:Work>
    <dc:type rdf:resource="http://purl.org/dc/dcmitype/StillImage"/>
    <dc:date>2023-11-22T16:38:32.264663</dc:date>
    <dc:format>image/svg+xml</dc:format>
    <dc:creator>
     <cc:Agent>
      <dc:title>Matplotlib v3.4.3, https://matplotlib.org/</dc:title>
     </cc:Agent>
    </dc:creator>
   </cc:Work>
  </rdf:RDF>
 </metadata>
 <defs>
  <style type="text/css">*{stroke-linecap:butt;stroke-linejoin:round;}</style>
 </defs>
 <g id="figure_1">
  <g id="patch_1">
   <path d="M 0 541.532425 
L 668.968007 541.532425 
L 668.968007 0 
L 0 0 
z
" style="fill:none;"/>
  </g>
  <g id="axes_1">
   <g id="patch_2">
    <path d="M 35.20447 154.038983 
L 661.768007 154.038983 
L 661.768007 26.483515 
L 35.20447 26.483515 
z
" style="fill:#ffffff;"/>
   </g>
   <g id="matplotlib.axis_1">
    <g id="xtick_1">
     <g id="line2d_1">
      <path clip-path="url(#p29f9b3d599)" d="M 66.561415 154.038983 
L 66.561415 26.483515 
" style="fill:none;stroke:#b0b0b0;stroke-linecap:square;stroke-width:0.8;"/>
     </g>
     <g id="line2d_2">
      <defs>
       <path d="M 0 0 
L 0 3.5 
" id="m698de6db06" style="stroke:#000000;stroke-width:0.8;"/>
      </defs>
      <g>
       <use style="stroke:#000000;stroke-width:0.8;" x="66.561415" xlink:href="#m698de6db06" y="154.038983"/>
      </g>
     </g>
     <g id="text_1">
      <!-- $\mathdefault{100}$ -->
      <g transform="translate(57.781929 169.341163)scale(0.12 -0.12)">
       <defs>
        <path d="M 1702 4083 
C 1702 4217 1696 4224 1606 4224 
C 1357 3927 979 3833 621 3820 
C 602 3820 570 3820 563 3808 
C 557 3795 557 3782 557 3648 
C 755 3648 1088 3686 1344 3839 
L 1344 467 
C 1344 243 1331 166 781 166 
L 589 166 
L 589 0 
C 896 6 1216 12 1523 12 
C 1830 12 2150 6 2458 0 
L 2458 166 
L 2266 166 
C 1715 166 1702 236 1702 467 
L 1702 4083 
z
" id="CMR17-31" transform="scale(0.015625)"/>
        <path d="M 2688 2038 
C 2688 2430 2682 3099 2413 3613 
C 2176 4063 1798 4224 1466 4224 
C 1158 4224 768 4082 525 3620 
C 269 3137 243 2539 243 2038 
C 243 1671 250 1112 448 623 
C 723 -39 1216 -128 1466 -128 
C 1760 -128 2208 -7 2470 604 
C 2662 1048 2688 1568 2688 2038 
z
M 1466 -26 
C 1056 -26 813 328 723 816 
C 653 1196 653 1749 653 2109 
C 653 2604 653 3015 736 3407 
C 858 3954 1216 4121 1466 4121 
C 1728 4121 2067 3947 2189 3420 
C 2272 3054 2278 2623 2278 2109 
C 2278 1691 2278 1176 2202 797 
C 2067 96 1690 -26 1466 -26 
z
" id="CMR17-30" transform="scale(0.015625)"/>
       </defs>
       <use transform="scale(0.996264)" xlink:href="#CMR17-31"/>
       <use transform="translate(45.690477 0)scale(0.996264)" xlink:href="#CMR17-30"/>
       <use transform="translate(91.380954 0)scale(0.996264)" xlink:href="#CMR17-30"/>
      </g>
     </g>
    </g>
    <g id="xtick_2">
     <g id="line2d_3">
      <path clip-path="url(#p29f9b3d599)" d="M 181.632771 154.038983 
L 181.632771 26.483515 
" style="fill:none;stroke:#b0b0b0;stroke-linecap:square;stroke-width:0.8;"/>
     </g>
     <g id="line2d_4">
      <g>
       <use style="stroke:#000000;stroke-width:0.8;" x="181.632771" xlink:href="#m698de6db06" y="154.038983"/>
      </g>
     </g>
     <g id="text_2">
      <!-- $\mathdefault{120}$ -->
      <g transform="translate(172.853286 169.341163)scale(0.12 -0.12)">
       <defs>
        <path d="M 2669 990 
L 2554 990 
C 2490 537 2438 460 2413 422 
C 2381 371 1920 371 1830 371 
L 602 371 
C 832 620 1280 1073 1824 1596 
C 2214 1966 2669 2400 2669 3033 
C 2669 3788 2067 4224 1395 4224 
C 691 4224 262 3603 262 3027 
C 262 2777 448 2745 525 2745 
C 589 2745 781 2783 781 3007 
C 781 3206 614 3264 525 3264 
C 486 3264 448 3257 422 3244 
C 544 3788 915 4057 1306 4057 
C 1862 4057 2227 3616 2227 3033 
C 2227 2477 1901 1998 1536 1583 
L 262 147 
L 262 0 
L 2515 0 
L 2669 990 
z
" id="CMR17-32" transform="scale(0.015625)"/>
       </defs>
       <use transform="scale(0.996264)" xlink:href="#CMR17-31"/>
       <use transform="translate(45.690477 0)scale(0.996264)" xlink:href="#CMR17-32"/>
       <use transform="translate(91.380954 0)scale(0.996264)" xlink:href="#CMR17-30"/>
      </g>
     </g>
    </g>
    <g id="xtick_3">
     <g id="line2d_5">
      <path clip-path="url(#p29f9b3d599)" d="M 296.704128 154.038983 
L 296.704128 26.483515 
" style="fill:none;stroke:#b0b0b0;stroke-linecap:square;stroke-width:0.8;"/>
     </g>
     <g id="line2d_6">
      <g>
       <use style="stroke:#000000;stroke-width:0.8;" x="296.704128" xlink:href="#m698de6db06" y="154.038983"/>
      </g>
     </g>
     <g id="text_3">
      <!-- $\mathdefault{140}$ -->
      <g transform="translate(287.924643 169.341163)scale(0.12 -0.12)">
       <defs>
        <path d="M 2150 4147 
C 2150 4281 2144 4288 2029 4288 
L 128 1254 
L 128 1088 
L 1779 1088 
L 1779 460 
C 1779 230 1766 166 1318 166 
L 1197 166 
L 1197 0 
C 1402 12 1747 12 1965 12 
C 2182 12 2528 12 2733 0 
L 2733 166 
L 2611 166 
C 2163 166 2150 230 2150 460 
L 2150 1088 
L 2803 1088 
L 2803 1254 
L 2150 1254 
L 2150 4147 
z
M 1798 3723 
L 1798 1254 
L 256 1254 
L 1798 3723 
z
" id="CMR17-34" transform="scale(0.015625)"/>
       </defs>
       <use transform="scale(0.996264)" xlink:href="#CMR17-31"/>
       <use transform="translate(45.690477 0)scale(0.996264)" xlink:href="#CMR17-34"/>
       <use transform="translate(91.380954 0)scale(0.996264)" xlink:href="#CMR17-30"/>
      </g>
     </g>
    </g>
    <g id="xtick_4">
     <g id="line2d_7">
      <path clip-path="url(#p29f9b3d599)" d="M 411.775485 154.038983 
L 411.775485 26.483515 
" style="fill:none;stroke:#b0b0b0;stroke-linecap:square;stroke-width:0.8;"/>
     </g>
     <g id="line2d_8">
      <g>
       <use style="stroke:#000000;stroke-width:0.8;" x="411.775485" xlink:href="#m698de6db06" y="154.038983"/>
      </g>
     </g>
     <g id="text_4">
      <!-- $\mathdefault{160}$ -->
      <g transform="translate(402.995999 169.341163)scale(0.12 -0.12)">
       <defs>
        <path d="M 678 2198 
C 678 3712 1395 4076 1811 4076 
C 1946 4076 2272 4049 2400 3782 
C 2298 3782 2106 3782 2106 3558 
C 2106 3385 2246 3328 2336 3328 
C 2394 3328 2566 3353 2566 3571 
C 2566 3987 2246 4224 1805 4224 
C 1043 4224 243 3411 243 2011 
C 243 257 966 -128 1478 -128 
C 2099 -128 2688 431 2688 1295 
C 2688 2101 2170 2688 1517 2688 
C 1126 2688 838 2430 678 1979 
L 678 2198 
z
M 1478 25 
C 691 25 691 1212 691 1450 
C 691 1914 909 2585 1504 2585 
C 1613 2585 1926 2585 2138 2140 
C 2253 1889 2253 1624 2253 1302 
C 2253 954 2253 696 2118 438 
C 1978 173 1773 25 1478 25 
z
" id="CMR17-36" transform="scale(0.015625)"/>
       </defs>
       <use transform="scale(0.996264)" xlink:href="#CMR17-31"/>
       <use transform="translate(45.690477 0)scale(0.996264)" xlink:href="#CMR17-36"/>
       <use transform="translate(91.380954 0)scale(0.996264)" xlink:href="#CMR17-30"/>
      </g>
     </g>
    </g>
    <g id="xtick_5">
     <g id="line2d_9">
      <path clip-path="url(#p29f9b3d599)" d="M 526.846842 154.038983 
L 526.846842 26.483515 
" style="fill:none;stroke:#b0b0b0;stroke-linecap:square;stroke-width:0.8;"/>
     </g>
     <g id="line2d_10">
      <g>
       <use style="stroke:#000000;stroke-width:0.8;" x="526.846842" xlink:href="#m698de6db06" y="154.038983"/>
      </g>
     </g>
     <g id="text_5">
      <!-- $\mathdefault{180}$ -->
      <g transform="translate(518.067356 169.341163)scale(0.12 -0.12)">
       <defs>
        <path d="M 1741 2289 
C 2144 2494 2554 2803 2554 3298 
C 2554 3884 1990 4224 1472 4224 
C 890 4224 378 3800 378 3215 
C 378 3054 416 2777 666 2533 
C 730 2469 998 2276 1171 2154 
C 883 2006 211 1652 211 945 
C 211 282 838 -128 1459 -128 
C 2144 -128 2720 366 2720 1022 
C 2720 1607 2330 1877 2074 2051 
L 1741 2289 
z
M 902 2855 
C 851 2887 595 3086 595 3388 
C 595 3781 998 4076 1459 4076 
C 1965 4076 2336 3716 2336 3298 
C 2336 2700 1670 2359 1638 2359 
C 1632 2359 1626 2359 1574 2398 
L 902 2855 
z
M 2080 1536 
C 2176 1466 2483 1253 2483 861 
C 2483 385 2010 25 1472 25 
C 890 25 448 443 448 951 
C 448 1459 838 1884 1280 2083 
L 2080 1536 
z
" id="CMR17-38" transform="scale(0.015625)"/>
       </defs>
       <use transform="scale(0.996264)" xlink:href="#CMR17-31"/>
       <use transform="translate(45.690477 0)scale(0.996264)" xlink:href="#CMR17-38"/>
       <use transform="translate(91.380954 0)scale(0.996264)" xlink:href="#CMR17-30"/>
      </g>
     </g>
    </g>
    <g id="xtick_6">
     <g id="line2d_11">
      <path clip-path="url(#p29f9b3d599)" d="M 641.918198 154.038983 
L 641.918198 26.483515 
" style="fill:none;stroke:#b0b0b0;stroke-linecap:square;stroke-width:0.8;"/>
     </g>
     <g id="line2d_12">
      <g>
       <use style="stroke:#000000;stroke-width:0.8;" x="641.918198" xlink:href="#m698de6db06" y="154.038983"/>
      </g>
     </g>
     <g id="text_6">
      <!-- $\mathdefault{200}$ -->
      <g transform="translate(633.138713 169.341163)scale(0.12 -0.12)">
       <use transform="scale(0.996264)" xlink:href="#CMR17-32"/>
       <use transform="translate(45.690477 0)scale(0.996264)" xlink:href="#CMR17-30"/>
       <use transform="translate(91.380954 0)scale(0.996264)" xlink:href="#CMR17-30"/>
      </g>
     </g>
    </g>
   </g>
   <g id="matplotlib.axis_2">
    <g id="ytick_1">
     <g id="line2d_13">
      <path clip-path="url(#p29f9b3d599)" d="M 35.20447 150.025 
L 661.768007 150.025 
" style="fill:none;stroke:#b0b0b0;stroke-linecap:square;stroke-width:0.8;"/>
     </g>
     <g id="line2d_14">
      <defs>
       <path d="M 0 0 
L -3.5 0 
" id="mc3ce88068c" style="stroke:#000000;stroke-width:0.8;"/>
      </defs>
      <g>
       <use style="stroke:#000000;stroke-width:0.8;" x="35.20447" xlink:href="#mc3ce88068c" y="150.025"/>
      </g>
     </g>
     <g id="text_7">
      <!-- $\mathdefault{50}$ -->
      <g transform="translate(16.498489 154.17609)scale(0.12 -0.12)">
       <defs>
        <path d="M 730 3750 
C 794 3724 1056 3641 1325 3641 
C 1920 3641 2246 3961 2432 4140 
C 2432 4191 2432 4224 2394 4224 
C 2387 4224 2374 4224 2323 4198 
C 2099 4102 1837 4032 1517 4032 
C 1325 4032 1037 4055 723 4191 
C 653 4224 640 4224 634 4224 
C 602 4224 595 4217 595 4090 
L 595 2231 
C 595 2113 595 2080 659 2080 
C 691 2080 704 2093 736 2139 
C 941 2435 1222 2560 1542 2560 
C 1766 2560 2246 2415 2246 1293 
C 2246 1087 2246 716 2054 422 
C 1894 159 1645 25 1370 25 
C 947 25 518 319 403 812 
C 429 806 480 793 506 793 
C 589 793 749 838 749 1036 
C 749 1209 627 1280 506 1280 
C 358 1280 262 1190 262 1011 
C 262 454 704 -128 1382 -128 
C 2042 -128 2669 441 2669 1267 
C 2669 2054 2170 2662 1549 2662 
C 1222 2662 947 2540 730 2304 
L 730 3750 
z
" id="CMR17-35" transform="scale(0.015625)"/>
       </defs>
       <use transform="scale(0.996264)" xlink:href="#CMR17-35"/>
       <use transform="translate(45.690477 0)scale(0.996264)" xlink:href="#CMR17-30"/>
      </g>
     </g>
    </g>
    <g id="ytick_2">
     <g id="line2d_15">
      <path clip-path="url(#p29f9b3d599)" d="M 35.20447 105.425186 
L 661.768007 105.425186 
" style="fill:none;stroke:#b0b0b0;stroke-linecap:square;stroke-width:0.8;"/>
     </g>
     <g id="line2d_16">
      <g>
       <use style="stroke:#000000;stroke-width:0.8;" x="35.20447" xlink:href="#mc3ce88068c" y="105.425186"/>
      </g>
     </g>
     <g id="text_8">
      <!-- $\mathdefault{100}$ -->
      <g transform="translate(10.645499 109.576276)scale(0.12 -0.12)">
       <use transform="scale(0.996264)" xlink:href="#CMR17-31"/>
       <use transform="translate(45.690477 0)scale(0.996264)" xlink:href="#CMR17-30"/>
       <use transform="translate(91.380954 0)scale(0.996264)" xlink:href="#CMR17-30"/>
      </g>
     </g>
    </g>
    <g id="ytick_3">
     <g id="line2d_17">
      <path clip-path="url(#p29f9b3d599)" d="M 35.20447 60.825372 
L 661.768007 60.825372 
" style="fill:none;stroke:#b0b0b0;stroke-linecap:square;stroke-width:0.8;"/>
     </g>
     <g id="line2d_18">
      <g>
       <use style="stroke:#000000;stroke-width:0.8;" x="35.20447" xlink:href="#mc3ce88068c" y="60.825372"/>
      </g>
     </g>
     <g id="text_9">
      <!-- $\mathdefault{150}$ -->
      <g transform="translate(10.645499 64.976462)scale(0.12 -0.12)">
       <use transform="scale(0.996264)" xlink:href="#CMR17-31"/>
       <use transform="translate(45.690477 0)scale(0.996264)" xlink:href="#CMR17-35"/>
       <use transform="translate(91.380954 0)scale(0.996264)" xlink:href="#CMR17-30"/>
      </g>
     </g>
    </g>
   </g>
   <g id="line2d_19">
    <path clip-path="url(#p29f9b3d599)" d="M 394.514781 154.038983 
L 394.514781 26.483515 
" style="fill:none;stroke:#2ca02c;stroke-linecap:square;"/>
   </g>
   <g id="line2d_20">
    <path clip-path="url(#p29f9b3d599)" d="M 63.684631 58.149383 
L 69.438199 57.257387 
L 75.191766 57.257387 
L 80.945334 57.257387 
L 86.698902 56.36539 
L 92.45247 55.473394 
L 98.206038 55.473394 
L 103.959606 55.473394 
L 109.713173 56.36539 
L 115.466741 56.36539 
L 121.220309 56.36539 
L 126.973877 55.473394 
L 132.727445 54.581398 
L 138.481013 54.581398 
L 144.23458 53.689402 
L 149.988148 53.689402 
L 155.741716 53.689402 
L 161.495284 52.797405 
L 167.248852 52.797405 
L 173.00242 52.797405 
L 178.755987 51.905409 
L 184.509555 51.905409 
L 190.263123 51.905409 
L 196.016691 51.905409 
L 201.770259 51.013413 
L 207.523827 49.22942 
L 213.277394 50.121416 
L 219.030962 51.905409 
L 224.78453 52.797405 
L 230.538098 51.013413 
L 236.291666 50.121416 
L 242.045234 49.22942 
L 247.798801 49.22942 
L 253.552369 49.22942 
L 259.305937 48.337424 
L 265.059505 47.445428 
L 270.813073 47.445428 
L 276.566641 48.337424 
L 282.320208 47.445428 
L 288.073776 46.553431 
L 293.827344 44.769439 
L 299.580912 43.877443 
L 305.33448 43.877443 
L 311.088048 44.769439 
L 316.841616 45.661435 
L 322.595183 43.877443 
L 328.348751 42.985446 
L 334.102319 43.877443 
L 339.855887 42.09345 
L 345.609455 40.309457 
L 351.363023 40.309457 
L 357.11659 42.09345 
L 362.870158 36.741472 
L 368.623726 42.09345 
L 374.377294 42.09345 
L 380.130862 32.281491 
L 385.88443 41.201454 
L 391.637997 70.637331 
L 397.391565 108.101175 
L 403.145133 129.509085 
L 408.898701 129.509085 
L 414.652269 132.185074 
L 420.405837 125.9411 
L 426.159404 123.265111 
L 431.912972 131.293078 
L 437.66654 134.861063 
L 443.420108 132.185074 
L 449.173676 132.185074 
L 454.927244 133.969067 
L 460.680811 135.753059 
L 466.434379 136.645055 
L 472.187947 137.537052 
L 477.941515 140.213041 
L 483.695083 141.105037 
L 489.448651 141.105037 
L 495.202218 142.889029 
L 500.955786 141.105037 
L 506.709354 136.645055 
L 512.462922 133.969067 
L 518.21649 136.645055 
L 523.970058 140.213041 
L 529.723625 140.213041 
L 535.477193 135.753059 
L 541.230761 132.185074 
L 546.984329 133.969067 
L 552.737897 133.07707 
L 558.491465 133.969067 
L 564.245032 133.07707 
L 569.9986 128.617089 
L 575.752168 122.373115 
L 581.505736 124.157108 
L 587.259304 127.725093 
L 593.012872 133.07707 
L 598.766439 134.861063 
L 604.520007 141.105037 
L 610.273575 147.349011 
L 616.027143 148.241007 
L 621.780711 145.565018 
L 627.534279 144.673022 
L 633.287847 142.889029 
" style="fill:none;stroke:#ff7f0e;stroke-linecap:square;stroke-width:1.5;"/>
   </g>
   <g id="patch_3">
    <path d="M 35.20447 154.038983 
L 35.20447 26.483515 
" style="fill:none;stroke:#000000;stroke-linecap:square;stroke-linejoin:miter;stroke-width:0.8;"/>
   </g>
   <g id="patch_4">
    <path d="M 661.768007 154.038983 
L 661.768007 26.483515 
" style="fill:none;stroke:#000000;stroke-linecap:square;stroke-linejoin:miter;stroke-width:0.8;"/>
   </g>
   <g id="patch_5">
    <path d="M 35.20447 154.038983 
L 661.768007 154.038983 
" style="fill:none;stroke:#000000;stroke-linecap:square;stroke-linejoin:miter;stroke-width:0.8;"/>
   </g>
   <g id="patch_6">
    <path d="M 35.20447 26.483515 
L 661.768007 26.483515 
" style="fill:none;stroke:#000000;stroke-linecap:square;stroke-linejoin:miter;stroke-width:0.8;"/>
   </g>
   <g id="text_10">
    <!-- Intensity profile -->
    <g transform="translate(290.932496 20.483515)scale(0.192 -0.192)">
     <defs>
      <path d="M 1094 4416 
L 557 4416 
L 557 0 
L 1094 0 
L 1094 4416 
z
" id="CMSS17-49" transform="scale(0.015625)"/>
      <path d="M 2618 1878 
C 2618 2283 2522 2816 1798 2816 
C 1389 2816 1120 2604 941 2386 
L 941 2783 
L 474 2783 
L 474 0 
L 960 0 
L 960 1556 
C 960 1962 1114 2425 1549 2425 
C 2112 2425 2131 2045 2131 1826 
L 2131 0 
L 2618 0 
L 2618 1878 
z
" id="CMSS17-6e" transform="scale(0.015625)"/>
      <path d="M 1069 2380 
L 1901 2380 
L 1901 2752 
L 1069 2752 
L 1069 3520 
L 614 3520 
L 614 2752 
L 109 2752 
L 109 2380 
L 602 2380 
L 602 751 
C 602 384 685 -64 1107 -64 
C 1427 -64 1722 25 2003 172 
L 1901 551 
C 1747 416 1562 339 1363 339 
C 1082 339 1069 699 1069 860 
L 1069 2380 
z
" id="CMSS17-74" transform="scale(0.015625)"/>
      <path d="M 2502 1375 
C 2502 1587 2490 2001 2285 2347 
C 2061 2713 1696 2816 1421 2816 
C 755 2816 192 2184 192 1363 
C 192 579 774 -64 1510 -64 
C 1798 -64 2150 19 2470 249 
C 2470 275 2458 414 2451 421 
C 2451 433 2432 629 2432 655 
C 2125 408 1773 326 1517 326 
C 1107 326 666 667 646 1375 
L 2502 1375 
z
M 698 1728 
C 781 2086 1062 2425 1421 2425 
C 1517 2425 1965 2412 2080 1728 
L 698 1728 
z
" id="CMSS17-65" transform="scale(0.015625)"/>
      <path d="M 2061 2623 
C 1683 2803 1389 2816 1197 2816 
C 742 2816 198 2655 198 2009 
C 198 1363 902 1222 1094 1183 
C 1389 1126 1715 1062 1715 742 
C 1715 339 1254 339 1171 339 
C 915 339 563 409 243 639 
L 166 211 
C 531 0 883 -64 1178 -64 
C 1965 -64 2163 416 2163 780 
C 2163 1094 1984 1305 1862 1401 
C 1651 1567 1574 1587 1050 1695 
C 960 1708 646 1779 646 2067 
C 646 2431 1050 2431 1139 2431 
C 1555 2431 1811 2303 1984 2207 
L 2061 2623 
z
" id="CMSS17-73" transform="scale(0.015625)"/>
      <path d="M 979 4224 
L 442 4224 
L 442 3686 
L 979 3686 
L 979 4224 
z
M 947 2752 
L 474 2752 
L 474 0 
L 947 0 
L 947 2752 
z
" id="CMSS17-69" transform="scale(0.015625)"/>
      <path d="M 2675 2752 
L 2176 2752 
C 1632 1293 1446 701 1434 383 
L 1427 383 
C 1408 695 1126 1459 902 2006 
L 602 2752 
L 83 2752 
L 1216 14 
C 1146 -177 1043 -464 1011 -527 
C 870 -884 774 -884 672 -884 
C 646 -884 442 -877 211 -807 
L 250 -1229 
C 410 -1261 570 -1280 685 -1280 
C 845 -1280 1165 -1280 1459 -495 
L 2675 2752 
z
" id="CMSS17-79" transform="scale(0.015625)"/>
      <path d="M 966 275 
C 1178 70 1466 -64 1773 -64 
C 2368 -64 2880 553 2880 1382 
C 2880 2147 2496 2816 1946 2816 
C 1626 2816 1242 2700 954 2470 
L 954 2764 
L 480 2764 
L 480 -1280 
L 966 -1280 
L 966 275 
z
M 966 2088 
C 1018 2166 1235 2412 1587 2412 
C 2035 2412 2394 1946 2394 1382 
C 2394 741 1958 326 1530 326 
C 1402 326 1267 358 1139 468 
C 966 624 966 721 966 812 
L 966 2088 
z
" id="CMSS17-70" transform="scale(0.015625)"/>
      <path d="M 954 1369 
C 954 1974 1395 2379 1958 2392 
L 1958 2816 
C 1549 2809 1165 2604 934 2270 
L 934 2783 
L 480 2783 
L 480 0 
L 954 0 
L 954 1369 
z
" id="CMSS17-72" transform="scale(0.015625)"/>
      <path d="M 2829 1356 
C 2829 2175 2221 2816 1504 2816 
C 768 2816 173 2156 173 1356 
C 173 544 787 -64 1498 -64 
C 2227 -64 2829 563 2829 1356 
z
M 1504 339 
C 1050 339 659 710 659 1407 
C 659 2150 1114 2425 1498 2425 
C 1914 2425 2342 2124 2342 1407 
C 2342 684 1926 339 1504 339 
z
" id="CMSS17-6f" transform="scale(0.015625)"/>
      <path d="M 2752 4480 
L 2240 4480 
L 2240 3967 
L 2752 3967 
L 2752 4480 
z
M 2733 2752 
L 2259 2752 
L 2259 0 
L 2733 0 
L 2733 2752 
z
M 1075 2380 
L 1773 2380 
L 1773 2752 
L 1062 2752 
L 1062 3613 
C 1062 3961 1216 4134 1421 4134 
C 1542 4134 1664 4102 1773 4044 
L 1773 4473 
C 1722 4486 1574 4524 1421 4524 
C 941 4524 602 4038 602 3402 
L 602 2752 
L 160 2752 
L 160 2380 
L 602 2380 
L 602 0 
L 1075 0 
L 1075 2380 
z
" id="CMSS17-c" transform="scale(0.015625)"/>
      <path d="M 947 4416 
L 474 4416 
L 474 0 
L 947 0 
L 947 4416 
z
" id="CMSS17-6c" transform="scale(0.015625)"/>
     </defs>
     <use transform="scale(0.996264)" xlink:href="#CMSS17-49"/>
     <use transform="translate(25.783926 0)scale(0.996264)" xlink:href="#CMSS17-6e"/>
     <use transform="translate(73.988869 0)scale(0.996264)" xlink:href="#CMSS17-74"/>
     <use transform="translate(107.820435 0)scale(0.996264)" xlink:href="#CMSS17-65"/>
     <use transform="translate(149.459257 0)scale(0.996264)" xlink:href="#CMSS17-6e"/>
     <use transform="translate(197.664201 0)scale(0.996264)" xlink:href="#CMSS17-73"/>
     <use transform="translate(233.577743 0)scale(0.996264)" xlink:href="#CMSS17-69"/>
     <use transform="translate(255.758466 0)scale(0.996264)" xlink:href="#CMSS17-74"/>
     <use transform="translate(286.987578 0)scale(0.996264)" xlink:href="#CMSS17-79"/>
     <use transform="translate(361.216833 0)scale(0.996264)" xlink:href="#CMSS17-70"/>
     <use transform="translate(406.819322 0)scale(0.996264)" xlink:href="#CMSS17-72"/>
     <use transform="translate(438.729095 0)scale(0.996264)" xlink:href="#CMSS17-6f"/>
     <use transform="translate(485.572718 0)scale(0.996264)" xlink:href="#CMSS17-c"/>
     <use transform="translate(535.699455 0)scale(0.996264)" xlink:href="#CMSS17-6c"/>
     <use transform="translate(557.880178 0)scale(0.996264)" xlink:href="#CMSS17-65"/>
    </g>
   </g>
  </g>
  <g id="axes_2">
   <g id="patch_7">
    <path d="M 35.20447 335.372316 
L 661.768007 335.372316 
L 661.768007 207.816848 
L 35.20447 207.816848 
z
" style="fill:#ffffff;"/>
   </g>
   <g id="matplotlib.axis_3">
    <g id="xtick_7">
     <g id="line2d_21">
      <path clip-path="url(#p9c028c609a)" d="M 63.684631 335.372316 
L 63.684631 207.816848 
" style="fill:none;stroke:#b0b0b0;stroke-linecap:square;stroke-width:0.8;"/>
     </g>
     <g id="line2d_22">
      <g>
       <use style="stroke:#000000;stroke-width:0.8;" x="63.684631" xlink:href="#m698de6db06" y="335.372316"/>
      </g>
     </g>
     <g id="text_11">
      <!-- $\mathdefault{100}$ -->
      <g transform="translate(54.905145 350.674496)scale(0.12 -0.12)">
       <use transform="scale(0.996264)" xlink:href="#CMR17-31"/>
       <use transform="translate(45.690477 0)scale(0.996264)" xlink:href="#CMR17-30"/>
       <use transform="translate(91.380954 0)scale(0.996264)" xlink:href="#CMR17-30"/>
      </g>
     </g>
    </g>
    <g id="xtick_8">
     <g id="line2d_23">
      <path clip-path="url(#p9c028c609a)" d="M 179.930185 335.372316 
L 179.930185 207.816848 
" style="fill:none;stroke:#b0b0b0;stroke-linecap:square;stroke-width:0.8;"/>
     </g>
     <g id="line2d_24">
      <g>
       <use style="stroke:#000000;stroke-width:0.8;" x="179.930185" xlink:href="#m698de6db06" y="335.372316"/>
      </g>
     </g>
     <g id="text_12">
      <!-- $\mathdefault{120}$ -->
      <g transform="translate(171.1507 350.674496)scale(0.12 -0.12)">
       <use transform="scale(0.996264)" xlink:href="#CMR17-31"/>
       <use transform="translate(45.690477 0)scale(0.996264)" xlink:href="#CMR17-32"/>
       <use transform="translate(91.380954 0)scale(0.996264)" xlink:href="#CMR17-30"/>
      </g>
     </g>
    </g>
    <g id="xtick_9">
     <g id="line2d_25">
      <path clip-path="url(#p9c028c609a)" d="M 296.175739 335.372316 
L 296.175739 207.816848 
" style="fill:none;stroke:#b0b0b0;stroke-linecap:square;stroke-width:0.8;"/>
     </g>
     <g id="line2d_26">
      <g>
       <use style="stroke:#000000;stroke-width:0.8;" x="296.175739" xlink:href="#m698de6db06" y="335.372316"/>
      </g>
     </g>
     <g id="text_13">
      <!-- $\mathdefault{140}$ -->
      <g transform="translate(287.396254 350.674496)scale(0.12 -0.12)">
       <use transform="scale(0.996264)" xlink:href="#CMR17-31"/>
       <use transform="translate(45.690477 0)scale(0.996264)" xlink:href="#CMR17-34"/>
       <use transform="translate(91.380954 0)scale(0.996264)" xlink:href="#CMR17-30"/>
      </g>
     </g>
    </g>
    <g id="xtick_10">
     <g id="line2d_27">
      <path clip-path="url(#p9c028c609a)" d="M 412.421293 335.372316 
L 412.421293 207.816848 
" style="fill:none;stroke:#b0b0b0;stroke-linecap:square;stroke-width:0.8;"/>
     </g>
     <g id="line2d_28">
      <g>
       <use style="stroke:#000000;stroke-width:0.8;" x="412.421293" xlink:href="#m698de6db06" y="335.372316"/>
      </g>
     </g>
     <g id="text_14">
      <!-- $\mathdefault{160}$ -->
      <g transform="translate(403.641808 350.674496)scale(0.12 -0.12)">
       <use transform="scale(0.996264)" xlink:href="#CMR17-31"/>
       <use transform="translate(45.690477 0)scale(0.996264)" xlink:href="#CMR17-36"/>
       <use transform="translate(91.380954 0)scale(0.996264)" xlink:href="#CMR17-30"/>
      </g>
     </g>
    </g>
    <g id="xtick_11">
     <g id="line2d_29">
      <path clip-path="url(#p9c028c609a)" d="M 528.666848 335.372316 
L 528.666848 207.816848 
" style="fill:none;stroke:#b0b0b0;stroke-linecap:square;stroke-width:0.8;"/>
     </g>
     <g id="line2d_30">
      <g>
       <use style="stroke:#000000;stroke-width:0.8;" x="528.666848" xlink:href="#m698de6db06" y="335.372316"/>
      </g>
     </g>
     <g id="text_15">
      <!-- $\mathdefault{180}$ -->
      <g transform="translate(519.887362 350.674496)scale(0.12 -0.12)">
       <use transform="scale(0.996264)" xlink:href="#CMR17-31"/>
       <use transform="translate(45.690477 0)scale(0.996264)" xlink:href="#CMR17-38"/>
       <use transform="translate(91.380954 0)scale(0.996264)" xlink:href="#CMR17-30"/>
      </g>
     </g>
    </g>
    <g id="xtick_12">
     <g id="line2d_31">
      <path clip-path="url(#p9c028c609a)" d="M 644.912402 335.372316 
L 644.912402 207.816848 
" style="fill:none;stroke:#b0b0b0;stroke-linecap:square;stroke-width:0.8;"/>
     </g>
     <g id="line2d_32">
      <g>
       <use style="stroke:#000000;stroke-width:0.8;" x="644.912402" xlink:href="#m698de6db06" y="335.372316"/>
      </g>
     </g>
     <g id="text_16">
      <!-- $\mathdefault{200}$ -->
      <g transform="translate(636.132917 350.674496)scale(0.12 -0.12)">
       <use transform="scale(0.996264)" xlink:href="#CMR17-32"/>
       <use transform="translate(45.690477 0)scale(0.996264)" xlink:href="#CMR17-30"/>
       <use transform="translate(91.380954 0)scale(0.996264)" xlink:href="#CMR17-30"/>
      </g>
     </g>
    </g>
   </g>
   <g id="matplotlib.axis_4">
    <g id="ytick_4">
     <g id="line2d_33">
      <path clip-path="url(#p9c028c609a)" d="M 35.20447 325.19851 
L 661.768007 325.19851 
" style="fill:none;stroke:#b0b0b0;stroke-linecap:square;stroke-width:0.8;"/>
     </g>
     <g id="line2d_34">
      <g>
       <use style="stroke:#000000;stroke-width:0.8;" x="35.20447" xlink:href="#mc3ce88068c" y="325.19851"/>
      </g>
     </g>
     <g id="text_17">
      <!-- $\mathdefault{−40}$ -->
      <g transform="translate(7.2 329.3496)scale(0.12 -0.12)">
       <defs>
        <path d="M 4218 1472 
C 4326 1472 4442 1472 4442 1600 
C 4442 1728 4326 1728 4218 1728 
L 755 1728 
C 646 1728 531 1728 531 1600 
C 531 1472 646 1472 755 1472 
L 4218 1472 
z
" id="CMSY10-0" transform="scale(0.015625)"/>
       </defs>
       <use transform="scale(0.996264)" xlink:href="#CMSY10-0"/>
       <use transform="translate(77.487468 0)scale(0.996264)" xlink:href="#CMR17-34"/>
       <use transform="translate(123.177945 0)scale(0.996264)" xlink:href="#CMR17-30"/>
      </g>
     </g>
    </g>
    <g id="ytick_5">
     <g id="line2d_35">
      <path clip-path="url(#p9c028c609a)" d="M 35.20447 281.440202 
L 661.768007 281.440202 
" style="fill:none;stroke:#b0b0b0;stroke-linecap:square;stroke-width:0.8;"/>
     </g>
     <g id="line2d_36">
      <g>
       <use style="stroke:#000000;stroke-width:0.8;" x="35.20447" xlink:href="#mc3ce88068c" y="281.440202"/>
      </g>
     </g>
     <g id="text_18">
      <!-- $\mathdefault{−20}$ -->
      <g transform="translate(7.2 285.591292)scale(0.12 -0.12)">
       <use transform="scale(0.996264)" xlink:href="#CMSY10-0"/>
       <use transform="translate(77.487468 0)scale(0.996264)" xlink:href="#CMR17-32"/>
       <use transform="translate(123.177945 0)scale(0.996264)" xlink:href="#CMR17-30"/>
      </g>
     </g>
    </g>
    <g id="ytick_6">
     <g id="line2d_37">
      <path clip-path="url(#p9c028c609a)" d="M 35.20447 237.681894 
L 661.768007 237.681894 
" style="fill:none;stroke:#b0b0b0;stroke-linecap:square;stroke-width:0.8;"/>
     </g>
     <g id="line2d_38">
      <g>
       <use style="stroke:#000000;stroke-width:0.8;" x="35.20447" xlink:href="#mc3ce88068c" y="237.681894"/>
      </g>
     </g>
     <g id="text_19">
      <!-- $\mathdefault{0}$ -->
      <g transform="translate(22.35148 241.832984)scale(0.12 -0.12)">
       <use transform="scale(0.996264)" xlink:href="#CMR17-30"/>
      </g>
     </g>
    </g>
   </g>
   <g id="line2d_39">
    <path clip-path="url(#p9c028c609a)" d="M 394.98446 335.372316 
L 394.98446 207.816848 
" style="fill:none;stroke:#2ca02c;stroke-linecap:square;"/>
   </g>
   <g id="line2d_40">
    <path clip-path="url(#p9c028c609a)" d="M 63.684631 235.493978 
L 69.496908 237.681894 
L 75.309186 237.681894 
L 81.121464 235.493978 
L 86.933742 235.493978 
L 92.746019 237.681894 
L 98.558297 237.681894 
L 104.370575 239.869809 
L 110.182852 237.681894 
L 115.99513 237.681894 
L 121.807408 235.493978 
L 127.619686 235.493978 
L 133.431963 237.681894 
L 139.244241 235.493978 
L 145.056519 237.681894 
L 150.868796 237.681894 
L 156.681074 235.493978 
L 162.493352 237.681894 
L 168.30563 237.681894 
L 174.117907 235.493978 
L 179.930185 237.681894 
L 185.742463 237.681894 
L 191.55474 237.681894 
L 197.367018 235.493978 
L 203.179296 233.306063 
L 208.991574 239.869809 
L 214.803851 242.057724 
L 220.616129 239.869809 
L 226.428407 233.306063 
L 232.240684 235.493978 
L 238.052962 235.493978 
L 243.86524 237.681894 
L 249.677518 237.681894 
L 255.489795 235.493978 
L 261.302073 235.493978 
L 267.114351 237.681894 
L 272.926628 239.869809 
L 278.738906 235.493978 
L 284.551184 235.493978 
L 290.363461 233.306063 
L 296.175739 235.493978 
L 301.988017 237.681894 
L 307.800295 239.869809 
L 313.612572 239.869809 
L 319.42485 233.306063 
L 325.237128 235.493978 
L 331.049405 239.869809 
L 336.861683 233.306063 
L 342.673961 233.306063 
L 348.486239 237.681894 
L 354.298516 242.057724 
L 360.110794 224.554401 
L 365.923072 250.809386 
L 371.735349 237.681894 
L 377.547627 213.614824 
L 383.359905 259.561048 
L 389.172183 309.883102 
L 394.98446 329.57434 
L 400.796738 290.191863 
L 406.609016 237.681894 
L 412.421293 244.24564 
L 418.233571 222.366486 
L 424.045849 231.118147 
L 429.858127 257.373132 
L 435.670404 246.433555 
L 441.482682 231.118147 
L 447.29496 237.681894 
L 453.107237 242.057724 
L 458.919515 242.057724 
L 464.731793 239.869809 
L 470.544071 239.869809 
L 476.356348 244.24564 
L 482.168626 239.869809 
L 487.980904 237.681894 
L 493.793181 242.057724 
L 499.605459 233.306063 
L 505.417737 226.742317 
L 511.230015 231.118147 
L 517.042292 244.24564 
L 522.85457 246.433555 
L 528.666848 237.681894 
L 534.479125 226.742317 
L 540.291403 228.930232 
L 546.103681 242.057724 
L 551.915959 235.493978 
L 557.728236 239.869809 
L 563.540514 235.493978 
L 569.352792 226.742317 
L 575.165069 222.366486 
L 580.977347 242.057724 
L 586.789625 246.433555 
L 592.601903 250.809386 
L 598.41418 242.057724 
L 604.226458 252.997301 
L 610.038736 252.997301 
L 615.851013 239.869809 
L 621.663291 231.118147 
L 627.475569 235.493978 
L 633.287847 233.306063 
" style="fill:none;stroke:#ff7f0e;stroke-linecap:square;stroke-width:1.5;"/>
   </g>
   <g id="patch_8">
    <path d="M 35.20447 335.372316 
L 35.20447 207.816848 
" style="fill:none;stroke:#000000;stroke-linecap:square;stroke-linejoin:miter;stroke-width:0.8;"/>
   </g>
   <g id="patch_9">
    <path d="M 661.768007 335.372316 
L 661.768007 207.816848 
" style="fill:none;stroke:#000000;stroke-linecap:square;stroke-linejoin:miter;stroke-width:0.8;"/>
   </g>
   <g id="patch_10">
    <path d="M 35.20447 335.372316 
L 661.768007 335.372316 
" style="fill:none;stroke:#000000;stroke-linecap:square;stroke-linejoin:miter;stroke-width:0.8;"/>
   </g>
   <g id="patch_11">
    <path d="M 35.20447 207.816848 
L 661.768007 207.816848 
" style="fill:none;stroke:#000000;stroke-linecap:square;stroke-linejoin:miter;stroke-width:0.8;"/>
   </g>
   <g id="text_20">
    <!-- First derivative -->
    <g transform="translate(292.723577 201.816848)scale(0.192 -0.192)">
     <defs>
      <path d="M 2918 1984 
L 2918 2374 
L 1101 2374 
L 1101 3993 
L 1882 3993 
C 1958 3993 2035 3987 2112 3987 
L 3168 3987 
L 3168 4403 
L 563 4403 
L 563 0 
L 1101 0 
L 1101 1984 
L 2918 1984 
z
" id="CMSS17-46" transform="scale(0.015625)"/>
      <path d="M 2611 4416 
L 2138 4416 
L 2138 2495 
C 1939 2662 1613 2816 1254 2816 
C 672 2816 211 2179 211 1375 
C 211 572 666 -64 1235 -64 
C 1677 -64 1971 172 2125 307 
L 2125 -13 
L 2611 -13 
L 2611 4416 
z
M 2125 851 
C 2125 760 2125 663 1926 488 
C 1798 378 1645 326 1498 326 
C 1152 326 698 585 698 1369 
C 698 2185 1210 2425 1562 2425 
C 1798 2425 1990 2308 2125 2114 
L 2125 851 
z
" id="CMSS17-64" transform="scale(0.015625)"/>
      <path d="M 2675 2752 
L 2176 2752 
L 1747 1555 
C 1613 1164 1421 627 1389 352 
L 1382 352 
C 1370 467 1318 633 1286 748 
C 1248 889 1197 1056 1158 1171 
L 595 2752 
L 83 2752 
L 1094 0 
L 1664 0 
L 2675 2752 
z
" id="CMSS17-76" transform="scale(0.015625)"/>
      <path d="M 2406 1789 
C 2406 2399 1978 2816 1402 2816 
C 1120 2816 813 2764 461 2559 
L 499 2133 
C 659 2250 934 2438 1395 2438 
C 1722 2438 1920 2185 1920 1782 
L 1920 1536 
C 896 1504 256 1209 256 711 
C 256 452 416 -64 947 -64 
C 1043 -64 1562 -52 1933 224 
L 1933 -13 
L 2406 -13 
L 2406 1789 
z
M 1920 824 
C 1920 711 1920 559 1728 446 
C 1562 339 1350 326 1261 326 
C 941 326 723 503 723 723 
C 723 1165 1722 1209 1920 1216 
L 1920 824 
z
" id="CMSS17-61" transform="scale(0.015625)"/>
     </defs>
     <use transform="scale(0.996264)" xlink:href="#CMSS17-46"/>
     <use transform="translate(53.289559 0)scale(0.996264)" xlink:href="#CMSS17-69"/>
     <use transform="translate(75.470282 0)scale(0.996264)" xlink:href="#CMSS17-72"/>
     <use transform="translate(107.380055 0)scale(0.996264)" xlink:href="#CMSS17-73"/>
     <use transform="translate(143.293597 0)scale(0.996264)" xlink:href="#CMSS17-74"/>
     <use transform="translate(208.354276 0)scale(0.996264)" xlink:href="#CMSS17-64"/>
     <use transform="translate(256.559219 0)scale(0.996264)" xlink:href="#CMSS17-65"/>
     <use transform="translate(298.198042 0)scale(0.996264)" xlink:href="#CMSS17-72"/>
     <use transform="translate(330.107814 0)scale(0.996264)" xlink:href="#CMSS17-69"/>
     <use transform="translate(352.288537 0)scale(0.996264)" xlink:href="#CMSS17-76"/>
     <use transform="translate(395.288679 0)scale(0.996264)" xlink:href="#CMSS17-61"/>
     <use transform="translate(440.210599 0)scale(0.996264)" xlink:href="#CMSS17-74"/>
     <use transform="translate(474.042166 0)scale(0.996264)" xlink:href="#CMSS17-69"/>
     <use transform="translate(496.222889 0)scale(0.996264)" xlink:href="#CMSS17-76"/>
     <use transform="translate(539.223031 0)scale(0.996264)" xlink:href="#CMSS17-65"/>
    </g>
   </g>
  </g>
  <g id="axes_3">
   <g id="patch_12">
    <path d="M 35.20447 516.70565 
L 661.768007 516.70565 
L 661.768007 389.150182 
L 35.20447 389.150182 
z
" style="fill:#ffffff;"/>
   </g>
   <g id="matplotlib.axis_5">
    <g id="xtick_13">
     <g id="line2d_41">
      <path clip-path="url(#pe5fa9fd1a3)" d="M 60.748532 516.70565 
L 60.748532 389.150182 
" style="fill:none;stroke:#b0b0b0;stroke-linecap:square;stroke-width:0.8;"/>
     </g>
     <g id="line2d_42">
      <g>
       <use style="stroke:#000000;stroke-width:0.8;" x="60.748532" xlink:href="#m698de6db06" y="516.70565"/>
      </g>
     </g>
     <g id="text_21">
      <!-- $\mathdefault{100}$ -->
      <g transform="translate(51.969046 532.007829)scale(0.12 -0.12)">
       <use transform="scale(0.996264)" xlink:href="#CMR17-31"/>
       <use transform="translate(45.690477 0)scale(0.996264)" xlink:href="#CMR17-30"/>
       <use transform="translate(91.380954 0)scale(0.996264)" xlink:href="#CMR17-30"/>
      </g>
     </g>
    </g>
    <g id="xtick_14">
     <g id="line2d_43">
      <path clip-path="url(#pe5fa9fd1a3)" d="M 178.192494 516.70565 
L 178.192494 389.150182 
" style="fill:none;stroke:#b0b0b0;stroke-linecap:square;stroke-width:0.8;"/>
     </g>
     <g id="line2d_44">
      <g>
       <use style="stroke:#000000;stroke-width:0.8;" x="178.192494" xlink:href="#m698de6db06" y="516.70565"/>
      </g>
     </g>
     <g id="text_22">
      <!-- $\mathdefault{120}$ -->
      <g transform="translate(169.413008 532.007829)scale(0.12 -0.12)">
       <use transform="scale(0.996264)" xlink:href="#CMR17-31"/>
       <use transform="translate(45.690477 0)scale(0.996264)" xlink:href="#CMR17-32"/>
       <use transform="translate(91.380954 0)scale(0.996264)" xlink:href="#CMR17-30"/>
      </g>
     </g>
    </g>
    <g id="xtick_15">
     <g id="line2d_45">
      <path clip-path="url(#pe5fa9fd1a3)" d="M 295.636456 516.70565 
L 295.636456 389.150182 
" style="fill:none;stroke:#b0b0b0;stroke-linecap:square;stroke-width:0.8;"/>
     </g>
     <g id="line2d_46">
      <g>
       <use style="stroke:#000000;stroke-width:0.8;" x="295.636456" xlink:href="#m698de6db06" y="516.70565"/>
      </g>
     </g>
     <g id="text_23">
      <!-- $\mathdefault{140}$ -->
      <g transform="translate(286.85697 532.007829)scale(0.12 -0.12)">
       <use transform="scale(0.996264)" xlink:href="#CMR17-31"/>
       <use transform="translate(45.690477 0)scale(0.996264)" xlink:href="#CMR17-34"/>
       <use transform="translate(91.380954 0)scale(0.996264)" xlink:href="#CMR17-30"/>
      </g>
     </g>
    </g>
    <g id="xtick_16">
     <g id="line2d_47">
      <path clip-path="url(#pe5fa9fd1a3)" d="M 413.080418 516.70565 
L 413.080418 389.150182 
" style="fill:none;stroke:#b0b0b0;stroke-linecap:square;stroke-width:0.8;"/>
     </g>
     <g id="line2d_48">
      <g>
       <use style="stroke:#000000;stroke-width:0.8;" x="413.080418" xlink:href="#m698de6db06" y="516.70565"/>
      </g>
     </g>
     <g id="text_24">
      <!-- $\mathdefault{160}$ -->
      <g transform="translate(404.300932 532.007829)scale(0.12 -0.12)">
       <use transform="scale(0.996264)" xlink:href="#CMR17-31"/>
       <use transform="translate(45.690477 0)scale(0.996264)" xlink:href="#CMR17-36"/>
       <use transform="translate(91.380954 0)scale(0.996264)" xlink:href="#CMR17-30"/>
      </g>
     </g>
    </g>
    <g id="xtick_17">
     <g id="line2d_49">
      <path clip-path="url(#pe5fa9fd1a3)" d="M 530.52438 516.70565 
L 530.52438 389.150182 
" style="fill:none;stroke:#b0b0b0;stroke-linecap:square;stroke-width:0.8;"/>
     </g>
     <g id="line2d_50">
      <g>
       <use style="stroke:#000000;stroke-width:0.8;" x="530.52438" xlink:href="#m698de6db06" y="516.70565"/>
      </g>
     </g>
     <g id="text_25">
      <!-- $\mathdefault{180}$ -->
      <g transform="translate(521.744894 532.007829)scale(0.12 -0.12)">
       <use transform="scale(0.996264)" xlink:href="#CMR17-31"/>
       <use transform="translate(45.690477 0)scale(0.996264)" xlink:href="#CMR17-38"/>
       <use transform="translate(91.380954 0)scale(0.996264)" xlink:href="#CMR17-30"/>
      </g>
     </g>
    </g>
    <g id="xtick_18">
     <g id="line2d_51">
      <path clip-path="url(#pe5fa9fd1a3)" d="M 647.968342 516.70565 
L 647.968342 389.150182 
" style="fill:none;stroke:#b0b0b0;stroke-linecap:square;stroke-width:0.8;"/>
     </g>
     <g id="line2d_52">
      <g>
       <use style="stroke:#000000;stroke-width:0.8;" x="647.968342" xlink:href="#m698de6db06" y="516.70565"/>
      </g>
     </g>
     <g id="text_26">
      <!-- $\mathdefault{200}$ -->
      <g transform="translate(639.188856 532.007829)scale(0.12 -0.12)">
       <use transform="scale(0.996264)" xlink:href="#CMR17-32"/>
       <use transform="translate(45.690477 0)scale(0.996264)" xlink:href="#CMR17-30"/>
       <use transform="translate(91.380954 0)scale(0.996264)" xlink:href="#CMR17-30"/>
      </g>
     </g>
    </g>
   </g>
   <g id="matplotlib.axis_6">
    <g id="ytick_7">
     <g id="line2d_53">
      <path clip-path="url(#pe5fa9fd1a3)" d="M 35.20447 503.506003 
L 661.768007 503.506003 
" style="fill:none;stroke:#b0b0b0;stroke-linecap:square;stroke-width:0.8;"/>
     </g>
     <g id="line2d_54">
      <g>
       <use style="stroke:#000000;stroke-width:0.8;" x="35.20447" xlink:href="#mc3ce88068c" y="503.506003"/>
      </g>
     </g>
     <g id="text_27">
      <!-- $\mathdefault{−20}$ -->
      <g transform="translate(7.2 507.657092)scale(0.12 -0.12)">
       <use transform="scale(0.996264)" xlink:href="#CMSY10-0"/>
       <use transform="translate(77.487468 0)scale(0.996264)" xlink:href="#CMR17-32"/>
       <use transform="translate(123.177945 0)scale(0.996264)" xlink:href="#CMR17-30"/>
      </g>
     </g>
    </g>
    <g id="ytick_8">
     <g id="line2d_55">
      <path clip-path="url(#pe5fa9fd1a3)" d="M 35.20447 454.161528 
L 661.768007 454.161528 
" style="fill:none;stroke:#b0b0b0;stroke-linecap:square;stroke-width:0.8;"/>
     </g>
     <g id="line2d_56">
      <g>
       <use style="stroke:#000000;stroke-width:0.8;" x="35.20447" xlink:href="#mc3ce88068c" y="454.161528"/>
      </g>
     </g>
     <g id="text_28">
      <!-- $\mathdefault{0}$ -->
      <g transform="translate(22.35148 458.312617)scale(0.12 -0.12)">
       <use transform="scale(0.996264)" xlink:href="#CMR17-30"/>
      </g>
     </g>
    </g>
    <g id="ytick_9">
     <g id="line2d_57">
      <path clip-path="url(#pe5fa9fd1a3)" d="M 35.20447 404.817053 
L 661.768007 404.817053 
" style="fill:none;stroke:#b0b0b0;stroke-linecap:square;stroke-width:0.8;"/>
     </g>
     <g id="line2d_58">
      <g>
       <use style="stroke:#000000;stroke-width:0.8;" x="35.20447" xlink:href="#mc3ce88068c" y="404.817053"/>
      </g>
     </g>
     <g id="text_29">
      <!-- $\mathdefault{20}$ -->
      <g transform="translate(16.498489 408.968142)scale(0.12 -0.12)">
       <use transform="scale(0.996264)" xlink:href="#CMR17-32"/>
       <use transform="translate(45.690477 0)scale(0.996264)" xlink:href="#CMR17-30"/>
      </g>
     </g>
    </g>
   </g>
   <g id="line2d_59">
    <path clip-path="url(#pe5fa9fd1a3)" d="M 395.463823 516.70565 
L 395.463823 389.150182 
" style="fill:none;stroke:#2ca02c;stroke-linecap:square;"/>
   </g>
   <g id="line2d_60">
    <path clip-path="url(#pe5fa9fd1a3)" d="M 63.684631 456.628751 
L 69.556829 454.161528 
L 75.429027 451.694304 
L 81.301225 454.161528 
L 87.173423 456.628751 
L 93.045621 454.161528 
L 98.917819 456.628751 
L 104.790017 451.694304 
L 110.662216 454.161528 
L 116.534414 451.694304 
L 122.406612 454.161528 
L 128.27881 456.628751 
L 134.151008 451.694304 
L 140.023206 456.628751 
L 145.895404 454.161528 
L 151.767602 451.694304 
L 157.6398 456.628751 
L 163.511998 454.161528 
L 169.384197 451.694304 
L 175.256395 456.628751 
L 181.128593 454.161528 
L 187.000791 454.161528 
L 192.872989 451.694304 
L 198.745187 451.694304 
L 204.617385 461.563199 
L 210.489583 456.628751 
L 216.361781 451.694304 
L 222.233979 446.759856 
L 228.106178 456.628751 
L 233.978376 454.161528 
L 239.850574 456.628751 
L 245.722772 454.161528 
L 251.59497 451.694304 
L 257.467168 454.161528 
L 263.339366 456.628751 
L 269.211564 456.628751 
L 275.083762 449.22708 
L 280.95596 454.161528 
L 286.828159 451.694304 
L 292.700357 456.628751 
L 298.572555 456.628751 
L 304.444753 456.628751 
L 310.316951 454.161528 
L 316.189149 446.759856 
L 322.061347 456.628751 
L 327.933545 459.095975 
L 333.805743 446.759856 
L 339.677941 454.161528 
L 345.55014 459.095975 
L 351.422338 459.095975 
L 357.294536 434.423738 
L 363.166734 483.768213 
L 369.038932 439.358185 
L 374.91113 427.022066 
L 380.783328 505.973226 
L 386.655526 510.907674 
L 392.527724 476.366541 
L 398.399922 409.7515 
L 404.272121 394.948158 
L 410.144319 461.563199 
L 416.016517 429.48929 
L 421.888715 464.030423 
L 427.760913 483.768213 
L 433.633111 441.825409 
L 439.505309 436.890961 
L 445.377507 461.563199 
L 451.249705 459.095975 
L 457.121903 454.161528 
L 462.994102 451.694304 
L 468.8663 454.161528 
L 474.738498 459.095975 
L 480.610696 449.22708 
L 486.482894 451.694304 
L 492.355092 459.095975 
L 498.22729 444.292633 
L 504.099488 446.759856 
L 509.971686 459.095975 
L 515.843884 468.96487 
L 521.716083 456.628751 
L 527.588281 444.292633 
L 533.460479 441.825409 
L 539.332677 456.628751 
L 545.204875 468.96487 
L 551.077073 446.759856 
L 556.949271 459.095975 
L 562.821469 449.22708 
L 568.693667 444.292633 
L 574.565866 449.22708 
L 580.438064 476.366541 
L 586.310262 459.095975 
L 592.18246 459.095975 
L 598.054658 444.292633 
L 603.926856 466.497646 
L 609.799054 454.161528 
L 615.671252 439.358185 
L 621.54345 444.292633 
L 627.415648 459.095975 
L 633.287847 451.694304 
" style="fill:none;stroke:#ff7f0e;stroke-linecap:square;stroke-width:1.5;"/>
   </g>
   <g id="patch_13">
    <path d="M 35.20447 516.70565 
L 35.20447 389.150182 
" style="fill:none;stroke:#000000;stroke-linecap:square;stroke-linejoin:miter;stroke-width:0.8;"/>
   </g>
   <g id="patch_14">
    <path d="M 661.768007 516.70565 
L 661.768007 389.150182 
" style="fill:none;stroke:#000000;stroke-linecap:square;stroke-linejoin:miter;stroke-width:0.8;"/>
   </g>
   <g id="patch_15">
    <path d="M 35.20447 516.70565 
L 661.768007 516.70565 
" style="fill:none;stroke:#000000;stroke-linecap:square;stroke-linejoin:miter;stroke-width:0.8;"/>
   </g>
   <g id="patch_16">
    <path d="M 35.20447 389.150182 
L 661.768007 389.150182 
" style="fill:none;stroke:#000000;stroke-linecap:square;stroke-linejoin:miter;stroke-width:0.8;"/>
   </g>
   <g id="text_30">
    <!-- Second derivative -->
    <g transform="translate(282.98394 383.150182)scale(0.192 -0.192)">
     <defs>
      <path d="M 2797 4230 
C 2515 4396 2208 4544 1690 4544 
C 864 4544 333 3934 333 3309 
C 333 3064 403 2787 653 2504 
C 902 2220 1184 2143 1542 2053 
C 1690 2014 1939 1943 1984 1924 
C 2342 1782 2515 1454 2515 1144 
C 2515 738 2202 307 1645 307 
C 1453 307 890 339 358 829 
L 269 320 
C 794 -64 1363 -128 1651 -128 
C 2438 -128 3002 494 3002 1202 
C 3002 1460 2925 1789 2656 2092 
C 2394 2381 2163 2446 1638 2588 
C 1338 2665 1146 2717 986 2916 
C 877 3058 819 3193 819 3367 
C 819 3728 1126 4121 1690 4121 
C 1971 4121 2336 4063 2707 3715 
L 2797 4230 
z
" id="CMSS17-53" transform="scale(0.015625)"/>
      <path d="M 2464 2540 
C 2464 2585 2170 2713 2093 2739 
C 1882 2816 1613 2816 1542 2816 
C 710 2816 211 2092 211 1363 
C 211 595 768 -64 1517 -64 
C 1946 -64 2253 76 2502 243 
L 2464 665 
C 2189 454 1869 339 1523 339 
C 1024 339 698 774 698 1369 
C 698 1830 909 2412 1549 2412 
C 1901 2412 2099 2342 2394 2143 
L 2464 2540 
z
" id="CMSS17-63" transform="scale(0.015625)"/>
     </defs>
     <use transform="scale(0.996264)" xlink:href="#CMSS17-53"/>
     <use transform="translate(52.048516 0)scale(0.996264)" xlink:href="#CMSS17-65"/>
     <use transform="translate(93.687338 0)scale(0.996264)" xlink:href="#CMSS17-63"/>
     <use transform="translate(135.32616 0)scale(0.996264)" xlink:href="#CMSS17-6f"/>
     <use transform="translate(182.169784 0)scale(0.996264)" xlink:href="#CMSS17-6e"/>
     <use transform="translate(230.374727 0)scale(0.996264)" xlink:href="#CMSS17-64"/>
     <use transform="translate(309.808783 0)scale(0.996264)" xlink:href="#CMSS17-64"/>
     <use transform="translate(358.013726 0)scale(0.996264)" xlink:href="#CMSS17-65"/>
     <use transform="translate(399.652548 0)scale(0.996264)" xlink:href="#CMSS17-72"/>
     <use transform="translate(431.562321 0)scale(0.996264)" xlink:href="#CMSS17-69"/>
     <use transform="translate(453.743044 0)scale(0.996264)" xlink:href="#CMSS17-76"/>
     <use transform="translate(496.743185 0)scale(0.996264)" xlink:href="#CMSS17-61"/>
     <use transform="translate(541.665106 0)scale(0.996264)" xlink:href="#CMSS17-74"/>
     <use transform="translate(575.496673 0)scale(0.996264)" xlink:href="#CMSS17-69"/>
     <use transform="translate(597.677396 0)scale(0.996264)" xlink:href="#CMSS17-76"/>
     <use transform="translate(640.677537 0)scale(0.996264)" xlink:href="#CMSS17-65"/>
    </g>
   </g>
  </g>
 </g>
 <defs>
  <clipPath id="p29f9b3d599">
   <rect height="127.555468" width="626.563537" x="35.20447" y="26.483515"/>
  </clipPath>
  <clipPath id="p9c028c609a">
   <rect height="127.555468" width="626.563537" x="35.20447" y="207.816848"/>
  </clipPath>
  <clipPath id="pe5fa9fd1a3">
   <rect height="127.555468" width="626.563537" x="35.20447" y="389.150182"/>
  </clipPath>
 </defs>
</svg>
