<?xml version="1.0" encoding="utf-8" standalone="no"?>
<!DOCTYPE svg PUBLIC "-//W3C//DTD SVG 1.1//EN"
  "http://www.w3.org/Graphics/SVG/1.1/DTD/svg11.dtd">
<svg height="541.532425pt" version="1.1" viewBox="0 0 668.968007 541.532425" width="668.968007pt" xmlns="http://www.w3.org/2000/svg" xmlns:xlink="http://www.w3.org/1999/xlink">
 <metadata>
  <rdf:RDF xmlns:cc="http://creativecommons.org/ns#" xmlns:dc="http://purl.org/dc/elements/1.1/" xmlns:rdf="http://www.w3.org/1999/02/22-rdf-syntax-ns#">
   <cc:Work>
    <dc:type rdf:resource="http://purl.org/dc/dcmitype/StillImage"/>
    <dc:date>2021-10-29T09:55:52.996427</dc:date>
    <dc:format>image/svg+xml</dc:format>
    <dc:creator>
     <cc:Agent>
      <dc:title>Matplotlib v3.4.3, https://matplotlib.org/</dc:title>
     </cc:Agent>
    </dc:creator>
   </cc:Work>
  </rdf:RDF>
 </metadata>
 <defs>
  <style type="text/css">*{stroke-linecap:butt;stroke-linejoin:round;}</style>
 </defs>
 <g id="figure_1">
  <g id="patch_1">
   <path d="M 0 541.532425 
L 668.968007 541.532425 
L 668.968007 0 
L 0 0 
z
" style="fill:none;"/>
  </g>
  <g id="axes_1">
   <g id="patch_2">
    <path d="M 35.20447 154.038983 
L 661.768007 154.038983 
L 661.768007 26.483515 
L 35.20447 26.483515 
z
" style="fill:#ffffff;"/>
   </g>
   <g id="matplotlib.axis_1">
    <g id="xtick_1">
     <g id="line2d_1">
      <path clip-path="url(#pefc69623e1)" d="M 66.561415 154.038983 
L 66.561415 26.483515 
" style="fill:none;stroke:#b0b0b0;stroke-linecap:square;stroke-width:0.8;"/>
     </g>
     <g id="line2d_2">
      <defs>
       <path d="M 0 0 
L 0 3.5 
" id="m7e19381464" style="stroke:#000000;stroke-width:0.8;"/>
      </defs>
      <g>
       <use style="stroke:#000000;stroke-width:0.8;" x="66.561415" xlink:href="#m7e19381464" y="154.038983"/>
      </g>
     </g>
     <g id="text_1">
      <!-- $\mathdefault{100}$ -->
      <g transform="translate(57.781929 169.341163)scale(0.12 -0.12)">
       <defs>
        <path d="M 1702 4058 
C 1702 4192 1696 4192 1606 4192 
C 1357 3916 979 3827 621 3827 
C 602 3827 570 3827 563 3808 
C 557 3795 557 3782 557 3648 
C 755 3648 1088 3686 1344 3839 
L 1344 461 
C 1344 236 1331 160 781 160 
L 589 160 
L 589 0 
C 896 0 1216 0 1523 0 
C 1830 0 2150 0 2458 0 
L 2458 160 
L 2266 160 
C 1715 160 1702 230 1702 458 
L 1702 4058 
z
" id="CMR17-31" transform="scale(0.015625)"/>
        <path d="M 2688 2025 
C 2688 2416 2682 3080 2413 3591 
C 2176 4039 1798 4198 1466 4198 
C 1158 4198 768 4058 525 3597 
C 269 3118 243 2524 243 2025 
C 243 1661 250 1106 448 619 
C 723 -39 1216 -128 1466 -128 
C 1760 -128 2208 -7 2470 600 
C 2662 1042 2688 1559 2688 2025 
z
M 1466 -26 
C 1056 -26 813 325 723 812 
C 653 1188 653 1738 653 2096 
C 653 2588 653 2997 736 3387 
C 858 3929 1216 4096 1466 4096 
C 1728 4096 2067 3923 2189 3400 
C 2272 3036 2278 2607 2278 2096 
C 2278 1680 2278 1169 2202 792 
C 2067 95 1690 -26 1466 -26 
z
" id="CMR17-30" transform="scale(0.015625)"/>
       </defs>
       <use transform="scale(0.996264)" xlink:href="#CMR17-31"/>
       <use transform="translate(45.690477 0)scale(0.996264)" xlink:href="#CMR17-30"/>
       <use transform="translate(91.380954 0)scale(0.996264)" xlink:href="#CMR17-30"/>
      </g>
     </g>
    </g>
    <g id="xtick_2">
     <g id="line2d_3">
      <path clip-path="url(#pefc69623e1)" d="M 181.632771 154.038983 
L 181.632771 26.483515 
" style="fill:none;stroke:#b0b0b0;stroke-linecap:square;stroke-width:0.8;"/>
     </g>
     <g id="line2d_4">
      <g>
       <use style="stroke:#000000;stroke-width:0.8;" x="181.632771" xlink:href="#m7e19381464" y="154.038983"/>
      </g>
     </g>
     <g id="text_2">
      <!-- $\mathdefault{120}$ -->
      <g transform="translate(172.853286 169.341163)scale(0.12 -0.12)">
       <defs>
        <path d="M 2669 989 
L 2554 989 
C 2490 536 2438 459 2413 420 
C 2381 369 1920 369 1830 369 
L 602 369 
C 832 619 1280 1072 1824 1597 
C 2214 1967 2669 2402 2669 3035 
C 2669 3790 2067 4224 1395 4224 
C 691 4224 262 3604 262 3030 
C 262 2780 448 2748 525 2748 
C 589 2748 781 2787 781 3010 
C 781 3207 614 3264 525 3264 
C 486 3264 448 3258 422 3245 
C 544 3790 915 4058 1306 4058 
C 1862 4058 2227 3617 2227 3035 
C 2227 2479 1901 2000 1536 1584 
L 262 146 
L 262 0 
L 2515 0 
L 2669 989 
z
" id="CMR17-32" transform="scale(0.015625)"/>
       </defs>
       <use transform="scale(0.996264)" xlink:href="#CMR17-31"/>
       <use transform="translate(45.690477 0)scale(0.996264)" xlink:href="#CMR17-32"/>
       <use transform="translate(91.380954 0)scale(0.996264)" xlink:href="#CMR17-30"/>
      </g>
     </g>
    </g>
    <g id="xtick_3">
     <g id="line2d_5">
      <path clip-path="url(#pefc69623e1)" d="M 296.704128 154.038983 
L 296.704128 26.483515 
" style="fill:none;stroke:#b0b0b0;stroke-linecap:square;stroke-width:0.8;"/>
     </g>
     <g id="line2d_6">
      <g>
       <use style="stroke:#000000;stroke-width:0.8;" x="296.704128" xlink:href="#m7e19381464" y="154.038983"/>
      </g>
     </g>
     <g id="text_3">
      <!-- $\mathdefault{140}$ -->
      <g transform="translate(287.924643 169.341163)scale(0.12 -0.12)">
       <defs>
        <path d="M 2150 4122 
C 2150 4256 2144 4256 2029 4256 
L 128 1254 
L 128 1088 
L 1779 1088 
L 1779 457 
C 1779 224 1766 160 1318 160 
L 1197 160 
L 1197 0 
C 1402 0 1747 0 1965 0 
C 2182 0 2528 0 2733 0 
L 2733 160 
L 2611 160 
C 2163 160 2150 224 2150 457 
L 2150 1088 
L 2803 1088 
L 2803 1254 
L 2150 1254 
L 2150 4122 
z
M 1798 3703 
L 1798 1254 
L 256 1254 
L 1798 3703 
z
" id="CMR17-34" transform="scale(0.015625)"/>
       </defs>
       <use transform="scale(0.996264)" xlink:href="#CMR17-31"/>
       <use transform="translate(45.690477 0)scale(0.996264)" xlink:href="#CMR17-34"/>
       <use transform="translate(91.380954 0)scale(0.996264)" xlink:href="#CMR17-30"/>
      </g>
     </g>
    </g>
    <g id="xtick_4">
     <g id="line2d_7">
      <path clip-path="url(#pefc69623e1)" d="M 411.775485 154.038983 
L 411.775485 26.483515 
" style="fill:none;stroke:#b0b0b0;stroke-linecap:square;stroke-width:0.8;"/>
     </g>
     <g id="line2d_8">
      <g>
       <use style="stroke:#000000;stroke-width:0.8;" x="411.775485" xlink:href="#m7e19381464" y="154.038983"/>
      </g>
     </g>
     <g id="text_4">
      <!-- $\mathdefault{160}$ -->
      <g transform="translate(402.995999 169.341163)scale(0.12 -0.12)">
       <defs>
        <path d="M 678 2176 
C 678 3690 1395 4032 1811 4032 
C 1946 4032 2272 4009 2400 3776 
C 2298 3776 2106 3776 2106 3553 
C 2106 3381 2246 3323 2336 3323 
C 2394 3323 2566 3348 2566 3560 
C 2566 3954 2246 4179 1805 4179 
C 1043 4179 243 3390 243 1984 
C 243 253 966 -128 1478 -128 
C 2099 -128 2688 427 2688 1283 
C 2688 2081 2170 2662 1517 2662 
C 1126 2662 838 2407 678 1960 
L 678 2176 
z
M 1478 25 
C 691 25 691 1200 691 1436 
C 691 1896 909 2560 1504 2560 
C 1613 2560 1926 2560 2138 2120 
C 2253 1870 2253 1609 2253 1289 
C 2253 944 2253 690 2118 434 
C 1978 171 1773 25 1478 25 
z
" id="CMR17-36" transform="scale(0.015625)"/>
       </defs>
       <use transform="scale(0.996264)" xlink:href="#CMR17-31"/>
       <use transform="translate(45.690477 0)scale(0.996264)" xlink:href="#CMR17-36"/>
       <use transform="translate(91.380954 0)scale(0.996264)" xlink:href="#CMR17-30"/>
      </g>
     </g>
    </g>
    <g id="xtick_5">
     <g id="line2d_9">
      <path clip-path="url(#pefc69623e1)" d="M 526.846842 154.038983 
L 526.846842 26.483515 
" style="fill:none;stroke:#b0b0b0;stroke-linecap:square;stroke-width:0.8;"/>
     </g>
     <g id="line2d_10">
      <g>
       <use style="stroke:#000000;stroke-width:0.8;" x="526.846842" xlink:href="#m7e19381464" y="154.038983"/>
      </g>
     </g>
     <g id="text_5">
      <!-- $\mathdefault{180}$ -->
      <g transform="translate(518.067356 169.341163)scale(0.12 -0.12)">
       <defs>
        <path d="M 1741 2264 
C 2144 2467 2554 2773 2554 3263 
C 2554 3841 1990 4179 1472 4179 
C 890 4179 378 3759 378 3180 
C 378 3021 416 2747 666 2505 
C 730 2442 998 2251 1171 2130 
C 883 1983 211 1634 211 934 
C 211 279 838 -128 1459 -128 
C 2144 -128 2720 362 2720 1010 
C 2720 1590 2330 1857 2074 2029 
L 1741 2264 
z
M 902 2822 
C 851 2854 595 3051 595 3351 
C 595 3739 998 4032 1459 4032 
C 1965 4032 2336 3676 2336 3262 
C 2336 2669 1670 2331 1638 2331 
C 1632 2331 1626 2331 1574 2370 
L 902 2822 
z
M 2080 1519 
C 2176 1449 2483 1240 2483 851 
C 2483 381 2010 25 1472 25 
C 890 25 448 438 448 940 
C 448 1443 838 1862 1280 2060 
L 2080 1519 
z
" id="CMR17-38" transform="scale(0.015625)"/>
       </defs>
       <use transform="scale(0.996264)" xlink:href="#CMR17-31"/>
       <use transform="translate(45.690477 0)scale(0.996264)" xlink:href="#CMR17-38"/>
       <use transform="translate(91.380954 0)scale(0.996264)" xlink:href="#CMR17-30"/>
      </g>
     </g>
    </g>
    <g id="xtick_6">
     <g id="line2d_11">
      <path clip-path="url(#pefc69623e1)" d="M 641.918198 154.038983 
L 641.918198 26.483515 
" style="fill:none;stroke:#b0b0b0;stroke-linecap:square;stroke-width:0.8;"/>
     </g>
     <g id="line2d_12">
      <g>
       <use style="stroke:#000000;stroke-width:0.8;" x="641.918198" xlink:href="#m7e19381464" y="154.038983"/>
      </g>
     </g>
     <g id="text_6">
      <!-- $\mathdefault{200}$ -->
      <g transform="translate(633.138713 169.341163)scale(0.12 -0.12)">
       <use transform="scale(0.996264)" xlink:href="#CMR17-32"/>
       <use transform="translate(45.690477 0)scale(0.996264)" xlink:href="#CMR17-30"/>
       <use transform="translate(91.380954 0)scale(0.996264)" xlink:href="#CMR17-30"/>
      </g>
     </g>
    </g>
   </g>
   <g id="matplotlib.axis_2">
    <g id="ytick_1">
     <g id="line2d_13">
      <path clip-path="url(#pefc69623e1)" d="M 35.20447 140.317434 
L 661.768007 140.317434 
" style="fill:none;stroke:#b0b0b0;stroke-linecap:square;stroke-width:0.8;"/>
     </g>
     <g id="line2d_14">
      <defs>
       <path d="M 0 0 
L -3.5 0 
" id="m1b47311b2c" style="stroke:#000000;stroke-width:0.8;"/>
      </defs>
      <g>
       <use style="stroke:#000000;stroke-width:0.8;" x="35.20447" xlink:href="#m1b47311b2c" y="140.317434"/>
      </g>
     </g>
     <g id="text_7">
      <!-- $\mathdefault{50}$ -->
      <g transform="translate(16.498489 144.468524)scale(0.12 -0.12)">
       <defs>
        <path d="M 730 3692 
C 794 3666 1056 3584 1325 3584 
C 1920 3584 2246 3911 2432 4100 
C 2432 4157 2432 4192 2394 4192 
C 2387 4192 2374 4192 2323 4163 
C 2099 4058 1837 3973 1517 3973 
C 1325 3973 1037 3999 723 4139 
C 653 4171 640 4171 634 4171 
C 602 4171 595 4164 595 4037 
L 595 2203 
C 595 2089 595 2057 659 2057 
C 691 2057 704 2070 736 2114 
C 941 2401 1222 2522 1542 2522 
C 1766 2522 2246 2382 2246 1289 
C 2246 1085 2246 715 2054 421 
C 1894 159 1645 25 1370 25 
C 947 25 518 320 403 814 
C 429 807 480 795 506 795 
C 589 795 749 840 749 1038 
C 749 1210 627 1280 506 1280 
C 358 1280 262 1190 262 1011 
C 262 454 704 -128 1382 -128 
C 2042 -128 2669 440 2669 1264 
C 2669 2030 2170 2624 1549 2624 
C 1222 2624 947 2503 730 2274 
L 730 3692 
z
" id="CMR17-35" transform="scale(0.015625)"/>
       </defs>
       <use transform="scale(0.996264)" xlink:href="#CMR17-35"/>
       <use transform="translate(45.690477 0)scale(0.996264)" xlink:href="#CMR17-30"/>
      </g>
     </g>
    </g>
    <g id="ytick_2">
     <g id="line2d_15">
      <path clip-path="url(#pefc69623e1)" d="M 35.20447 104.011153 
L 661.768007 104.011153 
" style="fill:none;stroke:#b0b0b0;stroke-linecap:square;stroke-width:0.8;"/>
     </g>
     <g id="line2d_16">
      <g>
       <use style="stroke:#000000;stroke-width:0.8;" x="35.20447" xlink:href="#m1b47311b2c" y="104.011153"/>
      </g>
     </g>
     <g id="text_8">
      <!-- $\mathdefault{100}$ -->
      <g transform="translate(10.645499 108.162243)scale(0.12 -0.12)">
       <use transform="scale(0.996264)" xlink:href="#CMR17-31"/>
       <use transform="translate(45.690477 0)scale(0.996264)" xlink:href="#CMR17-30"/>
       <use transform="translate(91.380954 0)scale(0.996264)" xlink:href="#CMR17-30"/>
      </g>
     </g>
    </g>
    <g id="ytick_3">
     <g id="line2d_17">
      <path clip-path="url(#pefc69623e1)" d="M 35.20447 67.704873 
L 661.768007 67.704873 
" style="fill:none;stroke:#b0b0b0;stroke-linecap:square;stroke-width:0.8;"/>
     </g>
     <g id="line2d_18">
      <g>
       <use style="stroke:#000000;stroke-width:0.8;" x="35.20447" xlink:href="#m1b47311b2c" y="67.704873"/>
      </g>
     </g>
     <g id="text_9">
      <!-- $\mathdefault{150}$ -->
      <g transform="translate(10.645499 71.855962)scale(0.12 -0.12)">
       <use transform="scale(0.996264)" xlink:href="#CMR17-31"/>
       <use transform="translate(45.690477 0)scale(0.996264)" xlink:href="#CMR17-35"/>
       <use transform="translate(91.380954 0)scale(0.996264)" xlink:href="#CMR17-30"/>
      </g>
     </g>
    </g>
    <g id="ytick_4">
     <g id="line2d_19">
      <path clip-path="url(#pefc69623e1)" d="M 35.20447 31.398592 
L 661.768007 31.398592 
" style="fill:none;stroke:#b0b0b0;stroke-linecap:square;stroke-width:0.8;"/>
     </g>
     <g id="line2d_20">
      <g>
       <use style="stroke:#000000;stroke-width:0.8;" x="35.20447" xlink:href="#m1b47311b2c" y="31.398592"/>
      </g>
     </g>
     <g id="text_10">
      <!-- $\mathdefault{200}$ -->
      <g transform="translate(10.645499 35.549682)scale(0.12 -0.12)">
       <use transform="scale(0.996264)" xlink:href="#CMR17-32"/>
       <use transform="translate(45.690477 0)scale(0.996264)" xlink:href="#CMR17-30"/>
       <use transform="translate(91.380954 0)scale(0.996264)" xlink:href="#CMR17-30"/>
      </g>
     </g>
    </g>
   </g>
   <g id="line2d_21">
    <path clip-path="url(#pefc69623e1)" d="M 63.684631 65.69699 
L 69.438199 64.970864 
L 75.191766 64.970864 
L 80.945334 64.970864 
L 86.698902 64.244739 
L 92.45247 63.518613 
L 98.206038 63.518613 
L 103.959606 63.518613 
L 109.713173 64.244739 
L 115.466741 64.244739 
L 121.220309 64.244739 
L 126.973877 63.518613 
L 132.727445 62.792488 
L 138.481013 62.792488 
L 144.23458 62.066362 
L 149.988148 62.066362 
L 155.741716 62.066362 
L 161.495284 61.340236 
L 167.248852 61.340236 
L 173.00242 61.340236 
L 178.755987 60.614111 
L 184.509555 60.614111 
L 190.263123 60.403244 
L 196.016691 60.403244 
L 201.770259 59.677118 
L 207.523827 58.224867 
L 213.277394 59.105294 
L 219.030962 60.557546 
L 224.78453 61.283671 
L 230.538098 59.83142 
L 236.291666 59.105294 
L 242.045234 58.379169 
L 247.798801 58.379169 
L 253.552369 58.379169 
L 259.305937 57.653043 
L 265.059505 56.512155 
L 270.813073 56.512155 
L 276.566641 57.23828 
L 282.320208 56.512155 
L 288.073776 55.786029 
L 293.827344 54.333778 
L 299.580912 53.607652 
L 305.33448 53.607652 
L 311.088048 54.333778 
L 316.841616 55.059903 
L 322.595183 53.607652 
L 328.348751 52.881527 
L 334.102319 53.607652 
L 339.855887 52.204995 
L 345.609455 50.752744 
L 351.363023 50.70039 
L 357.11659 52.152642 
L 362.870158 47.795888 
L 368.623726 52.51781 
L 374.377294 52.51781 
L 380.130862 44.42848 
L 385.88443 52.005311 
L 391.637997 75.552693 
L 397.391565 106.519845 
L 403.145133 123.479743 
L 408.898701 123.277299 
L 414.652269 125.455676 
L 420.405837 120.372796 
L 426.159404 118.246773 
L 431.912972 124.781904 
L 437.66654 127.636812 
L 443.420108 125.66785 
L 449.173676 125.926859 
L 454.927244 126.968558 
L 460.680811 128.732172 
L 466.434379 129.202048 
L 472.187947 129.928174 
L 477.941515 132.524073 
L 483.695083 132.938836 
L 489.448651 132.938836 
L 495.202218 134.391087 
L 500.955786 133.038024 
L 506.709354 129.407396 
L 512.462922 127.22902 
L 518.21649 129.407396 
L 523.970058 132.311899 
L 529.723625 132.051438 
L 535.477193 128.42081 
L 541.230761 125.516307 
L 546.984329 126.968558 
L 552.737897 126.757691 
L 558.491465 127.37911 
L 564.245032 126.652984 
L 569.9986 123.022356 
L 575.752168 117.939477 
L 581.505736 119.132719 
L 587.259304 122.037221 
L 593.012872 126.502894 
L 598.766439 127.955145 
L 604.520007 132.985671 
L 610.273575 138.06855 
L 616.027143 138.689968 
L 621.780711 136.511592 
L 627.534279 136.200229 
L 633.287847 134.747978 
" style="fill:none;stroke:#ff7f0e;stroke-linecap:square;stroke-width:1.5;"/>
   </g>
   <g id="line2d_22">
    <path clip-path="url(#pefc69623e1)" d="M 63.684631 60.353532 
L 69.438199 54.801071 
L 75.191766 64.744829 
L 80.945334 76.615285 
L 86.698902 56.912364 
L 92.45247 60.64607 
L 98.206038 60.680728 
L 103.959606 60.114072 
L 109.713173 66.08014 
L 115.466741 63.982738 
L 121.220309 69.275764 
L 126.973877 58.342582 
L 132.727445 64.784932 
L 138.481013 61.736787 
L 144.23458 43.400955 
L 149.988148 61.9779 
L 155.741716 83.818014 
L 161.495284 76.868054 
L 167.248852 73.019339 
L 173.00242 43.284489 
L 178.755987 50.23567 
L 184.509555 63.729661 
L 190.263123 50.749167 
L 196.016691 52.795628 
L 201.770259 65.149984 
L 207.523827 70.150779 
L 213.277394 65.622176 
L 219.030962 63.417632 
L 224.78453 76.329781 
L 230.538098 74.28133 
L 236.291666 48.568333 
L 242.045234 45.632985 
L 247.798801 48.417626 
L 253.552369 75.136859 
L 259.305937 63.963987 
L 265.059505 55.108123 
L 270.813073 48.522526 
L 276.566641 45.691062 
L 282.320208 61.442983 
L 288.073776 54.33339 
L 293.827344 48.091286 
L 299.580912 52.036285 
L 305.33448 59.469586 
L 311.088048 70.911853 
L 316.841616 70.054299 
L 322.595183 62.425364 
L 328.348751 32.281491 
L 334.102319 47.374252 
L 339.855887 51.429119 
L 345.609455 39.046656 
L 351.363023 46.697436 
L 357.11659 48.096424 
L 362.870158 54.885164 
L 368.623726 44.031042 
L 374.377294 42.696755 
L 380.130862 68.391516 
L 385.88443 69.298191 
L 391.637997 90.772518 
L 397.391565 105.832495 
L 403.145133 139.461408 
L 408.898701 126.431991 
L 414.652269 112.561002 
L 420.405837 131.521629 
L 426.159404 122.389723 
L 431.912972 129.584818 
L 437.66654 146.171039 
L 443.420108 131.628834 
L 449.173676 131.589623 
L 454.927244 105.452869 
L 460.680811 121.29376 
L 466.434379 134.711515 
L 472.187947 134.49382 
L 477.941515 139.016026 
L 483.695083 134.622438 
L 489.448651 126.990742 
L 495.202218 124.756481 
L 500.955786 132.478595 
L 506.709354 126.640551 
L 512.462922 125.957336 
L 518.21649 122.319347 
L 523.970058 136.091705 
L 529.723625 132.993666 
L 535.477193 127.005807 
L 541.230761 131.140047 
L 546.984329 107.252738 
L 552.737897 146.373039 
L 558.491465 137.962888 
L 564.245032 127.789302 
L 569.9986 133.042859 
L 575.752168 125.603515 
L 581.505736 115.596463 
L 587.259304 139.762784 
L 593.012872 125.959606 
L 598.766439 142.83402 
L 604.520007 136.65376 
L 610.273575 145.847752 
L 616.027143 141.713474 
L 621.780711 148.241007 
L 627.534279 143.272416 
L 633.287847 122.555012 
" style="fill:none;stroke:#1f77b4;stroke-linecap:square;stroke-width:1.5;"/>
   </g>
   <g id="patch_3">
    <path d="M 35.20447 154.038983 
L 35.20447 26.483515 
" style="fill:none;stroke:#000000;stroke-linecap:square;stroke-linejoin:miter;stroke-width:0.8;"/>
   </g>
   <g id="patch_4">
    <path d="M 661.768007 154.038983 
L 661.768007 26.483515 
" style="fill:none;stroke:#000000;stroke-linecap:square;stroke-linejoin:miter;stroke-width:0.8;"/>
   </g>
   <g id="patch_5">
    <path d="M 35.20447 154.038983 
L 661.768007 154.038983 
" style="fill:none;stroke:#000000;stroke-linecap:square;stroke-linejoin:miter;stroke-width:0.8;"/>
   </g>
   <g id="patch_6">
    <path d="M 35.20447 26.483515 
L 661.768007 26.483515 
" style="fill:none;stroke:#000000;stroke-linecap:square;stroke-linejoin:miter;stroke-width:0.8;"/>
   </g>
   <g id="text_11">
    <!-- Intensity profile -->
    <g transform="translate(290.932496 20.483515)scale(0.192 -0.192)">
     <defs>
      <path d="M 1094 4416 
L 557 4416 
L 557 0 
L 1094 0 
L 1094 4416 
z
" id="CMSS17-49" transform="scale(0.015625)"/>
      <path d="M 2618 1877 
C 2618 2283 2522 2816 1798 2816 
C 1389 2816 1120 2606 941 2389 
L 941 2758 
L 474 2758 
L 474 0 
L 960 0 
L 960 1559 
C 960 1964 1114 2428 1549 2428 
C 2112 2428 2131 2048 2131 1829 
L 2131 0 
L 2618 0 
L 2618 1877 
z
" id="CMSS17-6e" transform="scale(0.015625)"/>
      <path d="M 1069 2368 
L 1901 2368 
L 1901 2737 
L 1069 2737 
L 1069 3520 
L 614 3520 
L 614 2737 
L 109 2737 
L 109 2368 
L 602 2368 
L 602 749 
C 602 384 685 -64 1107 -64 
C 1427 -64 1722 25 2003 172 
L 1901 548 
C 1747 414 1562 337 1363 337 
C 1082 337 1069 696 1069 856 
L 1069 2368 
z
" id="CMSS17-74" transform="scale(0.015625)"/>
      <path d="M 2502 1377 
C 2502 1590 2490 2003 2285 2345 
C 2061 2713 1696 2816 1421 2816 
C 755 2816 192 2188 192 1375 
C 192 582 774 -64 1510 -64 
C 1798 -64 2150 19 2470 248 
C 2470 274 2458 414 2451 420 
C 2451 433 2432 630 2432 656 
C 2125 407 1773 325 1517 325 
C 1107 325 666 667 646 1377 
L 2502 1377 
z
M 698 1728 
C 781 2084 1062 2421 1421 2421 
C 1517 2421 1965 2421 2080 1728 
L 698 1728 
z
" id="CMSS17-65" transform="scale(0.015625)"/>
      <path d="M 2061 2627 
C 1683 2807 1389 2807 1197 2807 
C 742 2807 198 2648 198 2003 
C 198 1359 902 1218 1094 1179 
C 1389 1122 1715 1058 1715 740 
C 1715 337 1254 337 1171 337 
C 915 337 563 407 243 638 
L 166 210 
C 531 0 883 -64 1178 -64 
C 1965 -64 2163 416 2163 781 
C 2163 1094 1984 1305 1862 1401 
C 1651 1568 1574 1587 1050 1696 
C 960 1709 646 1779 646 2066 
C 646 2432 1050 2432 1139 2432 
C 1555 2432 1811 2303 1984 2208 
L 2061 2627 
z
" id="CMSS17-73" transform="scale(0.015625)"/>
      <path d="M 979 4183 
L 442 4183 
L 442 3648 
L 979 3648 
L 979 4183 
z
M 947 2739 
L 474 2739 
L 474 0 
L 947 0 
L 947 2739 
z
" id="CMSS17-69" transform="scale(0.015625)"/>
      <path d="M 2675 2752 
L 2176 2752 
C 1632 1294 1446 702 1434 383 
L 1427 383 
C 1408 696 1126 1460 902 2007 
L 602 2752 
L 83 2752 
L 1216 13 
C 1146 -178 1043 -465 1011 -529 
C 870 -885 774 -885 672 -885 
C 646 -885 442 -885 211 -809 
L 250 -1229 
C 410 -1261 570 -1280 685 -1280 
C 845 -1280 1165 -1280 1459 -497 
L 2675 2752 
z
" id="CMSS17-79" transform="scale(0.015625)"/>
      <path d="M 966 333 
C 1178 129 1466 -5 1773 -5 
C 2368 -5 2880 603 2880 1412 
C 2880 2159 2496 2816 1946 2816 
C 1626 2816 1242 2702 954 2472 
L 954 2765 
L 480 2765 
L 480 -1216 
L 966 -1216 
L 966 333 
z
M 966 2100 
C 1018 2176 1235 2415 1587 2415 
C 2035 2415 2394 1960 2394 1412 
C 2394 787 1958 384 1530 384 
C 1402 384 1267 415 1139 523 
C 966 674 966 768 966 857 
L 966 2100 
z
" id="CMSS17-70" transform="scale(0.015625)"/>
      <path d="M 954 1363 
C 954 1965 1395 2368 1958 2368 
L 1958 2789 
C 1549 2789 1165 2585 934 2253 
L 934 2758 
L 480 2758 
L 480 0 
L 954 0 
L 954 1363 
z
" id="CMSS17-72" transform="scale(0.015625)"/>
      <path d="M 2829 1356 
C 2829 2176 2221 2816 1504 2816 
C 768 2816 173 2157 173 1356 
C 173 544 787 -64 1498 -64 
C 2227 -64 2829 563 2829 1356 
z
M 1504 337 
C 1050 337 659 709 659 1408 
C 659 2151 1114 2427 1498 2427 
C 1914 2427 2342 2126 2342 1408 
C 2342 683 1926 337 1504 337 
z
" id="CMSS17-6f" transform="scale(0.015625)"/>
      <path d="M 2752 4416 
L 2240 4416 
L 2240 3906 
L 2752 3906 
L 2752 4416 
z
M 2733 2737 
L 2259 2737 
L 2259 0 
L 2733 0 
L 2733 2737 
z
M 1075 2368 
L 1773 2368 
L 1773 2737 
L 1062 2737 
L 1062 3578 
C 1062 3919 1216 4092 1421 4092 
C 1542 4092 1664 4056 1773 3992 
L 1773 4410 
C 1722 4428 1574 4480 1421 4480 
C 941 4480 602 3993 602 3372 
L 602 2737 
L 160 2737 
L 160 2368 
L 602 2368 
L 602 0 
L 1075 0 
L 1075 2368 
z
" id="CMSS17-c" transform="scale(0.015625)"/>
      <path d="M 947 4416 
L 474 4416 
L 474 0 
L 947 0 
L 947 4416 
z
" id="CMSS17-6c" transform="scale(0.015625)"/>
     </defs>
     <use transform="scale(0.996264)" xlink:href="#CMSS17-49"/>
     <use transform="translate(25.783926 0)scale(0.996264)" xlink:href="#CMSS17-6e"/>
     <use transform="translate(73.988869 0)scale(0.996264)" xlink:href="#CMSS17-74"/>
     <use transform="translate(107.820435 0)scale(0.996264)" xlink:href="#CMSS17-65"/>
     <use transform="translate(149.459257 0)scale(0.996264)" xlink:href="#CMSS17-6e"/>
     <use transform="translate(197.664201 0)scale(0.996264)" xlink:href="#CMSS17-73"/>
     <use transform="translate(233.577743 0)scale(0.996264)" xlink:href="#CMSS17-69"/>
     <use transform="translate(255.758466 0)scale(0.996264)" xlink:href="#CMSS17-74"/>
     <use transform="translate(286.987578 0)scale(0.996264)" xlink:href="#CMSS17-79"/>
     <use transform="translate(361.216833 0)scale(0.996264)" xlink:href="#CMSS17-70"/>
     <use transform="translate(406.819322 0)scale(0.996264)" xlink:href="#CMSS17-72"/>
     <use transform="translate(438.729095 0)scale(0.996264)" xlink:href="#CMSS17-6f"/>
     <use transform="translate(485.572718 0)scale(0.996264)" xlink:href="#CMSS17-c"/>
     <use transform="translate(535.699455 0)scale(0.996264)" xlink:href="#CMSS17-6c"/>
     <use transform="translate(557.880178 0)scale(0.996264)" xlink:href="#CMSS17-65"/>
    </g>
   </g>
  </g>
  <g id="axes_2">
   <g id="patch_7">
    <path d="M 35.20447 335.372316 
L 661.768007 335.372316 
L 661.768007 207.816848 
L 35.20447 207.816848 
z
" style="fill:#ffffff;"/>
   </g>
   <g id="matplotlib.axis_3">
    <g id="xtick_7">
     <g id="line2d_23">
      <path clip-path="url(#pd8cff8b9cf)" d="M 63.684631 335.372316 
L 63.684631 207.816848 
" style="fill:none;stroke:#b0b0b0;stroke-linecap:square;stroke-width:0.8;"/>
     </g>
     <g id="line2d_24">
      <g>
       <use style="stroke:#000000;stroke-width:0.8;" x="63.684631" xlink:href="#m7e19381464" y="335.372316"/>
      </g>
     </g>
     <g id="text_12">
      <!-- $\mathdefault{100}$ -->
      <g transform="translate(54.905145 350.674496)scale(0.12 -0.12)">
       <use transform="scale(0.996264)" xlink:href="#CMR17-31"/>
       <use transform="translate(45.690477 0)scale(0.996264)" xlink:href="#CMR17-30"/>
       <use transform="translate(91.380954 0)scale(0.996264)" xlink:href="#CMR17-30"/>
      </g>
     </g>
    </g>
    <g id="xtick_8">
     <g id="line2d_25">
      <path clip-path="url(#pd8cff8b9cf)" d="M 179.930185 335.372316 
L 179.930185 207.816848 
" style="fill:none;stroke:#b0b0b0;stroke-linecap:square;stroke-width:0.8;"/>
     </g>
     <g id="line2d_26">
      <g>
       <use style="stroke:#000000;stroke-width:0.8;" x="179.930185" xlink:href="#m7e19381464" y="335.372316"/>
      </g>
     </g>
     <g id="text_13">
      <!-- $\mathdefault{120}$ -->
      <g transform="translate(171.1507 350.674496)scale(0.12 -0.12)">
       <use transform="scale(0.996264)" xlink:href="#CMR17-31"/>
       <use transform="translate(45.690477 0)scale(0.996264)" xlink:href="#CMR17-32"/>
       <use transform="translate(91.380954 0)scale(0.996264)" xlink:href="#CMR17-30"/>
      </g>
     </g>
    </g>
    <g id="xtick_9">
     <g id="line2d_27">
      <path clip-path="url(#pd8cff8b9cf)" d="M 296.175739 335.372316 
L 296.175739 207.816848 
" style="fill:none;stroke:#b0b0b0;stroke-linecap:square;stroke-width:0.8;"/>
     </g>
     <g id="line2d_28">
      <g>
       <use style="stroke:#000000;stroke-width:0.8;" x="296.175739" xlink:href="#m7e19381464" y="335.372316"/>
      </g>
     </g>
     <g id="text_14">
      <!-- $\mathdefault{140}$ -->
      <g transform="translate(287.396254 350.674496)scale(0.12 -0.12)">
       <use transform="scale(0.996264)" xlink:href="#CMR17-31"/>
       <use transform="translate(45.690477 0)scale(0.996264)" xlink:href="#CMR17-34"/>
       <use transform="translate(91.380954 0)scale(0.996264)" xlink:href="#CMR17-30"/>
      </g>
     </g>
    </g>
    <g id="xtick_10">
     <g id="line2d_29">
      <path clip-path="url(#pd8cff8b9cf)" d="M 412.421293 335.372316 
L 412.421293 207.816848 
" style="fill:none;stroke:#b0b0b0;stroke-linecap:square;stroke-width:0.8;"/>
     </g>
     <g id="line2d_30">
      <g>
       <use style="stroke:#000000;stroke-width:0.8;" x="412.421293" xlink:href="#m7e19381464" y="335.372316"/>
      </g>
     </g>
     <g id="text_15">
      <!-- $\mathdefault{160}$ -->
      <g transform="translate(403.641808 350.674496)scale(0.12 -0.12)">
       <use transform="scale(0.996264)" xlink:href="#CMR17-31"/>
       <use transform="translate(45.690477 0)scale(0.996264)" xlink:href="#CMR17-36"/>
       <use transform="translate(91.380954 0)scale(0.996264)" xlink:href="#CMR17-30"/>
      </g>
     </g>
    </g>
    <g id="xtick_11">
     <g id="line2d_31">
      <path clip-path="url(#pd8cff8b9cf)" d="M 528.666848 335.372316 
L 528.666848 207.816848 
" style="fill:none;stroke:#b0b0b0;stroke-linecap:square;stroke-width:0.8;"/>
     </g>
     <g id="line2d_32">
      <g>
       <use style="stroke:#000000;stroke-width:0.8;" x="528.666848" xlink:href="#m7e19381464" y="335.372316"/>
      </g>
     </g>
     <g id="text_16">
      <!-- $\mathdefault{180}$ -->
      <g transform="translate(519.887362 350.674496)scale(0.12 -0.12)">
       <use transform="scale(0.996264)" xlink:href="#CMR17-31"/>
       <use transform="translate(45.690477 0)scale(0.996264)" xlink:href="#CMR17-38"/>
       <use transform="translate(91.380954 0)scale(0.996264)" xlink:href="#CMR17-30"/>
      </g>
     </g>
    </g>
    <g id="xtick_12">
     <g id="line2d_33">
      <path clip-path="url(#pd8cff8b9cf)" d="M 644.912402 335.372316 
L 644.912402 207.816848 
" style="fill:none;stroke:#b0b0b0;stroke-linecap:square;stroke-width:0.8;"/>
     </g>
     <g id="line2d_34">
      <g>
       <use style="stroke:#000000;stroke-width:0.8;" x="644.912402" xlink:href="#m7e19381464" y="335.372316"/>
      </g>
     </g>
     <g id="text_17">
      <!-- $\mathdefault{200}$ -->
      <g transform="translate(636.132917 350.674496)scale(0.12 -0.12)">
       <use transform="scale(0.996264)" xlink:href="#CMR17-32"/>
       <use transform="translate(45.690477 0)scale(0.996264)" xlink:href="#CMR17-30"/>
       <use transform="translate(91.380954 0)scale(0.996264)" xlink:href="#CMR17-30"/>
      </g>
     </g>
    </g>
   </g>
   <g id="matplotlib.axis_4">
    <g id="ytick_5">
     <g id="line2d_35">
      <path clip-path="url(#pd8cff8b9cf)" d="M 35.20447 324.863211 
L 661.768007 324.863211 
" style="fill:none;stroke:#b0b0b0;stroke-linecap:square;stroke-width:0.8;"/>
     </g>
     <g id="line2d_36">
      <g>
       <use style="stroke:#000000;stroke-width:0.8;" x="35.20447" xlink:href="#m1b47311b2c" y="324.863211"/>
      </g>
     </g>
     <g id="text_18">
      <!-- $\mathdefault{−50}$ -->
      <g transform="translate(7.2 329.014301)scale(0.12 -0.12)">
       <defs>
        <path d="M 4218 1472 
C 4326 1472 4442 1472 4442 1600 
C 4442 1728 4326 1728 4218 1728 
L 755 1728 
C 646 1728 531 1728 531 1600 
C 531 1472 646 1472 755 1472 
L 4218 1472 
z
" id="CMSY10-0" transform="scale(0.015625)"/>
       </defs>
       <use transform="scale(0.996264)" xlink:href="#CMSY10-0"/>
       <use transform="translate(77.487468 0)scale(0.996264)" xlink:href="#CMR17-35"/>
       <use transform="translate(123.177945 0)scale(0.996264)" xlink:href="#CMR17-30"/>
      </g>
     </g>
    </g>
    <g id="ytick_6">
     <g id="line2d_37">
      <path clip-path="url(#pd8cff8b9cf)" d="M 35.20447 294.471896 
L 661.768007 294.471896 
" style="fill:none;stroke:#b0b0b0;stroke-linecap:square;stroke-width:0.8;"/>
     </g>
     <g id="line2d_38">
      <g>
       <use style="stroke:#000000;stroke-width:0.8;" x="35.20447" xlink:href="#m1b47311b2c" y="294.471896"/>
      </g>
     </g>
     <g id="text_19">
      <!-- $\mathdefault{−25}$ -->
      <g transform="translate(7.2 298.622986)scale(0.12 -0.12)">
       <use transform="scale(0.996264)" xlink:href="#CMSY10-0"/>
       <use transform="translate(77.487468 0)scale(0.996264)" xlink:href="#CMR17-32"/>
       <use transform="translate(123.177945 0)scale(0.996264)" xlink:href="#CMR17-35"/>
      </g>
     </g>
    </g>
    <g id="ytick_7">
     <g id="line2d_39">
      <path clip-path="url(#pd8cff8b9cf)" d="M 35.20447 264.080581 
L 661.768007 264.080581 
" style="fill:none;stroke:#b0b0b0;stroke-linecap:square;stroke-width:0.8;"/>
     </g>
     <g id="line2d_40">
      <g>
       <use style="stroke:#000000;stroke-width:0.8;" x="35.20447" xlink:href="#m1b47311b2c" y="264.080581"/>
      </g>
     </g>
     <g id="text_20">
      <!-- $\mathdefault{0}$ -->
      <g transform="translate(22.35148 268.23167)scale(0.12 -0.12)">
       <use transform="scale(0.996264)" xlink:href="#CMR17-30"/>
      </g>
     </g>
    </g>
    <g id="ytick_8">
     <g id="line2d_41">
      <path clip-path="url(#pd8cff8b9cf)" d="M 35.20447 233.689265 
L 661.768007 233.689265 
" style="fill:none;stroke:#b0b0b0;stroke-linecap:square;stroke-width:0.8;"/>
     </g>
     <g id="line2d_42">
      <g>
       <use style="stroke:#000000;stroke-width:0.8;" x="35.20447" xlink:href="#m1b47311b2c" y="233.689265"/>
      </g>
     </g>
     <g id="text_21">
      <!-- $\mathdefault{25}$ -->
      <g transform="translate(16.498489 237.840355)scale(0.12 -0.12)">
       <use transform="scale(0.996264)" xlink:href="#CMR17-32"/>
       <use transform="translate(45.690477 0)scale(0.996264)" xlink:href="#CMR17-35"/>
      </g>
     </g>
    </g>
   </g>
   <g id="line2d_43">
    <path clip-path="url(#pd8cff8b9cf)" d="M 63.684631 262.864928 
L 69.496908 264.080581 
L 75.309186 264.080581 
L 81.121464 262.864928 
L 86.933742 262.864928 
L 92.746019 264.080581 
L 98.558297 264.080581 
L 104.370575 265.296233 
L 110.182852 264.080581 
L 115.99513 264.080581 
L 121.807408 262.864928 
L 127.619686 262.864928 
L 133.431963 264.080581 
L 139.244241 262.864928 
L 145.056519 264.080581 
L 150.868796 264.080581 
L 156.681074 262.864928 
L 162.493352 264.080581 
L 168.30563 264.080581 
L 174.117907 262.864928 
L 179.930185 264.080581 
L 185.742463 263.727555 
L 191.55474 264.080581 
L 197.367018 262.864928 
L 203.179296 261.649275 
L 208.991574 265.554559 
L 214.803851 266.511886 
L 220.616129 265.296233 
L 226.428407 261.649275 
L 232.240684 262.864928 
L 238.052962 262.864928 
L 243.86524 264.080581 
L 249.677518 264.080581 
L 255.489795 262.864928 
L 261.302073 262.170547 
L 267.114351 264.080581 
L 272.926628 265.296233 
L 278.738906 262.864928 
L 284.551184 262.864928 
L 290.363461 261.649275 
L 296.175739 262.864928 
L 301.988017 264.080581 
L 307.800295 265.296233 
L 313.612572 265.296233 
L 319.42485 261.649275 
L 325.237128 262.864928 
L 331.049405 265.296233 
L 336.861683 261.732304 
L 342.673961 261.649275 
L 348.486239 263.992932 
L 354.298516 266.511886 
L 360.110794 256.786665 
L 365.923072 271.985848 
L 371.735349 264.080581 
L 377.547627 250.537724 
L 383.359905 276.765429 
L 389.172183 303.502736 
L 394.98446 315.924639 
L 400.796738 292.474214 
L 406.609016 263.741657 
L 412.421293 267.727538 
L 418.233571 255.571012 
L 424.045849 260.521271 
L 429.858127 275.021454 
L 435.670404 268.860162 
L 441.482682 260.784217 
L 447.29496 264.514204 
L 453.107237 265.824556 
L 458.919515 267.033158 
L 464.731793 264.867229 
L 470.544071 265.296233 
L 476.356348 268.426539 
L 482.168626 264.774961 
L 487.980904 264.080581 
L 493.793181 266.511886 
L 499.605459 261.815334 
L 505.417737 258.002318 
L 511.230015 260.433623 
L 517.042292 267.727538 
L 522.85457 268.943191 
L 528.666848 263.644526 
L 534.479125 258.002318 
L 540.291403 259.21797 
L 546.103681 266.511886 
L 551.915959 263.727555 
L 557.728236 265.120936 
L 563.540514 262.864928 
L 569.352792 258.002318 
L 575.165069 255.571012 
L 580.977347 266.078263 
L 586.789625 268.943191 
L 592.601903 271.556844 
L 598.41418 266.511886 
L 604.226458 272.5025 
L 610.038736 272.590149 
L 615.851013 265.120936 
L 621.663291 260.433623 
L 627.475569 263.559309 
L 633.287847 261.649275 
" style="fill:none;stroke:#ff7f0e;stroke-linecap:square;stroke-width:1.5;"/>
   </g>
   <g id="line2d_44">
    <path clip-path="url(#pd8cff8b9cf)" d="M 63.684631 254.784855 
L 69.496908 280.728052 
L 75.309186 283.953658 
L 81.121464 231.09468 
L 86.933742 270.331413 
L 92.746019 264.138604 
L 98.558297 263.131905 
L 104.370575 274.068751 
L 110.182852 260.569187 
L 115.99513 272.941969 
L 121.807408 245.776652 
L 127.619686 274.866124 
L 133.431963 258.977489 
L 139.244241 233.383411 
L 145.056519 295.181414 
L 150.868796 300.64449 
L 156.681074 252.445216 
L 162.493352 257.637205 
L 168.30563 214.299595 
L 174.117907 275.717991 
L 179.930185 286.67172 
L 185.742463 242.349119 
L 191.55474 267.506689 
L 197.367018 284.763787 
L 203.179296 272.452726 
L 208.991574 256.49896 
L 214.803851 260.389816 
L 220.616129 285.697622 
L 226.428407 260.65114 
L 232.240684 221.032833 
L 238.052962 259.166329 
L 243.86524 268.742523 
L 249.677518 308.812932 
L 255.489795 245.375372 
L 261.302073 249.254421 
L 267.114351 253.055217 
L 272.926628 259.340248 
L 278.738906 290.451864 
L 284.551184 252.177964 
L 290.363461 253.63028 
L 296.175739 270.685152 
L 301.988017 276.525138 
L 307.800295 283.2368 
L 313.612572 262.644896 
L 319.42485 251.3085 
L 325.237128 213.614824 
L 331.049405 289.348322 
L 336.861683 270.869089 
L 342.673961 243.350319 
L 348.486239 276.889233 
L 354.298516 266.422714 
L 360.110794 275.446038 
L 365.923072 245.909011 
L 371.735349 261.846767 
L 377.547627 307.097798 
L 383.359905 265.598502 
L 389.172183 300.032104 
L 394.98446 289.293437 
L 400.796738 320.380861 
L 406.609016 242.267214 
L 412.421293 240.858283 
L 418.233571 295.823761 
L 424.045849 248.792281 
L 429.858127 276.126342 
L 435.670404 291.848618 
L 441.482682 239.73456 
L 447.29496 264.014934 
L 453.107237 220.323396 
L 458.919515 290.600814 
L 464.731793 286.544088 
L 470.544071 263.716123 
L 476.356348 271.651491 
L 482.168626 256.724998 
L 487.980904 251.303878 
L 493.793181 260.340064 
L 499.605459 277.008658 
L 505.417737 254.306743 
L 511.230015 262.936768 
L 517.042292 257.989994 
L 522.85457 287.137752 
L 528.666848 258.893958 
L 534.479125 254.055929 
L 540.291403 271.001972 
L 546.103681 224.089333 
L 551.915959 329.57434 
L 557.728236 250.000617 
L 563.540514 247.048339 
L 569.352792 272.875892 
L 575.165069 251.625906 
L 580.977347 247.327145 
L 586.789625 304.538939 
L 592.601903 240.971811 
L 598.41418 292.3311 
L 604.226458 253.733818 
L 610.038736 279.472821 
L 615.851013 257.159126 
L 621.663291 275.008734 
L 627.475569 255.762349 
L 633.287847 229.396271 
" style="fill:none;stroke:#1f77b4;stroke-linecap:square;stroke-width:1.5;"/>
   </g>
   <g id="patch_8">
    <path d="M 35.20447 335.372316 
L 35.20447 207.816848 
" style="fill:none;stroke:#000000;stroke-linecap:square;stroke-linejoin:miter;stroke-width:0.8;"/>
   </g>
   <g id="patch_9">
    <path d="M 661.768007 335.372316 
L 661.768007 207.816848 
" style="fill:none;stroke:#000000;stroke-linecap:square;stroke-linejoin:miter;stroke-width:0.8;"/>
   </g>
   <g id="patch_10">
    <path d="M 35.20447 335.372316 
L 661.768007 335.372316 
" style="fill:none;stroke:#000000;stroke-linecap:square;stroke-linejoin:miter;stroke-width:0.8;"/>
   </g>
   <g id="patch_11">
    <path d="M 35.20447 207.816848 
L 661.768007 207.816848 
" style="fill:none;stroke:#000000;stroke-linecap:square;stroke-linejoin:miter;stroke-width:0.8;"/>
   </g>
   <g id="text_22">
    <!-- First derivative -->
    <g transform="translate(292.723577 201.816848)scale(0.192 -0.192)">
     <defs>
      <path d="M 2918 1984 
L 2918 2373 
L 1101 2373 
L 1101 3968 
L 1882 3968 
C 1958 3968 2035 3968 2112 3968 
L 3168 3968 
L 3168 4375 
L 563 4375 
L 563 -32 
L 1101 -32 
L 1101 1984 
L 2918 1984 
z
" id="CMSS17-46" transform="scale(0.015625)"/>
      <path d="M 2611 4416 
L 2138 4416 
L 2138 2438 
C 1939 2603 1613 2756 1254 2756 
C 672 2756 211 2131 211 1347 
C 211 562 666 -64 1235 -64 
C 1677 -64 1971 172 2125 306 
L 2125 -13 
L 2611 -13 
L 2611 4416 
z
M 2125 836 
C 2125 747 2125 653 1926 482 
C 1798 375 1645 325 1498 325 
C 1152 325 698 576 698 1340 
C 698 2134 1210 2368 1562 2368 
C 1798 2368 1990 2254 2125 2065 
L 2125 836 
z
" id="CMSS17-64" transform="scale(0.015625)"/>
      <path d="M 2675 2752 
L 2176 2752 
L 1747 1556 
C 1613 1165 1421 627 1389 352 
L 1382 352 
C 1370 468 1318 634 1286 749 
C 1248 890 1197 1056 1158 1172 
L 595 2752 
L 83 2752 
L 1094 0 
L 1664 0 
L 2675 2752 
z
" id="CMSS17-76" transform="scale(0.015625)"/>
      <path d="M 2406 1791 
C 2406 2392 1978 2808 1402 2808 
C 1120 2808 813 2757 461 2553 
L 499 2135 
C 659 2248 934 2432 1395 2432 
C 1722 2432 1920 2180 1920 1782 
L 1920 1536 
C 896 1536 256 1238 256 726 
C 256 461 416 -64 947 -64 
C 1043 -64 1562 -64 1933 217 
L 1933 -19 
L 2406 -19 
L 2406 1791 
z
M 1920 816 
C 1920 701 1920 548 1728 434 
C 1562 325 1350 325 1261 325 
C 941 325 723 511 723 744 
C 723 1211 1722 1211 1920 1211 
L 1920 816 
z
" id="CMSS17-61" transform="scale(0.015625)"/>
     </defs>
     <use transform="scale(0.996264)" xlink:href="#CMSS17-46"/>
     <use transform="translate(53.289559 0)scale(0.996264)" xlink:href="#CMSS17-69"/>
     <use transform="translate(75.470282 0)scale(0.996264)" xlink:href="#CMSS17-72"/>
     <use transform="translate(107.380055 0)scale(0.996264)" xlink:href="#CMSS17-73"/>
     <use transform="translate(143.293597 0)scale(0.996264)" xlink:href="#CMSS17-74"/>
     <use transform="translate(208.354276 0)scale(0.996264)" xlink:href="#CMSS17-64"/>
     <use transform="translate(256.559219 0)scale(0.996264)" xlink:href="#CMSS17-65"/>
     <use transform="translate(298.198042 0)scale(0.996264)" xlink:href="#CMSS17-72"/>
     <use transform="translate(330.107814 0)scale(0.996264)" xlink:href="#CMSS17-69"/>
     <use transform="translate(352.288537 0)scale(0.996264)" xlink:href="#CMSS17-76"/>
     <use transform="translate(395.288679 0)scale(0.996264)" xlink:href="#CMSS17-61"/>
     <use transform="translate(440.210599 0)scale(0.996264)" xlink:href="#CMSS17-74"/>
     <use transform="translate(474.042166 0)scale(0.996264)" xlink:href="#CMSS17-69"/>
     <use transform="translate(496.222889 0)scale(0.996264)" xlink:href="#CMSS17-76"/>
     <use transform="translate(539.223031 0)scale(0.996264)" xlink:href="#CMSS17-65"/>
    </g>
   </g>
  </g>
  <g id="axes_3">
   <g id="patch_12">
    <path d="M 35.20447 516.70565 
L 661.768007 516.70565 
L 661.768007 389.150182 
L 35.20447 389.150182 
z
" style="fill:#ffffff;"/>
   </g>
   <g id="matplotlib.axis_5">
    <g id="xtick_13">
     <g id="line2d_45">
      <path clip-path="url(#p279f27df9c)" d="M 60.748532 516.70565 
L 60.748532 389.150182 
" style="fill:none;stroke:#b0b0b0;stroke-linecap:square;stroke-width:0.8;"/>
     </g>
     <g id="line2d_46">
      <g>
       <use style="stroke:#000000;stroke-width:0.8;" x="60.748532" xlink:href="#m7e19381464" y="516.70565"/>
      </g>
     </g>
     <g id="text_23">
      <!-- $\mathdefault{100}$ -->
      <g transform="translate(51.969046 532.007829)scale(0.12 -0.12)">
       <use transform="scale(0.996264)" xlink:href="#CMR17-31"/>
       <use transform="translate(45.690477 0)scale(0.996264)" xlink:href="#CMR17-30"/>
       <use transform="translate(91.380954 0)scale(0.996264)" xlink:href="#CMR17-30"/>
      </g>
     </g>
    </g>
    <g id="xtick_14">
     <g id="line2d_47">
      <path clip-path="url(#p279f27df9c)" d="M 178.192494 516.70565 
L 178.192494 389.150182 
" style="fill:none;stroke:#b0b0b0;stroke-linecap:square;stroke-width:0.8;"/>
     </g>
     <g id="line2d_48">
      <g>
       <use style="stroke:#000000;stroke-width:0.8;" x="178.192494" xlink:href="#m7e19381464" y="516.70565"/>
      </g>
     </g>
     <g id="text_24">
      <!-- $\mathdefault{120}$ -->
      <g transform="translate(169.413008 532.007829)scale(0.12 -0.12)">
       <use transform="scale(0.996264)" xlink:href="#CMR17-31"/>
       <use transform="translate(45.690477 0)scale(0.996264)" xlink:href="#CMR17-32"/>
       <use transform="translate(91.380954 0)scale(0.996264)" xlink:href="#CMR17-30"/>
      </g>
     </g>
    </g>
    <g id="xtick_15">
     <g id="line2d_49">
      <path clip-path="url(#p279f27df9c)" d="M 295.636456 516.70565 
L 295.636456 389.150182 
" style="fill:none;stroke:#b0b0b0;stroke-linecap:square;stroke-width:0.8;"/>
     </g>
     <g id="line2d_50">
      <g>
       <use style="stroke:#000000;stroke-width:0.8;" x="295.636456" xlink:href="#m7e19381464" y="516.70565"/>
      </g>
     </g>
     <g id="text_25">
      <!-- $\mathdefault{140}$ -->
      <g transform="translate(286.85697 532.007829)scale(0.12 -0.12)">
       <use transform="scale(0.996264)" xlink:href="#CMR17-31"/>
       <use transform="translate(45.690477 0)scale(0.996264)" xlink:href="#CMR17-34"/>
       <use transform="translate(91.380954 0)scale(0.996264)" xlink:href="#CMR17-30"/>
      </g>
     </g>
    </g>
    <g id="xtick_16">
     <g id="line2d_51">
      <path clip-path="url(#p279f27df9c)" d="M 413.080418 516.70565 
L 413.080418 389.150182 
" style="fill:none;stroke:#b0b0b0;stroke-linecap:square;stroke-width:0.8;"/>
     </g>
     <g id="line2d_52">
      <g>
       <use style="stroke:#000000;stroke-width:0.8;" x="413.080418" xlink:href="#m7e19381464" y="516.70565"/>
      </g>
     </g>
     <g id="text_26">
      <!-- $\mathdefault{160}$ -->
      <g transform="translate(404.300932 532.007829)scale(0.12 -0.12)">
       <use transform="scale(0.996264)" xlink:href="#CMR17-31"/>
       <use transform="translate(45.690477 0)scale(0.996264)" xlink:href="#CMR17-36"/>
       <use transform="translate(91.380954 0)scale(0.996264)" xlink:href="#CMR17-30"/>
      </g>
     </g>
    </g>
    <g id="xtick_17">
     <g id="line2d_53">
      <path clip-path="url(#p279f27df9c)" d="M 530.52438 516.70565 
L 530.52438 389.150182 
" style="fill:none;stroke:#b0b0b0;stroke-linecap:square;stroke-width:0.8;"/>
     </g>
     <g id="line2d_54">
      <g>
       <use style="stroke:#000000;stroke-width:0.8;" x="530.52438" xlink:href="#m7e19381464" y="516.70565"/>
      </g>
     </g>
     <g id="text_27">
      <!-- $\mathdefault{180}$ -->
      <g transform="translate(521.744894 532.007829)scale(0.12 -0.12)">
       <use transform="scale(0.996264)" xlink:href="#CMR17-31"/>
       <use transform="translate(45.690477 0)scale(0.996264)" xlink:href="#CMR17-38"/>
       <use transform="translate(91.380954 0)scale(0.996264)" xlink:href="#CMR17-30"/>
      </g>
     </g>
    </g>
    <g id="xtick_18">
     <g id="line2d_55">
      <path clip-path="url(#p279f27df9c)" d="M 647.968342 516.70565 
L 647.968342 389.150182 
" style="fill:none;stroke:#b0b0b0;stroke-linecap:square;stroke-width:0.8;"/>
     </g>
     <g id="line2d_56">
      <g>
       <use style="stroke:#000000;stroke-width:0.8;" x="647.968342" xlink:href="#m7e19381464" y="516.70565"/>
      </g>
     </g>
     <g id="text_28">
      <!-- $\mathdefault{200}$ -->
      <g transform="translate(639.188856 532.007829)scale(0.12 -0.12)">
       <use transform="scale(0.996264)" xlink:href="#CMR17-32"/>
       <use transform="translate(45.690477 0)scale(0.996264)" xlink:href="#CMR17-30"/>
       <use transform="translate(91.380954 0)scale(0.996264)" xlink:href="#CMR17-30"/>
      </g>
     </g>
    </g>
   </g>
   <g id="matplotlib.axis_6">
    <g id="ytick_9">
     <g id="line2d_57">
      <path clip-path="url(#p279f27df9c)" d="M 35.20447 482.89675 
L 661.768007 482.89675 
" style="fill:none;stroke:#b0b0b0;stroke-linecap:square;stroke-width:0.8;"/>
     </g>
     <g id="line2d_58">
      <g>
       <use style="stroke:#000000;stroke-width:0.8;" x="35.20447" xlink:href="#m1b47311b2c" y="482.89675"/>
      </g>
     </g>
     <g id="text_29">
      <!-- $\mathdefault{−50}$ -->
      <g transform="translate(7.2 487.04784)scale(0.12 -0.12)">
       <use transform="scale(0.996264)" xlink:href="#CMSY10-0"/>
       <use transform="translate(77.487468 0)scale(0.996264)" xlink:href="#CMR17-35"/>
       <use transform="translate(123.177945 0)scale(0.996264)" xlink:href="#CMR17-30"/>
      </g>
     </g>
    </g>
    <g id="ytick_10">
     <g id="line2d_59">
      <path clip-path="url(#p279f27df9c)" d="M 35.20447 444.80979 
L 661.768007 444.80979 
" style="fill:none;stroke:#b0b0b0;stroke-linecap:square;stroke-width:0.8;"/>
     </g>
     <g id="line2d_60">
      <g>
       <use style="stroke:#000000;stroke-width:0.8;" x="35.20447" xlink:href="#m1b47311b2c" y="444.80979"/>
      </g>
     </g>
     <g id="text_30">
      <!-- $\mathdefault{0}$ -->
      <g transform="translate(22.35148 448.96088)scale(0.12 -0.12)">
       <use transform="scale(0.996264)" xlink:href="#CMR17-30"/>
      </g>
     </g>
    </g>
    <g id="ytick_11">
     <g id="line2d_61">
      <path clip-path="url(#p279f27df9c)" d="M 35.20447 406.722831 
L 661.768007 406.722831 
" style="fill:none;stroke:#b0b0b0;stroke-linecap:square;stroke-width:0.8;"/>
     </g>
     <g id="line2d_62">
      <g>
       <use style="stroke:#000000;stroke-width:0.8;" x="35.20447" xlink:href="#m1b47311b2c" y="406.722831"/>
      </g>
     </g>
     <g id="text_31">
      <!-- $\mathdefault{50}$ -->
      <g transform="translate(16.498489 410.873921)scale(0.12 -0.12)">
       <use transform="scale(0.996264)" xlink:href="#CMR17-35"/>
       <use transform="translate(45.690477 0)scale(0.996264)" xlink:href="#CMR17-30"/>
      </g>
     </g>
    </g>
   </g>
   <g id="line2d_63">
    <path clip-path="url(#p279f27df9c)" d="M 63.684631 445.571529 
L 69.556829 444.80979 
L 75.429027 444.048051 
L 81.301225 444.80979 
L 87.173423 445.571529 
L 93.045621 444.80979 
L 98.917819 445.571529 
L 104.790017 444.048051 
L 110.662216 444.80979 
L 116.534414 444.048051 
L 122.406612 444.80979 
L 128.27881 445.571529 
L 134.151008 444.048051 
L 140.023206 445.571529 
L 145.895404 444.80979 
L 151.767602 444.048051 
L 157.6398 445.571529 
L 163.511998 444.80979 
L 169.384197 444.048051 
L 175.256395 445.571529 
L 181.128593 444.588581 
L 187.000791 445.030999 
L 192.872989 444.048051 
L 198.745187 444.048051 
L 204.617385 447.256877 
L 210.489583 445.40966 
L 216.361781 444.048051 
L 222.233979 442.524573 
L 228.106178 445.571529 
L 233.978376 444.80979 
L 239.850574 445.571529 
L 245.722772 444.80979 
L 251.59497 444.048051 
L 257.467168 444.374685 
L 263.339366 446.006635 
L 269.211564 445.571529 
L 275.083762 443.286312 
L 280.95596 444.80979 
L 286.828159 444.048051 
L 292.700357 445.571529 
L 298.572555 445.571529 
L 304.444753 445.571529 
L 310.316951 444.80979 
L 316.189149 442.524573 
L 322.061347 445.571529 
L 327.933545 446.333269 
L 333.805743 442.576599 
L 339.677941 444.757763 
L 345.55014 446.278347 
L 351.422338 446.38819 
L 357.294536 438.715877 
L 363.166734 454.333739 
L 369.038932 439.856276 
L 374.91113 436.323711 
L 380.783328 461.244313 
L 386.655526 461.563634 
L 392.527724 452.59347 
L 398.399922 430.115536 
L 404.272121 426.805703 
L 410.144319 447.307381 
L 416.016517 437.192398 
L 421.888715 447.911668 
L 427.760913 453.895739 
L 433.633111 440.949067 
L 439.505309 439.749328 
L 445.377507 447.147034 
L 451.249705 445.630869 
L 457.121903 445.567111 
L 462.994102 443.452599 
L 468.8663 445.078608 
L 474.738498 446.771269 
L 480.610696 442.521678 
L 486.482894 444.374685 
L 492.355092 446.333269 
L 498.22729 441.866887 
L 504.099488 442.420519 
L 509.971686 446.333269 
L 515.843884 449.380225 
L 521.716083 445.571529 
L 527.588281 441.489598 
L 533.460479 441.27433 
L 539.332677 445.571529 
L 545.204875 449.380225 
L 551.077073 443.065103 
L 556.949271 445.682896 
L 562.821469 443.396155 
L 568.693667 441.762833 
L 574.565866 443.286312 
L 580.438064 451.39373 
L 586.310262 446.604981 
L 592.18246 446.447529 
L 598.054658 441.648572 
L 603.926856 448.563565 
L 609.799054 444.864712 
L 615.671252 440.129512 
L 621.54345 441.872676 
L 627.415648 446.768374 
L 633.287847 443.612946 
" style="fill:none;stroke:#ff7f0e;stroke-linecap:square;stroke-width:1.5;"/>
   </g>
   <g id="line2d_64">
    <path clip-path="url(#p279f27df9c)" d="M 63.684631 461.066037 
L 69.556829 446.830985 
L 75.429027 411.687865 
L 81.301225 469.39589 
L 87.173423 440.929318 
L 93.045621 444.178984 
L 98.917819 451.662919 
L 104.790017 436.350838 
L 110.662216 452.56269 
L 116.534414 427.787751 
L 122.406612 463.037523 
L 128.27881 434.853825 
L 134.151008 428.772303 
L 140.023206 483.532992 
L 145.895404 448.233004 
L 151.767602 414.607678 
L 157.6398 448.063139 
L 163.511998 417.654042 
L 169.384197 483.295126 
L 175.256395 451.673498 
L 181.128593 417.036838 
L 187.000791 460.573757 
L 192.872989 455.623248 
L 198.745187 437.095565 
L 204.617385 434.813013 
L 210.489583 447.247837 
L 216.361781 460.667896 
L 222.233979 429.115433 
L 228.106178 419.984592 
L 233.978376 468.704592 
L 239.850574 450.810322 
L 245.722772 469.91828 
L 251.59497 405.059227 
L 257.467168 447.240439 
L 263.339366 447.191404 
L 269.211564 448.748048 
L 275.083762 464.304617 
L 280.95596 420.82701 
L 286.828159 445.719825 
L 292.700357 455.496531 
L 298.572555 448.469179 
L 304.444753 449.01538 
L 310.316951 431.906712 
L 316.189149 437.706299 
L 322.061347 421.190584 
L 327.933545 492.265102 
L 333.805743 433.230532 
L 339.677941 427.566274 
L 345.55014 465.825584 
L 351.422338 438.251373 
L 357.294536 450.463889 
L 363.166734 426.301615 
L 369.038932 454.796536 
L 374.91113 473.164506 
L 380.783328 418.805947 
L 386.655526 466.386204 
L 392.527724 438.080842 
L 398.399922 464.289459 
L 404.272121 395.863055 
L 410.144319 443.926941 
L 416.016517 479.251668 
L 421.888715 415.339429 
L 427.760913 461.937566 
L 433.633111 454.661514 
L 439.505309 412.154639 
L 445.377507 460.024098 
L 451.249705 417.432267 
L 457.121903 488.846272 
L 462.994102 442.267809 
L 468.8663 430.505575 
L 474.738498 449.782165 
L 480.610696 435.456711 
L 486.482894 441.412866 
L 492.355092 450.471948 
L 498.22729 455.254486 
L 504.099488 430.58456 
L 509.971686 450.217444 
L 515.843884 441.710096 
L 521.716083 463.074045 
L 527.588281 427.111967 
L 533.460479 441.778236 
L 539.332677 455.428338 
L 545.204875 415.413895 
L 551.077073 510.907674 
L 556.949271 394.948158 
L 562.821469 442.959865 
L 568.693667 460.993574 
L 574.565866 431.494352 
L 580.438064 442.116146 
L 586.310262 480.659231 
L 592.18246 404.978039 
L 598.054658 476.991997 
L 603.926856 420.624375 
L 609.799054 460.938088 
L 615.671252 430.827822 
L 621.54345 455.99452 
L 627.415648 432.749827 
L 633.287847 428.288561 
" style="fill:none;stroke:#1f77b4;stroke-linecap:square;stroke-width:1.5;"/>
   </g>
   <g id="patch_13">
    <path d="M 35.20447 516.70565 
L 35.20447 389.150182 
" style="fill:none;stroke:#000000;stroke-linecap:square;stroke-linejoin:miter;stroke-width:0.8;"/>
   </g>
   <g id="patch_14">
    <path d="M 661.768007 516.70565 
L 661.768007 389.150182 
" style="fill:none;stroke:#000000;stroke-linecap:square;stroke-linejoin:miter;stroke-width:0.8;"/>
   </g>
   <g id="patch_15">
    <path d="M 35.20447 516.70565 
L 661.768007 516.70565 
" style="fill:none;stroke:#000000;stroke-linecap:square;stroke-linejoin:miter;stroke-width:0.8;"/>
   </g>
   <g id="patch_16">
    <path d="M 35.20447 389.150182 
L 661.768007 389.150182 
" style="fill:none;stroke:#000000;stroke-linecap:square;stroke-linejoin:miter;stroke-width:0.8;"/>
   </g>
   <g id="text_32">
    <!-- Second derivative -->
    <g transform="translate(282.98394 383.150182)scale(0.192 -0.192)">
     <defs>
      <path d="M 2797 4169 
C 2515 4334 2208 4480 1690 4480 
C 864 4480 333 3879 333 3266 
C 333 3025 403 2753 653 2475 
C 902 2196 1184 2121 1542 2033 
C 1690 1994 1939 1924 1984 1906 
C 2342 1767 2515 1444 2515 1140 
C 2515 742 2202 318 1645 318 
C 1453 318 890 318 358 819 
L 269 318 
C 794 -64 1363 -128 1651 -128 
C 2438 -128 3002 488 3002 1186 
C 3002 1440 2925 1763 2656 2061 
C 2394 2347 2163 2410 1638 2549 
C 1338 2626 1146 2677 986 2873 
C 877 3013 819 3146 819 3317 
C 819 3673 1126 4060 1690 4060 
C 1971 4060 2336 4002 2707 3660 
L 2797 4169 
z
" id="CMSS17-53" transform="scale(0.015625)"/>
      <path d="M 2464 2541 
C 2464 2585 2170 2714 2093 2739 
C 1882 2816 1613 2816 1542 2816 
C 710 2816 211 2093 211 1363 
C 211 595 768 -64 1517 -64 
C 1946 -64 2253 76 2502 242 
L 2464 664 
C 2189 453 1869 337 1523 337 
C 1024 337 698 774 698 1369 
C 698 1831 909 2414 1549 2414 
C 1901 2414 2099 2343 2394 2145 
L 2464 2541 
z
" id="CMSS17-63" transform="scale(0.015625)"/>
     </defs>
     <use transform="scale(0.996264)" xlink:href="#CMSS17-53"/>
     <use transform="translate(52.048516 0)scale(0.996264)" xlink:href="#CMSS17-65"/>
     <use transform="translate(93.687338 0)scale(0.996264)" xlink:href="#CMSS17-63"/>
     <use transform="translate(135.32616 0)scale(0.996264)" xlink:href="#CMSS17-6f"/>
     <use transform="translate(182.169784 0)scale(0.996264)" xlink:href="#CMSS17-6e"/>
     <use transform="translate(230.374727 0)scale(0.996264)" xlink:href="#CMSS17-64"/>
     <use transform="translate(309.808783 0)scale(0.996264)" xlink:href="#CMSS17-64"/>
     <use transform="translate(358.013726 0)scale(0.996264)" xlink:href="#CMSS17-65"/>
     <use transform="translate(399.652548 0)scale(0.996264)" xlink:href="#CMSS17-72"/>
     <use transform="translate(431.562321 0)scale(0.996264)" xlink:href="#CMSS17-69"/>
     <use transform="translate(453.743044 0)scale(0.996264)" xlink:href="#CMSS17-76"/>
     <use transform="translate(496.743185 0)scale(0.996264)" xlink:href="#CMSS17-61"/>
     <use transform="translate(541.665106 0)scale(0.996264)" xlink:href="#CMSS17-74"/>
     <use transform="translate(575.496673 0)scale(0.996264)" xlink:href="#CMSS17-69"/>
     <use transform="translate(597.677396 0)scale(0.996264)" xlink:href="#CMSS17-76"/>
     <use transform="translate(640.677537 0)scale(0.996264)" xlink:href="#CMSS17-65"/>
    </g>
   </g>
  </g>
 </g>
 <defs>
  <clipPath id="pefc69623e1">
   <rect height="127.555468" width="626.563537" x="35.20447" y="26.483515"/>
  </clipPath>
  <clipPath id="pd8cff8b9cf">
   <rect height="127.555468" width="626.563537" x="35.20447" y="207.816848"/>
  </clipPath>
  <clipPath id="p279f27df9c">
   <rect height="127.555468" width="626.563537" x="35.20447" y="389.150182"/>
  </clipPath>
 </defs>
</svg>
