<?xml version="1.0" encoding="utf-8" standalone="no"?>
<!DOCTYPE svg PUBLIC "-//W3C//DTD SVG 1.1//EN"
  "http://www.w3.org/Graphics/SVG/1.1/DTD/svg11.dtd">
<svg height="541.532425pt" version="1.1" viewBox="0 0 668.968007 541.532425" width="668.968007pt" xmlns="http://www.w3.org/2000/svg" xmlns:xlink="http://www.w3.org/1999/xlink">
 <metadata>
  <rdf:RDF xmlns:cc="http://creativecommons.org/ns#" xmlns:dc="http://purl.org/dc/elements/1.1/" xmlns:rdf="http://www.w3.org/1999/02/22-rdf-syntax-ns#">
   <cc:Work>
    <dc:type rdf:resource="http://purl.org/dc/dcmitype/StillImage"/>
    <dc:date>2021-10-29T09:55:50.466858</dc:date>
    <dc:format>image/svg+xml</dc:format>
    <dc:creator>
     <cc:Agent>
      <dc:title>Matplotlib v3.4.3, https://matplotlib.org/</dc:title>
     </cc:Agent>
    </dc:creator>
   </cc:Work>
  </rdf:RDF>
 </metadata>
 <defs>
  <style type="text/css">*{stroke-linecap:butt;stroke-linejoin:round;}</style>
 </defs>
 <g id="figure_1">
  <g id="patch_1">
   <path d="M 0 541.532425 
L 668.968007 541.532425 
L 668.968007 0 
L 0 0 
z
" style="fill:none;"/>
  </g>
  <g id="axes_1">
   <g id="patch_2">
    <path d="M 35.20447 154.038983 
L 661.768007 154.038983 
L 661.768007 26.483515 
L 35.20447 26.483515 
z
" style="fill:#ffffff;"/>
   </g>
   <g id="matplotlib.axis_1">
    <g id="xtick_1">
     <g id="line2d_1">
      <path clip-path="url(#pe5c062c806)" d="M 66.561415 154.038983 
L 66.561415 26.483515 
" style="fill:none;stroke:#b0b0b0;stroke-linecap:square;stroke-width:0.8;"/>
     </g>
     <g id="line2d_2">
      <defs>
       <path d="M 0 0 
L 0 3.5 
" id="m19f7d70f24" style="stroke:#000000;stroke-width:0.8;"/>
      </defs>
      <g>
       <use style="stroke:#000000;stroke-width:0.8;" x="66.561415" xlink:href="#m19f7d70f24" y="154.038983"/>
      </g>
     </g>
     <g id="text_1">
      <!-- $\mathdefault{100}$ -->
      <g transform="translate(57.781929 169.341163)scale(0.12 -0.12)">
       <defs>
        <path d="M 1702 4058 
C 1702 4192 1696 4192 1606 4192 
C 1357 3916 979 3827 621 3827 
C 602 3827 570 3827 563 3808 
C 557 3795 557 3782 557 3648 
C 755 3648 1088 3686 1344 3839 
L 1344 461 
C 1344 236 1331 160 781 160 
L 589 160 
L 589 0 
C 896 0 1216 0 1523 0 
C 1830 0 2150 0 2458 0 
L 2458 160 
L 2266 160 
C 1715 160 1702 230 1702 458 
L 1702 4058 
z
" id="CMR17-31" transform="scale(0.015625)"/>
        <path d="M 2688 2025 
C 2688 2416 2682 3080 2413 3591 
C 2176 4039 1798 4198 1466 4198 
C 1158 4198 768 4058 525 3597 
C 269 3118 243 2524 243 2025 
C 243 1661 250 1106 448 619 
C 723 -39 1216 -128 1466 -128 
C 1760 -128 2208 -7 2470 600 
C 2662 1042 2688 1559 2688 2025 
z
M 1466 -26 
C 1056 -26 813 325 723 812 
C 653 1188 653 1738 653 2096 
C 653 2588 653 2997 736 3387 
C 858 3929 1216 4096 1466 4096 
C 1728 4096 2067 3923 2189 3400 
C 2272 3036 2278 2607 2278 2096 
C 2278 1680 2278 1169 2202 792 
C 2067 95 1690 -26 1466 -26 
z
" id="CMR17-30" transform="scale(0.015625)"/>
       </defs>
       <use transform="scale(0.996264)" xlink:href="#CMR17-31"/>
       <use transform="translate(45.690477 0)scale(0.996264)" xlink:href="#CMR17-30"/>
       <use transform="translate(91.380954 0)scale(0.996264)" xlink:href="#CMR17-30"/>
      </g>
     </g>
    </g>
    <g id="xtick_2">
     <g id="line2d_3">
      <path clip-path="url(#pe5c062c806)" d="M 181.632771 154.038983 
L 181.632771 26.483515 
" style="fill:none;stroke:#b0b0b0;stroke-linecap:square;stroke-width:0.8;"/>
     </g>
     <g id="line2d_4">
      <g>
       <use style="stroke:#000000;stroke-width:0.8;" x="181.632771" xlink:href="#m19f7d70f24" y="154.038983"/>
      </g>
     </g>
     <g id="text_2">
      <!-- $\mathdefault{120}$ -->
      <g transform="translate(172.853286 169.341163)scale(0.12 -0.12)">
       <defs>
        <path d="M 2669 989 
L 2554 989 
C 2490 536 2438 459 2413 420 
C 2381 369 1920 369 1830 369 
L 602 369 
C 832 619 1280 1072 1824 1597 
C 2214 1967 2669 2402 2669 3035 
C 2669 3790 2067 4224 1395 4224 
C 691 4224 262 3604 262 3030 
C 262 2780 448 2748 525 2748 
C 589 2748 781 2787 781 3010 
C 781 3207 614 3264 525 3264 
C 486 3264 448 3258 422 3245 
C 544 3790 915 4058 1306 4058 
C 1862 4058 2227 3617 2227 3035 
C 2227 2479 1901 2000 1536 1584 
L 262 146 
L 262 0 
L 2515 0 
L 2669 989 
z
" id="CMR17-32" transform="scale(0.015625)"/>
       </defs>
       <use transform="scale(0.996264)" xlink:href="#CMR17-31"/>
       <use transform="translate(45.690477 0)scale(0.996264)" xlink:href="#CMR17-32"/>
       <use transform="translate(91.380954 0)scale(0.996264)" xlink:href="#CMR17-30"/>
      </g>
     </g>
    </g>
    <g id="xtick_3">
     <g id="line2d_5">
      <path clip-path="url(#pe5c062c806)" d="M 296.704128 154.038983 
L 296.704128 26.483515 
" style="fill:none;stroke:#b0b0b0;stroke-linecap:square;stroke-width:0.8;"/>
     </g>
     <g id="line2d_6">
      <g>
       <use style="stroke:#000000;stroke-width:0.8;" x="296.704128" xlink:href="#m19f7d70f24" y="154.038983"/>
      </g>
     </g>
     <g id="text_3">
      <!-- $\mathdefault{140}$ -->
      <g transform="translate(287.924643 169.341163)scale(0.12 -0.12)">
       <defs>
        <path d="M 2150 4122 
C 2150 4256 2144 4256 2029 4256 
L 128 1254 
L 128 1088 
L 1779 1088 
L 1779 457 
C 1779 224 1766 160 1318 160 
L 1197 160 
L 1197 0 
C 1402 0 1747 0 1965 0 
C 2182 0 2528 0 2733 0 
L 2733 160 
L 2611 160 
C 2163 160 2150 224 2150 457 
L 2150 1088 
L 2803 1088 
L 2803 1254 
L 2150 1254 
L 2150 4122 
z
M 1798 3703 
L 1798 1254 
L 256 1254 
L 1798 3703 
z
" id="CMR17-34" transform="scale(0.015625)"/>
       </defs>
       <use transform="scale(0.996264)" xlink:href="#CMR17-31"/>
       <use transform="translate(45.690477 0)scale(0.996264)" xlink:href="#CMR17-34"/>
       <use transform="translate(91.380954 0)scale(0.996264)" xlink:href="#CMR17-30"/>
      </g>
     </g>
    </g>
    <g id="xtick_4">
     <g id="line2d_7">
      <path clip-path="url(#pe5c062c806)" d="M 411.775485 154.038983 
L 411.775485 26.483515 
" style="fill:none;stroke:#b0b0b0;stroke-linecap:square;stroke-width:0.8;"/>
     </g>
     <g id="line2d_8">
      <g>
       <use style="stroke:#000000;stroke-width:0.8;" x="411.775485" xlink:href="#m19f7d70f24" y="154.038983"/>
      </g>
     </g>
     <g id="text_4">
      <!-- $\mathdefault{160}$ -->
      <g transform="translate(402.995999 169.341163)scale(0.12 -0.12)">
       <defs>
        <path d="M 678 2176 
C 678 3690 1395 4032 1811 4032 
C 1946 4032 2272 4009 2400 3776 
C 2298 3776 2106 3776 2106 3553 
C 2106 3381 2246 3323 2336 3323 
C 2394 3323 2566 3348 2566 3560 
C 2566 3954 2246 4179 1805 4179 
C 1043 4179 243 3390 243 1984 
C 243 253 966 -128 1478 -128 
C 2099 -128 2688 427 2688 1283 
C 2688 2081 2170 2662 1517 2662 
C 1126 2662 838 2407 678 1960 
L 678 2176 
z
M 1478 25 
C 691 25 691 1200 691 1436 
C 691 1896 909 2560 1504 2560 
C 1613 2560 1926 2560 2138 2120 
C 2253 1870 2253 1609 2253 1289 
C 2253 944 2253 690 2118 434 
C 1978 171 1773 25 1478 25 
z
" id="CMR17-36" transform="scale(0.015625)"/>
       </defs>
       <use transform="scale(0.996264)" xlink:href="#CMR17-31"/>
       <use transform="translate(45.690477 0)scale(0.996264)" xlink:href="#CMR17-36"/>
       <use transform="translate(91.380954 0)scale(0.996264)" xlink:href="#CMR17-30"/>
      </g>
     </g>
    </g>
    <g id="xtick_5">
     <g id="line2d_9">
      <path clip-path="url(#pe5c062c806)" d="M 526.846842 154.038983 
L 526.846842 26.483515 
" style="fill:none;stroke:#b0b0b0;stroke-linecap:square;stroke-width:0.8;"/>
     </g>
     <g id="line2d_10">
      <g>
       <use style="stroke:#000000;stroke-width:0.8;" x="526.846842" xlink:href="#m19f7d70f24" y="154.038983"/>
      </g>
     </g>
     <g id="text_5">
      <!-- $\mathdefault{180}$ -->
      <g transform="translate(518.067356 169.341163)scale(0.12 -0.12)">
       <defs>
        <path d="M 1741 2264 
C 2144 2467 2554 2773 2554 3263 
C 2554 3841 1990 4179 1472 4179 
C 890 4179 378 3759 378 3180 
C 378 3021 416 2747 666 2505 
C 730 2442 998 2251 1171 2130 
C 883 1983 211 1634 211 934 
C 211 279 838 -128 1459 -128 
C 2144 -128 2720 362 2720 1010 
C 2720 1590 2330 1857 2074 2029 
L 1741 2264 
z
M 902 2822 
C 851 2854 595 3051 595 3351 
C 595 3739 998 4032 1459 4032 
C 1965 4032 2336 3676 2336 3262 
C 2336 2669 1670 2331 1638 2331 
C 1632 2331 1626 2331 1574 2370 
L 902 2822 
z
M 2080 1519 
C 2176 1449 2483 1240 2483 851 
C 2483 381 2010 25 1472 25 
C 890 25 448 438 448 940 
C 448 1443 838 1862 1280 2060 
L 2080 1519 
z
" id="CMR17-38" transform="scale(0.015625)"/>
       </defs>
       <use transform="scale(0.996264)" xlink:href="#CMR17-31"/>
       <use transform="translate(45.690477 0)scale(0.996264)" xlink:href="#CMR17-38"/>
       <use transform="translate(91.380954 0)scale(0.996264)" xlink:href="#CMR17-30"/>
      </g>
     </g>
    </g>
    <g id="xtick_6">
     <g id="line2d_11">
      <path clip-path="url(#pe5c062c806)" d="M 641.918198 154.038983 
L 641.918198 26.483515 
" style="fill:none;stroke:#b0b0b0;stroke-linecap:square;stroke-width:0.8;"/>
     </g>
     <g id="line2d_12">
      <g>
       <use style="stroke:#000000;stroke-width:0.8;" x="641.918198" xlink:href="#m19f7d70f24" y="154.038983"/>
      </g>
     </g>
     <g id="text_6">
      <!-- $\mathdefault{200}$ -->
      <g transform="translate(633.138713 169.341163)scale(0.12 -0.12)">
       <use transform="scale(0.996264)" xlink:href="#CMR17-32"/>
       <use transform="translate(45.690477 0)scale(0.996264)" xlink:href="#CMR17-30"/>
       <use transform="translate(91.380954 0)scale(0.996264)" xlink:href="#CMR17-30"/>
      </g>
     </g>
    </g>
   </g>
   <g id="matplotlib.axis_2">
    <g id="ytick_1">
     <g id="line2d_13">
      <path clip-path="url(#pe5c062c806)" d="M 35.20447 150.243098 
L 661.768007 150.243098 
" style="fill:none;stroke:#b0b0b0;stroke-linecap:square;stroke-width:0.8;"/>
     </g>
     <g id="line2d_14">
      <defs>
       <path d="M 0 0 
L -3.5 0 
" id="mb8ed5f42ba" style="stroke:#000000;stroke-width:0.8;"/>
      </defs>
      <g>
       <use style="stroke:#000000;stroke-width:0.8;" x="35.20447" xlink:href="#mb8ed5f42ba" y="150.243098"/>
      </g>
     </g>
     <g id="text_7">
      <!-- $\mathdefault{50}$ -->
      <g transform="translate(16.498489 154.394188)scale(0.12 -0.12)">
       <defs>
        <path d="M 730 3692 
C 794 3666 1056 3584 1325 3584 
C 1920 3584 2246 3911 2432 4100 
C 2432 4157 2432 4192 2394 4192 
C 2387 4192 2374 4192 2323 4163 
C 2099 4058 1837 3973 1517 3973 
C 1325 3973 1037 3999 723 4139 
C 653 4171 640 4171 634 4171 
C 602 4171 595 4164 595 4037 
L 595 2203 
C 595 2089 595 2057 659 2057 
C 691 2057 704 2070 736 2114 
C 941 2401 1222 2522 1542 2522 
C 1766 2522 2246 2382 2246 1289 
C 2246 1085 2246 715 2054 421 
C 1894 159 1645 25 1370 25 
C 947 25 518 320 403 814 
C 429 807 480 795 506 795 
C 589 795 749 840 749 1038 
C 749 1210 627 1280 506 1280 
C 358 1280 262 1190 262 1011 
C 262 454 704 -128 1382 -128 
C 2042 -128 2669 440 2669 1264 
C 2669 2030 2170 2624 1549 2624 
C 1222 2624 947 2503 730 2274 
L 730 3692 
z
" id="CMR17-35" transform="scale(0.015625)"/>
       </defs>
       <use transform="scale(0.996264)" xlink:href="#CMR17-35"/>
       <use transform="translate(45.690477 0)scale(0.996264)" xlink:href="#CMR17-30"/>
      </g>
     </g>
    </g>
    <g id="ytick_2">
     <g id="line2d_15">
      <path clip-path="url(#pe5c062c806)" d="M 35.20447 105.579484 
L 661.768007 105.579484 
" style="fill:none;stroke:#b0b0b0;stroke-linecap:square;stroke-width:0.8;"/>
     </g>
     <g id="line2d_16">
      <g>
       <use style="stroke:#000000;stroke-width:0.8;" x="35.20447" xlink:href="#mb8ed5f42ba" y="105.579484"/>
      </g>
     </g>
     <g id="text_8">
      <!-- $\mathdefault{100}$ -->
      <g transform="translate(10.645499 109.730574)scale(0.12 -0.12)">
       <use transform="scale(0.996264)" xlink:href="#CMR17-31"/>
       <use transform="translate(45.690477 0)scale(0.996264)" xlink:href="#CMR17-30"/>
       <use transform="translate(91.380954 0)scale(0.996264)" xlink:href="#CMR17-30"/>
      </g>
     </g>
    </g>
    <g id="ytick_3">
     <g id="line2d_17">
      <path clip-path="url(#pe5c062c806)" d="M 35.20447 60.91587 
L 661.768007 60.91587 
" style="fill:none;stroke:#b0b0b0;stroke-linecap:square;stroke-width:0.8;"/>
     </g>
     <g id="line2d_18">
      <g>
       <use style="stroke:#000000;stroke-width:0.8;" x="35.20447" xlink:href="#mb8ed5f42ba" y="60.91587"/>
      </g>
     </g>
     <g id="text_9">
      <!-- $\mathdefault{150}$ -->
      <g transform="translate(10.645499 65.06696)scale(0.12 -0.12)">
       <use transform="scale(0.996264)" xlink:href="#CMR17-31"/>
       <use transform="translate(45.690477 0)scale(0.996264)" xlink:href="#CMR17-35"/>
       <use transform="translate(91.380954 0)scale(0.996264)" xlink:href="#CMR17-30"/>
      </g>
     </g>
    </g>
   </g>
   <g id="line2d_19">
    <path clip-path="url(#pe5c062c806)" d="M 394.514781 154.038983 
L 394.514781 26.483515 
" style="fill:none;stroke:#2ca02c;stroke-linecap:square;"/>
   </g>
   <g id="line2d_20">
    <path clip-path="url(#pe5c062c806)" d="M 63.684631 58.445793 
L 69.438199 57.552521 
L 75.191766 57.552521 
L 80.945334 57.552521 
L 86.698902 56.659249 
L 92.45247 55.765977 
L 98.206038 55.765977 
L 103.959606 55.765977 
L 109.713173 56.659249 
L 115.466741 56.659249 
L 121.220309 56.659249 
L 126.973877 55.765977 
L 132.727445 54.872704 
L 138.481013 54.872704 
L 144.23458 53.979432 
L 149.988148 53.979432 
L 155.741716 53.979432 
L 161.495284 53.08616 
L 167.248852 53.08616 
L 173.00242 53.08616 
L 178.755987 52.192887 
L 184.509555 52.192887 
L 190.263123 51.933481 
L 196.016691 51.933481 
L 201.770259 51.040209 
L 207.523827 49.253664 
L 213.277394 50.336757 
L 219.030962 52.123301 
L 224.78453 53.016574 
L 230.538098 51.230029 
L 236.291666 50.336757 
L 242.045234 49.443485 
L 247.798801 49.443485 
L 253.552369 49.443485 
L 259.305937 48.550212 
L 265.059505 47.146703 
L 270.813073 47.146703 
L 276.566641 48.039975 
L 282.320208 47.146703 
L 288.073776 46.253431 
L 293.827344 44.466886 
L 299.580912 43.573614 
L 305.33448 43.573614 
L 311.088048 44.466886 
L 316.841616 45.360158 
L 322.595183 43.573614 
L 328.348751 42.680342 
L 334.102319 43.573614 
L 339.855887 41.84808 
L 345.609455 40.061535 
L 351.363023 39.99713 
L 357.11659 41.783675 
L 362.870158 36.424041 
L 368.623726 42.232901 
L 374.377294 42.232901 
L 380.130862 32.281491 
L 385.88443 41.60243 
L 391.637997 70.570178 
L 397.391565 108.665651 
L 403.145133 129.529543 
L 408.898701 129.280499 
L 414.652269 131.960316 
L 420.405837 125.70741 
L 426.159404 123.091998 
L 431.912972 131.131448 
L 437.66654 134.643527 
L 443.420108 132.22133 
L 449.173676 132.53996 
L 454.927244 133.821449 
L 460.680811 135.991028 
L 466.434379 136.569065 
L 472.187947 137.462337 
L 477.941515 140.655786 
L 483.695083 141.166023 
L 489.448651 141.166023 
L 495.202218 142.952567 
L 500.955786 141.288044 
L 506.709354 136.821682 
L 512.462922 134.141865 
L 518.21649 136.821682 
L 523.970058 140.394771 
L 529.723625 140.074355 
L 535.477193 135.607993 
L 541.230761 132.034904 
L 546.984329 133.821449 
L 552.737897 133.562042 
L 558.491465 134.326505 
L 564.245032 133.433232 
L 569.9986 128.966871 
L 575.752168 122.713965 
L 581.505736 124.181879 
L 587.259304 127.754969 
L 593.012872 133.248593 
L 598.766439 135.035138 
L 604.520007 141.223639 
L 610.273575 147.476545 
L 616.027143 148.241007 
L 621.780711 145.56119 
L 627.534279 145.178155 
L 633.287847 143.391611 
" style="fill:none;stroke:#ff7f0e;stroke-linecap:square;stroke-width:1.5;"/>
   </g>
   <g id="patch_3">
    <path d="M 35.20447 154.038983 
L 35.20447 26.483515 
" style="fill:none;stroke:#000000;stroke-linecap:square;stroke-linejoin:miter;stroke-width:0.8;"/>
   </g>
   <g id="patch_4">
    <path d="M 661.768007 154.038983 
L 661.768007 26.483515 
" style="fill:none;stroke:#000000;stroke-linecap:square;stroke-linejoin:miter;stroke-width:0.8;"/>
   </g>
   <g id="patch_5">
    <path d="M 35.20447 154.038983 
L 661.768007 154.038983 
" style="fill:none;stroke:#000000;stroke-linecap:square;stroke-linejoin:miter;stroke-width:0.8;"/>
   </g>
   <g id="patch_6">
    <path d="M 35.20447 26.483515 
L 661.768007 26.483515 
" style="fill:none;stroke:#000000;stroke-linecap:square;stroke-linejoin:miter;stroke-width:0.8;"/>
   </g>
   <g id="text_10">
    <!-- Intensity profile -->
    <g transform="translate(290.932496 20.483515)scale(0.192 -0.192)">
     <defs>
      <path d="M 1094 4416 
L 557 4416 
L 557 0 
L 1094 0 
L 1094 4416 
z
" id="CMSS17-49" transform="scale(0.015625)"/>
      <path d="M 2618 1877 
C 2618 2283 2522 2816 1798 2816 
C 1389 2816 1120 2606 941 2389 
L 941 2758 
L 474 2758 
L 474 0 
L 960 0 
L 960 1559 
C 960 1964 1114 2428 1549 2428 
C 2112 2428 2131 2048 2131 1829 
L 2131 0 
L 2618 0 
L 2618 1877 
z
" id="CMSS17-6e" transform="scale(0.015625)"/>
      <path d="M 1069 2368 
L 1901 2368 
L 1901 2737 
L 1069 2737 
L 1069 3520 
L 614 3520 
L 614 2737 
L 109 2737 
L 109 2368 
L 602 2368 
L 602 749 
C 602 384 685 -64 1107 -64 
C 1427 -64 1722 25 2003 172 
L 1901 548 
C 1747 414 1562 337 1363 337 
C 1082 337 1069 696 1069 856 
L 1069 2368 
z
" id="CMSS17-74" transform="scale(0.015625)"/>
      <path d="M 2502 1377 
C 2502 1590 2490 2003 2285 2345 
C 2061 2713 1696 2816 1421 2816 
C 755 2816 192 2188 192 1375 
C 192 582 774 -64 1510 -64 
C 1798 -64 2150 19 2470 248 
C 2470 274 2458 414 2451 420 
C 2451 433 2432 630 2432 656 
C 2125 407 1773 325 1517 325 
C 1107 325 666 667 646 1377 
L 2502 1377 
z
M 698 1728 
C 781 2084 1062 2421 1421 2421 
C 1517 2421 1965 2421 2080 1728 
L 698 1728 
z
" id="CMSS17-65" transform="scale(0.015625)"/>
      <path d="M 2061 2627 
C 1683 2807 1389 2807 1197 2807 
C 742 2807 198 2648 198 2003 
C 198 1359 902 1218 1094 1179 
C 1389 1122 1715 1058 1715 740 
C 1715 337 1254 337 1171 337 
C 915 337 563 407 243 638 
L 166 210 
C 531 0 883 -64 1178 -64 
C 1965 -64 2163 416 2163 781 
C 2163 1094 1984 1305 1862 1401 
C 1651 1568 1574 1587 1050 1696 
C 960 1709 646 1779 646 2066 
C 646 2432 1050 2432 1139 2432 
C 1555 2432 1811 2303 1984 2208 
L 2061 2627 
z
" id="CMSS17-73" transform="scale(0.015625)"/>
      <path d="M 979 4183 
L 442 4183 
L 442 3648 
L 979 3648 
L 979 4183 
z
M 947 2739 
L 474 2739 
L 474 0 
L 947 0 
L 947 2739 
z
" id="CMSS17-69" transform="scale(0.015625)"/>
      <path d="M 2675 2752 
L 2176 2752 
C 1632 1294 1446 702 1434 383 
L 1427 383 
C 1408 696 1126 1460 902 2007 
L 602 2752 
L 83 2752 
L 1216 13 
C 1146 -178 1043 -465 1011 -529 
C 870 -885 774 -885 672 -885 
C 646 -885 442 -885 211 -809 
L 250 -1229 
C 410 -1261 570 -1280 685 -1280 
C 845 -1280 1165 -1280 1459 -497 
L 2675 2752 
z
" id="CMSS17-79" transform="scale(0.015625)"/>
      <path d="M 966 333 
C 1178 129 1466 -5 1773 -5 
C 2368 -5 2880 603 2880 1412 
C 2880 2159 2496 2816 1946 2816 
C 1626 2816 1242 2702 954 2472 
L 954 2765 
L 480 2765 
L 480 -1216 
L 966 -1216 
L 966 333 
z
M 966 2100 
C 1018 2176 1235 2415 1587 2415 
C 2035 2415 2394 1960 2394 1412 
C 2394 787 1958 384 1530 384 
C 1402 384 1267 415 1139 523 
C 966 674 966 768 966 857 
L 966 2100 
z
" id="CMSS17-70" transform="scale(0.015625)"/>
      <path d="M 954 1363 
C 954 1965 1395 2368 1958 2368 
L 1958 2789 
C 1549 2789 1165 2585 934 2253 
L 934 2758 
L 480 2758 
L 480 0 
L 954 0 
L 954 1363 
z
" id="CMSS17-72" transform="scale(0.015625)"/>
      <path d="M 2829 1356 
C 2829 2176 2221 2816 1504 2816 
C 768 2816 173 2157 173 1356 
C 173 544 787 -64 1498 -64 
C 2227 -64 2829 563 2829 1356 
z
M 1504 337 
C 1050 337 659 709 659 1408 
C 659 2151 1114 2427 1498 2427 
C 1914 2427 2342 2126 2342 1408 
C 2342 683 1926 337 1504 337 
z
" id="CMSS17-6f" transform="scale(0.015625)"/>
      <path d="M 2752 4416 
L 2240 4416 
L 2240 3906 
L 2752 3906 
L 2752 4416 
z
M 2733 2737 
L 2259 2737 
L 2259 0 
L 2733 0 
L 2733 2737 
z
M 1075 2368 
L 1773 2368 
L 1773 2737 
L 1062 2737 
L 1062 3578 
C 1062 3919 1216 4092 1421 4092 
C 1542 4092 1664 4056 1773 3992 
L 1773 4410 
C 1722 4428 1574 4480 1421 4480 
C 941 4480 602 3993 602 3372 
L 602 2737 
L 160 2737 
L 160 2368 
L 602 2368 
L 602 0 
L 1075 0 
L 1075 2368 
z
" id="CMSS17-c" transform="scale(0.015625)"/>
      <path d="M 947 4416 
L 474 4416 
L 474 0 
L 947 0 
L 947 4416 
z
" id="CMSS17-6c" transform="scale(0.015625)"/>
     </defs>
     <use transform="scale(0.996264)" xlink:href="#CMSS17-49"/>
     <use transform="translate(25.783926 0)scale(0.996264)" xlink:href="#CMSS17-6e"/>
     <use transform="translate(73.988869 0)scale(0.996264)" xlink:href="#CMSS17-74"/>
     <use transform="translate(107.820435 0)scale(0.996264)" xlink:href="#CMSS17-65"/>
     <use transform="translate(149.459257 0)scale(0.996264)" xlink:href="#CMSS17-6e"/>
     <use transform="translate(197.664201 0)scale(0.996264)" xlink:href="#CMSS17-73"/>
     <use transform="translate(233.577743 0)scale(0.996264)" xlink:href="#CMSS17-69"/>
     <use transform="translate(255.758466 0)scale(0.996264)" xlink:href="#CMSS17-74"/>
     <use transform="translate(286.987578 0)scale(0.996264)" xlink:href="#CMSS17-79"/>
     <use transform="translate(361.216833 0)scale(0.996264)" xlink:href="#CMSS17-70"/>
     <use transform="translate(406.819322 0)scale(0.996264)" xlink:href="#CMSS17-72"/>
     <use transform="translate(438.729095 0)scale(0.996264)" xlink:href="#CMSS17-6f"/>
     <use transform="translate(485.572718 0)scale(0.996264)" xlink:href="#CMSS17-c"/>
     <use transform="translate(535.699455 0)scale(0.996264)" xlink:href="#CMSS17-6c"/>
     <use transform="translate(557.880178 0)scale(0.996264)" xlink:href="#CMSS17-65"/>
    </g>
   </g>
  </g>
  <g id="axes_2">
   <g id="patch_7">
    <path d="M 35.20447 335.372316 
L 661.768007 335.372316 
L 661.768007 207.816848 
L 35.20447 207.816848 
z
" style="fill:#ffffff;"/>
   </g>
   <g id="matplotlib.axis_3">
    <g id="xtick_7">
     <g id="line2d_21">
      <path clip-path="url(#pe5b56ef0f8)" d="M 63.684631 335.372316 
L 63.684631 207.816848 
" style="fill:none;stroke:#b0b0b0;stroke-linecap:square;stroke-width:0.8;"/>
     </g>
     <g id="line2d_22">
      <g>
       <use style="stroke:#000000;stroke-width:0.8;" x="63.684631" xlink:href="#m19f7d70f24" y="335.372316"/>
      </g>
     </g>
     <g id="text_11">
      <!-- $\mathdefault{100}$ -->
      <g transform="translate(54.905145 350.674496)scale(0.12 -0.12)">
       <use transform="scale(0.996264)" xlink:href="#CMR17-31"/>
       <use transform="translate(45.690477 0)scale(0.996264)" xlink:href="#CMR17-30"/>
       <use transform="translate(91.380954 0)scale(0.996264)" xlink:href="#CMR17-30"/>
      </g>
     </g>
    </g>
    <g id="xtick_8">
     <g id="line2d_23">
      <path clip-path="url(#pe5b56ef0f8)" d="M 179.930185 335.372316 
L 179.930185 207.816848 
" style="fill:none;stroke:#b0b0b0;stroke-linecap:square;stroke-width:0.8;"/>
     </g>
     <g id="line2d_24">
      <g>
       <use style="stroke:#000000;stroke-width:0.8;" x="179.930185" xlink:href="#m19f7d70f24" y="335.372316"/>
      </g>
     </g>
     <g id="text_12">
      <!-- $\mathdefault{120}$ -->
      <g transform="translate(171.1507 350.674496)scale(0.12 -0.12)">
       <use transform="scale(0.996264)" xlink:href="#CMR17-31"/>
       <use transform="translate(45.690477 0)scale(0.996264)" xlink:href="#CMR17-32"/>
       <use transform="translate(91.380954 0)scale(0.996264)" xlink:href="#CMR17-30"/>
      </g>
     </g>
    </g>
    <g id="xtick_9">
     <g id="line2d_25">
      <path clip-path="url(#pe5b56ef0f8)" d="M 296.175739 335.372316 
L 296.175739 207.816848 
" style="fill:none;stroke:#b0b0b0;stroke-linecap:square;stroke-width:0.8;"/>
     </g>
     <g id="line2d_26">
      <g>
       <use style="stroke:#000000;stroke-width:0.8;" x="296.175739" xlink:href="#m19f7d70f24" y="335.372316"/>
      </g>
     </g>
     <g id="text_13">
      <!-- $\mathdefault{140}$ -->
      <g transform="translate(287.396254 350.674496)scale(0.12 -0.12)">
       <use transform="scale(0.996264)" xlink:href="#CMR17-31"/>
       <use transform="translate(45.690477 0)scale(0.996264)" xlink:href="#CMR17-34"/>
       <use transform="translate(91.380954 0)scale(0.996264)" xlink:href="#CMR17-30"/>
      </g>
     </g>
    </g>
    <g id="xtick_10">
     <g id="line2d_27">
      <path clip-path="url(#pe5b56ef0f8)" d="M 412.421293 335.372316 
L 412.421293 207.816848 
" style="fill:none;stroke:#b0b0b0;stroke-linecap:square;stroke-width:0.8;"/>
     </g>
     <g id="line2d_28">
      <g>
       <use style="stroke:#000000;stroke-width:0.8;" x="412.421293" xlink:href="#m19f7d70f24" y="335.372316"/>
      </g>
     </g>
     <g id="text_14">
      <!-- $\mathdefault{160}$ -->
      <g transform="translate(403.641808 350.674496)scale(0.12 -0.12)">
       <use transform="scale(0.996264)" xlink:href="#CMR17-31"/>
       <use transform="translate(45.690477 0)scale(0.996264)" xlink:href="#CMR17-36"/>
       <use transform="translate(91.380954 0)scale(0.996264)" xlink:href="#CMR17-30"/>
      </g>
     </g>
    </g>
    <g id="xtick_11">
     <g id="line2d_29">
      <path clip-path="url(#pe5b56ef0f8)" d="M 528.666848 335.372316 
L 528.666848 207.816848 
" style="fill:none;stroke:#b0b0b0;stroke-linecap:square;stroke-width:0.8;"/>
     </g>
     <g id="line2d_30">
      <g>
       <use style="stroke:#000000;stroke-width:0.8;" x="528.666848" xlink:href="#m19f7d70f24" y="335.372316"/>
      </g>
     </g>
     <g id="text_15">
      <!-- $\mathdefault{180}$ -->
      <g transform="translate(519.887362 350.674496)scale(0.12 -0.12)">
       <use transform="scale(0.996264)" xlink:href="#CMR17-31"/>
       <use transform="translate(45.690477 0)scale(0.996264)" xlink:href="#CMR17-38"/>
       <use transform="translate(91.380954 0)scale(0.996264)" xlink:href="#CMR17-30"/>
      </g>
     </g>
    </g>
    <g id="xtick_12">
     <g id="line2d_31">
      <path clip-path="url(#pe5b56ef0f8)" d="M 644.912402 335.372316 
L 644.912402 207.816848 
" style="fill:none;stroke:#b0b0b0;stroke-linecap:square;stroke-width:0.8;"/>
     </g>
     <g id="line2d_32">
      <g>
       <use style="stroke:#000000;stroke-width:0.8;" x="644.912402" xlink:href="#m19f7d70f24" y="335.372316"/>
      </g>
     </g>
     <g id="text_16">
      <!-- $\mathdefault{200}$ -->
      <g transform="translate(636.132917 350.674496)scale(0.12 -0.12)">
       <use transform="scale(0.996264)" xlink:href="#CMR17-32"/>
       <use transform="translate(45.690477 0)scale(0.996264)" xlink:href="#CMR17-30"/>
       <use transform="translate(91.380954 0)scale(0.996264)" xlink:href="#CMR17-30"/>
      </g>
     </g>
    </g>
   </g>
   <g id="matplotlib.axis_4">
    <g id="ytick_4">
     <g id="line2d_33">
      <path clip-path="url(#pe5b56ef0f8)" d="M 35.20447 323.867505 
L 661.768007 323.867505 
" style="fill:none;stroke:#b0b0b0;stroke-linecap:square;stroke-width:0.8;"/>
     </g>
     <g id="line2d_34">
      <g>
       <use style="stroke:#000000;stroke-width:0.8;" x="35.20447" xlink:href="#mb8ed5f42ba" y="323.867505"/>
      </g>
     </g>
     <g id="text_17">
      <!-- $\mathdefault{−40}$ -->
      <g transform="translate(7.2 328.018594)scale(0.12 -0.12)">
       <defs>
        <path d="M 4218 1472 
C 4326 1472 4442 1472 4442 1600 
C 4442 1728 4326 1728 4218 1728 
L 755 1728 
C 646 1728 531 1728 531 1600 
C 531 1472 646 1472 755 1472 
L 4218 1472 
z
" id="CMSY10-0" transform="scale(0.015625)"/>
       </defs>
       <use transform="scale(0.996264)" xlink:href="#CMSY10-0"/>
       <use transform="translate(77.487468 0)scale(0.996264)" xlink:href="#CMR17-34"/>
       <use transform="translate(123.177945 0)scale(0.996264)" xlink:href="#CMR17-30"/>
      </g>
     </g>
    </g>
    <g id="ytick_5">
     <g id="line2d_35">
      <path clip-path="url(#pe5b56ef0f8)" d="M 35.20447 280.74986 
L 661.768007 280.74986 
" style="fill:none;stroke:#b0b0b0;stroke-linecap:square;stroke-width:0.8;"/>
     </g>
     <g id="line2d_36">
      <g>
       <use style="stroke:#000000;stroke-width:0.8;" x="35.20447" xlink:href="#mb8ed5f42ba" y="280.74986"/>
      </g>
     </g>
     <g id="text_18">
      <!-- $\mathdefault{−20}$ -->
      <g transform="translate(7.2 284.90095)scale(0.12 -0.12)">
       <use transform="scale(0.996264)" xlink:href="#CMSY10-0"/>
       <use transform="translate(77.487468 0)scale(0.996264)" xlink:href="#CMR17-32"/>
       <use transform="translate(123.177945 0)scale(0.996264)" xlink:href="#CMR17-30"/>
      </g>
     </g>
    </g>
    <g id="ytick_6">
     <g id="line2d_37">
      <path clip-path="url(#pe5b56ef0f8)" d="M 35.20447 237.632215 
L 661.768007 237.632215 
" style="fill:none;stroke:#b0b0b0;stroke-linecap:square;stroke-width:0.8;"/>
     </g>
     <g id="line2d_38">
      <g>
       <use style="stroke:#000000;stroke-width:0.8;" x="35.20447" xlink:href="#mb8ed5f42ba" y="237.632215"/>
      </g>
     </g>
     <g id="text_19">
      <!-- $\mathdefault{0}$ -->
      <g transform="translate(22.35148 241.783305)scale(0.12 -0.12)">
       <use transform="scale(0.996264)" xlink:href="#CMR17-30"/>
      </g>
     </g>
    </g>
   </g>
   <g id="line2d_39">
    <path clip-path="url(#pe5b56ef0f8)" d="M 394.98446 335.372316 
L 394.98446 207.816848 
" style="fill:none;stroke:#2ca02c;stroke-linecap:square;"/>
   </g>
   <g id="line2d_40">
    <path clip-path="url(#pe5b56ef0f8)" d="M 63.684631 235.476333 
L 69.496908 237.632215 
L 75.309186 237.632215 
L 81.121464 235.476333 
L 86.933742 235.476333 
L 92.746019 237.632215 
L 98.558297 237.632215 
L 104.370575 239.788097 
L 110.182852 237.632215 
L 115.99513 237.632215 
L 121.807408 235.476333 
L 127.619686 235.476333 
L 133.431963 237.632215 
L 139.244241 235.476333 
L 145.056519 237.632215 
L 150.868796 237.632215 
L 156.681074 235.476333 
L 162.493352 237.632215 
L 168.30563 237.632215 
L 174.117907 235.476333 
L 179.930185 237.632215 
L 185.742463 237.006147 
L 191.55474 237.632215 
L 197.367018 235.476333 
L 203.179296 233.32045 
L 208.991574 240.246222 
L 214.803851 241.943979 
L 220.616129 239.788097 
L 226.428407 233.32045 
L 232.240684 235.476333 
L 238.052962 235.476333 
L 243.86524 237.632215 
L 249.677518 237.632215 
L 255.489795 235.476333 
L 261.302073 234.244893 
L 267.114351 237.632215 
L 272.926628 239.788097 
L 278.738906 235.476333 
L 284.551184 235.476333 
L 290.363461 233.32045 
L 296.175739 235.476333 
L 301.988017 237.632215 
L 307.800295 239.788097 
L 313.612572 239.788097 
L 319.42485 233.32045 
L 325.237128 235.476333 
L 331.049405 239.788097 
L 336.861683 233.467697 
L 342.673961 233.32045 
L 348.486239 237.476776 
L 354.298516 241.943979 
L 360.110794 224.696921 
L 365.923072 251.651701 
L 371.735349 237.632215 
L 377.547627 213.614824 
L 383.359905 260.127984 
L 389.172183 307.544889 
L 394.98446 329.57434 
L 400.796738 287.98651 
L 406.609016 237.031155 
L 412.421293 244.099862 
L 418.233571 222.541039 
L 424.045849 231.320007 
L 429.858127 257.035155 
L 435.670404 246.108497 
L 441.482682 231.786324 
L 447.29496 238.401218 
L 453.107237 240.725043 
L 458.919515 242.868422 
L 464.731793 239.027286 
L 470.544071 239.788097 
L 476.356348 245.339494 
L 482.168626 238.863655 
L 487.980904 237.632215 
L 493.793181 241.943979 
L 499.605459 233.614944 
L 505.417737 226.852804 
L 511.230015 231.164568 
L 517.042292 244.099862 
L 522.85457 246.255744 
L 528.666848 236.8589 
L 534.479125 226.852804 
L 540.291403 229.008686 
L 546.103681 241.943979 
L 551.915959 237.006147 
L 557.728236 239.477219 
L 563.540514 235.476333 
L 569.352792 226.852804 
L 575.165069 222.541039 
L 580.977347 241.174976 
L 586.789625 246.255744 
L 592.601903 250.890891 
L 598.41418 241.943979 
L 604.226458 252.567951 
L 610.038736 252.72339 
L 615.851013 239.477219 
L 621.663291 231.164568 
L 627.475569 236.707772 
L 633.287847 233.32045 
" style="fill:none;stroke:#ff7f0e;stroke-linecap:square;stroke-width:1.5;"/>
   </g>
   <g id="patch_8">
    <path d="M 35.20447 335.372316 
L 35.20447 207.816848 
" style="fill:none;stroke:#000000;stroke-linecap:square;stroke-linejoin:miter;stroke-width:0.8;"/>
   </g>
   <g id="patch_9">
    <path d="M 661.768007 335.372316 
L 661.768007 207.816848 
" style="fill:none;stroke:#000000;stroke-linecap:square;stroke-linejoin:miter;stroke-width:0.8;"/>
   </g>
   <g id="patch_10">
    <path d="M 35.20447 335.372316 
L 661.768007 335.372316 
" style="fill:none;stroke:#000000;stroke-linecap:square;stroke-linejoin:miter;stroke-width:0.8;"/>
   </g>
   <g id="patch_11">
    <path d="M 35.20447 207.816848 
L 661.768007 207.816848 
" style="fill:none;stroke:#000000;stroke-linecap:square;stroke-linejoin:miter;stroke-width:0.8;"/>
   </g>
   <g id="text_20">
    <!-- First derivative -->
    <g transform="translate(292.723577 201.816848)scale(0.192 -0.192)">
     <defs>
      <path d="M 2918 1984 
L 2918 2373 
L 1101 2373 
L 1101 3968 
L 1882 3968 
C 1958 3968 2035 3968 2112 3968 
L 3168 3968 
L 3168 4375 
L 563 4375 
L 563 -32 
L 1101 -32 
L 1101 1984 
L 2918 1984 
z
" id="CMSS17-46" transform="scale(0.015625)"/>
      <path d="M 2611 4416 
L 2138 4416 
L 2138 2438 
C 1939 2603 1613 2756 1254 2756 
C 672 2756 211 2131 211 1347 
C 211 562 666 -64 1235 -64 
C 1677 -64 1971 172 2125 306 
L 2125 -13 
L 2611 -13 
L 2611 4416 
z
M 2125 836 
C 2125 747 2125 653 1926 482 
C 1798 375 1645 325 1498 325 
C 1152 325 698 576 698 1340 
C 698 2134 1210 2368 1562 2368 
C 1798 2368 1990 2254 2125 2065 
L 2125 836 
z
" id="CMSS17-64" transform="scale(0.015625)"/>
      <path d="M 2675 2752 
L 2176 2752 
L 1747 1556 
C 1613 1165 1421 627 1389 352 
L 1382 352 
C 1370 468 1318 634 1286 749 
C 1248 890 1197 1056 1158 1172 
L 595 2752 
L 83 2752 
L 1094 0 
L 1664 0 
L 2675 2752 
z
" id="CMSS17-76" transform="scale(0.015625)"/>
      <path d="M 2406 1791 
C 2406 2392 1978 2808 1402 2808 
C 1120 2808 813 2757 461 2553 
L 499 2135 
C 659 2248 934 2432 1395 2432 
C 1722 2432 1920 2180 1920 1782 
L 1920 1536 
C 896 1536 256 1238 256 726 
C 256 461 416 -64 947 -64 
C 1043 -64 1562 -64 1933 217 
L 1933 -19 
L 2406 -19 
L 2406 1791 
z
M 1920 816 
C 1920 701 1920 548 1728 434 
C 1562 325 1350 325 1261 325 
C 941 325 723 511 723 744 
C 723 1211 1722 1211 1920 1211 
L 1920 816 
z
" id="CMSS17-61" transform="scale(0.015625)"/>
     </defs>
     <use transform="scale(0.996264)" xlink:href="#CMSS17-46"/>
     <use transform="translate(53.289559 0)scale(0.996264)" xlink:href="#CMSS17-69"/>
     <use transform="translate(75.470282 0)scale(0.996264)" xlink:href="#CMSS17-72"/>
     <use transform="translate(107.380055 0)scale(0.996264)" xlink:href="#CMSS17-73"/>
     <use transform="translate(143.293597 0)scale(0.996264)" xlink:href="#CMSS17-74"/>
     <use transform="translate(208.354276 0)scale(0.996264)" xlink:href="#CMSS17-64"/>
     <use transform="translate(256.559219 0)scale(0.996264)" xlink:href="#CMSS17-65"/>
     <use transform="translate(298.198042 0)scale(0.996264)" xlink:href="#CMSS17-72"/>
     <use transform="translate(330.107814 0)scale(0.996264)" xlink:href="#CMSS17-69"/>
     <use transform="translate(352.288537 0)scale(0.996264)" xlink:href="#CMSS17-76"/>
     <use transform="translate(395.288679 0)scale(0.996264)" xlink:href="#CMSS17-61"/>
     <use transform="translate(440.210599 0)scale(0.996264)" xlink:href="#CMSS17-74"/>
     <use transform="translate(474.042166 0)scale(0.996264)" xlink:href="#CMSS17-69"/>
     <use transform="translate(496.222889 0)scale(0.996264)" xlink:href="#CMSS17-76"/>
     <use transform="translate(539.223031 0)scale(0.996264)" xlink:href="#CMSS17-65"/>
    </g>
   </g>
  </g>
  <g id="axes_3">
   <g id="patch_12">
    <path d="M 35.20447 516.70565 
L 661.768007 516.70565 
L 661.768007 389.150182 
L 35.20447 389.150182 
z
" style="fill:#ffffff;"/>
   </g>
   <g id="matplotlib.axis_5">
    <g id="xtick_13">
     <g id="line2d_41">
      <path clip-path="url(#pb53eb62413)" d="M 60.748532 516.70565 
L 60.748532 389.150182 
" style="fill:none;stroke:#b0b0b0;stroke-linecap:square;stroke-width:0.8;"/>
     </g>
     <g id="line2d_42">
      <g>
       <use style="stroke:#000000;stroke-width:0.8;" x="60.748532" xlink:href="#m19f7d70f24" y="516.70565"/>
      </g>
     </g>
     <g id="text_21">
      <!-- $\mathdefault{100}$ -->
      <g transform="translate(51.969046 532.007829)scale(0.12 -0.12)">
       <use transform="scale(0.996264)" xlink:href="#CMR17-31"/>
       <use transform="translate(45.690477 0)scale(0.996264)" xlink:href="#CMR17-30"/>
       <use transform="translate(91.380954 0)scale(0.996264)" xlink:href="#CMR17-30"/>
      </g>
     </g>
    </g>
    <g id="xtick_14">
     <g id="line2d_43">
      <path clip-path="url(#pb53eb62413)" d="M 178.192494 516.70565 
L 178.192494 389.150182 
" style="fill:none;stroke:#b0b0b0;stroke-linecap:square;stroke-width:0.8;"/>
     </g>
     <g id="line2d_44">
      <g>
       <use style="stroke:#000000;stroke-width:0.8;" x="178.192494" xlink:href="#m19f7d70f24" y="516.70565"/>
      </g>
     </g>
     <g id="text_22">
      <!-- $\mathdefault{120}$ -->
      <g transform="translate(169.413008 532.007829)scale(0.12 -0.12)">
       <use transform="scale(0.996264)" xlink:href="#CMR17-31"/>
       <use transform="translate(45.690477 0)scale(0.996264)" xlink:href="#CMR17-32"/>
       <use transform="translate(91.380954 0)scale(0.996264)" xlink:href="#CMR17-30"/>
      </g>
     </g>
    </g>
    <g id="xtick_15">
     <g id="line2d_45">
      <path clip-path="url(#pb53eb62413)" d="M 295.636456 516.70565 
L 295.636456 389.150182 
" style="fill:none;stroke:#b0b0b0;stroke-linecap:square;stroke-width:0.8;"/>
     </g>
     <g id="line2d_46">
      <g>
       <use style="stroke:#000000;stroke-width:0.8;" x="295.636456" xlink:href="#m19f7d70f24" y="516.70565"/>
      </g>
     </g>
     <g id="text_23">
      <!-- $\mathdefault{140}$ -->
      <g transform="translate(286.85697 532.007829)scale(0.12 -0.12)">
       <use transform="scale(0.996264)" xlink:href="#CMR17-31"/>
       <use transform="translate(45.690477 0)scale(0.996264)" xlink:href="#CMR17-34"/>
       <use transform="translate(91.380954 0)scale(0.996264)" xlink:href="#CMR17-30"/>
      </g>
     </g>
    </g>
    <g id="xtick_16">
     <g id="line2d_47">
      <path clip-path="url(#pb53eb62413)" d="M 413.080418 516.70565 
L 413.080418 389.150182 
" style="fill:none;stroke:#b0b0b0;stroke-linecap:square;stroke-width:0.8;"/>
     </g>
     <g id="line2d_48">
      <g>
       <use style="stroke:#000000;stroke-width:0.8;" x="413.080418" xlink:href="#m19f7d70f24" y="516.70565"/>
      </g>
     </g>
     <g id="text_24">
      <!-- $\mathdefault{160}$ -->
      <g transform="translate(404.300932 532.007829)scale(0.12 -0.12)">
       <use transform="scale(0.996264)" xlink:href="#CMR17-31"/>
       <use transform="translate(45.690477 0)scale(0.996264)" xlink:href="#CMR17-36"/>
       <use transform="translate(91.380954 0)scale(0.996264)" xlink:href="#CMR17-30"/>
      </g>
     </g>
    </g>
    <g id="xtick_17">
     <g id="line2d_49">
      <path clip-path="url(#pb53eb62413)" d="M 530.52438 516.70565 
L 530.52438 389.150182 
" style="fill:none;stroke:#b0b0b0;stroke-linecap:square;stroke-width:0.8;"/>
     </g>
     <g id="line2d_50">
      <g>
       <use style="stroke:#000000;stroke-width:0.8;" x="530.52438" xlink:href="#m19f7d70f24" y="516.70565"/>
      </g>
     </g>
     <g id="text_25">
      <!-- $\mathdefault{180}$ -->
      <g transform="translate(521.744894 532.007829)scale(0.12 -0.12)">
       <use transform="scale(0.996264)" xlink:href="#CMR17-31"/>
       <use transform="translate(45.690477 0)scale(0.996264)" xlink:href="#CMR17-38"/>
       <use transform="translate(91.380954 0)scale(0.996264)" xlink:href="#CMR17-30"/>
      </g>
     </g>
    </g>
    <g id="xtick_18">
     <g id="line2d_51">
      <path clip-path="url(#pb53eb62413)" d="M 647.968342 516.70565 
L 647.968342 389.150182 
" style="fill:none;stroke:#b0b0b0;stroke-linecap:square;stroke-width:0.8;"/>
     </g>
     <g id="line2d_52">
      <g>
       <use style="stroke:#000000;stroke-width:0.8;" x="647.968342" xlink:href="#m19f7d70f24" y="516.70565"/>
      </g>
     </g>
     <g id="text_26">
      <!-- $\mathdefault{200}$ -->
      <g transform="translate(639.188856 532.007829)scale(0.12 -0.12)">
       <use transform="scale(0.996264)" xlink:href="#CMR17-32"/>
       <use transform="translate(45.690477 0)scale(0.996264)" xlink:href="#CMR17-30"/>
       <use transform="translate(91.380954 0)scale(0.996264)" xlink:href="#CMR17-30"/>
      </g>
     </g>
    </g>
   </g>
   <g id="matplotlib.axis_6">
    <g id="ytick_7">
     <g id="line2d_53">
      <path clip-path="url(#pb53eb62413)" d="M 35.20447 505.83978 
L 661.768007 505.83978 
" style="fill:none;stroke:#b0b0b0;stroke-linecap:square;stroke-width:0.8;"/>
     </g>
     <g id="line2d_54">
      <g>
       <use style="stroke:#000000;stroke-width:0.8;" x="35.20447" xlink:href="#mb8ed5f42ba" y="505.83978"/>
      </g>
     </g>
     <g id="text_27">
      <!-- $\mathdefault{−20}$ -->
      <g transform="translate(7.2 509.99087)scale(0.12 -0.12)">
       <use transform="scale(0.996264)" xlink:href="#CMSY10-0"/>
       <use transform="translate(77.487468 0)scale(0.996264)" xlink:href="#CMR17-32"/>
       <use transform="translate(123.177945 0)scale(0.996264)" xlink:href="#CMR17-30"/>
      </g>
     </g>
    </g>
    <g id="ytick_8">
     <g id="line2d_55">
      <path clip-path="url(#pb53eb62413)" d="M 35.20447 455.013447 
L 661.768007 455.013447 
" style="fill:none;stroke:#b0b0b0;stroke-linecap:square;stroke-width:0.8;"/>
     </g>
     <g id="line2d_56">
      <g>
       <use style="stroke:#000000;stroke-width:0.8;" x="35.20447" xlink:href="#mb8ed5f42ba" y="455.013447"/>
      </g>
     </g>
     <g id="text_28">
      <!-- $\mathdefault{0}$ -->
      <g transform="translate(22.35148 459.164537)scale(0.12 -0.12)">
       <use transform="scale(0.996264)" xlink:href="#CMR17-30"/>
      </g>
     </g>
    </g>
    <g id="ytick_9">
     <g id="line2d_57">
      <path clip-path="url(#pb53eb62413)" d="M 35.20447 404.187114 
L 661.768007 404.187114 
" style="fill:none;stroke:#b0b0b0;stroke-linecap:square;stroke-width:0.8;"/>
     </g>
     <g id="line2d_58">
      <g>
       <use style="stroke:#000000;stroke-width:0.8;" x="35.20447" xlink:href="#mb8ed5f42ba" y="404.187114"/>
      </g>
     </g>
     <g id="text_29">
      <!-- $\mathdefault{20}$ -->
      <g transform="translate(16.498489 408.338204)scale(0.12 -0.12)">
       <use transform="scale(0.996264)" xlink:href="#CMR17-32"/>
       <use transform="translate(45.690477 0)scale(0.996264)" xlink:href="#CMR17-30"/>
      </g>
     </g>
    </g>
   </g>
   <g id="line2d_59">
    <path clip-path="url(#pb53eb62413)" d="M 395.463823 516.70565 
L 395.463823 389.150182 
" style="fill:none;stroke:#2ca02c;stroke-linecap:square;"/>
   </g>
   <g id="line2d_60">
    <path clip-path="url(#pb53eb62413)" d="M 63.684631 457.554764 
L 69.556829 455.013447 
L 75.429027 452.472131 
L 81.301225 455.013447 
L 87.173423 457.554764 
L 93.045621 455.013447 
L 98.917819 457.554764 
L 104.790017 452.472131 
L 110.662216 455.013447 
L 116.534414 452.472131 
L 122.406612 455.013447 
L 128.27881 457.554764 
L 134.151008 452.472131 
L 140.023206 457.554764 
L 145.895404 455.013447 
L 151.767602 452.472131 
L 157.6398 457.554764 
L 163.511998 455.013447 
L 169.384197 452.472131 
L 175.256395 457.554764 
L 181.128593 454.275449 
L 187.000791 455.751446 
L 192.872989 452.472131 
L 198.745187 452.472131 
L 204.617385 463.177427 
L 210.489583 457.014734 
L 216.361781 452.472131 
L 222.233979 447.389497 
L 228.106178 457.554764 
L 233.978376 455.013447 
L 239.850574 457.554764 
L 245.722772 455.013447 
L 251.59497 452.472131 
L 257.467168 453.561847 
L 263.339366 459.006364 
L 269.211564 457.554764 
L 275.083762 449.930814 
L 280.95596 455.013447 
L 286.828159 452.472131 
L 292.700357 457.554764 
L 298.572555 457.554764 
L 304.444753 457.554764 
L 310.316951 455.013447 
L 316.189149 447.389497 
L 322.061347 457.554764 
L 327.933545 460.09608 
L 333.805743 447.563069 
L 339.677941 454.839875 
L 345.55014 459.912852 
L 351.422338 460.279309 
L 357.294536 434.682914 
L 363.166734 486.787275 
L 369.038932 438.487519 
L 374.91113 426.702163 
L 380.783328 509.842354 
L 386.655526 510.907674 
L 392.527724 480.981383 
L 398.399922 405.990433 
L 404.272121 394.948158 
L 410.144319 463.345916 
L 416.016517 429.600281 
L 421.888715 465.361943 
L 427.760913 485.326018 
L 433.633111 442.133292 
L 439.505309 438.130718 
L 445.377507 462.810969 
L 451.249705 457.752732 
L 457.121903 457.540024 
L 462.994102 450.485583 
L 468.8663 455.910278 
L 474.738498 461.557338 
L 480.610696 447.37984 
L 486.482894 453.561847 
L 492.355092 460.09608 
L 498.22729 445.195324 
L 504.099488 447.042353 
L 509.971686 460.09608 
L 515.843884 470.261347 
L 521.716083 457.554764 
L 527.588281 443.93661 
L 533.460479 443.218434 
L 539.332677 457.554764 
L 545.204875 470.261347 
L 551.077073 449.192816 
L 556.949271 457.926304 
L 562.821469 450.297272 
L 568.693667 444.848181 
L 574.565866 449.930814 
L 580.438064 476.978809 
L 586.310262 461.002568 
L 592.18246 460.477278 
L 598.054658 444.466983 
L 603.926856 467.536801 
L 609.799054 455.196676 
L 615.671252 439.399089 
L 621.54345 445.214638 
L 627.415648 461.547681 
L 633.287847 451.02053 
" style="fill:none;stroke:#ff7f0e;stroke-linecap:square;stroke-width:1.5;"/>
   </g>
   <g id="patch_13">
    <path d="M 35.20447 516.70565 
L 35.20447 389.150182 
" style="fill:none;stroke:#000000;stroke-linecap:square;stroke-linejoin:miter;stroke-width:0.8;"/>
   </g>
   <g id="patch_14">
    <path d="M 661.768007 516.70565 
L 661.768007 389.150182 
" style="fill:none;stroke:#000000;stroke-linecap:square;stroke-linejoin:miter;stroke-width:0.8;"/>
   </g>
   <g id="patch_15">
    <path d="M 35.20447 516.70565 
L 661.768007 516.70565 
" style="fill:none;stroke:#000000;stroke-linecap:square;stroke-linejoin:miter;stroke-width:0.8;"/>
   </g>
   <g id="patch_16">
    <path d="M 35.20447 389.150182 
L 661.768007 389.150182 
" style="fill:none;stroke:#000000;stroke-linecap:square;stroke-linejoin:miter;stroke-width:0.8;"/>
   </g>
   <g id="text_30">
    <!-- Second derivative -->
    <g transform="translate(282.98394 383.150182)scale(0.192 -0.192)">
     <defs>
      <path d="M 2797 4169 
C 2515 4334 2208 4480 1690 4480 
C 864 4480 333 3879 333 3266 
C 333 3025 403 2753 653 2475 
C 902 2196 1184 2121 1542 2033 
C 1690 1994 1939 1924 1984 1906 
C 2342 1767 2515 1444 2515 1140 
C 2515 742 2202 318 1645 318 
C 1453 318 890 318 358 819 
L 269 318 
C 794 -64 1363 -128 1651 -128 
C 2438 -128 3002 488 3002 1186 
C 3002 1440 2925 1763 2656 2061 
C 2394 2347 2163 2410 1638 2549 
C 1338 2626 1146 2677 986 2873 
C 877 3013 819 3146 819 3317 
C 819 3673 1126 4060 1690 4060 
C 1971 4060 2336 4002 2707 3660 
L 2797 4169 
z
" id="CMSS17-53" transform="scale(0.015625)"/>
      <path d="M 2464 2541 
C 2464 2585 2170 2714 2093 2739 
C 1882 2816 1613 2816 1542 2816 
C 710 2816 211 2093 211 1363 
C 211 595 768 -64 1517 -64 
C 1946 -64 2253 76 2502 242 
L 2464 664 
C 2189 453 1869 337 1523 337 
C 1024 337 698 774 698 1369 
C 698 1831 909 2414 1549 2414 
C 1901 2414 2099 2343 2394 2145 
L 2464 2541 
z
" id="CMSS17-63" transform="scale(0.015625)"/>
     </defs>
     <use transform="scale(0.996264)" xlink:href="#CMSS17-53"/>
     <use transform="translate(52.048516 0)scale(0.996264)" xlink:href="#CMSS17-65"/>
     <use transform="translate(93.687338 0)scale(0.996264)" xlink:href="#CMSS17-63"/>
     <use transform="translate(135.32616 0)scale(0.996264)" xlink:href="#CMSS17-6f"/>
     <use transform="translate(182.169784 0)scale(0.996264)" xlink:href="#CMSS17-6e"/>
     <use transform="translate(230.374727 0)scale(0.996264)" xlink:href="#CMSS17-64"/>
     <use transform="translate(309.808783 0)scale(0.996264)" xlink:href="#CMSS17-64"/>
     <use transform="translate(358.013726 0)scale(0.996264)" xlink:href="#CMSS17-65"/>
     <use transform="translate(399.652548 0)scale(0.996264)" xlink:href="#CMSS17-72"/>
     <use transform="translate(431.562321 0)scale(0.996264)" xlink:href="#CMSS17-69"/>
     <use transform="translate(453.743044 0)scale(0.996264)" xlink:href="#CMSS17-76"/>
     <use transform="translate(496.743185 0)scale(0.996264)" xlink:href="#CMSS17-61"/>
     <use transform="translate(541.665106 0)scale(0.996264)" xlink:href="#CMSS17-74"/>
     <use transform="translate(575.496673 0)scale(0.996264)" xlink:href="#CMSS17-69"/>
     <use transform="translate(597.677396 0)scale(0.996264)" xlink:href="#CMSS17-76"/>
     <use transform="translate(640.677537 0)scale(0.996264)" xlink:href="#CMSS17-65"/>
    </g>
   </g>
  </g>
 </g>
 <defs>
  <clipPath id="pe5c062c806">
   <rect height="127.555468" width="626.563537" x="35.20447" y="26.483515"/>
  </clipPath>
  <clipPath id="pe5b56ef0f8">
   <rect height="127.555468" width="626.563537" x="35.20447" y="207.816848"/>
  </clipPath>
  <clipPath id="pb53eb62413">
   <rect height="127.555468" width="626.563537" x="35.20447" y="389.150182"/>
  </clipPath>
 </defs>
</svg>
