<?xml version="1.0" encoding="utf-8" standalone="no"?>
<!DOCTYPE svg PUBLIC "-//W3C//DTD SVG 1.1//EN"
  "http://www.w3.org/Graphics/SVG/1.1/DTD/svg11.dtd">
<svg height="216pt" version="1.1" viewBox="0 0 576 216" width="576pt" xmlns="http://www.w3.org/2000/svg" xmlns:xlink="http://www.w3.org/1999/xlink">
 <metadata>
  <rdf:RDF xmlns:cc="http://creativecommons.org/ns#" xmlns:dc="http://purl.org/dc/elements/1.1/" xmlns:rdf="http://www.w3.org/1999/02/22-rdf-syntax-ns#">
   <cc:Work>
    <dc:type rdf:resource="http://purl.org/dc/dcmitype/StillImage"/>
    <dc:date>2024-11-16T15:53:50.338448</dc:date>
    <dc:format>image/svg+xml</dc:format>
    <dc:creator>
     <cc:Agent>
      <dc:title>Matplotlib v3.4.3, https://matplotlib.org/</dc:title>
     </cc:Agent>
    </dc:creator>
   </cc:Work>
  </rdf:RDF>
 </metadata>
 <defs>
  <style type="text/css">*{stroke-linecap:butt;stroke-linejoin:round;}</style>
 </defs>
 <g id="figure_1">
  <g id="patch_1">
   <path d="M 0 216 
L 576 216 
L 576 0 
L 0 0 
z
" style="fill:#ffffff;"/>
  </g>
  <g id="axes_1">
   <g id="text_1">
    <!-- → -->
    <g transform="translate(276.159818 114.474888)scale(0.26 -0.26)">
     <defs>
      <path d="M 4032 3264 
C 4096 2818 4288 2405 4570 2057 
C 4666 1934 4781 1837 4890 1728 
L 486 1728 
C 410 1728 320 1715 320 1625 
C 320 1535 410 1523 486 1523 
L 4890 1523 
C 4781 1414 4666 1318 4570 1196 
C 4288 851 4096 441 4032 0 
L 4237 0 
C 4378 672 4762 1331 5402 1619 
L 5402 1631 
C 4787 1908 4371 2599 4237 3264 
L 4032 3264 
z
" id="SFSS3583-19" transform="scale(0.015625)"/>
     </defs>
     <use transform="scale(0.996264)" xlink:href="#SFSS3583-19"/>
    </g>
   </g>
  </g>
  <g id="axes_2">
   <g id="line2d_1">
    <path clip-path="url(#p06652ddbc5)" d="M 0 104.072727 
L 230.4 178.690909 
" style="fill:none;stroke:#808080;stroke-linecap:square;stroke-width:2;"/>
   </g>
   <g id="patch_2">
    <path d="M 2.000391 29.454545 
Q 115.201714 29.454545 227.061396 29.454545 
" style="fill:none;stroke:#000000;stroke-linecap:round;stroke-width:1.2;"/>
    <path d="M 219.061396 25.454545 
L 227.061396 29.454545 
L 219.061396 33.454545 
" style="fill:none;stroke:#000000;stroke-linecap:round;stroke-width:1.2;"/>
   </g>
   <g id="text_2">
    <!-- $x$ -->
    <g transform="translate(219.313188 16.251639)scale(0.2 -0.2)">
     <defs>
      <path d="M 3034 2624 
C 2829 2585 2752 2431 2752 2310 
C 2752 2156 2874 2105 2963 2105 
C 3155 2105 3290 2271 3290 2444 
C 3290 2694 2982 2816 2714 2816 
C 2323 2816 2106 2451 2048 2329 
C 1901 2790 1504 2816 1389 2816 
C 736 2816 390 1993 390 1849 
C 390 1823 416 1790 461 1790 
C 512 1790 525 1829 538 1855 
C 755 2572 1184 2687 1370 2687 
C 1658 2687 1715 2438 1715 2284 
C 1715 2143 1677 1993 1600 1678 
L 1382 778 
C 1286 390 1101 64 762 64 
C 730 64 570 64 435 126 
C 666 166 717 358 717 435 
C 717 563 621 640 499 640 
C 346 640 179 505 179 300 
C 179 57 480 -64 755 -64 
C 1062 -64 1280 153 1414 415 
C 1517 64 1837 -64 2074 -64 
C 2726 -64 3072 751 3072 896 
C 3072 929 3046 955 3008 955 
C 2950 955 2944 922 2925 870 
C 2752 300 2381 64 2093 64 
C 1869 64 1747 204 1747 467 
C 1747 607 1773 712 1875 1146 
L 2099 2039 
C 2195 2425 2413 2687 2707 2687 
C 2720 2687 2899 2687 3034 2624 
z
" id="CMMI12-78" transform="scale(0.015625)"/>
     </defs>
     <use transform="scale(0.996264)" xlink:href="#CMMI12-78"/>
    </g>
   </g>
   <g id="patch_3">
    <path d="M 20.945455 12.800775 
Q 20.945455 113.400452 20.945455 212.658489 
" style="fill:none;stroke:#000000;stroke-linecap:round;stroke-width:1.2;"/>
    <path d="M 24.945455 204.658489 
L 20.945455 212.658489 
L 16.945455 204.658489 
" style="fill:none;stroke:#000000;stroke-linecap:round;stroke-width:1.2;"/>
   </g>
   <g id="text_3">
    <!-- $y$ -->
    <g transform="translate(0.959893 212.124366)scale(0.2 -0.2)">
     <defs>
      <path d="M 1683 -673 
C 1510 -921 1261 -1152 947 -1152 
C 870 -1152 563 -1139 467 -826 
C 486 -833 518 -833 531 -833 
C 723 -833 851 -666 851 -519 
C 851 -372 730 -320 634 -320 
C 531 -320 307 -397 307 -711 
C 307 -1050 582 -1280 947 -1280 
C 1587 -1280 2234 -673 2413 -7 
L 3040 2483 
C 3046 2515 3059 2553 3059 2591 
C 3059 2687 2982 2752 2886 2752 
C 2829 2752 2694 2726 2643 2534 
L 2170 657 
C 2138 542 2138 530 2086 459 
C 1958 281 1747 64 1440 64 
C 1082 64 1050 415 1050 587 
C 1050 951 1222 1443 1395 1902 
C 1466 2087 1504 2177 1504 2305 
C 1504 2573 1312 2816 998 2816 
C 410 2816 173 1890 173 1838 
C 173 1813 198 1781 243 1781 
C 301 1781 307 1807 333 1896 
C 486 2432 730 2687 979 2687 
C 1037 2687 1146 2687 1146 2477 
C 1146 2311 1075 2126 979 1883 
C 666 1047 666 836 666 683 
C 666 76 1101 -64 1421 -64 
C 1606 -64 1837 -7 2061 230 
L 2067 223 
C 1971 -141 1907 -359 1683 -673 
z
" id="CMMI12-79" transform="scale(0.015625)"/>
     </defs>
     <use transform="scale(0.996264)" xlink:href="#CMMI12-79"/>
    </g>
   </g>
   <g id="text_4">
    <!-- $y=a_1x+b_1$ -->
    <g style="fill:#808080;" transform="translate(104.727273 122.727273)scale(0.2 -0.2)">
     <defs>
      <path d="M 4115 2048 
C 4211 2048 4307 2048 4307 2156 
C 4307 2272 4198 2272 4090 2272 
L 512 2272 
C 403 2272 294 2272 294 2156 
C 294 2048 390 2048 486 2048 
L 4115 2048 
z
M 4090 927 
C 4198 927 4307 927 4307 1043 
C 4307 1152 4211 1152 4115 1152 
L 486 1152 
C 390 1152 294 1152 294 1043 
C 294 927 403 927 512 927 
L 4090 927 
z
" id="CMR17-3d" transform="scale(0.015625)"/>
      <path d="M 1926 759 
C 1894 651 1894 638 1805 517 
C 1664 338 1382 64 1082 64 
C 819 64 672 300 672 676 
C 672 1028 870 1743 992 2011 
C 1210 2458 1510 2687 1760 2687 
C 2182 2687 2266 2164 2266 2113 
C 2266 2107 2246 2024 2240 2011 
L 1926 759 
z
M 2336 2394 
C 2266 2560 2093 2816 1760 2816 
C 1037 2816 256 1883 256 938 
C 256 306 627 -64 1062 -64 
C 1414 -64 1715 210 1894 421 
C 1958 44 2259 -64 2451 -64 
C 2643 -64 2797 51 2912 280 
C 3014 496 3104 885 3104 910 
C 3104 942 3078 968 3040 968 
C 2982 968 2976 936 2950 840 
C 2854 465 2733 64 2470 64 
C 2285 64 2272 229 2272 356 
C 2272 503 2291 573 2349 821 
C 2394 980 2426 1120 2477 1305 
C 2714 2260 2771 2489 2771 2528 
C 2771 2617 2701 2688 2605 2688 
C 2400 2688 2349 2464 2336 2388 
L 2336 2394 
z
" id="CMMI12-61" transform="scale(0.015625)"/>
      <path d="M 1702 4083 
C 1702 4217 1696 4224 1606 4224 
C 1357 3927 979 3833 621 3820 
C 602 3820 570 3820 563 3808 
C 557 3795 557 3782 557 3648 
C 755 3648 1088 3686 1344 3839 
L 1344 467 
C 1344 243 1331 166 781 166 
L 589 166 
L 589 0 
C 896 6 1216 12 1523 12 
C 1830 12 2150 6 2458 0 
L 2458 166 
L 2266 166 
C 1715 166 1702 236 1702 467 
L 1702 4083 
z
" id="CMR17-31" transform="scale(0.015625)"/>
      <path d="M 2413 1472 
L 4109 1472 
C 4198 1472 4307 1472 4307 1580 
C 4307 1696 4205 1696 4109 1696 
L 2413 1696 
L 2413 3385 
C 2413 3475 2413 3584 2304 3584 
C 2189 3584 2189 3481 2189 3385 
L 2189 1696 
L 493 1696 
C 403 1696 294 1696 294 1587 
C 294 1472 397 1472 493 1472 
L 2189 1472 
L 2189 -194 
C 2189 -282 2189 -391 2298 -391 
C 2413 -391 2413 -289 2413 -194 
L 2413 1472 
z
" id="CMR17-2b" transform="scale(0.015625)"/>
      <path d="M 1478 4255 
C 1485 4281 1498 4319 1498 4351 
C 1498 4416 1434 4416 1421 4416 
C 1414 4416 1184 4396 1069 4383 
C 960 4377 864 4364 749 4358 
C 595 4345 550 4339 550 4223 
C 550 4159 614 4159 678 4159 
C 1005 4159 1005 4103 1005 4040 
C 1005 3995 954 3812 928 3699 
L 774 3093 
C 710 2841 346 1392 320 1277 
C 288 1117 288 1008 288 925 
C 288 274 653 -64 1069 -64 
C 1811 -64 2579 887 2579 1813 
C 2579 2400 2246 2816 1766 2816 
C 1434 2816 1133 2541 1011 2413 
L 1478 4255 
z
M 1075 64 
C 870 64 646 217 646 715 
C 646 925 666 1047 781 1494 
C 800 1577 902 1985 928 2068 
C 941 2119 1318 2687 1754 2687 
C 2035 2687 2163 2407 2163 2075 
C 2163 1768 1984 1047 1824 715 
C 1664 370 1370 64 1075 64 
z
" id="CMMI12-62" transform="scale(0.015625)"/>
     </defs>
     <use transform="scale(0.996264)" xlink:href="#CMMI12-79"/>
     <use transform="translate(78.812789 0)scale(0.996264)" xlink:href="#CMR17-3d"/>
     <use transform="translate(178.201587 0)scale(0.996264)" xlink:href="#CMMI12-61"/>
     <use transform="translate(229.409444 -14.943915)scale(0.697382)" xlink:href="#CMR17-31"/>
     <use transform="translate(261.890758 0)scale(0.996264)" xlink:href="#CMMI12-78"/>
     <use transform="translate(339.464025 0)scale(0.996264)" xlink:href="#CMR17-2b"/>
     <use transform="translate(433.31802 0)scale(0.996264)" xlink:href="#CMMI12-62"/>
     <use transform="translate(474.793894 -14.943915)scale(0.697382)" xlink:href="#CMR17-31"/>
    </g>
   </g>
  </g>
  <g id="axes_3">
   <g id="line2d_2">
    <path clip-path="url(#p23ccc7d2e7)" d="M 408.436364 122.727273 
" style="fill:none;stroke:#808080;stroke-linecap:square;stroke-width:1.5;"/>
    <defs>
     <path d="M 0 3 
C 0.795609 3 1.55874 2.683901 2.12132 2.12132 
C 2.683901 1.55874 3 0.795609 3 0 
C 3 -0.795609 2.683901 -1.55874 2.12132 -2.12132 
C 1.55874 -2.683901 0.795609 -3 0 -3 
C -0.795609 -3 -1.55874 -2.683901 -2.12132 -2.12132 
C -2.683901 -1.55874 -3 -0.795609 -3 0 
C -3 0.795609 -2.683901 1.55874 -2.12132 2.12132 
C -1.55874 2.683901 -0.795609 3 0 3 
z
" id="mf4460e5dac" style="stroke:#808080;"/>
    </defs>
    <g clip-path="url(#p23ccc7d2e7)">
     <use style="fill:#808080;stroke:#808080;" x="408.436364" xlink:href="#mf4460e5dac" y="122.727273"/>
    </g>
   </g>
   <g id="patch_4">
    <path d="M 347.600391 29.454545 
Q 460.801714 29.454545 572.661396 29.454545 
" style="fill:none;stroke:#000000;stroke-linecap:round;stroke-width:1.2;"/>
    <path d="M 564.661396 25.454545 
L 572.661396 29.454545 
L 564.661396 33.454545 
" style="fill:none;stroke:#000000;stroke-linecap:round;stroke-width:1.2;"/>
   </g>
   <g id="text_5">
    <!-- $a$ -->
    <g transform="translate(565.758438 16.251639)scale(0.2 -0.2)">
     <use transform="scale(0.996264)" xlink:href="#CMMI12-61"/>
    </g>
   </g>
   <g id="patch_5">
    <path d="M 366.545455 12.800775 
Q 366.545455 113.400452 366.545455 212.658489 
" style="fill:none;stroke:#000000;stroke-linecap:round;stroke-width:1.2;"/>
    <path d="M 370.545455 204.658489 
L 366.545455 212.658489 
L 362.545455 204.658489 
" style="fill:none;stroke:#000000;stroke-linecap:round;stroke-width:1.2;"/>
   </g>
   <g id="text_6">
    <!-- $b$ -->
    <g transform="translate(347.777555 212.124366)scale(0.2 -0.2)">
     <use transform="scale(0.996264)" xlink:href="#CMMI12-62"/>
    </g>
   </g>
   <g id="text_7">
    <!-- $a_1$ -->
    <g style="fill:#808080;" transform="translate(399.901353 20.127273)scale(0.2 -0.2)">
     <use transform="scale(0.996264)" xlink:href="#CMMI12-61"/>
     <use transform="translate(51.207858 -14.943915)scale(0.697382)" xlink:href="#CMR17-31"/>
    </g>
   </g>
   <g id="text_8">
    <!-- $b_1$ -->
    <g style="fill:#808080;" transform="translate(345.6 127.707954)scale(0.2 -0.2)">
     <use transform="scale(0.996264)" xlink:href="#CMMI12-62"/>
     <use transform="translate(41.475874 -14.943915)scale(0.697382)" xlink:href="#CMR17-31"/>
    </g>
   </g>
  </g>
 </g>
 <defs>
  <clipPath id="p06652ddbc5">
   <rect height="205.2" width="230.4" x="0" y="10.8"/>
  </clipPath>
  <clipPath id="p23ccc7d2e7">
   <rect height="205.2" width="230.4" x="345.6" y="10.8"/>
  </clipPath>
 </defs>
</svg>
