<?xml version="1.0" encoding="utf-8" standalone="no"?>
<!DOCTYPE svg PUBLIC "-//W3C//DTD SVG 1.1//EN"
  "http://www.w3.org/Graphics/SVG/1.1/DTD/svg11.dtd">
<svg height="216pt" version="1.1" viewBox="0 0 576 216" width="576pt" xmlns="http://www.w3.org/2000/svg" xmlns:xlink="http://www.w3.org/1999/xlink">
 <metadata>
  <rdf:RDF xmlns:cc="http://creativecommons.org/ns#" xmlns:dc="http://purl.org/dc/elements/1.1/" xmlns:rdf="http://www.w3.org/1999/02/22-rdf-syntax-ns#">
   <cc:Work>
    <dc:type rdf:resource="http://purl.org/dc/dcmitype/StillImage"/>
    <dc:date>2024-11-16T16:05:52.208313</dc:date>
    <dc:format>image/svg+xml</dc:format>
    <dc:creator>
     <cc:Agent>
      <dc:title>Matplotlib v3.4.3, https://matplotlib.org/</dc:title>
     </cc:Agent>
    </dc:creator>
   </cc:Work>
  </rdf:RDF>
 </metadata>
 <defs>
  <style type="text/css">*{stroke-linecap:butt;stroke-linejoin:round;}</style>
 </defs>
 <g id="figure_1">
  <g id="patch_1">
   <path d="M 0 216 
L 576 216 
L 576 0 
L 0 0 
z
" style="fill:#ffffff;"/>
  </g>
  <g id="axes_1">
   <g id="text_1">
    <!-- → -->
    <g transform="translate(276.159818 114.474888)scale(0.26 -0.26)">
     <defs>
      <path d="M 4032 3264 
C 4096 2818 4288 2405 4570 2057 
C 4666 1934 4781 1837 4890 1728 
L 486 1728 
C 410 1728 320 1715 320 1625 
C 320 1535 410 1523 486 1523 
L 4890 1523 
C 4781 1414 4666 1318 4570 1196 
C 4288 851 4096 441 4032 0 
L 4237 0 
C 4378 672 4762 1331 5402 1619 
L 5402 1631 
C 4787 1908 4371 2599 4237 3264 
L 4032 3264 
z
" id="SFSS3583-19" transform="scale(0.015625)"/>
     </defs>
     <use transform="scale(0.996264)" xlink:href="#SFSS3583-19"/>
    </g>
   </g>
  </g>
  <g id="axes_2">
   <g id="line2d_1">
    <path clip-path="url(#p93751414a5)" d="M 0 189.883636 
L 230.4 66.763636 
" style="fill:none;stroke:#1f77b4;stroke-linecap:square;stroke-width:2;"/>
   </g>
   <g id="line2d_2">
    <path clip-path="url(#p93751414a5)" d="M 41.890909 167.498182 
" style="fill:none;stroke:#ff7f0e;stroke-linecap:square;stroke-width:1.5;"/>
    <defs>
     <path d="M 0 3 
C 0.795609 3 1.55874 2.683901 2.12132 2.12132 
C 2.683901 1.55874 3 0.795609 3 0 
C 3 -0.795609 2.683901 -1.55874 2.12132 -2.12132 
C 1.55874 -2.683901 0.795609 -3 0 -3 
C -0.795609 -3 -1.55874 -2.683901 -2.12132 -2.12132 
C -2.683901 -1.55874 -3 -0.795609 -3 0 
C -3 0.795609 -2.683901 1.55874 -2.12132 2.12132 
C -1.55874 2.683901 -0.795609 3 0 3 
z
" id="mc8369941a5" style="stroke:#ff7f0e;"/>
    </defs>
    <g clip-path="url(#p93751414a5)">
     <use style="fill:#ff7f0e;stroke:#ff7f0e;" x="41.890909" xlink:href="#mc8369941a5" y="167.498182"/>
    </g>
   </g>
   <g id="line2d_3">
    <path clip-path="url(#p93751414a5)" d="M 188.509091 89.149091 
" style="fill:none;stroke:#2ca02c;stroke-linecap:square;stroke-width:1.5;"/>
    <defs>
     <path d="M 0 3 
C 0.795609 3 1.55874 2.683901 2.12132 2.12132 
C 2.683901 1.55874 3 0.795609 3 0 
C 3 -0.795609 2.683901 -1.55874 2.12132 -2.12132 
C 1.55874 -2.683901 0.795609 -3 0 -3 
C -0.795609 -3 -1.55874 -2.683901 -2.12132 -2.12132 
C -2.683901 -1.55874 -3 -0.795609 -3 0 
C -3 0.795609 -2.683901 1.55874 -2.12132 2.12132 
C -1.55874 2.683901 -0.795609 3 0 3 
z
" id="m819faff151" style="stroke:#2ca02c;"/>
    </defs>
    <g clip-path="url(#p93751414a5)">
     <use style="fill:#2ca02c;stroke:#2ca02c;" x="188.509091" xlink:href="#m819faff151" y="89.149091"/>
    </g>
   </g>
   <g id="patch_2">
    <path d="M 2.000391 29.454545 
Q 115.201714 29.454545 227.061396 29.454545 
" style="fill:none;stroke:#000000;stroke-linecap:round;stroke-width:1.2;"/>
    <path d="M 219.061396 25.454545 
L 227.061396 29.454545 
L 219.061396 33.454545 
" style="fill:none;stroke:#000000;stroke-linecap:round;stroke-width:1.2;"/>
   </g>
   <g id="text_2">
    <!-- $x$ -->
    <g transform="translate(219.313188 16.251639)scale(0.2 -0.2)">
     <defs>
      <path d="M 3034 2624 
C 2829 2585 2752 2431 2752 2310 
C 2752 2156 2874 2105 2963 2105 
C 3155 2105 3290 2271 3290 2444 
C 3290 2694 2982 2816 2714 2816 
C 2323 2816 2106 2451 2048 2329 
C 1901 2790 1504 2816 1389 2816 
C 736 2816 390 1993 390 1849 
C 390 1823 416 1790 461 1790 
C 512 1790 525 1829 538 1855 
C 755 2572 1184 2687 1370 2687 
C 1658 2687 1715 2438 1715 2284 
C 1715 2143 1677 1993 1600 1678 
L 1382 778 
C 1286 390 1101 64 762 64 
C 730 64 570 64 435 126 
C 666 166 717 358 717 435 
C 717 563 621 640 499 640 
C 346 640 179 505 179 300 
C 179 57 480 -64 755 -64 
C 1062 -64 1280 153 1414 415 
C 1517 64 1837 -64 2074 -64 
C 2726 -64 3072 751 3072 896 
C 3072 929 3046 955 3008 955 
C 2950 955 2944 922 2925 870 
C 2752 300 2381 64 2093 64 
C 1869 64 1747 204 1747 467 
C 1747 607 1773 712 1875 1146 
L 2099 2039 
C 2195 2425 2413 2687 2707 2687 
C 2720 2687 2899 2687 3034 2624 
z
" id="CMMI12-78" transform="scale(0.015625)"/>
     </defs>
     <use transform="scale(0.996264)" xlink:href="#CMMI12-78"/>
    </g>
   </g>
   <g id="patch_3">
    <path d="M 20.945455 12.800775 
Q 20.945455 113.400452 20.945455 212.658489 
" style="fill:none;stroke:#000000;stroke-linecap:round;stroke-width:1.2;"/>
    <path d="M 24.945455 204.658489 
L 20.945455 212.658489 
L 16.945455 204.658489 
" style="fill:none;stroke:#000000;stroke-linecap:round;stroke-width:1.2;"/>
   </g>
   <g id="text_3">
    <!-- $y$ -->
    <g transform="translate(0.959893 212.124366)scale(0.2 -0.2)">
     <defs>
      <path d="M 1683 -673 
C 1510 -921 1261 -1152 947 -1152 
C 870 -1152 563 -1139 467 -826 
C 486 -833 518 -833 531 -833 
C 723 -833 851 -666 851 -519 
C 851 -372 730 -320 634 -320 
C 531 -320 307 -397 307 -711 
C 307 -1050 582 -1280 947 -1280 
C 1587 -1280 2234 -673 2413 -7 
L 3040 2483 
C 3046 2515 3059 2553 3059 2591 
C 3059 2687 2982 2752 2886 2752 
C 2829 2752 2694 2726 2643 2534 
L 2170 657 
C 2138 542 2138 530 2086 459 
C 1958 281 1747 64 1440 64 
C 1082 64 1050 415 1050 587 
C 1050 951 1222 1443 1395 1902 
C 1466 2087 1504 2177 1504 2305 
C 1504 2573 1312 2816 998 2816 
C 410 2816 173 1890 173 1838 
C 173 1813 198 1781 243 1781 
C 301 1781 307 1807 333 1896 
C 486 2432 730 2687 979 2687 
C 1037 2687 1146 2687 1146 2477 
C 1146 2311 1075 2126 979 1883 
C 666 1047 666 836 666 683 
C 666 76 1101 -64 1421 -64 
C 1606 -64 1837 -7 2061 230 
L 2067 223 
C 1971 -141 1907 -359 1683 -673 
z
" id="CMMI12-79" transform="scale(0.015625)"/>
     </defs>
     <use transform="scale(0.996264)" xlink:href="#CMMI12-79"/>
    </g>
   </g>
  </g>
  <g id="axes_3">
   <g id="line2d_4">
    <path clip-path="url(#pf057448535)" d="M 345.6 53.023433 
L 357.726316 62.511511 
L 369.852632 72.211736 
L 381.978947 81.832224 
L 394.105263 91.08349 
L 406.231579 99.687159 
L 418.357895 107.384343 
L 430.484211 113.94343 
L 442.610526 119.167055 
L 454.736842 122.898036 
L 466.863158 125.024107 
L 478.989474 125.481292 
L 491.115789 124.255835 
L 503.242105 121.384611 
L 515.368421 116.954016 
L 527.494737 111.097368 
L 539.621053 103.990897 
L 551.747368 95.848439 
L 563.873684 86.915006 
L 576 77.459407 
" style="fill:none;stroke:#ff7f0e;stroke-linecap:square;stroke-width:2;"/>
   </g>
   <g id="line2d_5">
    <path clip-path="url(#pf057448535)" d="M 345.6 60.661429 
L 357.726316 62.926988 
L 369.852632 66.206111 
L 381.978947 70.400127 
L 394.105263 75.382838 
L 406.231579 81.004311 
L 418.357895 87.095394 
L 430.484211 93.472803 
L 442.610526 99.944639 
L 454.736842 106.316161 
L 466.863158 112.395648 
L 478.989474 118.000165 
L 491.115789 122.96107 
L 503.242105 127.129087 
L 515.368421 130.378798 
L 527.494737 132.612418 
L 539.621053 133.762737 
L 551.747368 133.79514 
L 563.873684 132.708653 
L 576 130.535969 
" style="fill:none;stroke:#2ca02c;stroke-linecap:square;stroke-width:2;"/>
   </g>
   <g id="line2d_6">
    <path clip-path="url(#pf057448535)" d="M 492.218182 122.727273 
" style="fill:none;stroke:#1f77b4;stroke-linecap:square;stroke-width:1.5;"/>
    <defs>
     <path d="M 0 3 
C 0.795609 3 1.55874 2.683901 2.12132 2.12132 
C 2.683901 1.55874 3 0.795609 3 0 
C 3 -0.795609 2.683901 -1.55874 2.12132 -2.12132 
C 1.55874 -2.683901 0.795609 -3 0 -3 
C -0.795609 -3 -1.55874 -2.683901 -2.12132 -2.12132 
C -2.683901 -1.55874 -3 -0.795609 -3 0 
C -3 0.795609 -2.683901 1.55874 -2.12132 2.12132 
C -1.55874 2.683901 -0.795609 3 0 3 
z
" id="m8b2c3f84e4" style="stroke:#1f77b4;"/>
    </defs>
    <g clip-path="url(#pf057448535)">
     <use style="fill:#1f77b4;stroke:#1f77b4;" x="492.218182" xlink:href="#m8b2c3f84e4" y="122.727273"/>
    </g>
   </g>
   <g id="patch_4">
    <path d="M 347.600391 29.454545 
Q 460.801714 29.454545 572.661396 29.454545 
" style="fill:none;stroke:#000000;stroke-linecap:round;stroke-width:1.2;"/>
    <path d="M 564.661396 25.454545 
L 572.661396 29.454545 
L 564.661396 33.454545 
" style="fill:none;stroke:#000000;stroke-linecap:round;stroke-width:1.2;"/>
   </g>
   <g id="text_4">
    <!-- $\theta$ -->
    <g transform="translate(566.908042 16.251639)scale(0.2 -0.2)">
     <defs>
      <path d="M 2835 3200 
C 2835 3849 2630 4480 2106 4480 
C 1210 4480 256 2615 256 1215 
C 256 922 320 -64 992 -64 
C 1862 -64 2835 1755 2835 3200 
z
M 896 2304 
C 992 2679 1126 3213 1382 3665 
C 1594 4046 1818 4351 2099 4351 
C 2310 4351 2451 4173 2451 3563 
C 2451 3334 2432 3016 2246 2304 
L 896 2304 
z
M 2202 2112 
C 2042 1488 1907 1088 1677 687 
C 1491 362 1267 64 998 64 
C 800 64 640 216 640 846 
C 640 1259 742 1692 845 2112 
L 2202 2112 
z
" id="CMMI12-12" transform="scale(0.015625)"/>
     </defs>
     <use transform="scale(0.996264)" xlink:href="#CMMI12-12"/>
    </g>
   </g>
   <g id="patch_5">
    <path d="M 366.545455 12.800775 
Q 366.545455 113.400452 366.545455 212.658489 
" style="fill:none;stroke:#000000;stroke-linecap:round;stroke-width:1.2;"/>
    <path d="M 370.545455 204.658489 
L 366.545455 212.658489 
L 362.545455 204.658489 
" style="fill:none;stroke:#000000;stroke-linecap:round;stroke-width:1.2;"/>
   </g>
   <g id="text_5">
    <!-- $d$ -->
    <g transform="translate(345.934917 212.124366)scale(0.2 -0.2)">
     <defs>
      <path d="M 3219 4255 
C 3226 4281 3238 4319 3238 4351 
C 3238 4416 3174 4416 3162 4416 
C 3155 4416 2842 4390 2810 4383 
C 2701 4377 2605 4364 2490 4358 
C 2330 4345 2285 4339 2285 4223 
C 2285 4159 2336 4159 2426 4159 
C 2739 4159 2746 4103 2746 4040 
C 2746 4002 2733 3951 2726 3932 
L 2336 2394 
C 2266 2560 2093 2816 1760 2816 
C 1037 2816 256 1883 256 938 
C 256 306 627 -64 1062 -64 
C 1414 -64 1715 210 1894 421 
C 1958 44 2259 -64 2451 -64 
C 2643 -64 2797 51 2912 281 
C 3014 498 3104 887 3104 913 
C 3104 945 3078 970 3040 970 
C 2982 970 2976 938 2950 842 
C 2854 466 2733 64 2470 64 
C 2285 64 2272 230 2272 357 
C 2272 383 2272 517 2317 696 
L 3219 4255 
z
M 1926 759 
C 1894 651 1894 638 1805 517 
C 1664 338 1382 64 1082 64 
C 819 64 672 300 672 676 
C 672 1028 870 1743 992 2011 
C 1210 2458 1510 2687 1760 2687 
C 2182 2687 2266 2164 2266 2113 
C 2266 2107 2246 2024 2240 2011 
L 1926 759 
z
" id="CMMI12-64" transform="scale(0.015625)"/>
     </defs>
     <use transform="scale(0.996264)" xlink:href="#CMMI12-64"/>
    </g>
   </g>
  </g>
 </g>
 <defs>
  <clipPath id="p93751414a5">
   <rect height="205.2" width="230.4" x="0" y="10.8"/>
  </clipPath>
  <clipPath id="pf057448535">
   <rect height="205.2" width="230.4" x="345.6" y="10.8"/>
  </clipPath>
 </defs>
</svg>
