<?xml version="1.0" encoding="utf-8" standalone="no"?>
<!DOCTYPE svg PUBLIC "-//W3C//DTD SVG 1.1//EN"
  "http://www.w3.org/Graphics/SVG/1.1/DTD/svg11.dtd">
<svg xmlns:xlink="http://www.w3.org/1999/xlink" width="568.8pt" height="568.8pt" viewBox="0 0 568.8 568.8" xmlns="http://www.w3.org/2000/svg" version="1.1">
 <metadata>
  <rdf:RDF xmlns:dc="http://purl.org/dc/elements/1.1/" xmlns:cc="http://creativecommons.org/ns#" xmlns:rdf="http://www.w3.org/1999/02/22-rdf-syntax-ns#">
   <cc:Work>
    <dc:type rdf:resource="http://purl.org/dc/dcmitype/StillImage"/>
    <dc:date>2025-12-01T16:40:53.200885</dc:date>
    <dc:format>image/svg+xml</dc:format>
    <dc:creator>
     <cc:Agent>
      <dc:title>Matplotlib v3.10.6, https://matplotlib.org/</dc:title>
     </cc:Agent>
    </dc:creator>
   </cc:Work>
  </rdf:RDF>
 </metadata>
 <defs>
  <style type="text/css">*{stroke-linejoin: round; stroke-linecap: butt}</style>
 </defs>
 <g id="figure_1">
  <g id="patch_1">
   <path d="M 0 568.8 
L 568.8 568.8 
L 568.8 0 
L 0 0 
z
" style="fill: #ffffff"/>
  </g>
  <g id="patch_2">
   <path d="M 7.2 561.6 
L 561.6 561.6 
L 561.6 7.2 
L 7.2 7.2 
z
" style="fill: #ffffff"/>
  </g>
  <g id="axes_1">
   <g id="Poly3DCollection_1">
    <path d="M 201.709573 313.208597 
L 264.813568 332.091472 
L 301.623075 299.636655 
L 239.271977 281.430556 
z
" clip-path="url(#pe607f3597f)" style="fill: #aaaaaa; stroke: #aaaaaa"/>
    <path d="M 264.813568 332.091472 
L 329.281246 351.382409 
L 365.296834 318.228962 
L 301.623075 299.636655 
z
" clip-path="url(#pe607f3597f)" style="fill: #aaaaaa; stroke: #aaaaaa"/>
    <path d="M 162.745275 346.17265 
L 226.615302 365.770753 
L 264.813568 332.091472 
L 201.709573 313.208597 
z
" clip-path="url(#pe607f3597f)" style="fill: #555555; stroke: #555555"/>
    <path d="M 329.281246 351.382409 
L 395.157297 371.094779 
L 430.335792 337.219898 
L 365.296834 318.228962 
z
" clip-path="url(#pe607f3597f)" style="fill: #ffffff; stroke: #ffffff"/>
    <path d="M 226.615302 365.770753 
L 291.891892 385.80045 
L 329.281246 351.382409 
L 264.813568 332.091472 
z
" clip-path="url(#pe607f3597f)" style="fill: #aaaaaa; stroke: #aaaaaa"/>
    <path d="M 395.157297 371.094779 
L 462.48838 391.242544 
L 496.78433 356.622422 
L 430.335792 337.219898 
z
" clip-path="url(#pe607f3597f)" style="fill: #555555; stroke: #555555"/>
    <path d="M 122.299107 380.390375 
L 186.948174 400.745124 
L 226.615302 365.770753 
L 162.745275 346.17265 
z
" clip-path="url(#pe607f3597f)" style="fill: #555555; stroke: #555555"/>
    <path d="M 291.891892 385.80045 
L 358.622025 406.276158 
L 395.157297 371.094779 
L 329.281246 351.382409 
z
" clip-path="url(#pe607f3597f)" style="fill: #aaaaaa; stroke: #aaaaaa"/>
    <path d="M 186.948174 400.745124 
L 253.048642 421.556847 
L 291.891892 385.80045 
L 226.615302 365.770753 
z
" clip-path="url(#pe607f3597f)" style="stroke: #000000"/>
    <path d="M 358.622025 406.276158 
L 426.854798 427.212941 
L 462.48838 391.242544 
L 395.157297 371.094779 
z
" clip-path="url(#pe607f3597f)" style="fill: #ffffff; stroke: #ffffff"/>
    <path d="M 80.284894 415.934676 
L 145.725799 437.090753 
L 186.948174 400.745124 
L 122.299107 380.390375 
z
" clip-path="url(#pe607f3597f)" style="stroke: #000000"/>
    <path d="M 253.048642 421.556847 
L 320.64994 442.841106 
L 358.622025 406.276158 
L 291.891892 385.80045 
z
" clip-path="url(#pe607f3597f)" style="fill: #aaaaaa; stroke: #aaaaaa"/>
    <path d="M 145.725799 437.090753 
L 212.665011 458.73121 
L 253.048642 421.556847 
L 186.948174 400.745124 
z
" clip-path="url(#pe607f3597f)" style="stroke: #000000"/>
    <path d="M 320.64994 442.841106 
L 389.803772 464.61418 
L 426.854798 427.212941 
L 358.622025 406.276158 
z
" clip-path="url(#pe607f3597f)" style="fill: #aaaaaa; stroke: #aaaaaa"/>
    <path d="M 212.665011 458.73121 
L 281.154584 480.872877 
L 320.64994 442.841106 
L 253.048642 421.556847 
z
" clip-path="url(#pe607f3597f)" style="fill: #555555; stroke: #555555"/>
    <path d="M 281.154584 480.872877 
L 351.24901 503.533368 
L 389.803772 464.61418 
L 320.64994 442.841106 
z
" clip-path="url(#pe607f3597f)" style="fill: #aaaaaa; stroke: #aaaaaa"/>
   </g>
   <g id="line2d_1">
    <path d="M 133.83411 408.308916 
L 135.805727 408.937885 
L 137.778677 409.567279 
L 139.752961 410.197099 
L 141.72858 410.827345 
L 143.705536 411.458017 
L 145.68383 412.089116 
L 147.663464 412.720642 
L 149.644438 413.352597 
L 151.626755 413.984979 
L 153.610416 414.61779 
L 155.595421 415.25103 
L 157.581773 415.8847 
L 159.569472 416.518799 
L 161.558521 417.153329 
L 163.54892 417.78829 
L 165.540671 418.423682 
L 167.533775 419.059506 
L 169.528234 419.695762 
L 171.524048 420.33245 
L 173.52122 420.969571 
L 175.519751 421.607126 
L 177.519642 422.245115 
L 179.520894 422.883538 
L 181.52351 423.522396 
L 183.527489 424.161689 
L 185.532835 424.801418 
L 187.539547 425.441583 
L 189.547628 426.082184 
L 191.557079 426.723223 
L 193.567901 427.364699 
L 195.580096 428.006613 
L 197.593665 428.648965 
L 199.608609 429.291756 
L 201.624931 429.934986 
L 203.64263 430.578656 
L 205.66171 431.222766 
L 207.68217 431.867317 
L 209.704014 432.512309 
L 211.727241 433.157742 
L 213.751853 433.803617 
L 215.777853 434.449935 
L 217.805241 435.096696 
L 219.834018 435.7439 
L 221.864187 436.391547 
L 223.895748 437.039639 
L 225.928703 437.688176 
L 227.963054 438.337158 
L 229.998801 438.986585 
L 232.035947 439.636459 
L 233.229735 366.836105 
L 235.299203 367.470772 
L 237.370114 368.105881 
L 239.442471 368.741433 
L 241.516274 369.377429 
L 243.591526 370.01387 
L 245.668228 370.650755 
L 247.746381 371.288085 
L 249.825986 371.92586 
L 251.907046 372.564082 
L 253.989562 373.20275 
L 256.073536 373.841865 
L 258.158968 374.481428 
L 260.245861 375.121438 
L 262.334216 375.761897 
L 264.424034 376.402805 
L 266.515318 377.044162 
L 268.608068 377.685969 
L 270.702286 378.328226 
L 272.797974 378.970933 
L 274.895133 379.614092 
L 276.993766 380.257703 
L 279.093872 380.901766 
L 281.195454 381.546281 
L 283.298514 382.19125 
L 285.403053 382.836672 
L 287.509073 383.482548 
L 289.616574 384.128879 
L 291.72556 384.775665 
L 293.836031 385.422906 
L 295.947988 386.070603 
L 298.061434 386.718757 
L 300.17637 387.367368 
L 302.448838 311.812068 
L 304.5986 312.444057 
L 306.749903 313.076499 
L 308.902746 313.709394 
L 311.057134 314.342742 
L 313.213066 314.976545 
L 315.370545 315.610803 
L 317.529572 316.245516 
L 319.690149 316.880684 
L 321.852278 317.516309 
L 324.01596 318.15239 
L 326.181197 318.788929 
L 328.347991 319.425925 
L 330.516343 320.063379 
L 332.686255 320.701292 
L 334.857728 321.339664 
L 337.030766 321.978495 
" clip-path="url(#pe607f3597f)" style="fill: none; stroke: #990099; stroke-width: 1.5; stroke-linecap: square"/>
   </g>
   <g id="line2d_2">
    <path d="M 173.014873 301.298426 
L 174.989558 301.888203 
L 176.965572 302.478376 
L 178.942915 303.068946 
L 180.921589 303.659913 
L 182.901594 304.251278 
L 184.882933 304.843042 
L 186.865607 305.435204 
L 188.849616 306.027765 
L 190.834963 306.620726 
L 192.821649 307.214086 
L 194.809675 307.807847 
L 196.799043 308.402008 
L 198.789753 308.99657 
L 200.781807 309.591534 
L 202.775207 310.1869 
L 204.769954 310.782668 
L 207.955065 383.397398 
L 209.924997 384.009643 
L 211.896242 384.622296 
L 213.868803 385.235359 
L 215.842681 385.84883 
L 217.817876 386.462711 
L 219.79439 387.077002 
L 221.772224 387.691703 
L 223.75138 388.306815 
L 225.731859 388.922339 
L 227.713663 389.538273 
L 229.696792 390.15462 
L 231.681248 390.77138 
L 233.667032 391.388552 
L 235.654146 392.006137 
L 237.642592 392.624136 
L 239.632369 393.242549 
L 241.62348 393.861377 
L 243.615926 394.480619 
L 245.609709 395.100277 
L 247.604829 395.720351 
L 249.601288 396.340841 
L 251.599088 396.961747 
L 253.59823 397.583071 
L 255.598714 398.204811 
L 257.600543 398.82697 
L 259.603718 399.449547 
L 261.60824 400.072543 
L 263.614111 400.695958 
L 265.621331 401.319792 
L 267.629903 401.944046 
L 269.639827 402.568721 
L 271.651106 403.193816 
L 273.133899 256.634346 
L 275.206267 257.227433 
L 277.280073 257.820932 
L 279.355319 258.414843 
L 281.432005 259.009166 
L 283.510135 259.603902 
L 285.589708 260.199051 
L 287.670727 260.794614 
L 289.753193 261.390592 
L 291.837108 261.986984 
L 293.922473 262.58379 
L 296.00929 263.181013 
L 298.09756 263.778651 
L 300.187284 264.376705 
L 302.278465 264.975177 
L 304.371104 265.574065 
L 306.465201 266.173371 
L 308.56076 266.773095 
L 310.657781 267.373238 
L 312.756266 267.9738 
L 314.856216 268.574781 
L 316.957633 269.176181 
L 319.060519 269.778002 
L 321.164874 270.380244 
L 323.270701 270.982907 
L 325.378002 271.585992 
L 327.486776 272.189498 
L 329.597028 272.793427 
L 331.708756 273.397779 
L 333.821964 274.002554 
L 335.936653 274.607753 
L 338.052825 275.213376 
L 340.17048 275.819424 
L 342.289621 276.425898 
L 344.410249 277.032796 
L 346.532365 277.640121 
L 348.655972 278.247872 
L 350.78107 278.85605 
L 352.907662 279.464656 
L 355.035749 280.073689 
L 357.165333 280.683151 
L 359.296414 281.293041 
L 361.428995 281.903361 
L 363.563078 282.51411 
L 365.698663 283.125289 
L 367.835753 283.736899 
L 369.974348 284.34894 
L 372.114452 284.961412 
L 374.256064 285.574317 
L 376.399187 286.187653 
" clip-path="url(#pe607f3597f)" style="fill: none; stroke: #990099; stroke-width: 1.5; stroke-linecap: square"/>
   </g>
   <g id="line2d_3">
    <path d="M 212.903198 268.234548 
L 214.853814 268.802302 
L 216.805718 269.37043 
L 218.75891 269.938934 
L 220.713392 270.507813 
L 222.669165 271.077068 
L 224.626229 271.646699 
L 226.584587 272.216706 
L 228.54424 272.787091 
L 230.505189 273.357852 
L 232.467436 273.928991 
L 234.43098 274.500508 
L 236.395825 275.072404 
L 238.361971 275.644678 
L 240.329419 276.217331 
L 242.298171 276.790364 
L 244.268228 277.363776 
L 245.596214 204.801839 
L 247.596479 205.359509 
L 249.598089 205.917554 
L 251.601048 206.475975 
L 253.605355 207.034771 
L 255.611012 207.593944 
L 257.61802 208.153494 
L 259.626381 208.713421 
L 261.636097 209.273726 
L 263.647167 209.834408 
L 265.659595 210.395469 
L 267.673381 210.956908 
L 269.688527 211.518727 
L 271.705034 212.080924 
L 273.722903 212.643502 
L 275.742136 213.20646 
L 277.762734 213.769799 
L 279.784699 214.333518 
L 281.808031 214.897619 
L 283.832733 215.462102 
L 285.858806 216.026967 
L 287.88625 216.592214 
L 289.915069 217.157845 
L 291.945262 217.723858 
L 293.976831 218.290256 
L 296.009778 218.857037 
L 298.044105 219.424203 
L 300.079812 219.991754 
L 302.1169 220.55969 
L 304.155372 221.128012 
L 306.195229 221.69672 
L 308.236472 222.265814 
L 310.279102 222.835295 
L 312.323122 223.405164 
L 314.368532 223.97542 
L 316.415333 224.546064 
L 318.463528 225.117096 
L 320.513117 225.688517 
L 322.564103 226.260328 
L 324.616486 226.832528 
L 326.670268 227.405118 
L 328.72545 227.978099 
L 330.782035 228.55147 
L 332.840022 229.125233 
L 334.899414 229.699387 
L 336.960212 230.273933 
L 339.022418 230.848872 
L 341.086033 231.424204 
L 343.151058 231.999928 
L 345.217495 232.576047 
L 347.285345 233.152559 
L 349.35461 233.729466 
L 351.425291 234.306768 
L 353.49739 234.884465 
L 355.570909 235.462557 
L 357.645847 236.041046 
L 359.722208 236.619931 
L 361.799993 237.199213 
L 363.879202 237.778892 
L 365.959838 238.358969 
L 368.041901 238.939444 
L 370.125394 239.520318 
L 372.210318 240.10159 
L 374.296675 240.683262 
L 376.384465 241.265334 
L 378.47369 241.847805 
L 381.861063 166.022163 
L 383.984221 166.587302 
L 386.108861 167.152836 
L 388.234986 167.718764 
L 390.362596 168.285088 
L 392.491693 168.851808 
L 394.622278 169.418924 
L 396.754354 169.986437 
L 398.887922 170.554347 
L 401.022984 171.122655 
L 403.15954 171.69136 
L 405.297593 172.260464 
L 407.437144 172.829966 
L 409.578194 173.399868 
L 411.720746 173.970169 
L 413.864801 174.540871 
L 416.010361 175.111972 
" clip-path="url(#pe607f3597f)" style="fill: none; stroke: #990099; stroke-width: 1.5; stroke-linecap: square"/>
   </g>
   <g id="line2d_4">
    <path d="M 250.758056 164.465968 
L 252.711338 164.996831 
L 254.665903 165.528042 
L 256.621752 166.059602 
L 258.578885 166.591511 
L 260.537304 167.12377 
L 262.497011 167.656378 
L 264.458007 168.189337 
L 266.420292 168.722647 
L 268.383869 169.256307 
L 270.348739 169.790319 
L 272.314902 170.324682 
L 274.28236 170.859397 
L 276.251115 171.394465 
L 278.221167 171.929885 
L 280.192518 172.465658 
L 282.165169 173.001785 
L 284.139122 173.538266 
L 286.114378 174.0751 
L 288.090937 174.612289 
L 290.068802 175.149832 
L 292.047974 175.687731 
L 294.028454 176.225985 
L 296.010242 176.764596 
L 297.993342 177.303562 
L 299.977753 177.842885 
L 301.963478 178.382564 
L 303.950516 178.922601 
L 305.938871 179.462996 
L 307.928543 180.003748 
L 309.919533 180.544859 
L 311.911843 181.086328 
L 313.905473 181.628157 
L 315.900426 182.170344 
L 317.896703 182.712892 
L 319.894305 183.2558 
L 321.893233 183.799068 
L 323.893488 184.342697 
L 325.895072 184.886687 
L 327.897987 185.431038 
L 329.902233 185.975752 
L 331.907812 186.520828 
L 333.914726 187.066266 
L 335.922974 187.612067 
L 337.93256 188.158232 
L 339.943484 188.70476 
L 341.955748 189.251653 
L 343.969352 189.79891 
L 345.984299 190.346531 
L 348.000589 190.894518 
L 350.842319 116.641559 
L 352.890213 117.17275 
L 354.939494 117.704301 
L 356.990162 118.236211 
L 359.04222 118.768482 
L 361.095668 119.301113 
L 363.150508 119.834106 
L 365.206741 120.367459 
L 367.264369 120.901175 
L 369.323394 121.435253 
L 371.383816 121.969693 
L 373.445637 122.504496 
L 375.508858 123.039663 
L 377.573482 123.575193 
L 379.639508 124.111087 
L 381.70694 124.647345 
L 383.775777 125.183969 
L 385.846023 125.720957 
L 387.917677 126.258311 
L 389.990742 126.79603 
L 392.065219 127.334116 
L 394.141109 127.872569 
L 396.218414 128.411388 
L 398.297136 128.950575 
L 400.377275 129.49013 
L 402.458833 130.030053 
L 404.541812 130.570344 
L 406.626213 131.111004 
L 408.712038 131.652033 
L 410.799287 132.193432 
L 412.887963 132.735201 
L 414.978067 133.277341 
L 417.069601 133.819851 
L 415.614764 283.027835 
L 417.649577 283.605391 
L 419.685745 284.18333 
L 421.723268 284.761655 
L 423.762148 285.340365 
L 425.802387 285.91946 
L 427.843985 286.498941 
L 429.886943 287.078808 
L 431.931264 287.659062 
L 433.976949 288.239703 
L 436.023999 288.820731 
L 438.072415 289.402148 
L 440.122199 289.983952 
L 442.173352 290.566145 
L 444.225876 291.148728 
L 446.279771 291.731699 
L 448.33504 292.31506 
" clip-path="url(#pe607f3597f)" style="fill: none; stroke: #990099; stroke-width: 1.5; stroke-linecap: square"/>
   </g>
   <g id="line2d_5">
    <path d="M 179.721095 422.947404 
L 180.96444 421.841823 
L 182.20632 420.737544 
L 183.446739 419.634565 
L 184.685698 418.532884 
L 185.923201 417.432498 
L 187.159249 416.333405 
L 188.393846 415.235602 
L 189.626994 414.139088 
L 190.858695 413.043861 
L 192.088953 411.949917 
L 193.317769 410.857255 
L 194.545146 409.765872 
L 195.771087 408.675767 
L 196.995594 407.586936 
L 198.21867 406.499378 
L 199.440317 405.413091 
L 200.660538 404.328072 
L 201.879335 403.244319 
L 203.09671 402.16183 
L 204.312667 401.080602 
L 205.527208 400.000634 
L 206.740334 398.921923 
L 207.95205 397.844467 
L 209.162356 396.768264 
L 210.371256 395.693311 
L 211.578751 394.619607 
L 212.784846 393.547149 
L 213.989541 392.475936 
L 215.192839 391.405964 
L 216.394743 390.337232 
L 217.595255 389.269738 
L 218.794378 388.203479 
L 219.992114 387.138454 
L 221.188465 386.074659 
L 222.383433 385.012094 
L 223.577022 383.950756 
L 224.769234 382.890643 
L 225.96007 381.831752 
L 227.149534 380.774082 
L 228.337628 379.717631 
L 229.524353 378.662396 
L 230.709713 377.608375 
L 231.89371 376.555566 
L 233.076346 375.503967 
L 234.257623 374.453577 
L 235.437544 373.404392 
L 236.616111 372.356411 
L 237.793327 371.309632 
L 238.969193 370.264053 
L 238.668365 223.868646 
L 239.875837 222.881305 
L 241.081887 221.895125 
L 242.286519 220.910106 
L 243.489735 219.926244 
L 244.691538 218.943538 
L 245.89193 217.961986 
L 247.090913 216.981586 
L 248.288491 216.002334 
L 249.484665 215.024231 
L 250.679439 214.047273 
L 251.872813 213.071459 
L 253.064792 212.096786 
L 254.255377 211.123252 
L 255.444571 210.150857 
L 256.632376 209.179597 
L 257.818795 208.20947 
L 259.00383 207.240475 
L 260.187484 206.272609 
L 261.369758 205.305872 
L 262.550656 204.340259 
L 263.73018 203.375771 
L 264.908332 202.412404 
L 266.085115 201.450157 
L 267.26053 200.489028 
L 268.434581 199.529015 
L 269.607269 198.570115 
L 270.778598 197.612328 
L 271.948569 196.655651 
L 273.117185 195.700082 
L 274.284447 194.745619 
L 275.45036 193.79226 
L 276.614924 192.840004 
L 277.778143 191.888848 
L 278.940018 190.938791 
L 280.100552 189.98983 
L 281.259747 189.041964 
L 282.417605 188.095191 
L 283.574129 187.149509 
L 284.729322 186.204916 
L 285.883184 185.261411 
L 287.03572 184.31899 
L 288.18693 183.377654 
L 289.336818 182.437398 
L 290.485385 181.498223 
L 291.632634 180.560125 
L 292.778567 179.623103 
L 293.923187 178.687156 
L 295.066495 177.752281 
L 296.208493 176.818476 
" clip-path="url(#pe607f3597f)" style="fill: none; stroke: #ff0000; stroke-width: 1.5; stroke-linecap: square"/>
   </g>
   <g id="line2d_6">
    <path d="M 133.83411 408.308916 
L 133.83411 408.308916 
" clip-path="url(#pe607f3597f)" style="fill: none; stroke: #808080; stroke-width: 1.5; stroke-linecap: square"/>
   </g>
   <g id="line2d_7">
    <path d="M 133.83411 408.308916 
" clip-path="url(#pe607f3597f)" style="fill: none; stroke: #1f77b4; stroke-width: 1.5; stroke-linecap: square"/>
    <defs>
     <path id="mbd68512cf0" d="M 0 5 
C 1.326016 5 2.597899 4.473168 3.535534 3.535534 
C 4.473168 2.597899 5 1.326016 5 0 
C 5 -1.326016 4.473168 -2.597899 3.535534 -3.535534 
C 2.597899 -4.473168 1.326016 -5 0 -5 
C -1.326016 -5 -2.597899 -4.473168 -3.535534 -3.535534 
C -4.473168 -2.597899 -5 -1.326016 -5 0 
C -5 1.326016 -4.473168 2.597899 -3.535534 3.535534 
C -2.597899 4.473168 -1.326016 5 0 5 
z
" style="stroke: #808080"/>
    </defs>
    <g clip-path="url(#pe607f3597f)">
     <use xlink:href="#mbd68512cf0" x="133.83411" y="408.308916" style="stroke: #808080"/>
    </g>
   </g>
   <g id="line2d_8">
    <path d="M 174.665963 373.051307 
L 173.014873 301.298426 
" clip-path="url(#pe607f3597f)" style="fill: none; stroke: #808080; stroke-width: 1.5; stroke-linecap: square"/>
   </g>
   <g id="line2d_9">
    <path d="M 173.014873 301.298426 
" clip-path="url(#pe607f3597f)" style="fill: none; stroke: #ff7f0e; stroke-width: 1.5; stroke-linecap: square"/>
    <defs>
     <path id="m921064da31" d="M 0 5 
C 1.326016 5 2.597899 4.473168 3.535534 3.535534 
C 4.473168 2.597899 5 1.326016 5 0 
C 5 -1.326016 4.473168 -2.597899 3.535534 -3.535534 
C 2.597899 -4.473168 1.326016 -5 0 -5 
C -1.326016 -5 -2.597899 -4.473168 -3.535534 -3.535534 
C -4.473168 -2.597899 -5 -1.326016 -5 0 
C -5 1.326016 -4.473168 2.597899 -3.535534 3.535534 
C -2.597899 4.473168 -1.326016 5 0 5 
z
" style="stroke: #808080"/>
    </defs>
    <g clip-path="url(#pe607f3597f)">
     <use xlink:href="#m921064da31" x="173.014873" y="301.298426" style="fill: #404040; stroke: #808080"/>
    </g>
   </g>
   <g id="line2d_10">
    <path d="M 213.979884 339.104406 
L 212.903198 268.234548 
" clip-path="url(#pe607f3597f)" style="fill: none; stroke: #808080; stroke-width: 1.5; stroke-linecap: square"/>
   </g>
   <g id="line2d_11">
    <path d="M 212.903198 268.234548 
" clip-path="url(#pe607f3597f)" style="fill: none; stroke: #2ca02c; stroke-width: 1.5; stroke-linecap: square"/>
    <g clip-path="url(#pe607f3597f)">
     <use xlink:href="#m921064da31" x="212.903198" y="268.234548" style="fill: #404040; stroke: #808080"/>
    </g>
   </g>
   <g id="line2d_12">
    <path d="M 251.858974 306.396457 
L 250.758056 164.465968 
" clip-path="url(#pe607f3597f)" style="fill: none; stroke: #808080; stroke-width: 1.5; stroke-linecap: square"/>
   </g>
   <g id="line2d_13">
    <path d="M 250.758056 164.465968 
" clip-path="url(#pe607f3597f)" style="fill: none; stroke: #d62728; stroke-width: 1.5; stroke-linecap: square"/>
    <defs>
     <path id="m268c9aad35" d="M 0 5 
C 1.326016 5 2.597899 4.473168 3.535534 3.535534 
C 4.473168 2.597899 5 1.326016 5 0 
C 5 -1.326016 4.473168 -2.597899 3.535534 -3.535534 
C 2.597899 -4.473168 1.326016 -5 0 -5 
C -1.326016 -5 -2.597899 -4.473168 -3.535534 -3.535534 
C -4.473168 -2.597899 -5 -1.326016 -5 0 
C -5 1.326016 -4.473168 2.597899 -3.535534 3.535534 
C -2.597899 4.473168 -1.326016 5 0 5 
z
" style="stroke: #808080"/>
    </defs>
    <g clip-path="url(#pe607f3597f)">
     <use xlink:href="#m268c9aad35" x="250.758056" y="164.465968" style="fill: #808080; stroke: #808080"/>
    </g>
   </g>
   <g id="line2d_14">
    <path d="M 199.608609 429.291756 
L 199.608609 429.291756 
" clip-path="url(#pe607f3597f)" style="fill: none; stroke: #808080; stroke-width: 1.5; stroke-linecap: square"/>
   </g>
   <g id="line2d_15">
    <path d="M 199.608609 429.291756 
" clip-path="url(#pe607f3597f)" style="fill: none; stroke: #9467bd; stroke-width: 1.5; stroke-linecap: square"/>
    <g clip-path="url(#pe607f3597f)">
     <use xlink:href="#mbd68512cf0" x="199.608609" y="429.291756" style="stroke: #808080"/>
    </g>
   </g>
   <g id="line2d_16">
    <path d="M 239.632369 393.242549 
L 239.632369 393.242549 
" clip-path="url(#pe607f3597f)" style="fill: none; stroke: #808080; stroke-width: 1.5; stroke-linecap: square"/>
   </g>
   <g id="line2d_17">
    <path d="M 239.632369 393.242549 
" clip-path="url(#pe607f3597f)" style="fill: none; stroke: #8c564b; stroke-width: 1.5; stroke-linecap: square"/>
    <g clip-path="url(#pe607f3597f)">
     <use xlink:href="#mbd68512cf0" x="239.632369" y="393.242549" style="stroke: #808080"/>
    </g>
   </g>
   <g id="line2d_18">
    <path d="M 278.152098 358.548016 
L 277.762734 213.769799 
" clip-path="url(#pe607f3597f)" style="fill: none; stroke: #808080; stroke-width: 1.5; stroke-linecap: square"/>
   </g>
   <g id="line2d_19">
    <path d="M 277.762734 213.769799 
" clip-path="url(#pe607f3597f)" style="fill: none; stroke: #e377c2; stroke-width: 1.5; stroke-linecap: square"/>
    <g clip-path="url(#pe607f3597f)">
     <use xlink:href="#m268c9aad35" x="277.762734" y="213.769799" style="fill: #808080; stroke: #808080"/>
    </g>
   </g>
   <g id="line2d_20">
    <path d="M 315.251013 325.133203 
L 315.900426 182.170344 
" clip-path="url(#pe607f3597f)" style="fill: none; stroke: #808080; stroke-width: 1.5; stroke-linecap: square"/>
   </g>
   <g id="line2d_21">
    <path d="M 315.900426 182.170344 
" clip-path="url(#pe607f3597f)" style="fill: none; stroke: #7f7f7f; stroke-width: 1.5; stroke-linecap: square"/>
    <g clip-path="url(#pe607f3597f)">
     <use xlink:href="#m268c9aad35" x="315.900426" y="182.170344" style="fill: #808080; stroke: #808080"/>
    </g>
   </g>
   <g id="line2d_22">
    <path d="M 266.88277 450.753006 
L 266.515318 377.044162 
" clip-path="url(#pe607f3597f)" style="fill: none; stroke: #808080; stroke-width: 1.5; stroke-linecap: square"/>
   </g>
   <g id="line2d_23">
    <path d="M 266.515318 377.044162 
" clip-path="url(#pe607f3597f)" style="fill: none; stroke: #bcbd22; stroke-width: 1.5; stroke-linecap: square"/>
    <g clip-path="url(#pe607f3597f)">
     <use xlink:href="#m921064da31" x="266.515318" y="377.044162" style="fill: #404040; stroke: #808080"/>
    </g>
   </g>
   <g id="line2d_24">
    <path d="M 306.051331 413.885239 
L 306.465201 266.173371 
" clip-path="url(#pe607f3597f)" style="fill: none; stroke: #808080; stroke-width: 1.5; stroke-linecap: square"/>
   </g>
   <g id="line2d_25">
    <path d="M 306.465201 266.173371 
" clip-path="url(#pe607f3597f)" style="fill: none; stroke: #17becf; stroke-width: 1.5; stroke-linecap: square"/>
    <g clip-path="url(#pe607f3597f)">
     <use xlink:href="#m268c9aad35" x="306.465201" y="266.173371" style="fill: #808080; stroke: #808080"/>
    </g>
   </g>
   <g id="line2d_26">
    <path d="M 343.731857 378.418099 
L 345.217495 232.576047 
" clip-path="url(#pe607f3597f)" style="fill: none; stroke: #808080; stroke-width: 1.5; stroke-linecap: square"/>
   </g>
   <g id="line2d_27">
    <path d="M 345.217495 232.576047 
" clip-path="url(#pe607f3597f)" style="fill: none; stroke: #1f77b4; stroke-width: 1.5; stroke-linecap: square"/>
    <g clip-path="url(#pe607f3597f)">
     <use xlink:href="#m268c9aad35" x="345.217495" y="232.576047" style="fill: #808080; stroke: #808080"/>
    </g>
   </g>
   <g id="line2d_28">
    <path d="M 380.007564 344.273258 
L 383.775777 125.183969 
" clip-path="url(#pe607f3597f)" style="fill: none; stroke: #808080; stroke-width: 1.5; stroke-linecap: square"/>
   </g>
   <g id="line2d_29">
    <path d="M 383.775777 125.183969 
" clip-path="url(#pe607f3597f)" style="fill: none; stroke: #ff7f0e; stroke-width: 1.5; stroke-linecap: square"/>
    <defs>
     <path id="md14c8a805c" d="M 0 5 
C 1.326016 5 2.597899 4.473168 3.535534 3.535534 
C 4.473168 2.597899 5 1.326016 5 0 
C 5 -1.326016 4.473168 -2.597899 3.535534 -3.535534 
C 2.597899 -4.473168 1.326016 -5 0 -5 
C -1.326016 -5 -2.597899 -4.473168 -3.535534 -3.535534 
C -4.473168 -2.597899 -5 -1.326016 -5 0 
C -5 1.326016 -4.473168 2.597899 -3.535534 3.535534 
C -2.597899 4.473168 -1.326016 5 0 5 
z
" style="stroke: #808080"/>
    </defs>
    <g clip-path="url(#pe607f3597f)">
     <use xlink:href="#md14c8a805c" x="383.775777" y="125.183969" style="fill: #bfbfbf; stroke: #808080"/>
    </g>
   </g>
   <g id="line2d_30">
    <path d="M 335.708472 472.709216 
L 337.030766 321.978495 
" clip-path="url(#pe607f3597f)" style="fill: none; stroke: #808080; stroke-width: 1.5; stroke-linecap: square"/>
   </g>
   <g id="line2d_31">
    <path d="M 337.030766 321.978495 
" clip-path="url(#pe607f3597f)" style="fill: none; stroke: #2ca02c; stroke-width: 1.5; stroke-linecap: square"/>
    <g clip-path="url(#pe607f3597f)">
     <use xlink:href="#m268c9aad35" x="337.030766" y="321.978495" style="fill: #808080; stroke: #808080"/>
    </g>
   </g>
   <g id="line2d_32">
    <path d="M 373.972115 434.994687 
L 376.399187 286.187653 
" clip-path="url(#pe607f3597f)" style="fill: none; stroke: #808080; stroke-width: 1.5; stroke-linecap: square"/>
   </g>
   <g id="line2d_33">
    <path d="M 376.399187 286.187653 
" clip-path="url(#pe607f3597f)" style="fill: none; stroke: #d62728; stroke-width: 1.5; stroke-linecap: square"/>
    <g clip-path="url(#pe607f3597f)">
     <use xlink:href="#m268c9aad35" x="376.399187" y="286.187653" style="fill: #808080; stroke: #808080"/>
    </g>
   </g>
   <g id="line2d_34">
    <path d="M 410.765983 398.728842 
L 416.010361 175.111972 
" clip-path="url(#pe607f3597f)" style="fill: none; stroke: #808080; stroke-width: 1.5; stroke-linecap: square"/>
   </g>
   <g id="line2d_35">
    <path d="M 416.010361 175.111972 
" clip-path="url(#pe607f3597f)" style="fill: none; stroke: #9467bd; stroke-width: 1.5; stroke-linecap: square"/>
    <g clip-path="url(#pe607f3597f)">
     <use xlink:href="#md14c8a805c" x="416.010361" y="175.111972" style="fill: #bfbfbf; stroke: #808080"/>
    </g>
   </g>
   <g id="line2d_36">
    <path d="M 446.173163 363.829784 
L 448.33504 292.31506 
" clip-path="url(#pe607f3597f)" style="fill: none; stroke: #808080; stroke-width: 1.5; stroke-linecap: square"/>
   </g>
   <g id="line2d_37">
    <path d="M 448.33504 292.31506 
" clip-path="url(#pe607f3597f)" style="fill: none; stroke: #8c564b; stroke-width: 1.5; stroke-linecap: square"/>
    <g clip-path="url(#pe607f3597f)">
     <use xlink:href="#m921064da31" x="448.33504" y="292.31506" style="fill: #404040; stroke: #808080"/>
    </g>
   </g>
   <g id="line2d_38">
    <path d="M 179.721095 422.947404 
" clip-path="url(#pe607f3597f)" style="fill: none; stroke: #e377c2; stroke-width: 1.5; stroke-linecap: square"/>
    <defs>
     <path id="m1ac6e37eae" d="M 0 5 
C 1.326016 5 2.597899 4.473168 3.535534 3.535534 
C 4.473168 2.597899 5 1.326016 5 0 
C 5 -1.326016 4.473168 -2.597899 3.535534 -3.535534 
C 2.597899 -4.473168 1.326016 -5 0 -5 
C -1.326016 -5 -2.597899 -4.473168 -3.535534 -3.535534 
C -4.473168 -2.597899 -5 -1.326016 -5 0 
C -5 1.326016 -4.473168 2.597899 -3.535534 3.535534 
C -2.597899 4.473168 -1.326016 5 0 5 
z
" style="stroke: #990099"/>
    </defs>
    <g clip-path="url(#pe607f3597f)">
     <use xlink:href="#m1ac6e37eae" x="179.721095" y="422.947404" style="fill: #990099; stroke: #990099"/>
    </g>
   </g>
   <g id="line2d_39">
    <path d="M 219.992114 387.138454 
" clip-path="url(#pe607f3597f)" style="fill: none; stroke: #7f7f7f; stroke-width: 1.5; stroke-linecap: square"/>
    <g clip-path="url(#pe607f3597f)">
     <use xlink:href="#m1ac6e37eae" x="219.992114" y="387.138454" style="fill: #990099; stroke: #990099"/>
    </g>
   </g>
   <g id="line2d_40">
    <path d="M 257.818795 208.20947 
" clip-path="url(#pe607f3597f)" style="fill: none; stroke: #bcbd22; stroke-width: 1.5; stroke-linecap: square"/>
    <g clip-path="url(#pe607f3597f)">
     <use xlink:href="#m1ac6e37eae" x="257.818795" y="208.20947" style="fill: #990099; stroke: #990099"/>
    </g>
   </g>
   <g id="line2d_41">
    <path d="M 296.208493 176.818476 
" clip-path="url(#pe607f3597f)" style="fill: none; stroke: #17becf; stroke-width: 1.5; stroke-linecap: square"/>
    <g clip-path="url(#pe607f3597f)">
     <use xlink:href="#m1ac6e37eae" x="296.208493" y="176.818476" style="fill: #990099; stroke: #990099"/>
    </g>
   </g>
   <g id="line2d_42">
    <path d="M 251.118788 359.460645 
L 249.962743 214.63331 
" clip-path="url(#pe607f3597f)" style="fill: none; stroke: #ff0000; stroke-width: 1.5; stroke-linecap: square"/>
   </g>
   <g id="line2d_43">
    <path d="M 249.962743 214.63331 
" clip-path="url(#pe607f3597f)" style="fill: none; stroke: #1f77b4; stroke-width: 1.5; stroke-linecap: square"/>
    <defs>
     <path id="m00010cae70" d="M 0 5 
C 1.326016 5 2.597899 4.473168 3.535534 3.535534 
C 4.473168 2.597899 5 1.326016 5 0 
C 5 -1.326016 4.473168 -2.597899 3.535534 -3.535534 
C 2.597899 -4.473168 1.326016 -5 0 -5 
C -1.326016 -5 -2.597899 -4.473168 -3.535534 -3.535534 
C -4.473168 -2.597899 -5 -1.326016 -5 0 
C -5 1.326016 -4.473168 2.597899 -3.535534 3.535534 
C -2.597899 4.473168 -1.326016 5 0 5 
z
" style="stroke: #ff0000"/>
    </defs>
    <g clip-path="url(#pe607f3597f)">
     <use xlink:href="#m00010cae70" x="249.962743" y="214.63331" style="fill: #ff0000; stroke: #ff0000"/>
    </g>
   </g>
  </g>
 </g>
 <defs>
  <clipPath id="pe607f3597f">
   <rect x="7.2" y="7.2" width="554.4" height="554.4"/>
  </clipPath>
 </defs>
</svg>
