<?xml version="1.0" encoding="utf-8" standalone="no"?>
<!DOCTYPE svg PUBLIC "-//W3C//DTD SVG 1.1//EN"
  "http://www.w3.org/Graphics/SVG/1.1/DTD/svg11.dtd">
<svg height="568.8pt" version="1.1" viewBox="0 0 568.8 568.8" width="568.8pt" xmlns="http://www.w3.org/2000/svg" xmlns:xlink="http://www.w3.org/1999/xlink">
 <metadata>
  <rdf:RDF xmlns:cc="http://creativecommons.org/ns#" xmlns:dc="http://purl.org/dc/elements/1.1/" xmlns:rdf="http://www.w3.org/1999/02/22-rdf-syntax-ns#">
   <cc:Work>
    <dc:type rdf:resource="http://purl.org/dc/dcmitype/StillImage"/>
    <dc:date>2024-08-12T15:59:44.926784</dc:date>
    <dc:format>image/svg+xml</dc:format>
    <dc:creator>
     <cc:Agent>
      <dc:title>Matplotlib v3.4.3, https://matplotlib.org/</dc:title>
     </cc:Agent>
    </dc:creator>
   </cc:Work>
  </rdf:RDF>
 </metadata>
 <defs>
  <style type="text/css">*{stroke-linecap:butt;stroke-linejoin:round;}</style>
 </defs>
 <g id="figure_1">
  <g id="patch_1">
   <path d="M 0 568.8 
L 568.8 568.8 
L 568.8 0 
L 0 0 
z
" style="fill:none;"/>
  </g>
  <g id="patch_2">
   <path d="M 7.2 561.6 
L 561.6 561.6 
L 561.6 7.2 
L 7.2 7.2 
z
" style="fill:#ffffff;"/>
  </g>
  <g id="axes_1">
   <g id="Poly3DCollection_1">
    <path clip-path="url(#p3feac8ae5c)" d="M 200.96918 270.892529 
L 264.588859 289.476009 
L 301.702349 257.53779 
L 238.847804 239.625703 
z
" style="fill:#aaaaaa;stroke:#aaaaaa;"/>
    <path clip-path="url(#p3feac8ae5c)" d="M 264.588859 289.476009 
L 329.594901 308.46445 
L 365.901213 275.832976 
L 301.702349 257.53779 
z
" style="fill:#aaaaaa;stroke:#aaaaaa;"/>
    <path clip-path="url(#p3feac8ae5c)" d="M 161.665034 303.336048 
L 226.063303 322.629391 
L 264.588859 289.476009 
L 200.96918 270.892529 
z
" style="fill:#555555;stroke:#555555;"/>
    <path clip-path="url(#p3feac8ae5c)" d="M 329.594901 308.46445 
L 396.033119 327.871233 
L 431.487989 294.523685 
L 365.901213 275.832976 
z
" style="fill:#ffffff;stroke:#ffffff;"/>
    <path clip-path="url(#p3feac8ae5c)" d="M 226.063303 322.629391 
L 291.891892 342.35125 
L 329.594901 308.46445 
L 264.588859 289.476009 
z
" style="fill:#aaaaaa;stroke:#aaaaaa;"/>
    <path clip-path="url(#p3feac8ae5c)" d="M 396.033119 327.871233 
L 463.951372 347.710339 
L 498.508179 313.622884 
L 431.487989 294.523685 
z
" style="fill:#555555;stroke:#555555;"/>
    <path clip-path="url(#p3feac8ae5c)" d="M 120.853352 337.023961 
L 186.043527 357.068631 
L 226.063303 322.629391 
L 161.665034 303.336048 
z
" style="fill:#555555;stroke:#555555;"/>
    <path clip-path="url(#p3feac8ae5c)" d="M 291.891892 342.35125 
L 359.19899 362.516062 
L 396.033119 327.871233 
L 329.594901 308.46445 
z
" style="fill:#aaaaaa;stroke:#aaaaaa;"/>
    <path clip-path="url(#p3feac8ae5c)" d="M 186.043527 357.068631 
L 252.710009 377.567236 
L 291.891892 342.35125 
L 226.063303 322.629391 
z
" style="stroke:#000000;"/>
    <path clip-path="url(#p3feac8ae5c)" d="M 359.19899 362.516062 
L 428.034974 383.138918 
L 463.951372 347.710339 
L 396.033119 327.871233 
z
" style="fill:#ffffff;stroke:#ffffff;"/>
    <path clip-path="url(#p3feac8ae5c)" d="M 78.445702 372.029261 
L 144.440884 392.870017 
L 186.043527 357.068631 
L 120.853352 337.023961 
z
" style="stroke:#000000;"/>
    <path clip-path="url(#p3feac8ae5c)" d="M 252.710009 377.567236 
L 320.903522 398.535372 
L 359.19899 362.516062 
L 291.891892 342.35125 
z
" style="fill:#aaaaaa;stroke:#aaaaaa;"/>
    <path clip-path="url(#p3feac8ae5c)" d="M 144.440884 392.870017 
L 211.960501 414.192177 
L 252.710009 377.567236 
L 186.043527 357.068631 
z
" style="stroke:#000000;"/>
    <path clip-path="url(#p3feac8ae5c)" d="M 320.903522 398.535372 
L 390.677138 419.989359 
L 428.034974 383.138918 
L 359.19899 362.516062 
z
" style="fill:#aaaaaa;stroke:#aaaaaa;"/>
    <path clip-path="url(#p3feac8ae5c)" d="M 211.960501 414.192177 
L 281.057989 436.012616 
L 320.903522 398.535372 
L 252.710009 377.567236 
z
" style="fill:#555555;stroke:#555555;"/>
    <path clip-path="url(#p3feac8ae5c)" d="M 281.057989 436.012616 
L 351.789312 458.349008 
L 390.677138 419.989359 
L 320.903522 398.535372 
z
" style="fill:#aaaaaa;stroke:#aaaaaa;"/>
   </g>
   <g id="line2d_1">
    <path clip-path="url(#p3feac8ae5c)" d="M 132.465997 364.518165 
L 134.497819 366.55067 
L 136.526703 368.478489 
L 138.552822 370.30333 
L 140.576346 372.026885 
L 142.597441 373.650832 
L 144.616274 375.176838 
L 146.633006 376.606556 
L 148.647796 377.941627 
L 150.660801 379.183683 
L 152.672175 380.334344 
L 154.682069 381.395221 
L 156.690633 382.367913 
L 158.698013 383.254013 
L 160.704351 384.055105 
L 162.709791 384.772764 
L 164.714471 385.40856 
L 166.718526 385.964055 
L 168.722092 386.440804 
L 170.7253 386.840357 
L 172.728279 387.16426 
L 174.731156 387.414051 
L 176.734056 387.591267 
L 178.7371 387.697439 
L 180.740409 387.734096 
L 182.744101 387.702762 
L 184.74829 387.604961 
L 186.753089 387.442212 
L 188.758609 387.216034 
L 190.76496 386.927945 
L 192.772245 386.57946 
L 194.78057 386.172094 
L 196.790037 385.707364 
L 198.800743 385.186783 
L 200.812787 384.611868 
L 202.826263 383.984135 
L 204.841263 383.305102 
L 206.857879 382.576287 
L 208.876196 381.799211 
L 210.896303 380.975396 
L 212.918281 380.106368 
L 214.942211 379.193655 
L 216.968173 378.238785 
L 218.996244 377.243294 
L 221.026496 376.208719 
L 223.059002 375.136599 
L 225.093832 374.02848 
L 227.131052 372.885911 
L 229.170728 371.710446 
L 231.212922 370.503641 
L 233.257693 369.267061 
L 235.305101 368.002272 
L 237.355199 366.710848 
L 239.40804 365.394368 
L 241.463676 364.054416 
L 243.522154 362.692582 
L 245.583519 361.310461 
L 247.647815 359.909656 
L 249.715082 358.491776 
L 251.785357 357.058434 
L 253.858678 355.611252 
L 255.935075 354.151858 
L 258.01458 352.681886 
L 260.097221 351.202978 
L 262.183022 349.716781 
L 264.272005 348.224951 
L 266.364192 346.729149 
L 268.459598 345.231046 
L 270.558239 343.732317 
L 272.660125 342.234646 
L 274.765267 340.739722 
L 276.87367 339.249245 
L 278.985337 337.764919 
L 281.10027 336.288456 
L 283.218466 334.821574 
L 285.33992 333.366001 
L 287.464624 331.92347 
L 289.592568 330.49572 
L 291.723737 329.084499 
L 293.858116 327.691561 
L 295.995684 326.318667 
L 298.136419 324.967583 
L 300.280295 323.640083 
L 302.427285 322.337948 
L 304.577355 321.062963 
L 306.730473 319.816921 
L 308.886599 318.60162 
L 311.045693 317.418863 
L 313.207712 316.27046 
L 315.372607 315.158225 
L 317.54033 314.083978 
L 319.710826 313.049543 
L 321.88404 312.056748 
L 324.05991 311.107426 
L 326.238375 310.203414 
L 328.419368 309.346554 
L 330.602821 308.538688 
L 332.788659 307.781664 
L 334.976808 307.077331 
L 337.167187 306.427541 
" style="fill:none;stroke:#990099;stroke-linecap:square;stroke-width:1.5;"/>
   </g>
   <g id="line2d_2">
    <path clip-path="url(#p3feac8ae5c)" d="M 172.336386 271.812815 
L 174.484644 279.577589 
L 176.619061 286.905646 
L 178.740374 293.80813 
L 180.849295 300.295894 
L 182.946519 306.379524 
L 185.032718 312.069344 
L 187.108543 317.37544 
L 189.174628 322.307669 
L 191.231587 326.875676 
L 193.280017 331.088904 
L 195.320499 334.956608 
L 197.353593 338.487867 
L 199.379849 341.691599 
L 201.399795 344.576563 
L 203.413948 347.151381 
L 205.42281 349.424538 
L 207.426865 351.404401 
L 209.426587 353.099221 
L 211.422434 354.517146 
L 213.414852 355.66623 
L 215.404272 356.554438 
L 217.391113 357.18966 
L 219.375782 357.579712 
L 221.358672 357.732351 
L 223.340166 357.655275 
L 225.320633 357.356136 
L 227.30043 356.842542 
L 229.279904 356.122068 
L 231.259389 355.20226 
L 233.239207 354.090638 
L 235.219669 352.794711 
L 237.201076 351.32197 
L 239.183715 349.679907 
L 241.167863 347.876008 
L 243.153786 345.917766 
L 245.141739 343.812683 
L 247.131965 341.568273 
L 249.124695 339.192072 
L 251.120149 336.691633 
L 253.118537 334.07454 
L 255.120056 331.348404 
L 257.124892 328.52087 
L 259.13322 325.599622 
L 261.145203 322.59238 
L 263.16099 319.50691 
L 265.180723 316.351023 
L 267.204527 313.132577 
L 269.232518 309.859481 
L 271.264798 306.539696 
L 273.30146 303.181235 
L 275.34258 299.792171 
L 277.388224 296.380629 
L 279.438446 292.954796 
L 281.493285 289.522913 
L 283.552768 286.093285 
L 285.616909 282.674273 
L 287.685709 279.274298 
L 289.759155 275.901842 
L 291.83722 272.565444 
L 293.919863 269.2737 
L 296.007032 266.035265 
L 298.098657 262.858847 
L 300.194656 259.753208 
L 302.294932 256.727164 
L 304.399374 253.789575 
L 306.507857 250.949353 
L 308.62024 248.21545 
L 310.736367 245.596859 
L 312.856069 243.102611 
L 314.979159 240.741767 
L 317.105439 238.523419 
L 319.234692 236.456681 
L 321.366688 234.550687 
L 323.501181 232.814584 
L 325.637909 231.257527 
L 327.776597 229.888674 
L 329.916953 228.717177 
L 332.058669 227.75218 
L 334.201424 227.002805 
L 336.344881 226.478153 
L 338.488686 226.187291 
L 340.632472 226.139245 
L 342.775858 226.342994 
L 344.918446 226.80746 
L 347.059825 227.541497 
L 349.199569 228.553888 
L 351.337239 229.853329 
L 353.472381 231.448425 
L 355.604527 233.347677 
L 357.733197 235.559473 
L 359.857898 238.09208 
L 361.978123 240.953629 
L 364.093355 244.152109 
L 366.203063 247.695355 
L 368.306705 251.591038 
L 370.403731 255.846651 
L 372.493576 260.469504 
L 374.575668 265.466709 
L 376.649426 270.845169 
" style="fill:none;stroke:#990099;stroke-linecap:square;stroke-width:1.5;"/>
   </g>
   <g id="line2d_3">
    <path clip-path="url(#p3feac8ae5c)" d="M 212.460915 239.122552 
L 214.367109 235.958687 
L 216.279552 232.944974 
L 218.198048 230.078902 
L 220.1224 227.357922 
L 222.052417 224.779438 
L 223.987907 222.340818 
L 225.928685 220.039388 
L 227.874569 217.872438 
L 229.825377 215.837219 
L 231.780935 213.930951 
L 233.741069 212.150818 
L 235.705611 210.493972 
L 237.674395 208.957534 
L 239.647259 207.538598 
L 241.624048 206.234227 
L 243.604606 205.041457 
L 245.588784 203.957301 
L 247.576438 202.978745 
L 249.567425 202.102754 
L 251.561609 201.326268 
L 253.558857 200.64621 
L 255.559041 200.059481 
L 257.562037 199.562963 
L 259.567725 199.153522 
L 261.575991 198.828006 
L 263.586724 198.58325 
L 265.599819 198.41607 
L 267.615174 198.323274 
L 269.632692 198.301653 
L 271.652283 198.347989 
L 273.673859 198.459051 
L 275.697338 198.631599 
L 277.722642 198.862384 
L 279.7497 199.148147 
L 281.778443 199.485623 
L 283.808809 199.871537 
L 285.840741 200.30261 
L 287.874185 200.775554 
L 289.909093 201.28708 
L 291.945423 201.833888 
L 293.983138 202.412679 
L 296.022204 203.020146 
L 298.062593 203.652979 
L 300.104284 204.307865 
L 302.147259 204.981488 
L 304.191505 205.670528 
L 306.237015 206.371664 
L 308.283788 207.081569 
L 310.331826 207.796918 
L 312.381137 208.514381 
L 314.431737 209.230625 
L 316.483642 209.942316 
L 318.536877 210.646118 
L 320.591471 211.338691 
L 322.647459 212.016693 
L 324.704881 212.67678 
L 326.763781 213.315604 
L 328.82421 213.929814 
L 330.886224 214.516056 
L 332.949885 215.070971 
L 335.015257 215.591198 
L 337.082415 216.073368 
L 339.151434 216.514108 
L 341.222398 216.910042 
L 343.295395 217.257784 
L 345.370519 217.553943 
L 347.44787 217.795119 
L 349.527552 217.977907 
L 351.609676 218.098889 
L 353.694359 218.15464 
L 355.781722 218.141723 
L 357.871894 218.056689 
L 359.965008 217.896079 
L 362.061204 217.656419 
L 364.160627 217.334219 
L 366.263428 216.925977 
L 368.369764 216.42817 
L 370.479801 215.837261 
L 372.593706 215.149691 
L 374.711656 214.361882 
L 376.833833 213.470234 
L 378.960426 212.471124 
L 381.09163 211.360904 
L 383.227647 210.135899 
L 385.368684 208.792407 
L 387.514957 207.326697 
L 389.666689 205.735005 
L 391.824107 204.013536 
L 393.987448 202.158459 
L 396.156956 200.165907 
L 398.33288 198.031973 
L 400.515479 195.752709 
L 402.70502 193.324126 
L 404.901774 190.742189 
L 407.106024 188.002813 
L 409.31806 185.101867 
L 411.538178 182.035164 
L 413.766687 178.798463 
L 416.003899 175.387467 
" style="fill:none;stroke:#990099;stroke-linecap:square;stroke-width:1.5;"/>
   </g>
   <g id="line2d_4">
    <path clip-path="url(#p3feac8ae5c)" d="M 250.644799 149.864913 
L 252.626414 153.50375 
L 254.60518 156.879486 
L 256.581432 159.999266 
L 258.555498 162.870144 
L 260.527693 165.499084 
L 262.498323 167.892969 
L 264.467684 170.058604 
L 266.43606 172.002726 
L 268.403728 173.732006 
L 270.370953 175.253058 
L 272.337992 176.572438 
L 274.305092 177.696657 
L 276.27249 178.632181 
L 278.240414 179.385434 
L 280.209083 179.962809 
L 282.178707 180.370664 
L 284.149486 180.615335 
L 286.121612 180.703131 
L 288.095266 180.640346 
L 290.070622 180.433257 
L 292.047844 180.08813 
L 294.027087 179.611223 
L 296.008496 179.008788 
L 297.992208 178.287077 
L 299.97835 177.452342 
L 301.967042 176.51084 
L 303.958392 175.468832 
L 305.952499 174.332592 
L 307.949456 173.108401 
L 309.949343 171.802558 
L 311.952232 170.421376 
L 313.958185 168.971184 
L 315.967256 167.458333 
L 317.979488 165.889194 
L 319.994915 164.270162 
L 322.013561 162.607653 
L 324.035439 160.908112 
L 326.060556 159.178008 
L 328.088905 157.423837 
L 330.12047 155.652124 
L 332.155227 153.869422 
L 334.193138 152.082313 
L 336.234159 150.297408 
L 338.278234 148.521349 
L 340.325294 146.760804 
L 342.375263 145.022473 
L 344.428053 143.313083 
L 346.483567 141.639391 
L 348.541694 140.008178 
L 350.602314 138.426254 
L 352.665298 136.900453 
L 354.730503 135.437636 
L 356.797778 134.044682 
L 358.866958 132.728494 
L 360.937869 131.495994 
L 363.010325 130.354119 
L 365.084131 129.309824 
L 367.159077 128.370074 
L 369.234946 127.541845 
L 371.311507 126.83212 
L 373.38852 126.247886 
L 375.465731 125.796133 
L 377.542879 125.483846 
L 379.619688 125.318006 
L 381.695874 125.305583 
L 383.771141 125.453536 
L 385.845181 125.768806 
L 387.917677 126.258311 
L 389.988301 126.928944 
L 392.056713 127.787567 
L 394.122564 128.841007 
L 396.185495 130.096052 
L 398.245137 131.559442 
L 400.301108 133.237869 
L 402.35302 135.137967 
L 404.400475 137.26631 
L 406.443062 139.629404 
L 408.480366 142.233683 
L 410.51196 145.085501 
L 412.537409 148.19113 
L 414.556269 151.556747 
L 416.56809 155.188435 
L 418.572412 159.092174 
L 420.56877 163.273833 
L 422.556689 167.739165 
L 424.535691 172.493801 
L 426.505289 177.543243 
L 428.46499 182.892859 
L 430.414298 188.547873 
L 432.352711 194.513362 
L 434.27972 200.79425 
L 436.194816 207.395295 
L 438.097483 214.321093 
L 439.987204 221.576063 
L 441.863458 229.164446 
L 443.725722 237.090294 
L 445.573474 245.357471 
L 447.406187 253.969641 
L 449.223337 262.930263 
" style="fill:none;stroke:#990099;stroke-linecap:square;stroke-width:1.5;"/>
   </g>
   <g id="line2d_5">
    <path clip-path="url(#p3feac8ae5c)" d="M 178.937417 387.704208 
L 180.291381 391.227334 
L 181.633606 394.386603 
L 182.964582 397.191552 
L 184.28478 399.651505 
L 185.594658 401.775584 
L 186.894662 403.572718 
L 188.185221 405.051662 
L 189.466754 406.221 
L 190.739666 407.089162 
L 192.004351 407.664432 
L 193.261191 407.954955 
L 194.510557 407.96875 
L 195.752808 407.71372 
L 196.988293 407.197655 
L 198.217354 406.428246 
L 199.440317 405.413091 
L 200.657504 404.1597 
L 201.869225 402.675508 
L 203.07578 400.967875 
L 204.277463 399.0441 
L 205.474558 396.91142 
L 206.66734 394.577024 
L 207.856075 392.048051 
L 209.041025 389.331604 
L 210.222438 386.434748 
L 211.40056 383.364518 
L 212.575627 380.127928 
L 213.747866 376.731969 
L 214.917499 373.183617 
L 216.08474 369.48984 
L 217.249796 365.657595 
L 218.412866 361.69384 
L 219.574144 357.605532 
L 220.733816 353.399634 
L 221.892061 349.083116 
L 223.049051 344.662959 
L 224.204952 340.146159 
L 225.359923 335.539729 
L 226.514117 330.8507 
L 227.66768 326.086126 
L 228.820751 321.253087 
L 229.973463 316.358686 
L 231.125943 311.410056 
L 232.278311 306.414358 
L 233.43068 301.378785 
L 234.583157 296.310563 
L 235.735842 291.216951 
L 236.88883 286.10524 
L 238.042209 280.982759 
L 239.196058 275.85687 
L 240.350454 270.73497 
L 241.505463 265.624494 
L 242.661148 260.532908 
L 243.817563 255.467718 
L 244.974757 250.436459 
L 246.132772 245.446702 
L 247.291642 240.50605 
L 248.451397 235.622137 
L 249.612058 230.802623 
L 250.77364 226.055201 
L 251.936152 221.387586 
L 253.099595 216.807516 
L 254.263966 212.322752 
L 255.429251 207.941072 
L 256.595433 203.67027 
L 257.762487 199.518152 
L 258.930379 195.492533 
L 260.099073 191.601233 
L 261.268521 187.852074 
L 262.438671 184.252875 
L 263.609466 180.811449 
L 264.780837 177.535597 
L 265.952713 174.433106 
L 267.125015 171.511738 
L 268.297656 168.779235 
L 269.470543 166.243304 
L 270.643578 163.911616 
L 271.816653 161.7918 
L 272.989656 159.891438 
L 274.162469 158.218055 
L 275.334965 156.779119 
L 276.507013 155.582029 
L 277.678475 154.634111 
L 278.849206 153.942612 
L 280.019056 153.514691 
L 281.187868 153.357414 
L 282.355481 153.477747 
L 283.521726 153.882547 
L 284.686429 154.578558 
L 285.849412 155.5724 
L 287.01049 156.870563 
L 288.169473 158.479403 
L 289.326166 160.40513 
L 290.480371 162.653802 
L 291.631882 165.23132 
L 292.780492 168.143418 
L 293.925987 171.395655 
L 295.06815 174.993412 
L 296.206761 178.941881 
" style="fill:none;stroke:#ff0000;stroke-linecap:square;stroke-width:1.5;"/>
   </g>
   <g id="line2d_6">
    <path clip-path="url(#p3feac8ae5c)" d="M 132.465997 364.518165 
L 132.465997 364.518165 
" style="fill:none;stroke:#808080;stroke-linecap:square;stroke-width:1.5;"/>
   </g>
   <g id="line2d_7">
    <path clip-path="url(#p3feac8ae5c)" d="M 132.465997 364.518165 
" style="fill:none;stroke:#1f77b4;stroke-linecap:square;stroke-width:1.5;"/>
    <defs>
     <path d="M 0 5 
C 1.326016 5 2.597899 4.473168 3.535534 3.535534 
C 4.473168 2.597899 5 1.326016 5 0 
C 5 -1.326016 4.473168 -2.597899 3.535534 -3.535534 
C 2.597899 -4.473168 1.326016 -5 0 -5 
C -1.326016 -5 -2.597899 -4.473168 -3.535534 -3.535534 
C -4.473168 -2.597899 -5 -1.326016 -5 0 
C -5 1.326016 -4.473168 2.597899 -3.535534 3.535534 
C -2.597899 4.473168 -1.326016 5 0 5 
z
" id="mc0d4238ca6" style="stroke:#808080;"/>
    </defs>
    <g clip-path="url(#p3feac8ae5c)">
     <use style="stroke:#808080;" x="132.465997" xlink:href="#mc0d4238ca6" y="364.518165"/>
    </g>
   </g>
   <g id="line2d_8">
    <path clip-path="url(#p3feac8ae5c)" d="M 173.670662 329.797625 
L 172.336386 271.812815 
" style="fill:none;stroke:#808080;stroke-linecap:square;stroke-width:1.5;"/>
   </g>
   <g id="line2d_9">
    <path clip-path="url(#p3feac8ae5c)" d="M 172.336386 271.812815 
" style="fill:none;stroke:#ff7f0e;stroke-linecap:square;stroke-width:1.5;"/>
    <defs>
     <path d="M 0 5 
C 1.326016 5 2.597899 4.473168 3.535534 3.535534 
C 4.473168 2.597899 5 1.326016 5 0 
C 5 -1.326016 4.473168 -2.597899 3.535534 -3.535534 
C 2.597899 -4.473168 1.326016 -5 0 -5 
C -1.326016 -5 -2.597899 -4.473168 -3.535534 -3.535534 
C -4.473168 -2.597899 -5 -1.326016 -5 0 
C -5 1.326016 -4.473168 2.597899 -3.535534 3.535534 
C -2.597899 4.473168 -1.326016 5 0 5 
z
" id="m5c08a9f641" style="stroke:#808080;"/>
    </defs>
    <g clip-path="url(#p3feac8ae5c)">
     <use style="fill:#404040;stroke:#808080;" x="172.336386" xlink:href="#m5c08a9f641" y="271.812815"/>
    </g>
   </g>
   <g id="line2d_10">
    <path clip-path="url(#p3feac8ae5c)" d="M 213.330774 296.378581 
L 212.460915 239.122552 
" style="fill:none;stroke:#808080;stroke-linecap:square;stroke-width:1.5;"/>
   </g>
   <g id="line2d_11">
    <path clip-path="url(#p3feac8ae5c)" d="M 212.460915 239.122552 
" style="fill:none;stroke:#2ca02c;stroke-linecap:square;stroke-width:1.5;"/>
    <g clip-path="url(#p3feac8ae5c)">
     <use style="fill:#404040;stroke:#808080;" x="212.460915" xlink:href="#m5c08a9f641" y="239.122552"/>
    </g>
   </g>
   <g id="line2d_12">
    <path clip-path="url(#p3feac8ae5c)" d="M 251.531583 264.189199 
L 250.644799 149.864913 
" style="fill:none;stroke:#808080;stroke-linecap:square;stroke-width:1.5;"/>
   </g>
   <g id="line2d_13">
    <path clip-path="url(#p3feac8ae5c)" d="M 250.644799 149.864913 
" style="fill:none;stroke:#d62728;stroke-linecap:square;stroke-width:1.5;"/>
    <defs>
     <path d="M 0 5 
C 1.326016 5 2.597899 4.473168 3.535534 3.535534 
C 4.473168 2.597899 5 1.326016 5 0 
C 5 -1.326016 4.473168 -2.597899 3.535534 -3.535534 
C 2.597899 -4.473168 1.326016 -5 0 -5 
C -1.326016 -5 -2.597899 -4.473168 -3.535534 -3.535534 
C -4.473168 -2.597899 -5 -1.326016 -5 0 
C -5 1.326016 -4.473168 2.597899 -3.535534 3.535534 
C -2.597899 4.473168 -1.326016 5 0 5 
z
" id="m968d76014b" style="stroke:#808080;"/>
    </defs>
    <g clip-path="url(#p3feac8ae5c)">
     <use style="fill:#808080;stroke:#808080;" x="250.644799" xlink:href="#m968d76014b" y="149.864913"/>
    </g>
   </g>
   <g id="line2d_14">
    <path clip-path="url(#p3feac8ae5c)" d="M 198.800743 385.186783 
L 198.800743 385.186783 
" style="fill:none;stroke:#808080;stroke-linecap:square;stroke-width:1.5;"/>
   </g>
   <g id="line2d_15">
    <path clip-path="url(#p3feac8ae5c)" d="M 198.800743 385.186783 
" style="fill:none;stroke:#9467bd;stroke-linecap:square;stroke-width:1.5;"/>
    <g clip-path="url(#p3feac8ae5c)">
     <use style="stroke:#808080;" x="198.800743" xlink:href="#mc0d4238ca6" y="385.186783"/>
    </g>
   </g>
   <g id="line2d_16">
    <path clip-path="url(#p3feac8ae5c)" d="M 239.183715 349.679907 
L 239.183715 349.679907 
" style="fill:none;stroke:#808080;stroke-linecap:square;stroke-width:1.5;"/>
   </g>
   <g id="line2d_17">
    <path clip-path="url(#p3feac8ae5c)" d="M 239.183715 349.679907 
" style="fill:none;stroke:#8c564b;stroke-linecap:square;stroke-width:1.5;"/>
    <g clip-path="url(#p3feac8ae5c)">
     <use style="stroke:#808080;" x="239.183715" xlink:href="#mc0d4238ca6" y="349.679907"/>
    </g>
   </g>
   <g id="line2d_18">
    <path clip-path="url(#p3feac8ae5c)" d="M 278.036376 315.518562 
L 277.722642 198.862384 
" style="fill:none;stroke:#808080;stroke-linecap:square;stroke-width:1.5;"/>
   </g>
   <g id="line2d_19">
    <path clip-path="url(#p3feac8ae5c)" d="M 277.722642 198.862384 
" style="fill:none;stroke:#e377c2;stroke-linecap:square;stroke-width:1.5;"/>
    <g clip-path="url(#p3feac8ae5c)">
     <use style="fill:#808080;stroke:#808080;" x="277.722642" xlink:href="#m968d76014b" y="198.862384"/>
    </g>
   </g>
   <g id="line2d_20">
    <path clip-path="url(#p3feac8ae5c)" d="M 315.444095 282.627687 
L 315.967256 167.458333 
" style="fill:none;stroke:#808080;stroke-linecap:square;stroke-width:1.5;"/>
   </g>
   <g id="line2d_21">
    <path clip-path="url(#p3feac8ae5c)" d="M 315.967256 167.458333 
" style="fill:none;stroke:#7f7f7f;stroke-linecap:square;stroke-width:1.5;"/>
    <g clip-path="url(#p3feac8ae5c)">
     <use style="fill:#808080;stroke:#808080;" x="315.967256" xlink:href="#m968d76014b" y="167.458333"/>
    </g>
   </g>
   <g id="line2d_22">
    <path clip-path="url(#p3feac8ae5c)" d="M 266.661317 406.33082 
L 266.364192 346.729149 
" style="fill:none;stroke:#808080;stroke-linecap:square;stroke-width:1.5;"/>
   </g>
   <g id="line2d_23">
    <path clip-path="url(#p3feac8ae5c)" d="M 266.364192 346.729149 
" style="fill:none;stroke:#bcbd22;stroke-linecap:square;stroke-width:1.5;"/>
    <g clip-path="url(#p3feac8ae5c)">
     <use style="fill:#404040;stroke:#808080;" x="266.364192" xlink:href="#m5c08a9f641" y="346.729149"/>
    </g>
   </g>
   <g id="line2d_24">
    <path clip-path="url(#p3feac8ae5c)" d="M 306.174262 370.010588 
L 306.507857 250.949353 
" style="fill:none;stroke:#808080;stroke-linecap:square;stroke-width:1.5;"/>
   </g>
   <g id="line2d_25">
    <path clip-path="url(#p3feac8ae5c)" d="M 306.507857 250.949353 
" style="fill:none;stroke:#17becf;stroke-linecap:square;stroke-width:1.5;"/>
    <g clip-path="url(#p3feac8ae5c)">
     <use style="fill:#808080;stroke:#808080;" x="306.507857" xlink:href="#m968d76014b" y="250.949353"/>
    </g>
   </g>
   <g id="line2d_26">
    <path clip-path="url(#p3feac8ae5c)" d="M 344.173306 335.081932 
L 345.370519 217.553943 
" style="fill:none;stroke:#808080;stroke-linecap:square;stroke-width:1.5;"/>
   </g>
   <g id="line2d_27">
    <path clip-path="url(#p3feac8ae5c)" d="M 345.370519 217.553943 
" style="fill:none;stroke:#1f77b4;stroke-linecap:square;stroke-width:1.5;"/>
    <g clip-path="url(#p3feac8ae5c)">
     <use style="fill:#808080;stroke:#808080;" x="345.370519" xlink:href="#m968d76014b" y="217.553943"/>
    </g>
   </g>
   <g id="line2d_28">
    <path clip-path="url(#p3feac8ae5c)" d="M 380.743818 301.466379 
L 383.771141 125.453536 
" style="fill:none;stroke:#808080;stroke-linecap:square;stroke-width:1.5;"/>
   </g>
   <g id="line2d_29">
    <path clip-path="url(#p3feac8ae5c)" d="M 383.771141 125.453536 
" style="fill:none;stroke:#ff7f0e;stroke-linecap:square;stroke-width:1.5;"/>
    <defs>
     <path d="M 0 5 
C 1.326016 5 2.597899 4.473168 3.535534 3.535534 
C 4.473168 2.597899 5 1.326016 5 0 
C 5 -1.326016 4.473168 -2.597899 3.535534 -3.535534 
C 2.597899 -4.473168 1.326016 -5 0 -5 
C -1.326016 -5 -2.597899 -4.473168 -3.535534 -3.535534 
C -4.473168 -2.597899 -5 -1.326016 -5 0 
C -5 1.326016 -4.473168 2.597899 -3.535534 3.535534 
C -2.597899 4.473168 -1.326016 5 0 5 
z
" id="mac3b8a7056" style="stroke:#808080;"/>
    </defs>
    <g clip-path="url(#p3feac8ae5c)">
     <use style="fill:#bfbfbf;stroke:#808080;" x="383.771141" xlink:href="#mac3b8a7056" y="125.453536"/>
    </g>
   </g>
   <g id="line2d_30">
    <path clip-path="url(#p3feac8ae5c)" d="M 336.100977 427.966869 
L 337.167187 306.427541 
" style="fill:none;stroke:#808080;stroke-linecap:square;stroke-width:1.5;"/>
   </g>
   <g id="line2d_31">
    <path clip-path="url(#p3feac8ae5c)" d="M 337.167187 306.427541 
" style="fill:none;stroke:#2ca02c;stroke-linecap:square;stroke-width:1.5;"/>
    <g clip-path="url(#p3feac8ae5c)">
     <use style="fill:#808080;stroke:#808080;" x="337.167187" xlink:href="#m968d76014b" y="306.427541"/>
    </g>
   </g>
   <g id="line2d_32">
    <path clip-path="url(#p3feac8ae5c)" d="M 374.692858 390.805009 
L 376.649426 270.845169 
" style="fill:none;stroke:#808080;stroke-linecap:square;stroke-width:1.5;"/>
   </g>
   <g id="line2d_33">
    <path clip-path="url(#p3feac8ae5c)" d="M 376.649426 270.845169 
" style="fill:none;stroke:#d62728;stroke-linecap:square;stroke-width:1.5;"/>
    <g clip-path="url(#p3feac8ae5c)">
     <use style="fill:#808080;stroke:#808080;" x="376.649426" xlink:href="#m968d76014b" y="270.845169"/>
    </g>
   </g>
   <g id="line2d_34">
    <path clip-path="url(#p3feac8ae5c)" d="M 411.78959 355.082896 
L 416.003899 175.387467 
" style="fill:none;stroke:#808080;stroke-linecap:square;stroke-width:1.5;"/>
   </g>
   <g id="line2d_35">
    <path clip-path="url(#p3feac8ae5c)" d="M 416.003899 175.387467 
" style="fill:none;stroke:#9467bd;stroke-linecap:square;stroke-width:1.5;"/>
    <g clip-path="url(#p3feac8ae5c)">
     <use style="fill:#bfbfbf;stroke:#808080;" x="416.003899" xlink:href="#mac3b8a7056" y="175.387467"/>
    </g>
   </g>
   <g id="line2d_36">
    <path clip-path="url(#p3feac8ae5c)" d="M 447.476411 320.718449 
L 449.223337 262.930263 
" style="fill:none;stroke:#808080;stroke-linecap:square;stroke-width:1.5;"/>
   </g>
   <g id="line2d_37">
    <path clip-path="url(#p3feac8ae5c)" d="M 449.223337 262.930263 
" style="fill:none;stroke:#8c564b;stroke-linecap:square;stroke-width:1.5;"/>
    <g clip-path="url(#p3feac8ae5c)">
     <use style="fill:#404040;stroke:#808080;" x="449.223337" xlink:href="#m5c08a9f641" y="262.930263"/>
    </g>
   </g>
   <g id="line2d_38">
    <path clip-path="url(#p3feac8ae5c)" d="M 178.937417 387.704208 
" style="fill:none;stroke:#e377c2;stroke-linecap:square;stroke-width:1.5;"/>
    <defs>
     <path d="M 0 5 
C 1.326016 5 2.597899 4.473168 3.535534 3.535534 
C 4.473168 2.597899 5 1.326016 5 0 
C 5 -1.326016 4.473168 -2.597899 3.535534 -3.535534 
C 2.597899 -4.473168 1.326016 -5 0 -5 
C -1.326016 -5 -2.597899 -4.473168 -3.535534 -3.535534 
C -4.473168 -2.597899 -5 -1.326016 -5 0 
C -5 1.326016 -4.473168 2.597899 -3.535534 3.535534 
C -2.597899 4.473168 -1.326016 5 0 5 
z
" id="ma23202cba4" style="stroke:#990099;"/>
    </defs>
    <g clip-path="url(#p3feac8ae5c)">
     <use style="fill:#990099;stroke:#990099;" x="178.937417" xlink:href="#ma23202cba4" y="387.704208"/>
    </g>
   </g>
   <g id="line2d_39">
    <path clip-path="url(#p3feac8ae5c)" d="M 219.574144 357.605532 
" style="fill:none;stroke:#7f7f7f;stroke-linecap:square;stroke-width:1.5;"/>
    <g clip-path="url(#p3feac8ae5c)">
     <use style="fill:#990099;stroke:#990099;" x="219.574144" xlink:href="#ma23202cba4" y="357.605532"/>
    </g>
   </g>
   <g id="line2d_40">
    <path clip-path="url(#p3feac8ae5c)" d="M 257.762487 199.518152 
" style="fill:none;stroke:#bcbd22;stroke-linecap:square;stroke-width:1.5;"/>
    <g clip-path="url(#p3feac8ae5c)">
     <use style="fill:#990099;stroke:#990099;" x="257.762487" xlink:href="#ma23202cba4" y="199.518152"/>
    </g>
   </g>
   <g id="line2d_41">
    <path clip-path="url(#p3feac8ae5c)" d="M 296.206761 178.941881 
" style="fill:none;stroke:#17becf;stroke-linecap:square;stroke-width:1.5;"/>
    <g clip-path="url(#p3feac8ae5c)">
     <use style="fill:#990099;stroke:#990099;" x="296.206761" xlink:href="#ma23202cba4" y="178.941881"/>
    </g>
   </g>
   <g id="line2d_42">
    <path clip-path="url(#p3feac8ae5c)" d="M 250.775204 316.417025 
L 250.076579 228.894572 
" style="fill:none;stroke:#ff0000;stroke-linecap:square;stroke-width:1.5;"/>
   </g>
   <g id="line2d_43">
    <path clip-path="url(#p3feac8ae5c)" d="M 250.076579 228.894572 
" style="fill:none;stroke:#1f77b4;stroke-linecap:square;stroke-width:1.5;"/>
    <defs>
     <path d="M 0 5 
C 1.326016 5 2.597899 4.473168 3.535534 3.535534 
C 4.473168 2.597899 5 1.326016 5 0 
C 5 -1.326016 4.473168 -2.597899 3.535534 -3.535534 
C 2.597899 -4.473168 1.326016 -5 0 -5 
C -1.326016 -5 -2.597899 -4.473168 -3.535534 -3.535534 
C -4.473168 -2.597899 -5 -1.326016 -5 0 
C -5 1.326016 -4.473168 2.597899 -3.535534 3.535534 
C -2.597899 4.473168 -1.326016 5 0 5 
z
" id="m6e793cb216" style="stroke:#ff0000;"/>
    </defs>
    <g clip-path="url(#p3feac8ae5c)">
     <use style="fill:#ff0000;stroke:#ff0000;" x="250.076579" xlink:href="#m6e793cb216" y="228.894572"/>
    </g>
   </g>
  </g>
 </g>
 <defs>
  <clipPath id="p3feac8ae5c">
   <rect height="554.4" width="554.4" x="7.2" y="7.2"/>
  </clipPath>
 </defs>
</svg>
