<?xml version="1.0" encoding="utf-8" standalone="no"?>
<!DOCTYPE svg PUBLIC "-//W3C//DTD SVG 1.1//EN"
  "http://www.w3.org/Graphics/SVG/1.1/DTD/svg11.dtd">
<svg height="568.8pt" version="1.1" viewBox="0 0 568.8 568.8" width="568.8pt" xmlns="http://www.w3.org/2000/svg" xmlns:xlink="http://www.w3.org/1999/xlink">
 <metadata>
  <rdf:RDF xmlns:cc="http://creativecommons.org/ns#" xmlns:dc="http://purl.org/dc/elements/1.1/" xmlns:rdf="http://www.w3.org/1999/02/22-rdf-syntax-ns#">
   <cc:Work>
    <dc:type rdf:resource="http://purl.org/dc/dcmitype/StillImage"/>
    <dc:date>2024-08-12T15:59:44.712082</dc:date>
    <dc:format>image/svg+xml</dc:format>
    <dc:creator>
     <cc:Agent>
      <dc:title>Matplotlib v3.4.3, https://matplotlib.org/</dc:title>
     </cc:Agent>
    </dc:creator>
   </cc:Work>
  </rdf:RDF>
 </metadata>
 <defs>
  <style type="text/css">*{stroke-linecap:butt;stroke-linejoin:round;}</style>
 </defs>
 <g id="figure_1">
  <g id="patch_1">
   <path d="M 0 568.8 
L 568.8 568.8 
L 568.8 0 
L 0 0 
z
" style="fill:none;"/>
  </g>
  <g id="patch_2">
   <path d="M 7.2 561.6 
L 561.6 561.6 
L 561.6 7.2 
L 7.2 7.2 
z
" style="fill:#ffffff;"/>
  </g>
  <g id="axes_1">
   <g id="Poly3DCollection_1">
    <path clip-path="url(#pe96e1e3b44)" d="M 201.709573 313.208597 
L 264.813568 332.091472 
L 301.623075 299.636655 
L 239.271977 281.430556 
z
" style="fill:#aaaaaa;stroke:#aaaaaa;"/>
    <path clip-path="url(#pe96e1e3b44)" d="M 264.813568 332.091472 
L 329.281246 351.382409 
L 365.296834 318.228962 
L 301.623075 299.636655 
z
" style="fill:#aaaaaa;stroke:#aaaaaa;"/>
    <path clip-path="url(#pe96e1e3b44)" d="M 162.745275 346.17265 
L 226.615302 365.770753 
L 264.813568 332.091472 
L 201.709573 313.208597 
z
" style="fill:#555555;stroke:#555555;"/>
    <path clip-path="url(#pe96e1e3b44)" d="M 329.281246 351.382409 
L 395.157297 371.094779 
L 430.335792 337.219898 
L 365.296834 318.228962 
z
" style="fill:#ffffff;stroke:#ffffff;"/>
    <path clip-path="url(#pe96e1e3b44)" d="M 226.615302 365.770753 
L 291.891892 385.80045 
L 329.281246 351.382409 
L 264.813568 332.091472 
z
" style="fill:#aaaaaa;stroke:#aaaaaa;"/>
    <path clip-path="url(#pe96e1e3b44)" d="M 395.157297 371.094779 
L 462.48838 391.242544 
L 496.78433 356.622422 
L 430.335792 337.219898 
z
" style="fill:#555555;stroke:#555555;"/>
    <path clip-path="url(#pe96e1e3b44)" d="M 122.299107 380.390375 
L 186.948174 400.745124 
L 226.615302 365.770753 
L 162.745275 346.17265 
z
" style="fill:#555555;stroke:#555555;"/>
    <path clip-path="url(#pe96e1e3b44)" d="M 291.891892 385.80045 
L 358.622025 406.276158 
L 395.157297 371.094779 
L 329.281246 351.382409 
z
" style="fill:#aaaaaa;stroke:#aaaaaa;"/>
    <path clip-path="url(#pe96e1e3b44)" d="M 186.948174 400.745124 
L 253.048642 421.556847 
L 291.891892 385.80045 
L 226.615302 365.770753 
z
" style="stroke:#000000;"/>
    <path clip-path="url(#pe96e1e3b44)" d="M 358.622025 406.276158 
L 426.854798 427.212941 
L 462.48838 391.242544 
L 395.157297 371.094779 
z
" style="fill:#ffffff;stroke:#ffffff;"/>
    <path clip-path="url(#pe96e1e3b44)" d="M 80.284894 415.934676 
L 145.725799 437.090753 
L 186.948174 400.745124 
L 122.299107 380.390375 
z
" style="stroke:#000000;"/>
    <path clip-path="url(#pe96e1e3b44)" d="M 253.048642 421.556847 
L 320.64994 442.841106 
L 358.622025 406.276158 
L 291.891892 385.80045 
z
" style="fill:#aaaaaa;stroke:#aaaaaa;"/>
    <path clip-path="url(#pe96e1e3b44)" d="M 145.725799 437.090753 
L 212.665011 458.73121 
L 253.048642 421.556847 
L 186.948174 400.745124 
z
" style="stroke:#000000;"/>
    <path clip-path="url(#pe96e1e3b44)" d="M 320.64994 442.841106 
L 389.803772 464.61418 
L 426.854798 427.212941 
L 358.622025 406.276158 
z
" style="fill:#aaaaaa;stroke:#aaaaaa;"/>
    <path clip-path="url(#pe96e1e3b44)" d="M 212.665011 458.73121 
L 281.154584 480.872877 
L 320.64994 442.841106 
L 253.048642 421.556847 
z
" style="fill:#555555;stroke:#555555;"/>
    <path clip-path="url(#pe96e1e3b44)" d="M 281.154584 480.872877 
L 351.24901 503.533368 
L 389.803772 464.61418 
L 320.64994 442.841106 
z
" style="fill:#aaaaaa;stroke:#aaaaaa;"/>
   </g>
   <g id="line2d_1">
    <path clip-path="url(#pe96e1e3b44)" d="M 133.83411 408.308916 
L 135.805727 408.937885 
L 137.778677 409.567279 
L 139.752961 410.197099 
L 141.72858 410.827345 
L 143.705536 411.458017 
L 145.68383 412.089116 
L 147.663464 412.720642 
L 149.644438 413.352597 
L 151.626755 413.984979 
L 153.610416 414.61779 
L 155.595421 415.25103 
L 157.581773 415.8847 
L 159.569472 416.518799 
L 161.558521 417.153329 
L 163.54892 417.78829 
L 165.540671 418.423682 
L 167.533775 419.059506 
L 169.528234 419.695762 
L 171.524048 420.33245 
L 173.52122 420.969571 
L 175.519751 421.607126 
L 177.519642 422.245115 
L 179.520894 422.883538 
L 181.52351 423.522396 
L 183.527489 424.161689 
L 185.532835 424.801418 
L 187.539547 425.441583 
L 189.547628 426.082184 
L 191.557079 426.723223 
L 193.567901 427.364699 
L 195.580096 428.006613 
L 197.593665 428.648965 
L 199.608609 429.291756 
L 201.585739 427.747811 
L 203.565939 426.201468 
L 205.549217 424.652722 
L 207.535581 423.101566 
L 209.525037 421.547996 
L 211.517593 419.992005 
L 213.513256 418.433587 
L 215.512033 416.872738 
L 217.513931 415.309451 
L 219.518958 413.743721 
L 221.527122 412.175542 
L 223.538429 410.604908 
L 225.552886 409.031813 
L 227.570503 407.456253 
L 229.591284 405.87822 
L 231.61524 404.297709 
L 233.642375 402.714714 
L 235.672699 401.129229 
L 237.706219 399.54125 
L 239.742942 397.950768 
L 241.782876 396.357779 
L 243.826028 394.762277 
L 245.872406 393.164256 
L 247.922018 391.56371 
L 249.974872 389.960632 
L 252.030974 388.355017 
L 254.090334 386.746859 
L 256.152958 385.136151 
L 258.218854 383.522889 
L 260.28803 381.907064 
L 262.360494 380.288672 
L 264.436254 378.667707 
L 266.515318 377.044162 
L 268.597693 375.41803 
L 270.683387 373.789307 
L 272.772409 372.157985 
L 274.864767 370.524059 
L 276.960467 368.887522 
L 279.059519 367.248367 
L 281.161931 365.60659 
L 283.26771 363.962182 
L 285.376864 362.315139 
L 287.489402 360.665453 
L 289.605332 359.013119 
L 291.724663 357.358129 
L 293.847401 355.700478 
L 295.973556 354.04016 
L 298.103135 352.377166 
L 300.236148 350.711492 
L 302.372602 349.043131 
L 304.512505 347.372075 
L 306.655867 345.69832 
L 308.802695 344.021857 
L 310.952997 342.342681 
L 313.106783 340.660785 
L 315.264061 338.976162 
L 317.424839 337.288806 
L 319.589125 335.59871 
L 321.756929 333.905867 
L 323.928259 332.210271 
L 326.103123 330.511915 
L 328.281531 328.810792 
L 330.46349 327.106895 
L 332.64901 325.400218 
L 334.838099 323.690753 
L 337.030766 321.978495 
" style="fill:none;stroke:#990099;stroke-linecap:square;stroke-width:1.5;"/>
   </g>
   <g id="line2d_2">
    <path clip-path="url(#pe96e1e3b44)" d="M 173.014873 301.298426 
L 175.039449 304.092705 
L 177.063657 306.886477 
L 179.087498 309.679742 
L 181.110972 312.472499 
L 183.134079 315.26475 
L 185.156818 318.056494 
L 187.17919 320.847731 
L 189.201196 323.638462 
L 191.222834 326.428687 
L 193.244106 329.218406 
L 195.265011 332.007618 
L 197.28555 334.796325 
L 199.305722 337.584526 
L 201.325528 340.372221 
L 203.344968 343.159411 
L 205.364041 345.946095 
L 207.382749 348.732275 
L 209.40109 351.517949 
L 211.419066 354.303118 
L 213.436676 357.087783 
L 215.45392 359.871943 
L 217.470799 362.655598 
L 219.487312 365.438749 
L 221.503461 368.221396 
L 223.519243 371.003539 
L 225.534661 373.785177 
L 227.549714 376.566312 
L 229.564401 379.346944 
L 231.578724 382.127071 
L 233.592682 384.906696 
L 235.606276 387.685817 
L 237.619505 390.464434 
L 239.632369 393.242549 
L 241.580648 389.53829 
L 243.533559 385.825222 
L 245.491119 382.103315 
L 247.453345 378.372537 
L 249.420254 374.632856 
L 251.391862 370.88424 
L 253.368186 367.126658 
L 255.349244 363.360076 
L 257.335051 359.584463 
L 259.325626 355.799786 
L 261.320985 352.006013 
L 263.321145 348.203109 
L 265.326125 344.391044 
L 267.335941 340.569783 
L 269.350612 336.739293 
L 271.370153 332.899541 
L 273.394585 329.050492 
L 275.423923 325.192114 
L 277.458186 321.324372 
L 279.497392 317.447233 
L 281.541559 313.560661 
L 283.590705 309.664622 
L 285.644848 305.759082 
L 287.704007 301.844006 
L 289.7682 297.919359 
L 291.837445 293.985106 
L 293.911761 290.041211 
L 295.991167 286.087639 
L 298.075681 282.124355 
L 300.165323 278.151322 
L 302.260111 274.168505 
L 304.360064 270.175866 
L 306.465201 266.173371 
L 308.56076 266.773095 
L 310.657781 267.373238 
L 312.756266 267.9738 
L 314.856216 268.574781 
L 316.957633 269.176181 
L 319.060519 269.778002 
L 321.164874 270.380244 
L 323.270701 270.982907 
L 325.378002 271.585992 
L 327.486776 272.189498 
L 329.597028 272.793427 
L 331.708756 273.397779 
L 333.821964 274.002554 
L 335.936653 274.607753 
L 338.052825 275.213376 
L 340.17048 275.819424 
L 342.289621 276.425898 
L 344.410249 277.032796 
L 346.532365 277.640121 
L 348.655972 278.247872 
L 350.78107 278.85605 
L 352.907662 279.464656 
L 355.035749 280.073689 
L 357.165333 280.683151 
L 359.296414 281.293041 
L 361.428995 281.903361 
L 363.563078 282.51411 
L 365.698663 283.125289 
L 367.835753 283.736899 
L 369.974348 284.34894 
L 372.114452 284.961412 
L 374.256064 285.574317 
L 376.399187 286.187653 
" style="fill:none;stroke:#990099;stroke-linecap:square;stroke-width:1.5;"/>
   </g>
   <g id="line2d_3">
    <path clip-path="url(#pe96e1e3b44)" d="M 212.903198 268.234548 
L 214.821529 266.623659 
L 216.742737 265.010356 
L 218.666827 263.394633 
L 220.593806 261.776484 
L 222.52368 260.155903 
L 224.456456 258.532886 
L 226.39214 256.907426 
L 228.33074 255.279518 
L 230.272261 253.649157 
L 232.21671 252.016337 
L 234.164094 250.381053 
L 236.114419 248.743299 
L 238.067693 247.103069 
L 240.023922 245.460357 
L 241.983112 243.815159 
L 243.94527 242.167468 
L 245.910404 240.517279 
L 247.878519 238.864586 
L 249.849623 237.209383 
L 251.823722 235.551665 
L 253.800824 233.891426 
L 255.780935 232.22866 
L 257.764061 230.563361 
L 259.750211 228.895524 
L 261.73939 227.225143 
L 263.731606 225.552212 
L 265.726866 223.876725 
L 267.725176 222.198676 
L 269.726544 220.518059 
L 271.730977 218.834869 
L 273.738481 217.1491 
L 275.749065 215.460745 
L 277.762734 213.769799 
L 279.784699 214.333518 
L 281.808031 214.897619 
L 283.832733 215.462102 
L 285.858806 216.026967 
L 287.88625 216.592214 
L 289.915069 217.157845 
L 291.945262 217.723858 
L 293.976831 218.290256 
L 296.009778 218.857037 
L 298.044105 219.424203 
L 300.079812 219.991754 
L 302.1169 220.55969 
L 304.155372 221.128012 
L 306.195229 221.69672 
L 308.236472 222.265814 
L 310.279102 222.835295 
L 312.323122 223.405164 
L 314.368532 223.97542 
L 316.415333 224.546064 
L 318.463528 225.117096 
L 320.513117 225.688517 
L 322.564103 226.260328 
L 324.616486 226.832528 
L 326.670268 227.405118 
L 328.72545 227.978099 
L 330.782035 228.55147 
L 332.840022 229.125233 
L 334.899414 229.699387 
L 336.960212 230.273933 
L 339.022418 230.848872 
L 341.086033 231.424204 
L 343.151058 231.999928 
L 345.217495 232.576047 
L 347.309416 230.87799 
L 349.40459 229.177293 
L 351.503023 227.47395 
L 353.604724 225.767955 
L 355.709699 224.059302 
L 357.817957 222.347984 
L 359.929505 220.633995 
L 362.04435 218.91733 
L 364.162502 217.197982 
L 366.283967 215.475943 
L 368.408753 213.751209 
L 370.536868 212.023773 
L 372.66832 210.293629 
L 374.803116 208.560769 
L 376.941265 206.825188 
L 379.082774 205.086879 
L 381.227652 203.345836 
L 383.375906 201.602053 
L 385.527545 199.855522 
L 387.682575 198.106238 
L 389.841006 196.354194 
L 392.002845 194.599383 
L 394.168101 192.841799 
L 396.336782 191.081435 
L 398.508895 189.318284 
L 400.684449 187.552341 
L 402.863452 185.783598 
L 405.045912 184.012048 
L 407.231837 182.237686 
L 409.421237 180.460504 
L 411.614118 178.680496 
L 413.81049 176.897654 
L 416.010361 175.111972 
" style="fill:none;stroke:#990099;stroke-linecap:square;stroke-width:1.5;"/>
   </g>
   <g id="line2d_4">
    <path clip-path="url(#pe96e1e3b44)" d="M 250.758056 164.465968 
L 252.711338 164.996831 
L 254.665903 165.528042 
L 256.621752 166.059602 
L 258.578885 166.591511 
L 260.537304 167.12377 
L 262.497011 167.656378 
L 264.458007 168.189337 
L 266.420292 168.722647 
L 268.383869 169.256307 
L 270.348739 169.790319 
L 272.314902 170.324682 
L 274.28236 170.859397 
L 276.251115 171.394465 
L 278.221167 171.929885 
L 280.192518 172.465658 
L 282.165169 173.001785 
L 284.139122 173.538266 
L 286.114378 174.0751 
L 288.090937 174.612289 
L 290.068802 175.149832 
L 292.047974 175.687731 
L 294.028454 176.225985 
L 296.010242 176.764596 
L 297.993342 177.303562 
L 299.977753 177.842885 
L 301.963478 178.382564 
L 303.950516 178.922601 
L 305.938871 179.462996 
L 307.928543 180.003748 
L 309.919533 180.544859 
L 311.911843 181.086328 
L 313.905473 181.628157 
L 315.900426 182.170344 
L 317.907665 180.485119 
L 319.917931 178.797352 
L 321.931231 177.107038 
L 323.947571 175.414171 
L 325.966959 173.718746 
L 327.989401 172.020756 
L 330.014905 170.320196 
L 332.043477 168.61706 
L 334.075124 166.911342 
L 336.109854 165.203036 
L 338.147673 163.492136 
L 340.188589 161.778636 
L 342.232607 160.062531 
L 344.279737 158.343815 
L 346.329984 156.622481 
L 348.383356 154.898524 
L 350.439859 153.171937 
L 352.499502 151.442714 
L 354.562291 149.71085 
L 356.628234 147.976339 
L 358.697337 146.239174 
L 360.769608 144.499349 
L 362.845055 142.756858 
L 364.923684 141.011695 
L 367.005503 139.263854 
L 369.090519 137.513329 
L 371.17874 135.760113 
L 373.270173 134.004201 
L 375.364825 132.245585 
L 377.462704 130.48426 
L 379.563818 128.72022 
L 381.668173 126.953459 
L 383.775777 125.183969 
L 385.764896 130.3334 
L 387.751932 135.477443 
L 389.73689 140.616104 
L 391.719773 145.749393 
L 393.700584 150.877318 
L 395.679326 155.999887 
L 397.656002 161.117109 
L 399.630616 166.228993 
L 401.603171 171.335545 
L 403.57367 176.436776 
L 405.542117 181.532692 
L 407.508514 186.623303 
L 409.472865 191.708617 
L 411.435172 196.788642 
L 413.39544 201.863385 
L 415.353672 206.932857 
L 417.309869 211.997064 
L 419.264037 217.056015 
L 421.216177 222.109717 
L 423.166293 227.15818 
L 425.114389 232.201412 
L 427.060466 237.23942 
L 429.004529 242.272212 
L 430.946581 247.299797 
L 432.886624 252.322183 
L 434.824662 257.339378 
L 436.760697 262.351389 
L 438.694734 267.358226 
L 440.626775 272.359895 
L 442.556823 277.356405 
L 444.484881 282.347764 
L 446.410952 287.33398 
L 448.33504 292.31506 
" style="fill:none;stroke:#990099;stroke-linecap:square;stroke-width:1.5;"/>
   </g>
   <g id="line2d_5">
    <path clip-path="url(#pe96e1e3b44)" d="M 179.721095 422.947404 
L 180.950057 421.18764 
L 182.177891 419.429493 
L 183.404596 417.672961 
L 184.630176 415.918041 
L 185.85463 414.164732 
L 187.077962 412.413032 
L 188.300172 410.662937 
L 189.521262 408.914446 
L 190.741233 407.167557 
L 191.960087 405.422267 
L 193.177826 403.678574 
L 194.394451 401.936476 
L 195.609964 400.195971 
L 196.824366 398.457057 
L 198.037658 396.719731 
L 199.249843 394.983992 
L 200.460921 393.249837 
L 201.670895 391.517263 
L 202.879765 389.78627 
L 204.087533 388.056854 
L 205.294202 386.329013 
L 206.499771 384.602746 
L 207.704243 382.87805 
L 208.90762 381.154924 
L 210.109902 379.433364 
L 211.311091 377.713368 
L 212.511189 375.994936 
L 213.710198 374.278064 
L 214.908117 372.56275 
L 216.104951 370.848992 
L 217.300698 369.136789 
L 218.495362 367.426138 
L 219.688944 365.717036 
L 220.848175 361.618452 
L 222.007442 357.519741 
L 223.166745 353.420903 
L 224.326084 349.321938 
L 225.485458 345.222846 
L 226.644869 341.123627 
L 227.804316 337.024281 
L 228.963798 332.924808 
L 230.123317 328.825208 
L 231.282871 324.725481 
L 232.442461 320.625627 
L 233.602088 316.525646 
L 234.76175 312.425538 
L 235.921448 308.325303 
L 237.081182 304.224941 
L 238.240952 300.124451 
L 239.400758 296.023835 
L 240.560599 291.923092 
L 241.720477 287.822222 
L 242.880391 283.721224 
L 244.040341 279.6201 
L 245.200326 275.518848 
L 246.360348 271.417469 
L 247.520405 267.315964 
L 248.680498 263.214331 
L 249.840628 259.112571 
L 251.000793 255.010684 
L 252.160994 250.90867 
L 253.321232 246.806528 
L 254.481505 242.70426 
L 255.641814 238.601865 
L 256.802159 234.499342 
L 257.96254 230.396692 
L 259.13831 228.749572 
L 260.313016 227.103944 
L 261.486658 225.459805 
L 262.659238 223.817154 
L 263.830758 222.175989 
L 265.001218 220.536307 
L 266.170621 218.898108 
L 267.338967 217.261387 
L 268.506259 215.626145 
L 269.672497 213.992378 
L 270.837684 212.360085 
L 272.00182 210.729263 
L 273.164906 209.099912 
L 274.326946 207.472027 
L 275.487938 205.845609 
L 276.647886 204.220654 
L 277.806791 202.597161 
L 278.964653 200.975128 
L 280.121475 199.354553 
L 281.277258 197.735434 
L 282.432002 196.117768 
L 283.585711 194.501554 
L 284.738384 192.886791 
L 285.890023 191.273475 
L 287.040631 189.661606 
L 288.190207 188.05118 
L 289.338754 186.442197 
L 290.486273 184.834654 
L 291.632765 183.22855 
L 292.778232 181.623881 
L 293.922674 180.020648 
L 295.066094 178.418847 
L 296.208493 176.818476 
" style="fill:none;stroke:#ff0000;stroke-linecap:square;stroke-width:1.5;"/>
   </g>
   <g id="line2d_6">
    <path clip-path="url(#pe96e1e3b44)" d="M 133.83411 408.308916 
L 133.83411 408.308916 
" style="fill:none;stroke:#808080;stroke-linecap:square;stroke-width:1.5;"/>
   </g>
   <g id="line2d_7">
    <path clip-path="url(#pe96e1e3b44)" d="M 133.83411 408.308916 
" style="fill:none;stroke:#1f77b4;stroke-linecap:square;stroke-width:1.5;"/>
    <defs>
     <path d="M 0 5 
C 1.326016 5 2.597899 4.473168 3.535534 3.535534 
C 4.473168 2.597899 5 1.326016 5 0 
C 5 -1.326016 4.473168 -2.597899 3.535534 -3.535534 
C 2.597899 -4.473168 1.326016 -5 0 -5 
C -1.326016 -5 -2.597899 -4.473168 -3.535534 -3.535534 
C -4.473168 -2.597899 -5 -1.326016 -5 0 
C -5 1.326016 -4.473168 2.597899 -3.535534 3.535534 
C -2.597899 4.473168 -1.326016 5 0 5 
z
" id="m8368bd1851" style="stroke:#808080;"/>
    </defs>
    <g clip-path="url(#pe96e1e3b44)">
     <use style="stroke:#808080;" x="133.83411" xlink:href="#m8368bd1851" y="408.308916"/>
    </g>
   </g>
   <g id="line2d_8">
    <path clip-path="url(#pe96e1e3b44)" d="M 174.665963 373.051307 
L 173.014873 301.298426 
" style="fill:none;stroke:#808080;stroke-linecap:square;stroke-width:1.5;"/>
   </g>
   <g id="line2d_9">
    <path clip-path="url(#pe96e1e3b44)" d="M 173.014873 301.298426 
" style="fill:none;stroke:#ff7f0e;stroke-linecap:square;stroke-width:1.5;"/>
    <defs>
     <path d="M 0 5 
C 1.326016 5 2.597899 4.473168 3.535534 3.535534 
C 4.473168 2.597899 5 1.326016 5 0 
C 5 -1.326016 4.473168 -2.597899 3.535534 -3.535534 
C 2.597899 -4.473168 1.326016 -5 0 -5 
C -1.326016 -5 -2.597899 -4.473168 -3.535534 -3.535534 
C -4.473168 -2.597899 -5 -1.326016 -5 0 
C -5 1.326016 -4.473168 2.597899 -3.535534 3.535534 
C -2.597899 4.473168 -1.326016 5 0 5 
z
" id="m40a5871725" style="stroke:#808080;"/>
    </defs>
    <g clip-path="url(#pe96e1e3b44)">
     <use style="fill:#404040;stroke:#808080;" x="173.014873" xlink:href="#m40a5871725" y="301.298426"/>
    </g>
   </g>
   <g id="line2d_10">
    <path clip-path="url(#pe96e1e3b44)" d="M 213.979884 339.104406 
L 212.903198 268.234548 
" style="fill:none;stroke:#808080;stroke-linecap:square;stroke-width:1.5;"/>
   </g>
   <g id="line2d_11">
    <path clip-path="url(#pe96e1e3b44)" d="M 212.903198 268.234548 
" style="fill:none;stroke:#2ca02c;stroke-linecap:square;stroke-width:1.5;"/>
    <g clip-path="url(#pe96e1e3b44)">
     <use style="fill:#404040;stroke:#808080;" x="212.903198" xlink:href="#m40a5871725" y="268.234548"/>
    </g>
   </g>
   <g id="line2d_12">
    <path clip-path="url(#pe96e1e3b44)" d="M 251.858974 306.396457 
L 250.758056 164.465968 
" style="fill:none;stroke:#808080;stroke-linecap:square;stroke-width:1.5;"/>
   </g>
   <g id="line2d_13">
    <path clip-path="url(#pe96e1e3b44)" d="M 250.758056 164.465968 
" style="fill:none;stroke:#d62728;stroke-linecap:square;stroke-width:1.5;"/>
    <defs>
     <path d="M 0 5 
C 1.326016 5 2.597899 4.473168 3.535534 3.535534 
C 4.473168 2.597899 5 1.326016 5 0 
C 5 -1.326016 4.473168 -2.597899 3.535534 -3.535534 
C 2.597899 -4.473168 1.326016 -5 0 -5 
C -1.326016 -5 -2.597899 -4.473168 -3.535534 -3.535534 
C -4.473168 -2.597899 -5 -1.326016 -5 0 
C -5 1.326016 -4.473168 2.597899 -3.535534 3.535534 
C -2.597899 4.473168 -1.326016 5 0 5 
z
" id="m0095783821" style="stroke:#808080;"/>
    </defs>
    <g clip-path="url(#pe96e1e3b44)">
     <use style="fill:#808080;stroke:#808080;" x="250.758056" xlink:href="#m0095783821" y="164.465968"/>
    </g>
   </g>
   <g id="line2d_14">
    <path clip-path="url(#pe96e1e3b44)" d="M 199.608609 429.291756 
L 199.608609 429.291756 
" style="fill:none;stroke:#808080;stroke-linecap:square;stroke-width:1.5;"/>
   </g>
   <g id="line2d_15">
    <path clip-path="url(#pe96e1e3b44)" d="M 199.608609 429.291756 
" style="fill:none;stroke:#9467bd;stroke-linecap:square;stroke-width:1.5;"/>
    <g clip-path="url(#pe96e1e3b44)">
     <use style="stroke:#808080;" x="199.608609" xlink:href="#m8368bd1851" y="429.291756"/>
    </g>
   </g>
   <g id="line2d_16">
    <path clip-path="url(#pe96e1e3b44)" d="M 239.632369 393.242549 
L 239.632369 393.242549 
" style="fill:none;stroke:#808080;stroke-linecap:square;stroke-width:1.5;"/>
   </g>
   <g id="line2d_17">
    <path clip-path="url(#pe96e1e3b44)" d="M 239.632369 393.242549 
" style="fill:none;stroke:#8c564b;stroke-linecap:square;stroke-width:1.5;"/>
    <g clip-path="url(#pe96e1e3b44)">
     <use style="stroke:#808080;" x="239.632369" xlink:href="#m8368bd1851" y="393.242549"/>
    </g>
   </g>
   <g id="line2d_18">
    <path clip-path="url(#pe96e1e3b44)" d="M 278.152098 358.548016 
L 277.762734 213.769799 
" style="fill:none;stroke:#808080;stroke-linecap:square;stroke-width:1.5;"/>
   </g>
   <g id="line2d_19">
    <path clip-path="url(#pe96e1e3b44)" d="M 277.762734 213.769799 
" style="fill:none;stroke:#e377c2;stroke-linecap:square;stroke-width:1.5;"/>
    <g clip-path="url(#pe96e1e3b44)">
     <use style="fill:#808080;stroke:#808080;" x="277.762734" xlink:href="#m0095783821" y="213.769799"/>
    </g>
   </g>
   <g id="line2d_20">
    <path clip-path="url(#pe96e1e3b44)" d="M 315.251013 325.133203 
L 315.900426 182.170344 
" style="fill:none;stroke:#808080;stroke-linecap:square;stroke-width:1.5;"/>
   </g>
   <g id="line2d_21">
    <path clip-path="url(#pe96e1e3b44)" d="M 315.900426 182.170344 
" style="fill:none;stroke:#7f7f7f;stroke-linecap:square;stroke-width:1.5;"/>
    <g clip-path="url(#pe96e1e3b44)">
     <use style="fill:#808080;stroke:#808080;" x="315.900426" xlink:href="#m0095783821" y="182.170344"/>
    </g>
   </g>
   <g id="line2d_22">
    <path clip-path="url(#pe96e1e3b44)" d="M 266.88277 450.753006 
L 266.515318 377.044162 
" style="fill:none;stroke:#808080;stroke-linecap:square;stroke-width:1.5;"/>
   </g>
   <g id="line2d_23">
    <path clip-path="url(#pe96e1e3b44)" d="M 266.515318 377.044162 
" style="fill:none;stroke:#bcbd22;stroke-linecap:square;stroke-width:1.5;"/>
    <g clip-path="url(#pe96e1e3b44)">
     <use style="fill:#404040;stroke:#808080;" x="266.515318" xlink:href="#m40a5871725" y="377.044162"/>
    </g>
   </g>
   <g id="line2d_24">
    <path clip-path="url(#pe96e1e3b44)" d="M 306.051331 413.885239 
L 306.465201 266.173371 
" style="fill:none;stroke:#808080;stroke-linecap:square;stroke-width:1.5;"/>
   </g>
   <g id="line2d_25">
    <path clip-path="url(#pe96e1e3b44)" d="M 306.465201 266.173371 
" style="fill:none;stroke:#17becf;stroke-linecap:square;stroke-width:1.5;"/>
    <g clip-path="url(#pe96e1e3b44)">
     <use style="fill:#808080;stroke:#808080;" x="306.465201" xlink:href="#m0095783821" y="266.173371"/>
    </g>
   </g>
   <g id="line2d_26">
    <path clip-path="url(#pe96e1e3b44)" d="M 343.731857 378.418099 
L 345.217495 232.576047 
" style="fill:none;stroke:#808080;stroke-linecap:square;stroke-width:1.5;"/>
   </g>
   <g id="line2d_27">
    <path clip-path="url(#pe96e1e3b44)" d="M 345.217495 232.576047 
" style="fill:none;stroke:#1f77b4;stroke-linecap:square;stroke-width:1.5;"/>
    <g clip-path="url(#pe96e1e3b44)">
     <use style="fill:#808080;stroke:#808080;" x="345.217495" xlink:href="#m0095783821" y="232.576047"/>
    </g>
   </g>
   <g id="line2d_28">
    <path clip-path="url(#pe96e1e3b44)" d="M 380.007564 344.273258 
L 383.775777 125.183969 
" style="fill:none;stroke:#808080;stroke-linecap:square;stroke-width:1.5;"/>
   </g>
   <g id="line2d_29">
    <path clip-path="url(#pe96e1e3b44)" d="M 383.775777 125.183969 
" style="fill:none;stroke:#ff7f0e;stroke-linecap:square;stroke-width:1.5;"/>
    <defs>
     <path d="M 0 5 
C 1.326016 5 2.597899 4.473168 3.535534 3.535534 
C 4.473168 2.597899 5 1.326016 5 0 
C 5 -1.326016 4.473168 -2.597899 3.535534 -3.535534 
C 2.597899 -4.473168 1.326016 -5 0 -5 
C -1.326016 -5 -2.597899 -4.473168 -3.535534 -3.535534 
C -4.473168 -2.597899 -5 -1.326016 -5 0 
C -5 1.326016 -4.473168 2.597899 -3.535534 3.535534 
C -2.597899 4.473168 -1.326016 5 0 5 
z
" id="m8e19edfd1e" style="stroke:#808080;"/>
    </defs>
    <g clip-path="url(#pe96e1e3b44)">
     <use style="fill:#bfbfbf;stroke:#808080;" x="383.775777" xlink:href="#m8e19edfd1e" y="125.183969"/>
    </g>
   </g>
   <g id="line2d_30">
    <path clip-path="url(#pe96e1e3b44)" d="M 335.708472 472.709216 
L 337.030766 321.978495 
" style="fill:none;stroke:#808080;stroke-linecap:square;stroke-width:1.5;"/>
   </g>
   <g id="line2d_31">
    <path clip-path="url(#pe96e1e3b44)" d="M 337.030766 321.978495 
" style="fill:none;stroke:#2ca02c;stroke-linecap:square;stroke-width:1.5;"/>
    <g clip-path="url(#pe96e1e3b44)">
     <use style="fill:#808080;stroke:#808080;" x="337.030766" xlink:href="#m0095783821" y="321.978495"/>
    </g>
   </g>
   <g id="line2d_32">
    <path clip-path="url(#pe96e1e3b44)" d="M 373.972115 434.994687 
L 376.399187 286.187653 
" style="fill:none;stroke:#808080;stroke-linecap:square;stroke-width:1.5;"/>
   </g>
   <g id="line2d_33">
    <path clip-path="url(#pe96e1e3b44)" d="M 376.399187 286.187653 
" style="fill:none;stroke:#d62728;stroke-linecap:square;stroke-width:1.5;"/>
    <g clip-path="url(#pe96e1e3b44)">
     <use style="fill:#808080;stroke:#808080;" x="376.399187" xlink:href="#m0095783821" y="286.187653"/>
    </g>
   </g>
   <g id="line2d_34">
    <path clip-path="url(#pe96e1e3b44)" d="M 410.765983 398.728842 
L 416.010361 175.111972 
" style="fill:none;stroke:#808080;stroke-linecap:square;stroke-width:1.5;"/>
   </g>
   <g id="line2d_35">
    <path clip-path="url(#pe96e1e3b44)" d="M 416.010361 175.111972 
" style="fill:none;stroke:#9467bd;stroke-linecap:square;stroke-width:1.5;"/>
    <g clip-path="url(#pe96e1e3b44)">
     <use style="fill:#bfbfbf;stroke:#808080;" x="416.010361" xlink:href="#m8e19edfd1e" y="175.111972"/>
    </g>
   </g>
   <g id="line2d_36">
    <path clip-path="url(#pe96e1e3b44)" d="M 446.173163 363.829784 
L 448.33504 292.31506 
" style="fill:none;stroke:#808080;stroke-linecap:square;stroke-width:1.5;"/>
   </g>
   <g id="line2d_37">
    <path clip-path="url(#pe96e1e3b44)" d="M 448.33504 292.31506 
" style="fill:none;stroke:#8c564b;stroke-linecap:square;stroke-width:1.5;"/>
    <g clip-path="url(#pe96e1e3b44)">
     <use style="fill:#404040;stroke:#808080;" x="448.33504" xlink:href="#m40a5871725" y="292.31506"/>
    </g>
   </g>
   <g id="line2d_38">
    <path clip-path="url(#pe96e1e3b44)" d="M 179.721095 422.947404 
" style="fill:none;stroke:#e377c2;stroke-linecap:square;stroke-width:1.5;"/>
    <defs>
     <path d="M 0 5 
C 1.326016 5 2.597899 4.473168 3.535534 3.535534 
C 4.473168 2.597899 5 1.326016 5 0 
C 5 -1.326016 4.473168 -2.597899 3.535534 -3.535534 
C 2.597899 -4.473168 1.326016 -5 0 -5 
C -1.326016 -5 -2.597899 -4.473168 -3.535534 -3.535534 
C -4.473168 -2.597899 -5 -1.326016 -5 0 
C -5 1.326016 -4.473168 2.597899 -3.535534 3.535534 
C -2.597899 4.473168 -1.326016 5 0 5 
z
" id="m3be50326a8" style="stroke:#990099;"/>
    </defs>
    <g clip-path="url(#pe96e1e3b44)">
     <use style="fill:#990099;stroke:#990099;" x="179.721095" xlink:href="#m3be50326a8" y="422.947404"/>
    </g>
   </g>
   <g id="line2d_39">
    <path clip-path="url(#pe96e1e3b44)" d="M 219.688944 365.717036 
" style="fill:none;stroke:#7f7f7f;stroke-linecap:square;stroke-width:1.5;"/>
    <g clip-path="url(#pe96e1e3b44)">
     <use style="fill:#990099;stroke:#990099;" x="219.688944" xlink:href="#m3be50326a8" y="365.717036"/>
    </g>
   </g>
   <g id="line2d_40">
    <path clip-path="url(#pe96e1e3b44)" d="M 257.96254 230.396692 
" style="fill:none;stroke:#bcbd22;stroke-linecap:square;stroke-width:1.5;"/>
    <g clip-path="url(#pe96e1e3b44)">
     <use style="fill:#990099;stroke:#990099;" x="257.96254" xlink:href="#m3be50326a8" y="230.396692"/>
    </g>
   </g>
   <g id="line2d_41">
    <path clip-path="url(#pe96e1e3b44)" d="M 296.208493 176.818476 
" style="fill:none;stroke:#17becf;stroke-linecap:square;stroke-width:1.5;"/>
    <g clip-path="url(#pe96e1e3b44)">
     <use style="fill:#990099;stroke:#990099;" x="296.208493" xlink:href="#m3be50326a8" y="176.818476"/>
    </g>
   </g>
   <g id="line2d_42">
    <path clip-path="url(#pe96e1e3b44)" d="M 251.118788 359.460645 
L 250.30469 257.471831 
" style="fill:none;stroke:#ff0000;stroke-linecap:square;stroke-width:1.5;"/>
   </g>
   <g id="line2d_43">
    <path clip-path="url(#pe96e1e3b44)" d="M 250.30469 257.471831 
" style="fill:none;stroke:#1f77b4;stroke-linecap:square;stroke-width:1.5;"/>
    <defs>
     <path d="M 0 5 
C 1.326016 5 2.597899 4.473168 3.535534 3.535534 
C 4.473168 2.597899 5 1.326016 5 0 
C 5 -1.326016 4.473168 -2.597899 3.535534 -3.535534 
C 2.597899 -4.473168 1.326016 -5 0 -5 
C -1.326016 -5 -2.597899 -4.473168 -3.535534 -3.535534 
C -4.473168 -2.597899 -5 -1.326016 -5 0 
C -5 1.326016 -4.473168 2.597899 -3.535534 3.535534 
C -2.597899 4.473168 -1.326016 5 0 5 
z
" id="maa00a202bd" style="stroke:#ff0000;"/>
    </defs>
    <g clip-path="url(#pe96e1e3b44)">
     <use style="fill:#ff0000;stroke:#ff0000;" x="250.30469" xlink:href="#maa00a202bd" y="257.471831"/>
    </g>
   </g>
  </g>
 </g>
 <defs>
  <clipPath id="pe96e1e3b44">
   <rect height="554.4" width="554.4" x="7.2" y="7.2"/>
  </clipPath>
 </defs>
</svg>
