<?xml version="1.0" encoding="utf-8" standalone="no"?>
<!DOCTYPE svg PUBLIC "-//W3C//DTD SVG 1.1//EN"
  "http://www.w3.org/Graphics/SVG/1.1/DTD/svg11.dtd">
<svg height="252.317344pt" version="1.1" viewBox="0 0 365.74375 252.317344" width="365.74375pt" xmlns="http://www.w3.org/2000/svg" xmlns:xlink="http://www.w3.org/1999/xlink">
 <metadata>
  <rdf:RDF xmlns:cc="http://creativecommons.org/ns#" xmlns:dc="http://purl.org/dc/elements/1.1/" xmlns:rdf="http://www.w3.org/1999/02/22-rdf-syntax-ns#">
   <cc:Work>
    <dc:type rdf:resource="http://purl.org/dc/dcmitype/StillImage"/>
    <dc:date>2023-10-01T11:55:04.735543</dc:date>
    <dc:format>image/svg+xml</dc:format>
    <dc:creator>
     <cc:Agent>
      <dc:title>Matplotlib v3.4.3, https://matplotlib.org/</dc:title>
     </cc:Agent>
    </dc:creator>
   </cc:Work>
  </rdf:RDF>
 </metadata>
 <defs>
  <style type="text/css">*{stroke-linecap:butt;stroke-linejoin:round;}</style>
 </defs>
 <g id="figure_1">
  <g id="patch_1">
   <path d="M 0 252.317344 
L 365.74375 252.317344 
L 365.74375 0 
L 0 0 
z
" style="fill:none;"/>
  </g>
  <g id="axes_1">
   <g id="patch_2">
    <path d="M 20.5625 228.439219 
L 355.3625 228.439219 
L 355.3625 10.999219 
L 20.5625 10.999219 
z
" style="fill:#ffffff;"/>
   </g>
   <g id="matplotlib.axis_1">
    <g id="xtick_1">
     <g id="line2d_1">
      <defs>
       <path d="M 0 0 
L 0 3.5 
" id="m25e6896cf3" style="stroke:#000000;stroke-width:0.8;"/>
      </defs>
      <g>
       <use style="stroke:#000000;stroke-width:0.8;" x="20.5625" xlink:href="#m25e6896cf3" y="228.439219"/>
      </g>
     </g>
     <g id="text_1">
      <!-- 0 -->
      <g transform="translate(17.38125 243.037656)scale(0.1 -0.1)">
       <defs>
        <path d="M 2034 4250 
Q 1547 4250 1301 3770 
Q 1056 3291 1056 2328 
Q 1056 1369 1301 889 
Q 1547 409 2034 409 
Q 2525 409 2770 889 
Q 3016 1369 3016 2328 
Q 3016 3291 2770 3770 
Q 2525 4250 2034 4250 
z
M 2034 4750 
Q 2819 4750 3233 4129 
Q 3647 3509 3647 2328 
Q 3647 1150 3233 529 
Q 2819 -91 2034 -91 
Q 1250 -91 836 529 
Q 422 1150 422 2328 
Q 422 3509 836 4129 
Q 1250 4750 2034 4750 
z
" id="DejaVuSans-30" transform="scale(0.015625)"/>
       </defs>
       <use xlink:href="#DejaVuSans-30"/>
      </g>
     </g>
    </g>
    <g id="xtick_2">
     <g id="line2d_2">
      <g>
       <use style="stroke:#000000;stroke-width:0.8;" x="104.2625" xlink:href="#m25e6896cf3" y="228.439219"/>
      </g>
     </g>
     <g id="text_2">
      <!-- 1 -->
      <g transform="translate(101.08125 243.037656)scale(0.1 -0.1)">
       <defs>
        <path d="M 794 531 
L 1825 531 
L 1825 4091 
L 703 3866 
L 703 4441 
L 1819 4666 
L 2450 4666 
L 2450 531 
L 3481 531 
L 3481 0 
L 794 0 
L 794 531 
z
" id="DejaVuSans-31" transform="scale(0.015625)"/>
       </defs>
       <use xlink:href="#DejaVuSans-31"/>
      </g>
     </g>
    </g>
    <g id="xtick_3">
     <g id="line2d_3">
      <g>
       <use style="stroke:#000000;stroke-width:0.8;" x="187.9625" xlink:href="#m25e6896cf3" y="228.439219"/>
      </g>
     </g>
     <g id="text_3">
      <!-- 2 -->
      <g transform="translate(184.78125 243.037656)scale(0.1 -0.1)">
       <defs>
        <path d="M 1228 531 
L 3431 531 
L 3431 0 
L 469 0 
L 469 531 
Q 828 903 1448 1529 
Q 2069 2156 2228 2338 
Q 2531 2678 2651 2914 
Q 2772 3150 2772 3378 
Q 2772 3750 2511 3984 
Q 2250 4219 1831 4219 
Q 1534 4219 1204 4116 
Q 875 4013 500 3803 
L 500 4441 
Q 881 4594 1212 4672 
Q 1544 4750 1819 4750 
Q 2544 4750 2975 4387 
Q 3406 4025 3406 3419 
Q 3406 3131 3298 2873 
Q 3191 2616 2906 2266 
Q 2828 2175 2409 1742 
Q 1991 1309 1228 531 
z
" id="DejaVuSans-32" transform="scale(0.015625)"/>
       </defs>
       <use xlink:href="#DejaVuSans-32"/>
      </g>
     </g>
    </g>
    <g id="xtick_4">
     <g id="line2d_4">
      <g>
       <use style="stroke:#000000;stroke-width:0.8;" x="271.6625" xlink:href="#m25e6896cf3" y="228.439219"/>
      </g>
     </g>
     <g id="text_4">
      <!-- 3 -->
      <g transform="translate(268.48125 243.037656)scale(0.1 -0.1)">
       <defs>
        <path d="M 2597 2516 
Q 3050 2419 3304 2112 
Q 3559 1806 3559 1356 
Q 3559 666 3084 287 
Q 2609 -91 1734 -91 
Q 1441 -91 1130 -33 
Q 819 25 488 141 
L 488 750 
Q 750 597 1062 519 
Q 1375 441 1716 441 
Q 2309 441 2620 675 
Q 2931 909 2931 1356 
Q 2931 1769 2642 2001 
Q 2353 2234 1838 2234 
L 1294 2234 
L 1294 2753 
L 1863 2753 
Q 2328 2753 2575 2939 
Q 2822 3125 2822 3475 
Q 2822 3834 2567 4026 
Q 2313 4219 1838 4219 
Q 1578 4219 1281 4162 
Q 984 4106 628 3988 
L 628 4550 
Q 988 4650 1302 4700 
Q 1616 4750 1894 4750 
Q 2613 4750 3031 4423 
Q 3450 4097 3450 3541 
Q 3450 3153 3228 2886 
Q 3006 2619 2597 2516 
z
" id="DejaVuSans-33" transform="scale(0.015625)"/>
       </defs>
       <use xlink:href="#DejaVuSans-33"/>
      </g>
     </g>
    </g>
    <g id="xtick_5">
     <g id="line2d_5">
      <g>
       <use style="stroke:#000000;stroke-width:0.8;" x="355.3625" xlink:href="#m25e6896cf3" y="228.439219"/>
      </g>
     </g>
     <g id="text_5">
      <!-- 4 -->
      <g transform="translate(352.18125 243.037656)scale(0.1 -0.1)">
       <defs>
        <path d="M 2419 4116 
L 825 1625 
L 2419 1625 
L 2419 4116 
z
M 2253 4666 
L 3047 4666 
L 3047 1625 
L 3713 1625 
L 3713 1100 
L 3047 1100 
L 3047 0 
L 2419 0 
L 2419 1100 
L 313 1100 
L 313 1709 
L 2253 4666 
z
" id="DejaVuSans-34" transform="scale(0.015625)"/>
       </defs>
       <use xlink:href="#DejaVuSans-34"/>
      </g>
     </g>
    </g>
   </g>
   <g id="matplotlib.axis_2">
    <g id="ytick_1">
     <g id="line2d_6">
      <defs>
       <path d="M 0 0 
L -3.5 0 
" id="m6fa220f524" style="stroke:#000000;stroke-width:0.8;"/>
      </defs>
      <g>
       <use style="stroke:#000000;stroke-width:0.8;" x="20.5625" xlink:href="#m6fa220f524" y="228.439219"/>
      </g>
     </g>
     <g id="text_6">
      <!-- 0 -->
      <g transform="translate(7.2 232.238437)scale(0.1 -0.1)">
       <use xlink:href="#DejaVuSans-30"/>
      </g>
     </g>
    </g>
    <g id="ytick_2">
     <g id="line2d_7">
      <g>
       <use style="stroke:#000000;stroke-width:0.8;" x="20.5625" xlink:href="#m6fa220f524" y="10.999219"/>
      </g>
     </g>
     <g id="text_7">
      <!-- 1 -->
      <g transform="translate(7.2 14.798437)scale(0.1 -0.1)">
       <use xlink:href="#DejaVuSans-31"/>
      </g>
     </g>
    </g>
   </g>
   <g id="line2d_8">
    <path clip-path="url(#p49ab64c10e)" d="M 20.5625 141.463219 
L 29.147115 168.011849 
L 37.731731 188.163266 
L 46.316346 202.439452 
L 54.900962 211.362389 
L 63.485577 215.454059 
L 72.070192 215.236444 
L 80.654808 211.231527 
L 89.239423 203.961289 
L 97.824038 193.947712 
L 106.408654 181.712779 
L 114.993269 167.778472 
L 123.577885 152.666773 
L 132.1625 136.899663 
L 140.747115 120.999126 
L 149.331731 105.487142 
L 157.916346 90.885695 
L 166.500962 77.716766 
L 175.085577 66.502338 
L 183.670192 57.764391 
L 192.254808 52.006582 
L 200.839423 49.311018 
L 209.424038 49.338266 
L 218.008654 51.730562 
L 226.593269 56.130143 
L 235.177885 62.179246 
L 243.7625 69.520108 
L 252.347115 77.794966 
L 260.931731 86.646057 
L 269.516346 95.715618 
L 278.100962 104.645886 
L 286.685577 113.079098 
L 295.270192 120.657491 
L 303.854808 127.023303 
L 312.439423 131.818769 
L 321.024038 134.686127 
L 329.608654 135.267614 
L 338.193269 133.205467 
L 346.777885 128.141923 
L 355.3625 119.719219 
" style="fill:none;stroke:#808080;stroke-linecap:square;stroke-width:0.5;"/>
   </g>
   <g id="line2d_9">
    <path clip-path="url(#p49ab64c10e)" d="M 20.5625 141.463219 
L 104.2625 184.951219 
L 187.9625 54.487219 
L 271.6625 97.975219 
L 355.3625 119.719219 
" style="fill:none;"/>
    <defs>
     <path d="M 0 4 
C 1.060812 4 2.078319 3.578535 2.828427 2.828427 
C 3.578535 2.078319 4 1.060812 4 0 
C 4 -1.060812 3.578535 -2.078319 2.828427 -2.828427 
C 2.078319 -3.578535 1.060812 -4 0 -4 
C -1.060812 -4 -2.078319 -3.578535 -2.828427 -2.828427 
C -3.578535 -2.078319 -4 -1.060812 -4 0 
C -4 1.060812 -3.578535 2.078319 -2.828427 2.828427 
C -2.078319 3.578535 -1.060812 4 0 4 
z
" id="meece7e1594" style="stroke:#1f77b4;stroke-width:2;"/>
    </defs>
    <g clip-path="url(#p49ab64c10e)">
     <use style="fill-opacity:0;stroke:#1f77b4;stroke-width:2;" x="20.5625" xlink:href="#meece7e1594" y="141.463219"/>
     <use style="fill-opacity:0;stroke:#1f77b4;stroke-width:2;" x="104.2625" xlink:href="#meece7e1594" y="184.951219"/>
     <use style="fill-opacity:0;stroke:#1f77b4;stroke-width:2;" x="187.9625" xlink:href="#meece7e1594" y="54.487219"/>
     <use style="fill-opacity:0;stroke:#1f77b4;stroke-width:2;" x="271.6625" xlink:href="#meece7e1594" y="97.975219"/>
     <use style="fill-opacity:0;stroke:#1f77b4;stroke-width:2;" x="355.3625" xlink:href="#meece7e1594" y="119.719219"/>
    </g>
   </g>
   <g id="line2d_10">
    <path clip-path="url(#p49ab64c10e)" d="M 20.5625 141.463219 
L 48.4625 205.151663 
L 76.3625 213.674774 
L 104.2625 184.951219 
L 132.1625 136.899663 
L 160.0625 87.438774 
L 187.9625 54.487219 
L 215.8625 50.93033 
L 243.7625 69.520108 
L 271.6625 97.975219 
L 299.5625 124.01433 
L 327.4625 135.356108 
L 355.3625 119.719219 
" style="fill:none;"/>
    <defs>
     <path d="M 0 2 
C 0.530406 2 1.03916 1.789267 1.414214 1.414214 
C 1.789267 1.03916 2 0.530406 2 0 
C 2 -0.530406 1.789267 -1.03916 1.414214 -1.414214 
C 1.03916 -1.789267 0.530406 -2 0 -2 
C -0.530406 -2 -1.03916 -1.789267 -1.414214 -1.414214 
C -1.789267 -1.03916 -2 -0.530406 -2 0 
C -2 0.530406 -1.789267 1.03916 -1.414214 1.414214 
C -1.03916 1.789267 -0.530406 2 0 2 
z
" id="ma9cc5c1118" style="stroke:#ff7f0e;"/>
    </defs>
    <g clip-path="url(#p49ab64c10e)">
     <use style="fill:#ff7f0e;stroke:#ff7f0e;" x="20.5625" xlink:href="#ma9cc5c1118" y="141.463219"/>
     <use style="fill:#ff7f0e;stroke:#ff7f0e;" x="48.4625" xlink:href="#ma9cc5c1118" y="205.151663"/>
     <use style="fill:#ff7f0e;stroke:#ff7f0e;" x="76.3625" xlink:href="#ma9cc5c1118" y="213.674774"/>
     <use style="fill:#ff7f0e;stroke:#ff7f0e;" x="104.2625" xlink:href="#ma9cc5c1118" y="184.951219"/>
     <use style="fill:#ff7f0e;stroke:#ff7f0e;" x="132.1625" xlink:href="#ma9cc5c1118" y="136.899663"/>
     <use style="fill:#ff7f0e;stroke:#ff7f0e;" x="160.0625" xlink:href="#ma9cc5c1118" y="87.438774"/>
     <use style="fill:#ff7f0e;stroke:#ff7f0e;" x="187.9625" xlink:href="#ma9cc5c1118" y="54.487219"/>
     <use style="fill:#ff7f0e;stroke:#ff7f0e;" x="215.8625" xlink:href="#ma9cc5c1118" y="50.93033"/>
     <use style="fill:#ff7f0e;stroke:#ff7f0e;" x="243.7625" xlink:href="#ma9cc5c1118" y="69.520108"/>
     <use style="fill:#ff7f0e;stroke:#ff7f0e;" x="271.6625" xlink:href="#ma9cc5c1118" y="97.975219"/>
     <use style="fill:#ff7f0e;stroke:#ff7f0e;" x="299.5625" xlink:href="#ma9cc5c1118" y="124.01433"/>
     <use style="fill:#ff7f0e;stroke:#ff7f0e;" x="327.4625" xlink:href="#ma9cc5c1118" y="135.356108"/>
     <use style="fill:#ff7f0e;stroke:#ff7f0e;" x="355.3625" xlink:href="#ma9cc5c1118" y="119.719219"/>
    </g>
   </g>
   <g id="patch_3">
    <path d="M 20.5625 228.439219 
L 20.5625 10.999219 
" style="fill:none;stroke:#000000;stroke-linecap:square;stroke-linejoin:miter;stroke-width:0.8;"/>
   </g>
   <g id="patch_4">
    <path d="M 355.3625 228.439219 
L 355.3625 10.999219 
" style="fill:none;stroke:#000000;stroke-linecap:square;stroke-linejoin:miter;stroke-width:0.8;"/>
   </g>
   <g id="patch_5">
    <path d="M 20.5625 228.439219 
L 355.3625 228.439219 
" style="fill:none;stroke:#000000;stroke-linecap:square;stroke-linejoin:miter;stroke-width:0.8;"/>
   </g>
   <g id="patch_6">
    <path d="M 20.5625 10.999219 
L 355.3625 10.999219 
" style="fill:none;stroke:#000000;stroke-linecap:square;stroke-linejoin:miter;stroke-width:0.8;"/>
   </g>
  </g>
 </g>
 <defs>
  <clipPath id="p49ab64c10e">
   <rect height="217.44" width="334.8" x="20.5625" y="10.999219"/>
  </clipPath>
 </defs>
</svg>
