<?xml version="1.0" encoding="utf-8" standalone="no"?>
<!DOCTYPE svg PUBLIC "-//W3C//DTD SVG 1.1//EN"
  "http://www.w3.org/Graphics/SVG/1.1/DTD/svg11.dtd">
<svg height="195.106776pt" version="1.1" viewBox="0 0 379.611961 195.106776" width="379.611961pt" xmlns="http://www.w3.org/2000/svg" xmlns:xlink="http://www.w3.org/1999/xlink">
 <metadata>
  <rdf:RDF xmlns:cc="http://creativecommons.org/ns#" xmlns:dc="http://purl.org/dc/elements/1.1/" xmlns:rdf="http://www.w3.org/1999/02/22-rdf-syntax-ns#">
   <cc:Work>
    <dc:type rdf:resource="http://purl.org/dc/dcmitype/StillImage"/>
    <dc:date>2021-10-09T21:04:34.612234</dc:date>
    <dc:format>image/svg+xml</dc:format>
    <dc:creator>
     <cc:Agent>
      <dc:title>Matplotlib v3.4.3, https://matplotlib.org/</dc:title>
     </cc:Agent>
    </dc:creator>
   </cc:Work>
  </rdf:RDF>
 </metadata>
 <defs>
  <style type="text/css">*{stroke-linecap:butt;stroke-linejoin:round;}</style>
 </defs>
 <g id="figure_1">
  <g id="patch_1">
   <path d="M 0 195.106776 
L 379.611961 195.106776 
L 379.611961 0 
L 0 0 
z
" style="fill:none;"/>
  </g>
  <g id="axes_1">
   <g id="patch_2">
    <path d="M 37.611961 170.28 
L 372.411961 170.28 
L 372.411961 7.2 
L 37.611961 7.2 
z
" style="fill:#ffffff;"/>
   </g>
   <g id="patch_3">
    <path clip-path="url(#p18b21e76e5)" d="M 79.629075 170.28 
L 81.807519 170.28 
L 81.807519 170.121982 
L 79.629075 170.121982 
z
" style="fill:#1f77b4;"/>
   </g>
   <g id="patch_4">
    <path clip-path="url(#p18b21e76e5)" d="M 81.807519 170.28 
L 83.985963 170.28 
L 83.985963 170.086867 
L 81.807519 170.086867 
z
" style="fill:#1f77b4;"/>
   </g>
   <g id="patch_5">
    <path clip-path="url(#p18b21e76e5)" d="M 83.985963 170.28 
L 86.164407 170.28 
L 86.164407 169.841061 
L 83.985963 169.841061 
z
" style="fill:#1f77b4;"/>
   </g>
   <g id="patch_6">
    <path clip-path="url(#p18b21e76e5)" d="M 86.164407 170.28 
L 88.342851 170.28 
L 88.342851 169.858618 
L 86.164407 169.858618 
z
" style="fill:#1f77b4;"/>
   </g>
   <g id="patch_7">
    <path clip-path="url(#p18b21e76e5)" d="M 88.342851 170.28 
L 90.521295 170.28 
L 90.521295 168.998297 
L 88.342851 168.998297 
z
" style="fill:#1f77b4;"/>
   </g>
   <g id="patch_8">
    <path clip-path="url(#p18b21e76e5)" d="M 90.521295 170.28 
L 92.699739 170.28 
L 92.699739 164.960056 
L 90.521295 164.960056 
z
" style="fill:#1f77b4;"/>
   </g>
   <g id="patch_9">
    <path clip-path="url(#p18b21e76e5)" d="M 92.699739 170.28 
L 94.878183 170.28 
L 94.878183 164.766922 
L 92.699739 164.766922 
z
" style="fill:#1f77b4;"/>
   </g>
   <g id="patch_10">
    <path clip-path="url(#p18b21e76e5)" d="M 94.878183 170.28 
L 97.056627 170.28 
L 97.056627 156.339287 
L 94.878183 156.339287 
z
" style="fill:#1f77b4;"/>
   </g>
   <g id="patch_11">
    <path clip-path="url(#p18b21e76e5)" d="M 97.056627 170.28 
L 99.235071 170.28 
L 99.235071 125.841784 
L 97.056627 125.841784 
z
" style="fill:#1f77b4;"/>
   </g>
   <g id="patch_12">
    <path clip-path="url(#p18b21e76e5)" d="M 99.235071 170.28 
L 101.413515 170.28 
L 101.413515 125.315057 
L 99.235071 125.315057 
z
" style="fill:#1f77b4;"/>
   </g>
   <g id="patch_13">
    <path clip-path="url(#p18b21e76e5)" d="M 101.413515 170.28 
L 103.59196 170.28 
L 103.59196 147.20935 
L 101.413515 147.20935 
z
" style="fill:#1f77b4;"/>
   </g>
   <g id="patch_14">
    <path clip-path="url(#p18b21e76e5)" d="M 103.59196 170.28 
L 105.770404 170.28 
L 105.770404 125.595978 
L 103.59196 125.595978 
z
" style="fill:#1f77b4;"/>
   </g>
   <g id="patch_15">
    <path clip-path="url(#p18b21e76e5)" d="M 105.770404 170.28 
L 107.948848 170.28 
L 107.948848 123.576857 
L 105.770404 123.576857 
z
" style="fill:#1f77b4;"/>
   </g>
   <g id="patch_16">
    <path clip-path="url(#p18b21e76e5)" d="M 107.948848 170.28 
L 110.127292 170.28 
L 110.127292 141.081757 
L 107.948848 141.081757 
z
" style="fill:#1f77b4;"/>
   </g>
   <g id="patch_17">
    <path clip-path="url(#p18b21e76e5)" d="M 110.127292 170.28 
L 112.305736 170.28 
L 112.305736 97.890129 
L 110.127292 97.890129 
z
" style="fill:#1f77b4;"/>
   </g>
   <g id="patch_18">
    <path clip-path="url(#p18b21e76e5)" d="M 112.305736 170.28 
L 114.48418 170.28 
L 114.48418 110.672042 
L 112.305736 110.672042 
z
" style="fill:#1f77b4;"/>
   </g>
   <g id="patch_19">
    <path clip-path="url(#p18b21e76e5)" d="M 114.48418 170.28 
L 116.662624 170.28 
L 116.662624 126.59676 
L 114.48418 126.59676 
z
" style="fill:#1f77b4;"/>
   </g>
   <g id="patch_20">
    <path clip-path="url(#p18b21e76e5)" d="M 116.662624 170.28 
L 118.841068 170.28 
L 118.841068 145.874974 
L 116.662624 145.874974 
z
" style="fill:#1f77b4;"/>
   </g>
   <g id="patch_21">
    <path clip-path="url(#p18b21e76e5)" d="M 118.841068 170.28 
L 121.019512 170.28 
L 121.019512 137.166418 
L 118.841068 137.166418 
z
" style="fill:#1f77b4;"/>
   </g>
   <g id="patch_22">
    <path clip-path="url(#p18b21e76e5)" d="M 121.019512 170.28 
L 123.197956 170.28 
L 123.197956 148.297919 
L 121.019512 148.297919 
z
" style="fill:#1f77b4;"/>
   </g>
   <g id="patch_23">
    <path clip-path="url(#p18b21e76e5)" d="M 123.197956 170.28 
L 125.376401 170.28 
L 125.376401 159.885917 
L 123.197956 159.885917 
z
" style="fill:#1f77b4;"/>
   </g>
   <g id="patch_24">
    <path clip-path="url(#p18b21e76e5)" d="M 125.376401 170.28 
L 127.554845 170.28 
L 127.554845 153.86367 
L 125.376401 153.86367 
z
" style="fill:#1f77b4;"/>
   </g>
   <g id="patch_25">
    <path clip-path="url(#p18b21e76e5)" d="M 127.554845 170.28 
L 129.733289 170.28 
L 129.733289 154.987354 
L 127.554845 154.987354 
z
" style="fill:#1f77b4;"/>
   </g>
   <g id="patch_26">
    <path clip-path="url(#p18b21e76e5)" d="M 129.733289 170.28 
L 131.911733 170.28 
L 131.911733 155.917906 
L 129.733289 155.917906 
z
" style="fill:#1f77b4;"/>
   </g>
   <g id="patch_27">
    <path clip-path="url(#p18b21e76e5)" d="M 131.911733 170.28 
L 134.090177 170.28 
L 134.090177 163.327201 
L 131.911733 163.327201 
z
" style="fill:#1f77b4;"/>
   </g>
   <g id="patch_28">
    <path clip-path="url(#p18b21e76e5)" d="M 134.090177 170.28 
L 136.268621 170.28 
L 136.268621 157.392742 
L 134.090177 157.392742 
z
" style="fill:#1f77b4;"/>
   </g>
   <g id="patch_29">
    <path clip-path="url(#p18b21e76e5)" d="M 136.268621 170.28 
L 138.447065 170.28 
L 138.447065 157.392742 
L 136.268621 157.392742 
z
" style="fill:#1f77b4;"/>
   </g>
   <g id="patch_30">
    <path clip-path="url(#p18b21e76e5)" d="M 138.447065 170.28 
L 140.625509 170.28 
L 140.625509 164.13485 
L 138.447065 164.13485 
z
" style="fill:#1f77b4;"/>
   </g>
   <g id="patch_31">
    <path clip-path="url(#p18b21e76e5)" d="M 140.625509 170.28 
L 142.803953 170.28 
L 142.803953 159.078269 
L 140.625509 159.078269 
z
" style="fill:#1f77b4;"/>
   </g>
   <g id="patch_32">
    <path clip-path="url(#p18b21e76e5)" d="M 142.803953 170.28 
L 144.982397 170.28 
L 144.982397 159.148499 
L 142.803953 159.148499 
z
" style="fill:#1f77b4;"/>
   </g>
   <g id="patch_33">
    <path clip-path="url(#p18b21e76e5)" d="M 144.982397 170.28 
L 147.160841 170.28 
L 147.160841 159.236287 
L 144.982397 159.236287 
z
" style="fill:#1f77b4;"/>
   </g>
   <g id="patch_34">
    <path clip-path="url(#p18b21e76e5)" d="M 147.160841 170.28 
L 149.339286 170.28 
L 149.339286 165.416552 
L 147.160841 165.416552 
z
" style="fill:#1f77b4;"/>
   </g>
   <g id="patch_35">
    <path clip-path="url(#p18b21e76e5)" d="M 149.339286 170.28 
L 151.51773 170.28 
L 151.51773 160.535547 
L 149.339286 160.535547 
z
" style="fill:#1f77b4;"/>
   </g>
   <g id="patch_36">
    <path clip-path="url(#p18b21e76e5)" d="M 151.51773 170.28 
L 153.696174 170.28 
L 153.696174 160.570662 
L 151.51773 160.570662 
z
" style="fill:#1f77b4;"/>
   </g>
   <g id="patch_37">
    <path clip-path="url(#p18b21e76e5)" d="M 153.696174 170.28 
L 155.874618 170.28 
L 155.874618 165.328765 
L 153.696174 165.328765 
z
" style="fill:#1f77b4;"/>
   </g>
   <g id="patch_38">
    <path clip-path="url(#p18b21e76e5)" d="M 155.874618 170.28 
L 158.053062 170.28 
L 158.053062 159.692784 
L 155.874618 159.692784 
z
" style="fill:#1f77b4;"/>
   </g>
   <g id="patch_39">
    <path clip-path="url(#p18b21e76e5)" d="M 158.053062 170.28 
L 160.231506 170.28 
L 160.231506 160.00882 
L 158.053062 160.00882 
z
" style="fill:#1f77b4;"/>
   </g>
   <g id="patch_40">
    <path clip-path="url(#p18b21e76e5)" d="M 160.231506 170.28 
L 162.40995 170.28 
L 162.40995 161.290523 
L 160.231506 161.290523 
z
" style="fill:#1f77b4;"/>
   </g>
   <g id="patch_41">
    <path clip-path="url(#p18b21e76e5)" d="M 162.40995 170.28 
L 164.588394 170.28 
L 164.588394 165.767704 
L 162.40995 165.767704 
z
" style="fill:#1f77b4;"/>
   </g>
   <g id="patch_42">
    <path clip-path="url(#p18b21e76e5)" d="M 164.588394 170.28 
L 166.766838 170.28 
L 166.766838 161.553887 
L 164.588394 161.553887 
z
" style="fill:#1f77b4;"/>
   </g>
   <g id="patch_43">
    <path clip-path="url(#p18b21e76e5)" d="M 166.766838 170.28 
L 168.945282 170.28 
L 168.945282 162.308862 
L 166.766838 162.308862 
z
" style="fill:#1f77b4;"/>
   </g>
   <g id="patch_44">
    <path clip-path="url(#p18b21e76e5)" d="M 168.945282 170.28 
L 171.123727 170.28 
L 171.123727 166.136413 
L 168.945282 166.136413 
z
" style="fill:#1f77b4;"/>
   </g>
   <g id="patch_45">
    <path clip-path="url(#p18b21e76e5)" d="M 171.123727 170.28 
L 173.302171 170.28 
L 173.302171 162.853147 
L 171.123727 162.853147 
z
" style="fill:#1f77b4;"/>
   </g>
   <g id="patch_46">
    <path clip-path="url(#p18b21e76e5)" d="M 173.302171 170.28 
L 175.480615 170.28 
L 175.480615 162.168402 
L 173.302171 162.168402 
z
" style="fill:#1f77b4;"/>
   </g>
   <g id="patch_47">
    <path clip-path="url(#p18b21e76e5)" d="M 175.480615 170.28 
L 177.659059 170.28 
L 177.659059 166.15397 
L 175.480615 166.15397 
z
" style="fill:#1f77b4;"/>
   </g>
   <g id="patch_48">
    <path clip-path="url(#p18b21e76e5)" d="M 177.659059 170.28 
L 179.837503 170.28 
L 179.837503 162.115729 
L 177.659059 162.115729 
z
" style="fill:#1f77b4;"/>
   </g>
   <g id="patch_49">
    <path clip-path="url(#p18b21e76e5)" d="M 179.837503 170.28 
L 182.015947 170.28 
L 182.015947 162.519553 
L 179.837503 162.519553 
z
" style="fill:#1f77b4;"/>
   </g>
   <g id="patch_50">
    <path clip-path="url(#p18b21e76e5)" d="M 182.015947 170.28 
L 184.194391 170.28 
L 184.194391 162.39665 
L 182.015947 162.39665 
z
" style="fill:#1f77b4;"/>
   </g>
   <g id="patch_51">
    <path clip-path="url(#p18b21e76e5)" d="M 184.194391 170.28 
L 186.372835 170.28 
L 186.372835 166.470007 
L 184.194391 166.470007 
z
" style="fill:#1f77b4;"/>
   </g>
   <g id="patch_52">
    <path clip-path="url(#p18b21e76e5)" d="M 186.372835 170.28 
L 188.551279 170.28 
L 188.551279 162.747801 
L 186.372835 162.747801 
z
" style="fill:#1f77b4;"/>
   </g>
   <g id="patch_53">
    <path clip-path="url(#p18b21e76e5)" d="M 188.551279 170.28 
L 190.729723 170.28 
L 190.729723 162.958492 
L 188.551279 162.958492 
z
" style="fill:#1f77b4;"/>
   </g>
   <g id="patch_54">
    <path clip-path="url(#p18b21e76e5)" d="M 190.729723 170.28 
L 192.908168 170.28 
L 192.908168 166.399776 
L 190.729723 166.399776 
z
" style="fill:#1f77b4;"/>
   </g>
   <g id="patch_55">
    <path clip-path="url(#p18b21e76e5)" d="M 192.908168 170.28 
L 195.086612 170.28 
L 195.086612 162.291305 
L 192.908168 162.291305 
z
" style="fill:#1f77b4;"/>
   </g>
   <g id="patch_56">
    <path clip-path="url(#p18b21e76e5)" d="M 195.086612 170.28 
L 197.265056 170.28 
L 197.265056 162.045499 
L 195.086612 162.045499 
z
" style="fill:#1f77b4;"/>
   </g>
   <g id="patch_57">
    <path clip-path="url(#p18b21e76e5)" d="M 197.265056 170.28 
L 199.4435 170.28 
L 199.4435 162.203517 
L 197.265056 162.203517 
z
" style="fill:#1f77b4;"/>
   </g>
   <g id="patch_58">
    <path clip-path="url(#p18b21e76e5)" d="M 199.4435 170.28 
L 201.621944 170.28 
L 201.621944 166.364661 
L 199.4435 166.364661 
z
" style="fill:#1f77b4;"/>
   </g>
   <g id="patch_59">
    <path clip-path="url(#p18b21e76e5)" d="M 201.621944 170.28 
L 203.800388 170.28 
L 203.800388 162.695129 
L 201.621944 162.695129 
z
" style="fill:#1f77b4;"/>
   </g>
   <g id="patch_60">
    <path clip-path="url(#p18b21e76e5)" d="M 203.800388 170.28 
L 205.978832 170.28 
L 205.978832 162.414208 
L 203.800388 162.414208 
z
" style="fill:#1f77b4;"/>
   </g>
   <g id="patch_61">
    <path clip-path="url(#p18b21e76e5)" d="M 205.978832 170.28 
L 208.157276 170.28 
L 208.157276 166.399776 
L 205.978832 166.399776 
z
" style="fill:#1f77b4;"/>
   </g>
   <g id="patch_62">
    <path clip-path="url(#p18b21e76e5)" d="M 208.157276 170.28 
L 210.33572 170.28 
L 210.33572 162.888262 
L 208.157276 162.888262 
z
" style="fill:#1f77b4;"/>
   </g>
   <g id="patch_63">
    <path clip-path="url(#p18b21e76e5)" d="M 210.33572 170.28 
L 212.514164 170.28 
L 212.514164 162.431765 
L 210.33572 162.431765 
z
" style="fill:#1f77b4;"/>
   </g>
   <g id="patch_64">
    <path clip-path="url(#p18b21e76e5)" d="M 212.514164 170.28 
L 214.692608 170.28 
L 214.692608 162.027941 
L 212.514164 162.027941 
z
" style="fill:#1f77b4;"/>
   </g>
   <g id="patch_65">
    <path clip-path="url(#p18b21e76e5)" d="M 214.692608 170.28 
L 216.871053 170.28 
L 216.871053 165.908164 
L 214.692608 165.908164 
z
" style="fill:#1f77b4;"/>
   </g>
   <g id="patch_66">
    <path clip-path="url(#p18b21e76e5)" d="M 216.871053 170.28 
L 219.049497 170.28 
L 219.049497 161.325638 
L 216.871053 161.325638 
z
" style="fill:#1f77b4;"/>
   </g>
   <g id="patch_67">
    <path clip-path="url(#p18b21e76e5)" d="M 219.049497 170.28 
L 221.227941 170.28 
L 221.227941 161.81725 
L 219.049497 161.81725 
z
" style="fill:#1f77b4;"/>
   </g>
   <g id="patch_68">
    <path clip-path="url(#p18b21e76e5)" d="M 221.227941 170.28 
L 223.406385 170.28 
L 223.406385 165.047843 
L 221.227941 165.047843 
z
" style="fill:#1f77b4;"/>
   </g>
   <g id="patch_69">
    <path clip-path="url(#p18b21e76e5)" d="M 223.406385 170.28 
L 225.584829 170.28 
L 225.584829 160.500432 
L 223.406385 160.500432 
z
" style="fill:#1f77b4;"/>
   </g>
   <g id="patch_70">
    <path clip-path="url(#p18b21e76e5)" d="M 225.584829 170.28 
L 227.763273 170.28 
L 227.763273 161.044717 
L 225.584829 161.044717 
z
" style="fill:#1f77b4;"/>
   </g>
   <g id="patch_71">
    <path clip-path="url(#p18b21e76e5)" d="M 227.763273 170.28 
L 229.941717 170.28 
L 229.941717 160.307299 
L 227.763273 160.307299 
z
" style="fill:#1f77b4;"/>
   </g>
   <g id="patch_72">
    <path clip-path="url(#p18b21e76e5)" d="M 229.941717 170.28 
L 232.120161 170.28 
L 232.120161 165.346322 
L 229.941717 165.346322 
z
" style="fill:#1f77b4;"/>
   </g>
   <g id="patch_73">
    <path clip-path="url(#p18b21e76e5)" d="M 232.120161 170.28 
L 234.298605 170.28 
L 234.298605 159.394305 
L 232.120161 159.394305 
z
" style="fill:#1f77b4;"/>
   </g>
   <g id="patch_74">
    <path clip-path="url(#p18b21e76e5)" d="M 234.298605 170.28 
L 236.477049 170.28 
L 236.477049 158.85002 
L 234.298605 158.85002 
z
" style="fill:#1f77b4;"/>
   </g>
   <g id="patch_75">
    <path clip-path="url(#p18b21e76e5)" d="M 236.477049 170.28 
L 238.655494 170.28 
L 238.655494 164.521116 
L 236.477049 164.521116 
z
" style="fill:#1f77b4;"/>
   </g>
   <g id="patch_76">
    <path clip-path="url(#p18b21e76e5)" d="M 238.655494 170.28 
L 240.833938 170.28 
L 240.833938 158.990481 
L 238.655494 158.990481 
z
" style="fill:#1f77b4;"/>
   </g>
   <g id="patch_77">
    <path clip-path="url(#p18b21e76e5)" d="M 240.833938 170.28 
L 243.012382 170.28 
L 243.012382 158.165275 
L 240.833938 158.165275 
z
" style="fill:#1f77b4;"/>
   </g>
   <g id="patch_78">
    <path clip-path="url(#p18b21e76e5)" d="M 243.012382 170.28 
L 245.190826 170.28 
L 245.190826 158.147717 
L 243.012382 158.147717 
z
" style="fill:#1f77b4;"/>
   </g>
   <g id="patch_79">
    <path clip-path="url(#p18b21e76e5)" d="M 245.190826 170.28 
L 247.36927 170.28 
L 247.36927 164.556231 
L 245.190826 164.556231 
z
" style="fill:#1f77b4;"/>
   </g>
   <g id="patch_80">
    <path clip-path="url(#p18b21e76e5)" d="M 247.36927 170.28 
L 249.547714 170.28 
L 249.547714 157.901911 
L 247.36927 157.901911 
z
" style="fill:#1f77b4;"/>
   </g>
   <g id="patch_81">
    <path clip-path="url(#p18b21e76e5)" d="M 249.547714 170.28 
L 251.726158 170.28 
L 251.726158 156.46219 
L 249.547714 156.46219 
z
" style="fill:#1f77b4;"/>
   </g>
   <g id="patch_82">
    <path clip-path="url(#p18b21e76e5)" d="M 251.726158 170.28 
L 253.904602 170.28 
L 253.904602 163.432547 
L 251.726158 163.432547 
z
" style="fill:#1f77b4;"/>
   </g>
   <g id="patch_83">
    <path clip-path="url(#p18b21e76e5)" d="M 253.904602 170.28 
L 256.083046 170.28 
L 256.083046 154.776664 
L 253.904602 154.776664 
z
" style="fill:#1f77b4;"/>
   </g>
   <g id="patch_84">
    <path clip-path="url(#p18b21e76e5)" d="M 256.083046 170.28 
L 258.26149 170.28 
L 258.26149 151.791876 
L 256.083046 151.791876 
z
" style="fill:#1f77b4;"/>
   </g>
   <g id="patch_85">
    <path clip-path="url(#p18b21e76e5)" d="M 258.26149 170.28 
L 260.439934 170.28 
L 260.439934 147.384926 
L 258.26149 147.384926 
z
" style="fill:#1f77b4;"/>
   </g>
   <g id="patch_86">
    <path clip-path="url(#p18b21e76e5)" d="M 260.439934 170.28 
L 262.618379 170.28 
L 262.618379 151.598743 
L 260.439934 151.598743 
z
" style="fill:#1f77b4;"/>
   </g>
   <g id="patch_87">
    <path clip-path="url(#p18b21e76e5)" d="M 262.618379 170.28 
L 264.796823 170.28 
L 264.796823 131.231959 
L 262.618379 131.231959 
z
" style="fill:#1f77b4;"/>
   </g>
   <g id="patch_88">
    <path clip-path="url(#p18b21e76e5)" d="M 264.796823 170.28 
L 266.975267 170.28 
L 266.975267 123.225706 
L 264.796823 123.225706 
z
" style="fill:#1f77b4;"/>
   </g>
   <g id="patch_89">
    <path clip-path="url(#p18b21e76e5)" d="M 266.975267 170.28 
L 269.153711 170.28 
L 269.153711 143.680278 
L 266.975267 143.680278 
z
" style="fill:#1f77b4;"/>
   </g>
   <g id="patch_90">
    <path clip-path="url(#p18b21e76e5)" d="M 269.153711 170.28 
L 271.332155 170.28 
L 271.332155 110.794945 
L 269.153711 110.794945 
z
" style="fill:#1f77b4;"/>
   </g>
   <g id="patch_91">
    <path clip-path="url(#p18b21e76e5)" d="M 271.332155 170.28 
L 273.510599 170.28 
L 273.510599 90.990003 
L 271.332155 90.990003 
z
" style="fill:#1f77b4;"/>
   </g>
   <g id="patch_92">
    <path clip-path="url(#p18b21e76e5)" d="M 273.510599 170.28 
L 275.689043 170.28 
L 275.689043 100.365747 
L 273.510599 100.365747 
z
" style="fill:#1f77b4;"/>
   </g>
   <g id="patch_93">
    <path clip-path="url(#p18b21e76e5)" d="M 275.689043 170.28 
L 277.867487 170.28 
L 277.867487 26.272791 
L 275.689043 26.272791 
z
" style="fill:#1f77b4;"/>
   </g>
   <g id="patch_94">
    <path clip-path="url(#p18b21e76e5)" d="M 277.867487 170.28 
L 280.045931 170.28 
L 280.045931 45.972387 
L 277.867487 45.972387 
z
" style="fill:#1f77b4;"/>
   </g>
   <g id="patch_95">
    <path clip-path="url(#p18b21e76e5)" d="M 280.045931 170.28 
L 282.224375 170.28 
L 282.224375 14.965714 
L 280.045931 14.965714 
z
" style="fill:#1f77b4;"/>
   </g>
   <g id="patch_96">
    <path clip-path="url(#p18b21e76e5)" d="M 282.224375 170.28 
L 284.40282 170.28 
L 284.40282 145.436035 
L 282.224375 145.436035 
z
" style="fill:#1f77b4;"/>
   </g>
   <g id="patch_97">
    <path clip-path="url(#p18b21e76e5)" d="M 284.40282 170.28 
L 286.581264 170.28 
L 286.581264 137.780933 
L 284.40282 137.780933 
z
" style="fill:#1f77b4;"/>
   </g>
   <g id="patch_98">
    <path clip-path="url(#p18b21e76e5)" d="M 286.581264 170.28 
L 288.759708 170.28 
L 288.759708 147.700962 
L 286.581264 147.700962 
z
" style="fill:#1f77b4;"/>
   </g>
   <g id="patch_99">
    <path clip-path="url(#p18b21e76e5)" d="M 288.759708 170.28 
L 290.938152 170.28 
L 290.938152 160.869141 
L 288.759708 160.869141 
z
" style="fill:#1f77b4;"/>
   </g>
   <g id="patch_100">
    <path clip-path="url(#p18b21e76e5)" d="M 290.938152 170.28 
L 293.116596 170.28 
L 293.116596 158.27062 
L 290.938152 158.27062 
z
" style="fill:#1f77b4;"/>
   </g>
   <g id="patch_101">
    <path clip-path="url(#p18b21e76e5)" d="M 293.116596 170.28 
L 295.29504 170.28 
L 295.29504 164.222638 
L 293.116596 164.222638 
z
" style="fill:#1f77b4;"/>
   </g>
   <g id="patch_102">
    <path clip-path="url(#p18b21e76e5)" d="M 295.29504 170.28 
L 297.473484 170.28 
L 297.473484 168.225764 
L 295.29504 168.225764 
z
" style="fill:#1f77b4;"/>
   </g>
   <g id="patch_103">
    <path clip-path="url(#p18b21e76e5)" d="M 297.473484 170.28 
L 299.651928 170.28 
L 299.651928 169.735715 
L 297.473484 169.735715 
z
" style="fill:#1f77b4;"/>
   </g>
   <g id="patch_104">
    <path clip-path="url(#p18b21e76e5)" d="M 299.651928 170.28 
L 301.830372 170.28 
L 301.830372 169.753273 
L 299.651928 169.753273 
z
" style="fill:#1f77b4;"/>
   </g>
   <g id="patch_105">
    <path clip-path="url(#p18b21e76e5)" d="M 301.830372 170.28 
L 304.008816 170.28 
L 304.008816 170.174655 
L 301.830372 170.174655 
z
" style="fill:#1f77b4;"/>
   </g>
   <g id="patch_106">
    <path clip-path="url(#p18b21e76e5)" d="M 304.008816 170.28 
L 306.18726 170.28 
L 306.18726 170.28 
L 304.008816 170.28 
z
" style="fill:#1f77b4;"/>
   </g>
   <g id="patch_107">
    <path clip-path="url(#p18b21e76e5)" d="M 306.18726 170.28 
L 308.365705 170.28 
L 308.365705 170.262442 
L 306.18726 170.262442 
z
" style="fill:#1f77b4;"/>
   </g>
   <g id="patch_108">
    <path clip-path="url(#p18b21e76e5)" d="M 308.365705 170.28 
L 310.544149 170.28 
L 310.544149 170.28 
L 308.365705 170.28 
z
" style="fill:#1f77b4;"/>
   </g>
   <g id="patch_109">
    <path clip-path="url(#p18b21e76e5)" d="M 310.544149 170.28 
L 312.722593 170.28 
L 312.722593 170.28 
L 310.544149 170.28 
z
" style="fill:#1f77b4;"/>
   </g>
   <g id="patch_110">
    <path clip-path="url(#p18b21e76e5)" d="M 312.722593 170.28 
L 314.901037 170.28 
L 314.901037 170.28 
L 312.722593 170.28 
z
" style="fill:#1f77b4;"/>
   </g>
   <g id="patch_111">
    <path clip-path="url(#p18b21e76e5)" d="M 314.901037 170.28 
L 317.079481 170.28 
L 317.079481 170.28 
L 314.901037 170.28 
z
" style="fill:#1f77b4;"/>
   </g>
   <g id="patch_112">
    <path clip-path="url(#p18b21e76e5)" d="M 317.079481 170.28 
L 319.257925 170.28 
L 319.257925 170.28 
L 317.079481 170.28 
z
" style="fill:#1f77b4;"/>
   </g>
   <g id="patch_113">
    <path clip-path="url(#p18b21e76e5)" d="M 319.257925 170.28 
L 321.436369 170.28 
L 321.436369 170.28 
L 319.257925 170.28 
z
" style="fill:#1f77b4;"/>
   </g>
   <g id="patch_114">
    <path clip-path="url(#p18b21e76e5)" d="M 321.436369 170.28 
L 323.614813 170.28 
L 323.614813 170.28 
L 321.436369 170.28 
z
" style="fill:#1f77b4;"/>
   </g>
   <g id="patch_115">
    <path clip-path="url(#p18b21e76e5)" d="M 323.614813 170.28 
L 325.793257 170.28 
L 325.793257 170.28 
L 323.614813 170.28 
z
" style="fill:#1f77b4;"/>
   </g>
   <g id="patch_116">
    <path clip-path="url(#p18b21e76e5)" d="M 325.793257 170.28 
L 327.971701 170.28 
L 327.971701 170.28 
L 325.793257 170.28 
z
" style="fill:#1f77b4;"/>
   </g>
   <g id="patch_117">
    <path clip-path="url(#p18b21e76e5)" d="M 327.971701 170.28 
L 330.150146 170.28 
L 330.150146 170.28 
L 327.971701 170.28 
z
" style="fill:#1f77b4;"/>
   </g>
   <g id="patch_118">
    <path clip-path="url(#p18b21e76e5)" d="M 330.150146 170.28 
L 332.32859 170.28 
L 332.32859 170.28 
L 330.150146 170.28 
z
" style="fill:#1f77b4;"/>
   </g>
   <g id="patch_119">
    <path clip-path="url(#p18b21e76e5)" d="M 332.32859 170.28 
L 334.507034 170.28 
L 334.507034 170.28 
L 332.32859 170.28 
z
" style="fill:#1f77b4;"/>
   </g>
   <g id="patch_120">
    <path clip-path="url(#p18b21e76e5)" d="M 334.507034 170.28 
L 336.685478 170.28 
L 336.685478 170.28 
L 334.507034 170.28 
z
" style="fill:#1f77b4;"/>
   </g>
   <g id="patch_121">
    <path clip-path="url(#p18b21e76e5)" d="M 336.685478 170.28 
L 338.863922 170.28 
L 338.863922 170.28 
L 336.685478 170.28 
z
" style="fill:#1f77b4;"/>
   </g>
   <g id="patch_122">
    <path clip-path="url(#p18b21e76e5)" d="M 338.863922 170.28 
L 341.042366 170.28 
L 341.042366 170.28 
L 338.863922 170.28 
z
" style="fill:#1f77b4;"/>
   </g>
   <g id="patch_123">
    <path clip-path="url(#p18b21e76e5)" d="M 341.042366 170.28 
L 343.22081 170.28 
L 343.22081 170.28 
L 341.042366 170.28 
z
" style="fill:#1f77b4;"/>
   </g>
   <g id="patch_124">
    <path clip-path="url(#p18b21e76e5)" d="M 343.22081 170.28 
L 345.399254 170.28 
L 345.399254 170.28 
L 343.22081 170.28 
z
" style="fill:#1f77b4;"/>
   </g>
   <g id="patch_125">
    <path clip-path="url(#p18b21e76e5)" d="M 345.399254 170.28 
L 347.577698 170.28 
L 347.577698 170.28 
L 345.399254 170.28 
z
" style="fill:#1f77b4;"/>
   </g>
   <g id="patch_126">
    <path clip-path="url(#p18b21e76e5)" d="M 347.577698 170.28 
L 349.756142 170.28 
L 349.756142 170.28 
L 347.577698 170.28 
z
" style="fill:#1f77b4;"/>
   </g>
   <g id="patch_127">
    <path clip-path="url(#p18b21e76e5)" d="M 349.756142 170.28 
L 351.934587 170.28 
L 351.934587 170.28 
L 349.756142 170.28 
z
" style="fill:#1f77b4;"/>
   </g>
   <g id="patch_128">
    <path clip-path="url(#p18b21e76e5)" d="M 351.934587 170.28 
L 354.113031 170.28 
L 354.113031 170.28 
L 351.934587 170.28 
z
" style="fill:#1f77b4;"/>
   </g>
   <g id="patch_129">
    <path clip-path="url(#p18b21e76e5)" d="M 354.113031 170.28 
L 356.291475 170.28 
L 356.291475 165.662358 
L 354.113031 165.662358 
z
" style="fill:#1f77b4;"/>
   </g>
   <g id="patch_130">
    <path clip-path="url(#p18b21e76e5)" d="M 356.291475 170.28 
L 358.469919 170.28 
L 358.469919 168.752491 
L 356.291475 168.752491 
z
" style="fill:#1f77b4;"/>
   </g>
   <g id="matplotlib.axis_1">
    <g id="xtick_1">
     <g id="text_1">
      <!-- $\mathdefault{0}$ -->
      <g transform="translate(34.685466 185.58218)scale(0.12 -0.12)">
       <defs>
        <path d="M 2688 2025 
C 2688 2416 2682 3080 2413 3591 
C 2176 4039 1798 4198 1466 4198 
C 1158 4198 768 4058 525 3597 
C 269 3118 243 2524 243 2025 
C 243 1661 250 1106 448 619 
C 723 -39 1216 -128 1466 -128 
C 1760 -128 2208 -7 2470 600 
C 2662 1042 2688 1559 2688 2025 
z
M 1466 -26 
C 1056 -26 813 325 723 812 
C 653 1188 653 1738 653 2096 
C 653 2588 653 2997 736 3387 
C 858 3929 1216 4096 1466 4096 
C 1728 4096 2067 3923 2189 3400 
C 2272 3036 2278 2607 2278 2096 
C 2278 1680 2278 1169 2202 792 
C 2067 95 1690 -26 1466 -26 
z
" id="CMR17-30" transform="scale(0.015625)"/>
       </defs>
       <use transform="scale(0.996264)" xlink:href="#CMR17-30"/>
      </g>
     </g>
    </g>
    <g id="xtick_2">
     <g id="text_2">
      <!-- $\mathdefault{124}$ -->
      <g transform="translate(186.714963 185.58218)scale(0.12 -0.12)">
       <defs>
        <path d="M 1702 4058 
C 1702 4192 1696 4192 1606 4192 
C 1357 3916 979 3827 621 3827 
C 602 3827 570 3827 563 3808 
C 557 3795 557 3782 557 3648 
C 755 3648 1088 3686 1344 3839 
L 1344 461 
C 1344 236 1331 160 781 160 
L 589 160 
L 589 0 
C 896 0 1216 0 1523 0 
C 1830 0 2150 0 2458 0 
L 2458 160 
L 2266 160 
C 1715 160 1702 230 1702 458 
L 1702 4058 
z
" id="CMR17-31" transform="scale(0.015625)"/>
        <path d="M 2669 989 
L 2554 989 
C 2490 536 2438 459 2413 420 
C 2381 369 1920 369 1830 369 
L 602 369 
C 832 619 1280 1072 1824 1597 
C 2214 1967 2669 2402 2669 3035 
C 2669 3790 2067 4224 1395 4224 
C 691 4224 262 3604 262 3030 
C 262 2780 448 2748 525 2748 
C 589 2748 781 2787 781 3010 
C 781 3207 614 3264 525 3264 
C 486 3264 448 3258 422 3245 
C 544 3790 915 4058 1306 4058 
C 1862 4058 2227 3617 2227 3035 
C 2227 2479 1901 2000 1536 1584 
L 262 146 
L 262 0 
L 2515 0 
L 2669 989 
z
" id="CMR17-32" transform="scale(0.015625)"/>
        <path d="M 2150 4122 
C 2150 4256 2144 4256 2029 4256 
L 128 1254 
L 128 1088 
L 1779 1088 
L 1779 457 
C 1779 224 1766 160 1318 160 
L 1197 160 
L 1197 0 
C 1402 0 1747 0 1965 0 
C 2182 0 2528 0 2733 0 
L 2733 160 
L 2611 160 
C 2163 160 2150 224 2150 457 
L 2150 1088 
L 2803 1088 
L 2803 1254 
L 2150 1254 
L 2150 4122 
z
M 1798 3703 
L 1798 1254 
L 256 1254 
L 1798 3703 
z
" id="CMR17-34" transform="scale(0.015625)"/>
       </defs>
       <use transform="scale(0.996264)" xlink:href="#CMR17-31"/>
       <use transform="translate(45.690477 0)scale(0.996264)" xlink:href="#CMR17-32"/>
       <use transform="translate(91.380954 0)scale(0.996264)" xlink:href="#CMR17-34"/>
      </g>
     </g>
    </g>
    <g id="xtick_3">
     <g id="text_3">
      <!-- $\mathdefault{255}$ -->
      <g transform="translate(353.510171 185.58218)scale(0.12 -0.12)">
       <defs>
        <path d="M 730 3692 
C 794 3666 1056 3584 1325 3584 
C 1920 3584 2246 3911 2432 4100 
C 2432 4157 2432 4192 2394 4192 
C 2387 4192 2374 4192 2323 4163 
C 2099 4058 1837 3973 1517 3973 
C 1325 3973 1037 3999 723 4139 
C 653 4171 640 4171 634 4171 
C 602 4171 595 4164 595 4037 
L 595 2203 
C 595 2089 595 2057 659 2057 
C 691 2057 704 2070 736 2114 
C 941 2401 1222 2522 1542 2522 
C 1766 2522 2246 2382 2246 1289 
C 2246 1085 2246 715 2054 421 
C 1894 159 1645 25 1370 25 
C 947 25 518 320 403 814 
C 429 807 480 795 506 795 
C 589 795 749 840 749 1038 
C 749 1210 627 1280 506 1280 
C 358 1280 262 1190 262 1011 
C 262 454 704 -128 1382 -128 
C 2042 -128 2669 440 2669 1264 
C 2669 2030 2170 2624 1549 2624 
C 1222 2624 947 2503 730 2274 
L 730 3692 
z
" id="CMR17-35" transform="scale(0.015625)"/>
       </defs>
       <use transform="scale(0.996264)" xlink:href="#CMR17-32"/>
       <use transform="translate(45.690477 0)scale(0.996264)" xlink:href="#CMR17-35"/>
       <use transform="translate(91.380954 0)scale(0.996264)" xlink:href="#CMR17-35"/>
      </g>
     </g>
    </g>
   </g>
   <g id="matplotlib.axis_2">
    <g id="ytick_1">
     <g id="text_4">
      <!-- $\mathdefault{0}$ -->
      <g transform="translate(24.758971 174.43109)scale(0.12 -0.12)">
       <use transform="scale(0.996264)" xlink:href="#CMR17-30"/>
      </g>
     </g>
    </g>
    <g id="ytick_2">
     <g id="text_5">
      <!-- $\mathdefault{2000}$ -->
      <g transform="translate(7.2 139.315945)scale(0.12 -0.12)">
       <use transform="scale(0.996264)" xlink:href="#CMR17-32"/>
       <use transform="translate(45.690477 0)scale(0.996264)" xlink:href="#CMR17-30"/>
       <use transform="translate(91.380954 0)scale(0.996264)" xlink:href="#CMR17-30"/>
       <use transform="translate(137.071431 0)scale(0.996264)" xlink:href="#CMR17-30"/>
      </g>
     </g>
    </g>
    <g id="ytick_3">
     <g id="text_6">
      <!-- $\mathdefault{4000}$ -->
      <g transform="translate(7.2 104.2008)scale(0.12 -0.12)">
       <use transform="scale(0.996264)" xlink:href="#CMR17-34"/>
       <use transform="translate(45.690477 0)scale(0.996264)" xlink:href="#CMR17-30"/>
       <use transform="translate(91.380954 0)scale(0.996264)" xlink:href="#CMR17-30"/>
       <use transform="translate(137.071431 0)scale(0.996264)" xlink:href="#CMR17-30"/>
      </g>
     </g>
    </g>
    <g id="ytick_4">
     <g id="text_7">
      <!-- $\mathdefault{6000}$ -->
      <g transform="translate(7.2 69.085655)scale(0.12 -0.12)">
       <defs>
        <path d="M 678 2176 
C 678 3690 1395 4032 1811 4032 
C 1946 4032 2272 4009 2400 3776 
C 2298 3776 2106 3776 2106 3553 
C 2106 3381 2246 3323 2336 3323 
C 2394 3323 2566 3348 2566 3560 
C 2566 3954 2246 4179 1805 4179 
C 1043 4179 243 3390 243 1984 
C 243 253 966 -128 1478 -128 
C 2099 -128 2688 427 2688 1283 
C 2688 2081 2170 2662 1517 2662 
C 1126 2662 838 2407 678 1960 
L 678 2176 
z
M 1478 25 
C 691 25 691 1200 691 1436 
C 691 1896 909 2560 1504 2560 
C 1613 2560 1926 2560 2138 2120 
C 2253 1870 2253 1609 2253 1289 
C 2253 944 2253 690 2118 434 
C 1978 171 1773 25 1478 25 
z
" id="CMR17-36" transform="scale(0.015625)"/>
       </defs>
       <use transform="scale(0.996264)" xlink:href="#CMR17-36"/>
       <use transform="translate(45.690477 0)scale(0.996264)" xlink:href="#CMR17-30"/>
       <use transform="translate(91.380954 0)scale(0.996264)" xlink:href="#CMR17-30"/>
       <use transform="translate(137.071431 0)scale(0.996264)" xlink:href="#CMR17-30"/>
      </g>
     </g>
    </g>
    <g id="ytick_5">
     <g id="text_8">
      <!-- $\mathdefault{8000}$ -->
      <g transform="translate(7.2 33.97051)scale(0.12 -0.12)">
       <defs>
        <path d="M 1741 2264 
C 2144 2467 2554 2773 2554 3263 
C 2554 3841 1990 4179 1472 4179 
C 890 4179 378 3759 378 3180 
C 378 3021 416 2747 666 2505 
C 730 2442 998 2251 1171 2130 
C 883 1983 211 1634 211 934 
C 211 279 838 -128 1459 -128 
C 2144 -128 2720 362 2720 1010 
C 2720 1590 2330 1857 2074 2029 
L 1741 2264 
z
M 902 2822 
C 851 2854 595 3051 595 3351 
C 595 3739 998 4032 1459 4032 
C 1965 4032 2336 3676 2336 3262 
C 2336 2669 1670 2331 1638 2331 
C 1632 2331 1626 2331 1574 2370 
L 902 2822 
z
M 2080 1519 
C 2176 1449 2483 1240 2483 851 
C 2483 381 2010 25 1472 25 
C 890 25 448 438 448 940 
C 448 1443 838 1862 1280 2060 
L 2080 1519 
z
" id="CMR17-38" transform="scale(0.015625)"/>
       </defs>
       <use transform="scale(0.996264)" xlink:href="#CMR17-38"/>
       <use transform="translate(45.690477 0)scale(0.996264)" xlink:href="#CMR17-30"/>
       <use transform="translate(91.380954 0)scale(0.996264)" xlink:href="#CMR17-30"/>
       <use transform="translate(137.071431 0)scale(0.996264)" xlink:href="#CMR17-30"/>
      </g>
     </g>
    </g>
   </g>
   <g id="line2d_1">
    <path clip-path="url(#p18b21e76e5)" d="M 195.494448 170.28 
L 195.494448 7.2 
" style="fill:none;stroke:#ff0000;stroke-linecap:square;stroke-width:0.8;"/>
   </g>
   <g id="patch_131">
    <path d="M 37.611961 170.28 
L 37.611961 7.2 
" style="fill:none;stroke:#000000;stroke-linecap:square;stroke-linejoin:miter;stroke-width:0.8;"/>
   </g>
   <g id="patch_132">
    <path d="M 372.411961 170.28 
L 372.411961 7.2 
" style="fill:none;stroke:#000000;stroke-linecap:square;stroke-linejoin:miter;stroke-width:0.8;"/>
   </g>
   <g id="patch_133">
    <path d="M 37.611961 170.28 
L 372.411961 170.28 
" style="fill:none;stroke:#000000;stroke-linecap:square;stroke-linejoin:miter;stroke-width:0.8;"/>
   </g>
   <g id="patch_134">
    <path d="M 37.611961 7.2 
L 372.411961 7.2 
" style="fill:none;stroke:#000000;stroke-linecap:square;stroke-linejoin:miter;stroke-width:0.8;"/>
   </g>
   <g id="text_9">
    <!-- Class 0 -->
    <g transform="translate(93.509309 64.934565)scale(0.16 -0.16)">
     <defs>
      <path d="M 3501 714 
C 3072 427 2874 344 2355 344 
C 1459 344 934 1303 934 2179 
C 934 3112 1472 4032 2381 4032 
C 2790 4032 3059 3918 3386 3715 
L 3475 4217 
C 3168 4370 2778 4440 2387 4440 
C 1158 4440 397 3316 397 2179 
C 397 927 1299 -64 2323 -64 
C 2874 -64 3066 -19 3539 280 
L 3501 714 
z
" id="CMSS17-43" transform="scale(0.015625)"/>
      <path d="M 947 4416 
L 474 4416 
L 474 0 
L 947 0 
L 947 4416 
z
" id="CMSS17-6c" transform="scale(0.015625)"/>
      <path d="M 2406 1791 
C 2406 2392 1978 2808 1402 2808 
C 1120 2808 813 2757 461 2553 
L 499 2135 
C 659 2248 934 2432 1395 2432 
C 1722 2432 1920 2180 1920 1782 
L 1920 1536 
C 896 1536 256 1238 256 726 
C 256 461 416 -64 947 -64 
C 1043 -64 1562 -64 1933 217 
L 1933 -19 
L 2406 -19 
L 2406 1791 
z
M 1920 816 
C 1920 701 1920 548 1728 434 
C 1562 325 1350 325 1261 325 
C 941 325 723 511 723 744 
C 723 1211 1722 1211 1920 1211 
L 1920 816 
z
" id="CMSS17-61" transform="scale(0.015625)"/>
      <path d="M 2061 2627 
C 1683 2807 1389 2807 1197 2807 
C 742 2807 198 2648 198 2003 
C 198 1359 902 1218 1094 1179 
C 1389 1122 1715 1058 1715 740 
C 1715 337 1254 337 1171 337 
C 915 337 563 407 243 638 
L 166 210 
C 531 0 883 -64 1178 -64 
C 1965 -64 2163 416 2163 781 
C 2163 1094 1984 1305 1862 1401 
C 1651 1568 1574 1587 1050 1696 
C 960 1709 646 1779 646 2066 
C 646 2432 1050 2432 1139 2432 
C 1555 2432 1811 2303 1984 2208 
L 2061 2627 
z
" id="CMSS17-73" transform="scale(0.015625)"/>
      <path d="M 2758 2044 
C 2758 2405 2752 3077 2490 3596 
C 2227 4096 1805 4229 1504 4229 
C 1069 4229 698 3975 506 3570 
C 301 3146 243 2709 243 2044 
C 243 1589 262 1031 493 543 
C 755 5 1197 -128 1498 -128 
C 1894 -128 2278 81 2496 518 
C 2720 974 2758 1474 2758 2044 
z
M 1498 261 
C 1011 261 864 811 819 995 
C 742 1310 730 1614 730 2114 
C 730 2506 730 2948 851 3297 
C 998 3701 1254 3840 1498 3840 
C 1971 3840 2125 3372 2176 3208 
C 2272 2873 2272 2481 2272 2114 
C 2272 1526 2272 261 1498 261 
z
" id="CMSS17-30" transform="scale(0.015625)"/>
     </defs>
     <use transform="scale(0.996264)" xlink:href="#CMSS17-43"/>
     <use transform="translate(59.855772 0)scale(0.996264)" xlink:href="#CMSS17-6c"/>
     <use transform="translate(82.036495 0)scale(0.996264)" xlink:href="#CMSS17-61"/>
     <use transform="translate(126.958415 0)scale(0.996264)" xlink:href="#CMSS17-73"/>
     <use transform="translate(162.871957 0)scale(0.996264)" xlink:href="#CMSS17-73"/>
     <use transform="translate(230.014612 0)scale(0.996264)" xlink:href="#CMSS17-30"/>
    </g>
   </g>
   <g id="text_10">
    <!-- Class 1 -->
    <g transform="translate(292.261134 64.934565)scale(0.16 -0.16)">
     <defs>
      <path d="M 1818 4288 
L 1696 4288 
C 1350 3940 947 3890 538 3890 
L 538 3520 
C 723 3520 1024 3520 1325 3667 
L 1325 369 
L 570 369 
L 570 0 
L 2573 0 
L 2573 369 
L 1818 369 
L 1818 4288 
z
" id="CMSS17-31" transform="scale(0.015625)"/>
     </defs>
     <use transform="scale(0.996264)" xlink:href="#CMSS17-43"/>
     <use transform="translate(59.855772 0)scale(0.996264)" xlink:href="#CMSS17-6c"/>
     <use transform="translate(82.036495 0)scale(0.996264)" xlink:href="#CMSS17-61"/>
     <use transform="translate(126.958415 0)scale(0.996264)" xlink:href="#CMSS17-73"/>
     <use transform="translate(162.871957 0)scale(0.996264)" xlink:href="#CMSS17-73"/>
     <use transform="translate(230.014612 0)scale(0.996264)" xlink:href="#CMSS17-31"/>
    </g>
   </g>
  </g>
 </g>
 <defs>
  <clipPath id="p18b21e76e5">
   <rect height="163.08" width="334.8" x="37.611961" y="7.2"/>
  </clipPath>
 </defs>
</svg>
