<?xml version="1.0" encoding="utf-8" standalone="no"?>
<!DOCTYPE svg PUBLIC "-//W3C//DTD SVG 1.1//EN"
  "http://www.w3.org/Graphics/SVG/1.1/DTD/svg11.dtd">
<svg height="264.010603pt" version="1.1" viewBox="0 0 327.092719 264.010603" width="327.092719pt" xmlns="http://www.w3.org/2000/svg" xmlns:xlink="http://www.w3.org/1999/xlink">
 <metadata>
  <rdf:RDF xmlns:cc="http://creativecommons.org/ns#" xmlns:dc="http://purl.org/dc/elements/1.1/" xmlns:rdf="http://www.w3.org/1999/02/22-rdf-syntax-ns#">
   <cc:Work>
    <dc:type rdf:resource="http://purl.org/dc/dcmitype/StillImage"/>
    <dc:date>2023-11-10T08:43:46.445910</dc:date>
    <dc:format>image/svg+xml</dc:format>
    <dc:creator>
     <cc:Agent>
      <dc:title>Matplotlib v3.4.3, https://matplotlib.org/</dc:title>
     </cc:Agent>
    </dc:creator>
   </cc:Work>
  </rdf:RDF>
 </metadata>
 <defs>
  <style type="text/css">*{stroke-linecap:butt;stroke-linejoin:round;}</style>
 </defs>
 <g id="figure_1">
  <g id="patch_1">
   <path d="M 0 264.010603 
L 327.092719 264.010603 
L 327.092719 0 
L 0 0 
z
" style="fill:none;"/>
  </g>
  <g id="axes_1">
   <g id="patch_2">
    <path d="M 40.892719 228.099249 
L 319.892719 228.099249 
L 319.892719 10.659249 
L 40.892719 10.659249 
z
" style="fill:#ffffff;"/>
   </g>
   <g id="matplotlib.axis_1">
    <g id="xtick_1">
     <g id="line2d_1">
      <defs>
       <path d="M 0 0 
L 0 3.5 
" id="ma9fb8ab7db" style="stroke:#000000;stroke-width:0.8;"/>
      </defs>
      <g>
       <use style="stroke:#000000;stroke-width:0.8;" x="53.574537" xlink:href="#ma9fb8ab7db" y="228.099249"/>
      </g>
     </g>
     <g id="text_1">
      <!-- $\mathdefault{0}$ -->
      <g transform="translate(51.08387 242.017748)scale(0.1 -0.1)">
       <defs>
        <path d="M 2688 2038 
C 2688 2430 2682 3099 2413 3613 
C 2176 4063 1798 4224 1466 4224 
C 1158 4224 768 4082 525 3620 
C 269 3137 243 2539 243 2038 
C 243 1671 250 1112 448 623 
C 723 -39 1216 -128 1466 -128 
C 1760 -128 2208 -7 2470 604 
C 2662 1048 2688 1568 2688 2038 
z
M 1466 -26 
C 1056 -26 813 328 723 816 
C 653 1196 653 1749 653 2109 
C 653 2604 653 3015 736 3407 
C 858 3954 1216 4121 1466 4121 
C 1728 4121 2067 3947 2189 3420 
C 2272 3054 2278 2623 2278 2109 
C 2278 1691 2278 1176 2202 797 
C 2067 96 1690 -26 1466 -26 
z
" id="CMR17-30" transform="scale(0.015625)"/>
       </defs>
       <use transform="scale(0.996264)" xlink:href="#CMR17-30"/>
      </g>
     </g>
    </g>
    <g id="xtick_2">
     <g id="line2d_2">
      <g>
       <use style="stroke:#000000;stroke-width:0.8;" x="116.983628" xlink:href="#ma9fb8ab7db" y="228.099249"/>
      </g>
     </g>
     <g id="text_2">
      <!-- $\mathdefault{5}$ -->
      <g transform="translate(114.492961 242.017748)scale(0.1 -0.1)">
       <defs>
        <path d="M 730 3750 
C 794 3724 1056 3641 1325 3641 
C 1920 3641 2246 3961 2432 4140 
C 2432 4191 2432 4224 2394 4224 
C 2387 4224 2374 4224 2323 4198 
C 2099 4102 1837 4032 1517 4032 
C 1325 4032 1037 4055 723 4191 
C 653 4224 640 4224 634 4224 
C 602 4224 595 4217 595 4090 
L 595 2231 
C 595 2113 595 2080 659 2080 
C 691 2080 704 2093 736 2139 
C 941 2435 1222 2560 1542 2560 
C 1766 2560 2246 2415 2246 1293 
C 2246 1087 2246 716 2054 422 
C 1894 159 1645 25 1370 25 
C 947 25 518 319 403 812 
C 429 806 480 793 506 793 
C 589 793 749 838 749 1036 
C 749 1209 627 1280 506 1280 
C 358 1280 262 1190 262 1011 
C 262 454 704 -128 1382 -128 
C 2042 -128 2669 441 2669 1267 
C 2669 2054 2170 2662 1549 2662 
C 1222 2662 947 2540 730 2304 
L 730 3750 
z
" id="CMR17-35" transform="scale(0.015625)"/>
       </defs>
       <use transform="scale(0.996264)" xlink:href="#CMR17-35"/>
      </g>
     </g>
    </g>
    <g id="xtick_3">
     <g id="line2d_3">
      <g>
       <use style="stroke:#000000;stroke-width:0.8;" x="180.392719" xlink:href="#ma9fb8ab7db" y="228.099249"/>
      </g>
     </g>
     <g id="text_3">
      <!-- $\mathdefault{10}$ -->
      <g transform="translate(175.411384 242.017748)scale(0.1 -0.1)">
       <defs>
        <path d="M 1702 4083 
C 1702 4217 1696 4224 1606 4224 
C 1357 3927 979 3833 621 3820 
C 602 3820 570 3820 563 3808 
C 557 3795 557 3782 557 3648 
C 755 3648 1088 3686 1344 3839 
L 1344 467 
C 1344 243 1331 166 781 166 
L 589 166 
L 589 0 
C 896 6 1216 12 1523 12 
C 1830 12 2150 6 2458 0 
L 2458 166 
L 2266 166 
C 1715 166 1702 236 1702 467 
L 1702 4083 
z
" id="CMR17-31" transform="scale(0.015625)"/>
       </defs>
       <use transform="scale(0.996264)" xlink:href="#CMR17-31"/>
       <use transform="translate(45.690477 0)scale(0.996264)" xlink:href="#CMR17-30"/>
      </g>
     </g>
    </g>
    <g id="xtick_4">
     <g id="line2d_4">
      <g>
       <use style="stroke:#000000;stroke-width:0.8;" x="243.80181" xlink:href="#ma9fb8ab7db" y="228.099249"/>
      </g>
     </g>
     <g id="text_4">
      <!-- $\mathdefault{15}$ -->
      <g transform="translate(238.820475 242.017748)scale(0.1 -0.1)">
       <use transform="scale(0.996264)" xlink:href="#CMR17-31"/>
       <use transform="translate(45.690477 0)scale(0.996264)" xlink:href="#CMR17-35"/>
      </g>
     </g>
    </g>
    <g id="xtick_5">
     <g id="line2d_5">
      <g>
       <use style="stroke:#000000;stroke-width:0.8;" x="307.210901" xlink:href="#ma9fb8ab7db" y="228.099249"/>
      </g>
     </g>
     <g id="text_5">
      <!-- $\mathdefault{20}$ -->
      <g transform="translate(302.229566 242.017748)scale(0.1 -0.1)">
       <defs>
        <path d="M 2669 990 
L 2554 990 
C 2490 537 2438 460 2413 422 
C 2381 371 1920 371 1830 371 
L 602 371 
C 832 620 1280 1073 1824 1596 
C 2214 1966 2669 2400 2669 3033 
C 2669 3788 2067 4224 1395 4224 
C 691 4224 262 3603 262 3027 
C 262 2777 448 2745 525 2745 
C 589 2745 781 2783 781 3007 
C 781 3206 614 3264 525 3264 
C 486 3264 448 3257 422 3244 
C 544 3788 915 4057 1306 4057 
C 1862 4057 2227 3616 2227 3033 
C 2227 2477 1901 1998 1536 1583 
L 262 147 
L 262 0 
L 2515 0 
L 2669 990 
z
" id="CMR17-32" transform="scale(0.015625)"/>
       </defs>
       <use transform="scale(0.996264)" xlink:href="#CMR17-32"/>
       <use transform="translate(45.690477 0)scale(0.996264)" xlink:href="#CMR17-30"/>
      </g>
     </g>
    </g>
    <g id="text_6">
     <!-- $k$ -->
     <g transform="translate(177.799424 254.873424)scale(0.1 -0.1)">
      <defs>
       <path d="M 1798 4255 
C 1805 4281 1818 4319 1818 4351 
C 1818 4416 1754 4416 1741 4416 
C 1734 4416 1504 4396 1389 4383 
C 1280 4377 1184 4364 1069 4358 
C 915 4345 870 4339 870 4223 
C 870 4159 934 4159 998 4159 
C 1325 4159 1325 4103 1325 4040 
C 1325 4014 1325 4002 1293 3888 
L 378 250 
C 352 153 352 141 352 102 
C 352 -39 461 -64 525 -64 
C 704 -64 742 76 794 275 
L 1094 1476 
C 1555 1425 1830 1232 1830 924 
C 1830 885 1830 860 1811 763 
C 1786 667 1786 590 1786 558 
C 1786 185 2029 -64 2355 -64 
C 2650 -64 2803 205 2854 295 
C 2989 532 3072 892 3072 917 
C 3072 949 3046 975 3008 975 
C 2950 975 2944 949 2918 847 
C 2829 513 2694 64 2368 64 
C 2240 64 2157 128 2157 372 
C 2157 494 2182 635 2208 731 
C 2234 847 2234 853 2234 930 
C 2234 1309 1894 1521 1306 1598 
C 1536 1739 1766 1989 1856 2086 
C 2221 2495 2470 2687 2765 2687 
C 2912 2687 2950 2655 2995 2624 
C 2758 2598 2669 2431 2669 2303 
C 2669 2150 2790 2099 2880 2099 
C 3053 2099 3206 2246 3206 2451 
C 3206 2634 3059 2816 2771 2816 
C 2419 2816 2131 2579 1677 2067 
C 1613 1989 1376 1746 1139 1656 
L 1798 4255 
z
" id="CMMI12-6b" transform="scale(0.015625)"/>
      </defs>
      <use transform="scale(0.996264)" xlink:href="#CMMI12-6b"/>
     </g>
    </g>
   </g>
   <g id="matplotlib.axis_2">
    <g id="ytick_1">
     <g id="line2d_6">
      <defs>
       <path d="M 0 0 
L -3.5 0 
" id="m75c052d9b1" style="stroke:#000000;stroke-width:0.8;"/>
      </defs>
      <g>
       <use style="stroke:#000000;stroke-width:0.8;" x="40.892719" xlink:href="#m75c052d9b1" y="218.539873"/>
      </g>
     </g>
     <g id="text_7">
      <!-- $\mathdefault{0.0}$ -->
      <g transform="translate(21.16264 221.999122)scale(0.1 -0.1)">
       <defs>
        <path d="M 1178 307 
C 1178 492 1024 620 870 620 
C 685 620 557 467 557 313 
C 557 128 710 0 864 0 
C 1050 0 1178 153 1178 307 
z
" id="CMMI12-3a" transform="scale(0.015625)"/>
       </defs>
       <use transform="scale(0.996264)" xlink:href="#CMR17-30"/>
       <use transform="translate(45.690477 0)scale(0.996264)" xlink:href="#CMMI12-3a"/>
       <use transform="translate(72.787654 0)scale(0.996264)" xlink:href="#CMR17-30"/>
      </g>
     </g>
    </g>
    <g id="ytick_2">
     <g id="line2d_7">
      <g>
       <use style="stroke:#000000;stroke-width:0.8;" x="40.892719" xlink:href="#m75c052d9b1" y="166.569717"/>
      </g>
     </g>
     <g id="text_8">
      <!-- $\mathdefault{0.1}$ -->
      <g transform="translate(21.16264 170.028966)scale(0.1 -0.1)">
       <use transform="scale(0.996264)" xlink:href="#CMR17-30"/>
       <use transform="translate(45.690477 0)scale(0.996264)" xlink:href="#CMMI12-3a"/>
       <use transform="translate(72.787654 0)scale(0.996264)" xlink:href="#CMR17-31"/>
      </g>
     </g>
    </g>
    <g id="ytick_3">
     <g id="line2d_8">
      <g>
       <use style="stroke:#000000;stroke-width:0.8;" x="40.892719" xlink:href="#m75c052d9b1" y="114.599561"/>
      </g>
     </g>
     <g id="text_9">
      <!-- $\mathdefault{0.2}$ -->
      <g transform="translate(21.16264 118.05881)scale(0.1 -0.1)">
       <use transform="scale(0.996264)" xlink:href="#CMR17-30"/>
       <use transform="translate(45.690477 0)scale(0.996264)" xlink:href="#CMMI12-3a"/>
       <use transform="translate(72.787654 0)scale(0.996264)" xlink:href="#CMR17-32"/>
      </g>
     </g>
    </g>
    <g id="ytick_4">
     <g id="line2d_9">
      <g>
       <use style="stroke:#000000;stroke-width:0.8;" x="40.892719" xlink:href="#m75c052d9b1" y="62.629405"/>
      </g>
     </g>
     <g id="text_10">
      <!-- $\mathdefault{0.3}$ -->
      <g transform="translate(21.16264 66.088654)scale(0.1 -0.1)">
       <defs>
        <path d="M 1414 2176 
C 1984 2176 2234 1673 2234 1094 
C 2234 322 1824 25 1453 25 
C 1114 25 563 193 390 691 
C 422 678 454 678 486 678 
C 640 678 755 780 755 947 
C 755 1132 614 1216 486 1216 
C 378 1216 211 1164 211 927 
C 211 335 787 -128 1466 -128 
C 2176 -128 2720 432 2720 1087 
C 2720 1718 2208 2176 1600 2246 
C 2086 2347 2554 2776 2554 3353 
C 2554 3856 2048 4224 1472 4224 
C 890 4224 378 3862 378 3347 
C 378 3123 544 3084 627 3084 
C 762 3084 877 3167 877 3334 
C 877 3500 762 3584 627 3584 
C 602 3584 570 3584 544 3571 
C 730 3999 1235 4076 1459 4076 
C 1683 4076 2106 3966 2106 3347 
C 2106 3167 2080 2851 1862 2574 
C 1670 2329 1453 2316 1242 2297 
C 1210 2297 1062 2284 1037 2284 
C 992 2278 966 2272 966 2227 
C 966 2182 973 2176 1101 2176 
L 1414 2176 
z
" id="CMR17-33" transform="scale(0.015625)"/>
       </defs>
       <use transform="scale(0.996264)" xlink:href="#CMR17-30"/>
       <use transform="translate(45.690477 0)scale(0.996264)" xlink:href="#CMMI12-3a"/>
       <use transform="translate(72.787654 0)scale(0.996264)" xlink:href="#CMR17-33"/>
      </g>
     </g>
    </g>
    <g id="ytick_5">
     <g id="line2d_10">
      <g>
       <use style="stroke:#000000;stroke-width:0.8;" x="40.892719" xlink:href="#m75c052d9b1" y="10.659249"/>
      </g>
     </g>
     <g id="text_11">
      <!-- $\mathdefault{0.4}$ -->
      <g transform="translate(21.16264 14.118498)scale(0.1 -0.1)">
       <defs>
        <path d="M 2150 4147 
C 2150 4281 2144 4288 2029 4288 
L 128 1254 
L 128 1088 
L 1779 1088 
L 1779 460 
C 1779 230 1766 166 1318 166 
L 1197 166 
L 1197 0 
C 1402 12 1747 12 1965 12 
C 2182 12 2528 12 2733 0 
L 2733 166 
L 2611 166 
C 2163 166 2150 230 2150 460 
L 2150 1088 
L 2803 1088 
L 2803 1254 
L 2150 1254 
L 2150 4147 
z
M 1798 3723 
L 1798 1254 
L 256 1254 
L 1798 3723 
z
" id="CMR17-34" transform="scale(0.015625)"/>
       </defs>
       <use transform="scale(0.996264)" xlink:href="#CMR17-30"/>
       <use transform="translate(45.690477 0)scale(0.996264)" xlink:href="#CMMI12-3a"/>
       <use transform="translate(72.787654 0)scale(0.996264)" xlink:href="#CMR17-34"/>
      </g>
     </g>
    </g>
    <g id="text_12">
     <!-- $p(k)$ -->
     <g transform="translate(14.67198 128.509957)rotate(-90)scale(0.1 -0.1)">
      <defs>
       <path d="M 275 -794 
C 230 -981 205 -1031 -58 -1031 
C -135 -1031 -199 -1031 -199 -1152 
C -199 -1165 -192 -1216 -122 -1216 
C -39 -1216 51 -1204 134 -1204 
L 410 -1204 
C 544 -1204 870 -1216 1005 -1216 
C 1043 -1216 1120 -1216 1120 -1101 
C 1120 -1031 1075 -1031 966 -1031 
C 672 -1031 653 -987 653 -937 
C 653 -863 941 217 979 364 
C 1050 185 1222 -64 1555 -64 
C 2278 -64 3059 874 3059 1813 
C 3059 2400 2726 2816 2246 2816 
C 1837 2816 1491 2419 1421 2330 
C 1370 2649 1120 2816 864 2816 
C 678 2816 531 2726 410 2483 
C 294 2253 205 1864 205 1838 
C 205 1813 230 1781 275 1781 
C 326 1781 333 1787 371 1934 
C 467 2311 589 2687 845 2687 
C 992 2687 1043 2585 1043 2394 
C 1043 2241 1024 2177 998 2062 
L 275 -794 
z
M 1382 1992 
C 1427 2170 1606 2356 1709 2445 
C 1779 2509 1990 2687 2234 2687 
C 2515 2687 2643 2407 2643 2075 
C 2643 1768 2464 1047 2304 715 
C 2144 370 1850 64 1555 64 
C 1120 64 1050 613 1050 638 
C 1050 657 1062 708 1069 740 
L 1382 1992 
z
" id="CMMI12-70" transform="scale(0.015625)"/>
       <path d="M 1958 -1562 
C 1958 -1556 1958 -1543 1939 -1524 
C 1645 -1223 858 -403 858 1596 
C 858 3595 1632 4408 1946 4729 
C 1946 4735 1958 4748 1958 4767 
C 1958 4787 1939 4800 1914 4800 
C 1843 4800 1299 4325 986 3620 
C 666 2909 576 2218 576 1603 
C 576 1141 621 360 1005 -467 
C 1312 -1133 1837 -1600 1914 -1600 
C 1946 -1600 1958 -1588 1958 -1562 
z
" id="CMR17-28" transform="scale(0.015625)"/>
       <path d="M 1683 1596 
C 1683 2057 1638 2839 1254 3665 
C 947 4332 422 4800 346 4800 
C 326 4800 301 4793 301 4761 
C 301 4748 307 4742 314 4729 
C 621 4408 1402 3595 1402 1603 
C 1402 -396 627 -1210 314 -1530 
C 307 -1543 301 -1549 301 -1562 
C 301 -1594 326 -1600 346 -1600 
C 416 -1600 960 -1127 1274 -422 
C 1594 289 1683 981 1683 1596 
z
" id="CMR17-29" transform="scale(0.015625)"/>
      </defs>
      <use transform="scale(0.996264)" xlink:href="#CMMI12-70"/>
      <use transform="translate(48.959514 0)scale(0.996264)" xlink:href="#CMR17-28"/>
      <use transform="translate(84.240282 0)scale(0.996264)" xlink:href="#CMMI12-6b"/>
      <use transform="translate(138.319482 0)scale(0.996264)" xlink:href="#CMR17-29"/>
     </g>
    </g>
   </g>
   <g id="line2d_11">
    <path clip-path="url(#pc0aa297583)" d="M 53.574537 27.352354 
L 66.256355 27.352354 
L 78.938174 122.946113 
L 91.619992 186.675287 
L 104.30181 210.573727 
L 116.983628 216.946644 
L 129.665446 218.274335 
L 142.347265 218.501939 
L 155.029083 218.535131 
L 167.710901 218.539346 
L 180.392719 218.539821 
L 193.074537 218.539868 
L 205.756355 218.539873 
L 218.438174 218.539873 
L 231.119992 218.539873 
L 243.80181 218.539873 
L 256.483628 218.539873 
L 269.165446 218.539873 
L 281.847265 218.539873 
L 294.529083 218.539873 
L 307.210901 218.539873 
" style="fill:none;stroke:#1f77b4;stroke-linecap:square;stroke-width:1.5;"/>
    <defs>
     <path d="M 0 3 
C 0.795609 3 1.55874 2.683901 2.12132 2.12132 
C 2.683901 1.55874 3 0.795609 3 0 
C 3 -0.795609 2.683901 -1.55874 2.12132 -2.12132 
C 1.55874 -2.683901 0.795609 -3 0 -3 
C -0.795609 -3 -1.55874 -2.683901 -2.12132 -2.12132 
C -2.683901 -1.55874 -3 -0.795609 -3 0 
C -3 0.795609 -2.683901 1.55874 -2.12132 2.12132 
C -1.55874 2.683901 -0.795609 3 0 3 
z
" id="mab6c5cf3f8" style="stroke:#1f77b4;"/>
    </defs>
    <g clip-path="url(#pc0aa297583)">
     <use style="fill:#1f77b4;stroke:#1f77b4;" x="53.574537" xlink:href="#mab6c5cf3f8" y="27.352354"/>
     <use style="fill:#1f77b4;stroke:#1f77b4;" x="66.256355" xlink:href="#mab6c5cf3f8" y="27.352354"/>
     <use style="fill:#1f77b4;stroke:#1f77b4;" x="78.938174" xlink:href="#mab6c5cf3f8" y="122.946113"/>
     <use style="fill:#1f77b4;stroke:#1f77b4;" x="91.619992" xlink:href="#mab6c5cf3f8" y="186.675287"/>
     <use style="fill:#1f77b4;stroke:#1f77b4;" x="104.30181" xlink:href="#mab6c5cf3f8" y="210.573727"/>
     <use style="fill:#1f77b4;stroke:#1f77b4;" x="116.983628" xlink:href="#mab6c5cf3f8" y="216.946644"/>
     <use style="fill:#1f77b4;stroke:#1f77b4;" x="129.665446" xlink:href="#mab6c5cf3f8" y="218.274335"/>
     <use style="fill:#1f77b4;stroke:#1f77b4;" x="142.347265" xlink:href="#mab6c5cf3f8" y="218.501939"/>
     <use style="fill:#1f77b4;stroke:#1f77b4;" x="155.029083" xlink:href="#mab6c5cf3f8" y="218.535131"/>
     <use style="fill:#1f77b4;stroke:#1f77b4;" x="167.710901" xlink:href="#mab6c5cf3f8" y="218.539346"/>
     <use style="fill:#1f77b4;stroke:#1f77b4;" x="180.392719" xlink:href="#mab6c5cf3f8" y="218.539821"/>
     <use style="fill:#1f77b4;stroke:#1f77b4;" x="193.074537" xlink:href="#mab6c5cf3f8" y="218.539868"/>
     <use style="fill:#1f77b4;stroke:#1f77b4;" x="205.756355" xlink:href="#mab6c5cf3f8" y="218.539873"/>
     <use style="fill:#1f77b4;stroke:#1f77b4;" x="218.438174" xlink:href="#mab6c5cf3f8" y="218.539873"/>
     <use style="fill:#1f77b4;stroke:#1f77b4;" x="231.119992" xlink:href="#mab6c5cf3f8" y="218.539873"/>
     <use style="fill:#1f77b4;stroke:#1f77b4;" x="243.80181" xlink:href="#mab6c5cf3f8" y="218.539873"/>
     <use style="fill:#1f77b4;stroke:#1f77b4;" x="256.483628" xlink:href="#mab6c5cf3f8" y="218.539873"/>
     <use style="fill:#1f77b4;stroke:#1f77b4;" x="269.165446" xlink:href="#mab6c5cf3f8" y="218.539873"/>
     <use style="fill:#1f77b4;stroke:#1f77b4;" x="281.847265" xlink:href="#mab6c5cf3f8" y="218.539873"/>
     <use style="fill:#1f77b4;stroke:#1f77b4;" x="294.529083" xlink:href="#mab6c5cf3f8" y="218.539873"/>
     <use style="fill:#1f77b4;stroke:#1f77b4;" x="307.210901" xlink:href="#mab6c5cf3f8" y="218.539873"/>
    </g>
   </g>
   <g id="line2d_12">
    <path clip-path="url(#pc0aa297583)" d="M 53.574537 209.021207 
L 66.256355 180.465209 
L 78.938174 142.390544 
L 91.619992 117.007435 
L 104.30181 117.007435 
L 116.983628 137.313922 
L 129.665446 164.389239 
L 142.347265 187.596654 
L 155.029083 203.068264 
L 167.710901 211.663602 
L 180.392719 215.789365 
L 193.074537 217.539688 
L 205.756355 218.206478 
L 218.438174 218.43729 
L 231.119992 218.510564 
L 243.80181 218.532057 
L 256.483628 218.537919 
L 269.165446 218.539413 
L 281.847265 218.539771 
L 294.529083 218.539852 
L 307.210901 218.539869 
" style="fill:none;stroke:#ff7f0e;stroke-linecap:square;stroke-width:1.5;"/>
    <defs>
     <path d="M 0 3 
C 0.795609 3 1.55874 2.683901 2.12132 2.12132 
C 2.683901 1.55874 3 0.795609 3 0 
C 3 -0.795609 2.683901 -1.55874 2.12132 -2.12132 
C 1.55874 -2.683901 0.795609 -3 0 -3 
C -0.795609 -3 -1.55874 -2.683901 -2.12132 -2.12132 
C -2.683901 -1.55874 -3 -0.795609 -3 0 
C -3 0.795609 -2.683901 1.55874 -2.12132 2.12132 
C -1.55874 2.683901 -0.795609 3 0 3 
z
" id="m2e93ea5fe1" style="stroke:#ff7f0e;"/>
    </defs>
    <g clip-path="url(#pc0aa297583)">
     <use style="fill:#ff7f0e;stroke:#ff7f0e;" x="53.574537" xlink:href="#m2e93ea5fe1" y="209.021207"/>
     <use style="fill:#ff7f0e;stroke:#ff7f0e;" x="66.256355" xlink:href="#m2e93ea5fe1" y="180.465209"/>
     <use style="fill:#ff7f0e;stroke:#ff7f0e;" x="78.938174" xlink:href="#m2e93ea5fe1" y="142.390544"/>
     <use style="fill:#ff7f0e;stroke:#ff7f0e;" x="91.619992" xlink:href="#m2e93ea5fe1" y="117.007435"/>
     <use style="fill:#ff7f0e;stroke:#ff7f0e;" x="104.30181" xlink:href="#m2e93ea5fe1" y="117.007435"/>
     <use style="fill:#ff7f0e;stroke:#ff7f0e;" x="116.983628" xlink:href="#m2e93ea5fe1" y="137.313922"/>
     <use style="fill:#ff7f0e;stroke:#ff7f0e;" x="129.665446" xlink:href="#m2e93ea5fe1" y="164.389239"/>
     <use style="fill:#ff7f0e;stroke:#ff7f0e;" x="142.347265" xlink:href="#m2e93ea5fe1" y="187.596654"/>
     <use style="fill:#ff7f0e;stroke:#ff7f0e;" x="155.029083" xlink:href="#m2e93ea5fe1" y="203.068264"/>
     <use style="fill:#ff7f0e;stroke:#ff7f0e;" x="167.710901" xlink:href="#m2e93ea5fe1" y="211.663602"/>
     <use style="fill:#ff7f0e;stroke:#ff7f0e;" x="180.392719" xlink:href="#m2e93ea5fe1" y="215.789365"/>
     <use style="fill:#ff7f0e;stroke:#ff7f0e;" x="193.074537" xlink:href="#m2e93ea5fe1" y="217.539688"/>
     <use style="fill:#ff7f0e;stroke:#ff7f0e;" x="205.756355" xlink:href="#m2e93ea5fe1" y="218.206478"/>
     <use style="fill:#ff7f0e;stroke:#ff7f0e;" x="218.438174" xlink:href="#m2e93ea5fe1" y="218.43729"/>
     <use style="fill:#ff7f0e;stroke:#ff7f0e;" x="231.119992" xlink:href="#m2e93ea5fe1" y="218.510564"/>
     <use style="fill:#ff7f0e;stroke:#ff7f0e;" x="243.80181" xlink:href="#m2e93ea5fe1" y="218.532057"/>
     <use style="fill:#ff7f0e;stroke:#ff7f0e;" x="256.483628" xlink:href="#m2e93ea5fe1" y="218.537919"/>
     <use style="fill:#ff7f0e;stroke:#ff7f0e;" x="269.165446" xlink:href="#m2e93ea5fe1" y="218.539413"/>
     <use style="fill:#ff7f0e;stroke:#ff7f0e;" x="281.847265" xlink:href="#m2e93ea5fe1" y="218.539771"/>
     <use style="fill:#ff7f0e;stroke:#ff7f0e;" x="294.529083" xlink:href="#m2e93ea5fe1" y="218.539852"/>
     <use style="fill:#ff7f0e;stroke:#ff7f0e;" x="307.210901" xlink:href="#m2e93ea5fe1" y="218.539869"/>
    </g>
   </g>
   <g id="line2d_13">
    <path clip-path="url(#pc0aa297583)" d="M 53.574537 218.516279 
L 66.256355 218.303929 
L 78.938174 217.360152 
L 91.619992 214.607471 
L 104.30181 208.708867 
L 116.983628 198.877861 
L 129.665446 185.769853 
L 142.347265 171.725559 
L 155.029083 160.021981 
L 167.710901 153.519992 
L 180.392719 153.519992 
L 193.074537 159.430891 
L 205.756355 169.282388 
L 218.438174 180.6495 
L 231.119992 191.475321 
L 243.80181 200.496838 
L 256.483628 207.262976 
L 269.165446 211.906404 
L 281.847265 214.854613 
L 294.529083 216.600262 
L 307.210901 217.570068 
" style="fill:none;stroke:#2ca02c;stroke-linecap:square;stroke-width:1.5;"/>
    <defs>
     <path d="M 0 3 
C 0.795609 3 1.55874 2.683901 2.12132 2.12132 
C 2.683901 1.55874 3 0.795609 3 0 
C 3 -0.795609 2.683901 -1.55874 2.12132 -2.12132 
C 1.55874 -2.683901 0.795609 -3 0 -3 
C -0.795609 -3 -1.55874 -2.683901 -2.12132 -2.12132 
C -2.683901 -1.55874 -3 -0.795609 -3 0 
C -3 0.795609 -2.683901 1.55874 -2.12132 2.12132 
C -1.55874 2.683901 -0.795609 3 0 3 
z
" id="m854ff47460" style="stroke:#2ca02c;"/>
    </defs>
    <g clip-path="url(#pc0aa297583)">
     <use style="fill:#2ca02c;stroke:#2ca02c;" x="53.574537" xlink:href="#m854ff47460" y="218.516279"/>
     <use style="fill:#2ca02c;stroke:#2ca02c;" x="66.256355" xlink:href="#m854ff47460" y="218.303929"/>
     <use style="fill:#2ca02c;stroke:#2ca02c;" x="78.938174" xlink:href="#m854ff47460" y="217.360152"/>
     <use style="fill:#2ca02c;stroke:#2ca02c;" x="91.619992" xlink:href="#m854ff47460" y="214.607471"/>
     <use style="fill:#2ca02c;stroke:#2ca02c;" x="104.30181" xlink:href="#m854ff47460" y="208.708867"/>
     <use style="fill:#2ca02c;stroke:#2ca02c;" x="116.983628" xlink:href="#m854ff47460" y="198.877861"/>
     <use style="fill:#2ca02c;stroke:#2ca02c;" x="129.665446" xlink:href="#m854ff47460" y="185.769853"/>
     <use style="fill:#2ca02c;stroke:#2ca02c;" x="142.347265" xlink:href="#m854ff47460" y="171.725559"/>
     <use style="fill:#2ca02c;stroke:#2ca02c;" x="155.029083" xlink:href="#m854ff47460" y="160.021981"/>
     <use style="fill:#2ca02c;stroke:#2ca02c;" x="167.710901" xlink:href="#m854ff47460" y="153.519992"/>
     <use style="fill:#2ca02c;stroke:#2ca02c;" x="180.392719" xlink:href="#m854ff47460" y="153.519992"/>
     <use style="fill:#2ca02c;stroke:#2ca02c;" x="193.074537" xlink:href="#m854ff47460" y="159.430891"/>
     <use style="fill:#2ca02c;stroke:#2ca02c;" x="205.756355" xlink:href="#m854ff47460" y="169.282388"/>
     <use style="fill:#2ca02c;stroke:#2ca02c;" x="218.438174" xlink:href="#m854ff47460" y="180.6495"/>
     <use style="fill:#2ca02c;stroke:#2ca02c;" x="231.119992" xlink:href="#m854ff47460" y="191.475321"/>
     <use style="fill:#2ca02c;stroke:#2ca02c;" x="243.80181" xlink:href="#m854ff47460" y="200.496838"/>
     <use style="fill:#2ca02c;stroke:#2ca02c;" x="256.483628" xlink:href="#m854ff47460" y="207.262976"/>
     <use style="fill:#2ca02c;stroke:#2ca02c;" x="269.165446" xlink:href="#m854ff47460" y="211.906404"/>
     <use style="fill:#2ca02c;stroke:#2ca02c;" x="281.847265" xlink:href="#m854ff47460" y="214.854613"/>
     <use style="fill:#2ca02c;stroke:#2ca02c;" x="294.529083" xlink:href="#m854ff47460" y="216.600262"/>
     <use style="fill:#2ca02c;stroke:#2ca02c;" x="307.210901" xlink:href="#m854ff47460" y="217.570068"/>
    </g>
   </g>
   <g id="patch_3">
    <path d="M 40.892719 228.099249 
L 40.892719 10.659249 
" style="fill:none;stroke:#000000;stroke-linecap:square;stroke-linejoin:miter;stroke-width:0.8;"/>
   </g>
   <g id="patch_4">
    <path d="M 319.892719 228.099249 
L 319.892719 10.659249 
" style="fill:none;stroke:#000000;stroke-linecap:square;stroke-linejoin:miter;stroke-width:0.8;"/>
   </g>
   <g id="patch_5">
    <path d="M 40.892719 228.099249 
L 319.892719 228.099249 
" style="fill:none;stroke:#000000;stroke-linecap:square;stroke-linejoin:miter;stroke-width:0.8;"/>
   </g>
   <g id="patch_6">
    <path d="M 40.892719 10.659249 
L 319.892719 10.659249 
" style="fill:none;stroke:#000000;stroke-linecap:square;stroke-linejoin:miter;stroke-width:0.8;"/>
   </g>
   <g id="legend_1">
    <g id="patch_7">
     <path d="M 251.835075 60.470784 
L 312.892719 60.470784 
Q 314.892719 60.470784 314.892719 58.470784 
L 314.892719 17.659249 
Q 314.892719 15.659249 312.892719 15.659249 
L 251.835075 15.659249 
Q 249.835075 15.659249 249.835075 17.659249 
L 249.835075 58.470784 
Q 249.835075 60.470784 251.835075 60.470784 
z
" style="fill:#ffffff;opacity:0.8;stroke:#cccccc;stroke-linejoin:miter;"/>
    </g>
    <g id="line2d_14">
     <path d="M 253.835075 23.159249 
L 273.835075 23.159249 
" style="fill:none;stroke:#1f77b4;stroke-linecap:square;stroke-width:1.5;"/>
    </g>
    <g id="line2d_15">
     <g>
      <use style="fill:#1f77b4;stroke:#1f77b4;" x="263.835075" xlink:href="#mab6c5cf3f8" y="23.159249"/>
     </g>
    </g>
    <g id="text_13">
     <!-- $\lambda=1$ -->
     <g transform="translate(281.835075 26.659249)scale(0.1 -0.1)">
      <defs>
       <path d="M 1978 3963 
C 1818 4416 1312 4416 1229 4416 
C 1190 4416 1120 4416 1120 4351 
C 1120 4300 1158 4294 1190 4287 
C 1286 4275 1363 4262 1466 4078 
C 1530 3957 2189 2055 2189 2042 
C 2189 2036 2182 2029 2131 1978 
L 467 305 
C 390 229 339 178 339 95 
C 339 6 416 -71 518 -71 
C 544 -71 614 -58 653 -20 
C 755 76 1670 1190 2253 1877 
C 2419 1380 2624 795 2822 261 
C 2854 165 2886 76 2976 -7 
C 3040 -64 3053 -64 3232 -64 
L 3354 -64 
C 3379 -64 3424 -64 3424 -13 
C 3424 12 3418 19 3392 44 
C 3334 114 3290 229 3264 305 
L 1978 3963 
z
" id="CMMI12-15" transform="scale(0.015625)"/>
       <path d="M 4115 2048 
C 4211 2048 4307 2048 4307 2156 
C 4307 2272 4198 2272 4090 2272 
L 512 2272 
C 403 2272 294 2272 294 2156 
C 294 2048 390 2048 486 2048 
L 4115 2048 
z
M 4090 927 
C 4198 927 4307 927 4307 1043 
C 4307 1152 4211 1152 4115 1152 
L 486 1152 
C 390 1152 294 1152 294 1043 
C 294 927 403 927 512 927 
L 4090 927 
z
" id="CMR17-3d" transform="scale(0.015625)"/>
      </defs>
      <use transform="scale(0.996264)" xlink:href="#CMMI12-15"/>
      <use transform="translate(84.578081 0)scale(0.996264)" xlink:href="#CMR17-3d"/>
      <use transform="translate(183.966878 0)scale(0.996264)" xlink:href="#CMR17-31"/>
     </g>
    </g>
    <g id="line2d_16">
     <path d="M 253.835075 37.096428 
L 273.835075 37.096428 
" style="fill:none;stroke:#ff7f0e;stroke-linecap:square;stroke-width:1.5;"/>
    </g>
    <g id="line2d_17">
     <g>
      <use style="fill:#ff7f0e;stroke:#ff7f0e;" x="263.835075" xlink:href="#m2e93ea5fe1" y="37.096428"/>
     </g>
    </g>
    <g id="text_14">
     <!-- $\lambda=4$ -->
     <g transform="translate(281.835075 40.596428)scale(0.1 -0.1)">
      <use transform="scale(0.996264)" xlink:href="#CMMI12-15"/>
      <use transform="translate(84.578081 0)scale(0.996264)" xlink:href="#CMR17-3d"/>
      <use transform="translate(183.966878 0)scale(0.996264)" xlink:href="#CMR17-34"/>
     </g>
    </g>
    <g id="line2d_18">
     <path d="M 253.835075 51.033606 
L 273.835075 51.033606 
" style="fill:none;stroke:#2ca02c;stroke-linecap:square;stroke-width:1.5;"/>
    </g>
    <g id="line2d_19">
     <g>
      <use style="fill:#2ca02c;stroke:#2ca02c;" x="263.835075" xlink:href="#m854ff47460" y="51.033606"/>
     </g>
    </g>
    <g id="text_15">
     <!-- $\lambda=10$ -->
     <g transform="translate(281.835075 54.533606)scale(0.1 -0.1)">
      <use transform="scale(0.996264)" xlink:href="#CMMI12-15"/>
      <use transform="translate(84.578081 0)scale(0.996264)" xlink:href="#CMR17-3d"/>
      <use transform="translate(183.966878 0)scale(0.996264)" xlink:href="#CMR17-31"/>
      <use transform="translate(229.657355 0)scale(0.996264)" xlink:href="#CMR17-30"/>
     </g>
    </g>
   </g>
  </g>
 </g>
 <defs>
  <clipPath id="pc0aa297583">
   <rect height="217.44" width="279" x="40.892719" y="10.659249"/>
  </clipPath>
 </defs>
</svg>
