<?xml version="1.0" encoding="utf-8" standalone="no"?>
<!DOCTYPE svg PUBLIC "-//W3C//DTD SVG 1.1//EN"
  "http://www.w3.org/Graphics/SVG/1.1/DTD/svg11.dtd">
<svg height="264.010603pt" version="1.1" viewBox="0 0 327.092719 264.010603" width="327.092719pt" xmlns="http://www.w3.org/2000/svg" xmlns:xlink="http://www.w3.org/1999/xlink">
 <metadata>
  <rdf:RDF xmlns:cc="http://creativecommons.org/ns#" xmlns:dc="http://purl.org/dc/elements/1.1/" xmlns:rdf="http://www.w3.org/1999/02/22-rdf-syntax-ns#">
   <cc:Work>
    <dc:type rdf:resource="http://purl.org/dc/dcmitype/StillImage"/>
    <dc:date>2021-10-13T15:39:05.044141</dc:date>
    <dc:format>image/svg+xml</dc:format>
    <dc:creator>
     <cc:Agent>
      <dc:title>Matplotlib v3.4.3, https://matplotlib.org/</dc:title>
     </cc:Agent>
    </dc:creator>
   </cc:Work>
  </rdf:RDF>
 </metadata>
 <defs>
  <style type="text/css">*{stroke-linecap:butt;stroke-linejoin:round;}</style>
 </defs>
 <g id="figure_1">
  <g id="patch_1">
   <path d="M 0 264.010603 
L 327.092719 264.010603 
L 327.092719 0 
L 0 0 
z
" style="fill:none;"/>
  </g>
  <g id="axes_1">
   <g id="patch_2">
    <path d="M 40.892719 228.099249 
L 319.892719 228.099249 
L 319.892719 10.659249 
L 40.892719 10.659249 
z
" style="fill:#ffffff;"/>
   </g>
   <g id="matplotlib.axis_1">
    <g id="xtick_1">
     <g id="line2d_1">
      <defs>
       <path d="M 0 0 
L 0 3.5 
" id="mfa77a99aef" style="stroke:#000000;stroke-width:0.8;"/>
      </defs>
      <g>
       <use style="stroke:#000000;stroke-width:0.8;" x="53.574537" xlink:href="#mfa77a99aef" y="228.099249"/>
      </g>
     </g>
     <g id="text_1">
      <!-- $\mathdefault{0}$ -->
      <g transform="translate(51.08387 242.017748)scale(0.1 -0.1)">
       <defs>
        <path d="M 2688 2025 
C 2688 2416 2682 3080 2413 3591 
C 2176 4039 1798 4198 1466 4198 
C 1158 4198 768 4058 525 3597 
C 269 3118 243 2524 243 2025 
C 243 1661 250 1106 448 619 
C 723 -39 1216 -128 1466 -128 
C 1760 -128 2208 -7 2470 600 
C 2662 1042 2688 1559 2688 2025 
z
M 1466 -26 
C 1056 -26 813 325 723 812 
C 653 1188 653 1738 653 2096 
C 653 2588 653 2997 736 3387 
C 858 3929 1216 4096 1466 4096 
C 1728 4096 2067 3923 2189 3400 
C 2272 3036 2278 2607 2278 2096 
C 2278 1680 2278 1169 2202 792 
C 2067 95 1690 -26 1466 -26 
z
" id="CMR17-30" transform="scale(0.015625)"/>
       </defs>
       <use transform="scale(0.996264)" xlink:href="#CMR17-30"/>
      </g>
     </g>
    </g>
    <g id="xtick_2">
     <g id="line2d_2">
      <g>
       <use style="stroke:#000000;stroke-width:0.8;" x="116.983628" xlink:href="#mfa77a99aef" y="228.099249"/>
      </g>
     </g>
     <g id="text_2">
      <!-- $\mathdefault{5}$ -->
      <g transform="translate(114.492961 242.017748)scale(0.1 -0.1)">
       <defs>
        <path d="M 730 3692 
C 794 3666 1056 3584 1325 3584 
C 1920 3584 2246 3911 2432 4100 
C 2432 4157 2432 4192 2394 4192 
C 2387 4192 2374 4192 2323 4163 
C 2099 4058 1837 3973 1517 3973 
C 1325 3973 1037 3999 723 4139 
C 653 4171 640 4171 634 4171 
C 602 4171 595 4164 595 4037 
L 595 2203 
C 595 2089 595 2057 659 2057 
C 691 2057 704 2070 736 2114 
C 941 2401 1222 2522 1542 2522 
C 1766 2522 2246 2382 2246 1289 
C 2246 1085 2246 715 2054 421 
C 1894 159 1645 25 1370 25 
C 947 25 518 320 403 814 
C 429 807 480 795 506 795 
C 589 795 749 840 749 1038 
C 749 1210 627 1280 506 1280 
C 358 1280 262 1190 262 1011 
C 262 454 704 -128 1382 -128 
C 2042 -128 2669 440 2669 1264 
C 2669 2030 2170 2624 1549 2624 
C 1222 2624 947 2503 730 2274 
L 730 3692 
z
" id="CMR17-35" transform="scale(0.015625)"/>
       </defs>
       <use transform="scale(0.996264)" xlink:href="#CMR17-35"/>
      </g>
     </g>
    </g>
    <g id="xtick_3">
     <g id="line2d_3">
      <g>
       <use style="stroke:#000000;stroke-width:0.8;" x="180.392719" xlink:href="#mfa77a99aef" y="228.099249"/>
      </g>
     </g>
     <g id="text_3">
      <!-- $\mathdefault{10}$ -->
      <g transform="translate(175.411384 242.017748)scale(0.1 -0.1)">
       <defs>
        <path d="M 1702 4058 
C 1702 4192 1696 4192 1606 4192 
C 1357 3916 979 3827 621 3827 
C 602 3827 570 3827 563 3808 
C 557 3795 557 3782 557 3648 
C 755 3648 1088 3686 1344 3839 
L 1344 461 
C 1344 236 1331 160 781 160 
L 589 160 
L 589 0 
C 896 0 1216 0 1523 0 
C 1830 0 2150 0 2458 0 
L 2458 160 
L 2266 160 
C 1715 160 1702 230 1702 458 
L 1702 4058 
z
" id="CMR17-31" transform="scale(0.015625)"/>
       </defs>
       <use transform="scale(0.996264)" xlink:href="#CMR17-31"/>
       <use transform="translate(45.690477 0)scale(0.996264)" xlink:href="#CMR17-30"/>
      </g>
     </g>
    </g>
    <g id="xtick_4">
     <g id="line2d_4">
      <g>
       <use style="stroke:#000000;stroke-width:0.8;" x="243.80181" xlink:href="#mfa77a99aef" y="228.099249"/>
      </g>
     </g>
     <g id="text_4">
      <!-- $\mathdefault{15}$ -->
      <g transform="translate(238.820475 242.017748)scale(0.1 -0.1)">
       <use transform="scale(0.996264)" xlink:href="#CMR17-31"/>
       <use transform="translate(45.690477 0)scale(0.996264)" xlink:href="#CMR17-35"/>
      </g>
     </g>
    </g>
    <g id="xtick_5">
     <g id="line2d_5">
      <g>
       <use style="stroke:#000000;stroke-width:0.8;" x="307.210901" xlink:href="#mfa77a99aef" y="228.099249"/>
      </g>
     </g>
     <g id="text_5">
      <!-- $\mathdefault{20}$ -->
      <g transform="translate(302.229566 242.017748)scale(0.1 -0.1)">
       <defs>
        <path d="M 2669 989 
L 2554 989 
C 2490 536 2438 459 2413 420 
C 2381 369 1920 369 1830 369 
L 602 369 
C 832 619 1280 1072 1824 1597 
C 2214 1967 2669 2402 2669 3035 
C 2669 3790 2067 4224 1395 4224 
C 691 4224 262 3604 262 3030 
C 262 2780 448 2748 525 2748 
C 589 2748 781 2787 781 3010 
C 781 3207 614 3264 525 3264 
C 486 3264 448 3258 422 3245 
C 544 3790 915 4058 1306 4058 
C 1862 4058 2227 3617 2227 3035 
C 2227 2479 1901 2000 1536 1584 
L 262 146 
L 262 0 
L 2515 0 
L 2669 989 
z
" id="CMR17-32" transform="scale(0.015625)"/>
       </defs>
       <use transform="scale(0.996264)" xlink:href="#CMR17-32"/>
       <use transform="translate(45.690477 0)scale(0.996264)" xlink:href="#CMR17-30"/>
      </g>
     </g>
    </g>
    <g id="text_6">
     <!-- $k$ -->
     <g transform="translate(177.799424 254.873424)scale(0.1 -0.1)">
      <defs>
       <path d="M 1798 4257 
C 1805 4283 1818 4321 1818 4352 
C 1818 4416 1754 4416 1741 4416 
C 1734 4416 1504 4393 1389 4377 
C 1280 4377 1184 4358 1069 4358 
C 915 4345 870 4339 870 4224 
C 870 4160 934 4160 998 4160 
C 1325 4160 1325 4103 1325 4040 
C 1325 4015 1325 4002 1293 3888 
L 378 248 
C 352 152 352 140 352 101 
C 352 -38 461 -64 525 -64 
C 704 -64 742 77 794 275 
L 1094 1469 
C 1555 1418 1830 1226 1830 920 
C 1830 881 1830 856 1811 760 
C 1786 664 1786 588 1786 556 
C 1786 185 2029 -64 2355 -64 
C 2650 -64 2803 204 2854 294 
C 2989 530 3072 888 3072 913 
C 3072 945 3046 971 3008 971 
C 2950 971 2944 945 2918 843 
C 2829 511 2694 64 2368 64 
C 2240 64 2157 128 2157 370 
C 2157 492 2182 632 2208 728 
C 2234 843 2234 849 2234 926 
C 2234 1303 1894 1514 1306 1590 
C 1536 1731 1766 1980 1856 2076 
C 2221 2484 2470 2689 2765 2689 
C 2912 2689 2950 2650 2995 2612 
C 2758 2586 2669 2420 2669 2293 
C 2669 2139 2790 2088 2880 2088 
C 3053 2088 3206 2235 3206 2440 
C 3206 2625 3059 2816 2771 2816 
C 2419 2816 2131 2567 1677 2056 
C 1613 1980 1376 1737 1139 1648 
L 1798 4257 
z
" id="CMMI12-6b" transform="scale(0.015625)"/>
      </defs>
      <use transform="scale(0.996264)" xlink:href="#CMMI12-6b"/>
     </g>
    </g>
   </g>
   <g id="matplotlib.axis_2">
    <g id="ytick_1">
     <g id="line2d_6">
      <defs>
       <path d="M 0 0 
L -3.5 0 
" id="m4bb5176ee4" style="stroke:#000000;stroke-width:0.8;"/>
      </defs>
      <g>
       <use style="stroke:#000000;stroke-width:0.8;" x="40.892719" xlink:href="#m4bb5176ee4" y="218.539873"/>
      </g>
     </g>
     <g id="text_7">
      <!-- $\mathdefault{0.0}$ -->
      <g transform="translate(21.16264 221.999122)scale(0.1 -0.1)">
       <defs>
        <path d="M 1178 307 
C 1178 492 1024 619 870 619 
C 685 619 557 466 557 313 
C 557 128 710 0 864 0 
C 1050 0 1178 153 1178 307 
z
" id="CMMI12-3a" transform="scale(0.015625)"/>
       </defs>
       <use transform="scale(0.996264)" xlink:href="#CMR17-30"/>
       <use transform="translate(45.690477 0)scale(0.996264)" xlink:href="#CMMI12-3a"/>
       <use transform="translate(72.787654 0)scale(0.996264)" xlink:href="#CMR17-30"/>
      </g>
     </g>
    </g>
    <g id="ytick_2">
     <g id="line2d_7">
      <g>
       <use style="stroke:#000000;stroke-width:0.8;" x="40.892719" xlink:href="#m4bb5176ee4" y="166.569717"/>
      </g>
     </g>
     <g id="text_8">
      <!-- $\mathdefault{0.1}$ -->
      <g transform="translate(21.16264 170.028966)scale(0.1 -0.1)">
       <use transform="scale(0.996264)" xlink:href="#CMR17-30"/>
       <use transform="translate(45.690477 0)scale(0.996264)" xlink:href="#CMMI12-3a"/>
       <use transform="translate(72.787654 0)scale(0.996264)" xlink:href="#CMR17-31"/>
      </g>
     </g>
    </g>
    <g id="ytick_3">
     <g id="line2d_8">
      <g>
       <use style="stroke:#000000;stroke-width:0.8;" x="40.892719" xlink:href="#m4bb5176ee4" y="114.599561"/>
      </g>
     </g>
     <g id="text_9">
      <!-- $\mathdefault{0.2}$ -->
      <g transform="translate(21.16264 118.05881)scale(0.1 -0.1)">
       <use transform="scale(0.996264)" xlink:href="#CMR17-30"/>
       <use transform="translate(45.690477 0)scale(0.996264)" xlink:href="#CMMI12-3a"/>
       <use transform="translate(72.787654 0)scale(0.996264)" xlink:href="#CMR17-32"/>
      </g>
     </g>
    </g>
    <g id="ytick_4">
     <g id="line2d_9">
      <g>
       <use style="stroke:#000000;stroke-width:0.8;" x="40.892719" xlink:href="#m4bb5176ee4" y="62.629405"/>
      </g>
     </g>
     <g id="text_10">
      <!-- $\mathdefault{0.3}$ -->
      <g transform="translate(21.16264 66.088654)scale(0.1 -0.1)">
       <defs>
        <path d="M 1414 2157 
C 1984 2157 2234 1662 2234 1090 
C 2234 320 1824 25 1453 25 
C 1114 25 563 194 390 693 
C 422 680 454 680 486 680 
C 640 680 755 782 755 948 
C 755 1133 614 1216 486 1216 
C 378 1216 211 1165 211 926 
C 211 335 787 -128 1466 -128 
C 2176 -128 2720 430 2720 1085 
C 2720 1707 2208 2157 1600 2227 
C 2086 2328 2554 2756 2554 3329 
C 2554 3820 2048 4179 1472 4179 
C 890 4179 378 3829 378 3329 
C 378 3110 544 3072 627 3072 
C 762 3072 877 3155 877 3321 
C 877 3486 762 3569 627 3569 
C 602 3569 570 3569 544 3557 
C 730 3959 1235 4032 1459 4032 
C 1683 4032 2106 3925 2106 3320 
C 2106 3143 2080 2828 1862 2550 
C 1670 2304 1453 2304 1242 2284 
C 1210 2284 1062 2269 1037 2269 
C 992 2263 966 2257 966 2208 
C 966 2163 973 2157 1101 2157 
L 1414 2157 
z
" id="CMR17-33" transform="scale(0.015625)"/>
       </defs>
       <use transform="scale(0.996264)" xlink:href="#CMR17-30"/>
       <use transform="translate(45.690477 0)scale(0.996264)" xlink:href="#CMMI12-3a"/>
       <use transform="translate(72.787654 0)scale(0.996264)" xlink:href="#CMR17-33"/>
      </g>
     </g>
    </g>
    <g id="ytick_5">
     <g id="line2d_10">
      <g>
       <use style="stroke:#000000;stroke-width:0.8;" x="40.892719" xlink:href="#m4bb5176ee4" y="10.659249"/>
      </g>
     </g>
     <g id="text_11">
      <!-- $\mathdefault{0.4}$ -->
      <g transform="translate(21.16264 14.118498)scale(0.1 -0.1)">
       <defs>
        <path d="M 2150 4122 
C 2150 4256 2144 4256 2029 4256 
L 128 1254 
L 128 1088 
L 1779 1088 
L 1779 457 
C 1779 224 1766 160 1318 160 
L 1197 160 
L 1197 0 
C 1402 0 1747 0 1965 0 
C 2182 0 2528 0 2733 0 
L 2733 160 
L 2611 160 
C 2163 160 2150 224 2150 457 
L 2150 1088 
L 2803 1088 
L 2803 1254 
L 2150 1254 
L 2150 4122 
z
M 1798 3703 
L 1798 1254 
L 256 1254 
L 1798 3703 
z
" id="CMR17-34" transform="scale(0.015625)"/>
       </defs>
       <use transform="scale(0.996264)" xlink:href="#CMR17-30"/>
       <use transform="translate(45.690477 0)scale(0.996264)" xlink:href="#CMMI12-3a"/>
       <use transform="translate(72.787654 0)scale(0.996264)" xlink:href="#CMR17-34"/>
      </g>
     </g>
    </g>
    <g id="text_12">
     <!-- $p(k)$ -->
     <g transform="translate(14.67198 128.509957)rotate(-90)scale(0.1 -0.1)">
      <defs>
       <path d="M 275 -789 
C 230 -980 205 -1031 -58 -1031 
C -134 -1031 -198 -1031 -198 -1152 
C -198 -1165 -192 -1216 -122 -1216 
C -38 -1216 51 -1216 134 -1216 
L 410 -1216 
C 544 -1216 870 -1216 1005 -1216 
C 1043 -1216 1120 -1216 1120 -1101 
C 1120 -1031 1075 -1031 966 -1031 
C 672 -1031 653 -987 653 -937 
C 653 -861 941 219 979 364 
C 1050 185 1222 -64 1555 -64 
C 2278 -64 3059 875 3059 1814 
C 3059 2401 2726 2816 2246 2816 
C 1837 2816 1491 2420 1421 2331 
C 1370 2650 1120 2816 864 2816 
C 678 2816 531 2727 410 2484 
C 294 2254 205 1865 205 1839 
C 205 1814 230 1782 275 1782 
C 326 1782 333 1788 371 1935 
C 467 2312 589 2689 845 2689 
C 992 2689 1043 2587 1043 2397 
C 1043 2245 1024 2181 998 2067 
L 275 -789 
z
M 1382 1993 
C 1427 2171 1606 2357 1709 2446 
C 1779 2510 1990 2689 2234 2689 
C 2515 2689 2643 2408 2643 2076 
C 2643 1769 2464 1047 2304 715 
C 2144 370 1850 64 1555 64 
C 1120 64 1050 613 1050 639 
C 1050 658 1062 709 1069 741 
L 1382 1993 
z
" id="CMMI12-70" transform="scale(0.015625)"/>
       <path d="M 1958 -1561 
C 1958 -1555 1958 -1542 1939 -1523 
C 1645 -1224 858 -407 858 1581 
C 858 3569 1632 4379 1946 4697 
C 1946 4704 1958 4717 1958 4736 
C 1958 4755 1939 4768 1914 4768 
C 1843 4768 1299 4296 986 3594 
C 666 2887 576 2199 576 1588 
C 576 1128 621 351 1005 -471 
C 1312 -1135 1837 -1600 1914 -1600 
C 1946 -1600 1958 -1587 1958 -1561 
z
" id="CMR17-28" transform="scale(0.015625)"/>
       <path d="M 1683 1581 
C 1683 2040 1638 2817 1254 3639 
C 947 4303 422 4768 346 4768 
C 326 4768 301 4761 301 4729 
C 301 4717 307 4710 314 4697 
C 621 4378 1402 3568 1402 1584 
C 1402 -407 627 -1217 314 -1537 
C 307 -1549 301 -1556 301 -1568 
C 301 -1600 326 -1600 346 -1600 
C 416 -1600 960 -1128 1274 -426 
C 1594 281 1683 969 1683 1581 
z
" id="CMR17-29" transform="scale(0.015625)"/>
      </defs>
      <use transform="scale(0.996264)" xlink:href="#CMMI12-70"/>
      <use transform="translate(48.959514 0)scale(0.996264)" xlink:href="#CMR17-28"/>
      <use transform="translate(84.240282 0)scale(0.996264)" xlink:href="#CMMI12-6b"/>
      <use transform="translate(138.319482 0)scale(0.996264)" xlink:href="#CMR17-29"/>
     </g>
    </g>
   </g>
   <g id="line2d_11">
    <path clip-path="url(#pc9174e9d10)" d="M 53.574537 27.352354 
L 66.256355 27.352354 
L 78.938174 122.946113 
L 91.619992 186.675287 
L 104.30181 210.573727 
L 116.983628 216.946644 
L 129.665446 218.274335 
L 142.347265 218.501939 
L 155.029083 218.535131 
L 167.710901 218.539346 
L 180.392719 218.539821 
L 193.074537 218.539868 
L 205.756355 218.539873 
L 218.438174 218.539873 
L 231.119992 218.539873 
L 243.80181 218.539873 
L 256.483628 218.539873 
L 269.165446 218.539873 
L 281.847265 218.539873 
L 294.529083 218.539873 
L 307.210901 218.539873 
" style="fill:none;stroke:#1f77b4;stroke-linecap:square;stroke-width:1.5;"/>
    <defs>
     <path d="M 0 3 
C 0.795609 3 1.55874 2.683901 2.12132 2.12132 
C 2.683901 1.55874 3 0.795609 3 0 
C 3 -0.795609 2.683901 -1.55874 2.12132 -2.12132 
C 1.55874 -2.683901 0.795609 -3 0 -3 
C -0.795609 -3 -1.55874 -2.683901 -2.12132 -2.12132 
C -2.683901 -1.55874 -3 -0.795609 -3 0 
C -3 0.795609 -2.683901 1.55874 -2.12132 2.12132 
C -1.55874 2.683901 -0.795609 3 0 3 
z
" id="me7428cf1e4" style="stroke:#1f77b4;"/>
    </defs>
    <g clip-path="url(#pc9174e9d10)">
     <use style="fill:#1f77b4;stroke:#1f77b4;" x="53.574537" xlink:href="#me7428cf1e4" y="27.352354"/>
     <use style="fill:#1f77b4;stroke:#1f77b4;" x="66.256355" xlink:href="#me7428cf1e4" y="27.352354"/>
     <use style="fill:#1f77b4;stroke:#1f77b4;" x="78.938174" xlink:href="#me7428cf1e4" y="122.946113"/>
     <use style="fill:#1f77b4;stroke:#1f77b4;" x="91.619992" xlink:href="#me7428cf1e4" y="186.675287"/>
     <use style="fill:#1f77b4;stroke:#1f77b4;" x="104.30181" xlink:href="#me7428cf1e4" y="210.573727"/>
     <use style="fill:#1f77b4;stroke:#1f77b4;" x="116.983628" xlink:href="#me7428cf1e4" y="216.946644"/>
     <use style="fill:#1f77b4;stroke:#1f77b4;" x="129.665446" xlink:href="#me7428cf1e4" y="218.274335"/>
     <use style="fill:#1f77b4;stroke:#1f77b4;" x="142.347265" xlink:href="#me7428cf1e4" y="218.501939"/>
     <use style="fill:#1f77b4;stroke:#1f77b4;" x="155.029083" xlink:href="#me7428cf1e4" y="218.535131"/>
     <use style="fill:#1f77b4;stroke:#1f77b4;" x="167.710901" xlink:href="#me7428cf1e4" y="218.539346"/>
     <use style="fill:#1f77b4;stroke:#1f77b4;" x="180.392719" xlink:href="#me7428cf1e4" y="218.539821"/>
     <use style="fill:#1f77b4;stroke:#1f77b4;" x="193.074537" xlink:href="#me7428cf1e4" y="218.539868"/>
     <use style="fill:#1f77b4;stroke:#1f77b4;" x="205.756355" xlink:href="#me7428cf1e4" y="218.539873"/>
     <use style="fill:#1f77b4;stroke:#1f77b4;" x="218.438174" xlink:href="#me7428cf1e4" y="218.539873"/>
     <use style="fill:#1f77b4;stroke:#1f77b4;" x="231.119992" xlink:href="#me7428cf1e4" y="218.539873"/>
     <use style="fill:#1f77b4;stroke:#1f77b4;" x="243.80181" xlink:href="#me7428cf1e4" y="218.539873"/>
     <use style="fill:#1f77b4;stroke:#1f77b4;" x="256.483628" xlink:href="#me7428cf1e4" y="218.539873"/>
     <use style="fill:#1f77b4;stroke:#1f77b4;" x="269.165446" xlink:href="#me7428cf1e4" y="218.539873"/>
     <use style="fill:#1f77b4;stroke:#1f77b4;" x="281.847265" xlink:href="#me7428cf1e4" y="218.539873"/>
     <use style="fill:#1f77b4;stroke:#1f77b4;" x="294.529083" xlink:href="#me7428cf1e4" y="218.539873"/>
     <use style="fill:#1f77b4;stroke:#1f77b4;" x="307.210901" xlink:href="#me7428cf1e4" y="218.539873"/>
    </g>
   </g>
   <g id="line2d_12">
    <path clip-path="url(#pc9174e9d10)" d="M 53.574537 209.021207 
L 66.256355 180.465209 
L 78.938174 142.390544 
L 91.619992 117.007435 
L 104.30181 117.007435 
L 116.983628 137.313922 
L 129.665446 164.389239 
L 142.347265 187.596654 
L 155.029083 203.068264 
L 167.710901 211.663602 
L 180.392719 215.789365 
L 193.074537 217.539688 
L 205.756355 218.206478 
L 218.438174 218.43729 
L 231.119992 218.510564 
L 243.80181 218.532057 
L 256.483628 218.537919 
L 269.165446 218.539413 
L 281.847265 218.539771 
L 294.529083 218.539852 
L 307.210901 218.539869 
" style="fill:none;stroke:#ff7f0e;stroke-linecap:square;stroke-width:1.5;"/>
    <defs>
     <path d="M 0 3 
C 0.795609 3 1.55874 2.683901 2.12132 2.12132 
C 2.683901 1.55874 3 0.795609 3 0 
C 3 -0.795609 2.683901 -1.55874 2.12132 -2.12132 
C 1.55874 -2.683901 0.795609 -3 0 -3 
C -0.795609 -3 -1.55874 -2.683901 -2.12132 -2.12132 
C -2.683901 -1.55874 -3 -0.795609 -3 0 
C -3 0.795609 -2.683901 1.55874 -2.12132 2.12132 
C -1.55874 2.683901 -0.795609 3 0 3 
z
" id="mdb0b9406fb" style="stroke:#ff7f0e;"/>
    </defs>
    <g clip-path="url(#pc9174e9d10)">
     <use style="fill:#ff7f0e;stroke:#ff7f0e;" x="53.574537" xlink:href="#mdb0b9406fb" y="209.021207"/>
     <use style="fill:#ff7f0e;stroke:#ff7f0e;" x="66.256355" xlink:href="#mdb0b9406fb" y="180.465209"/>
     <use style="fill:#ff7f0e;stroke:#ff7f0e;" x="78.938174" xlink:href="#mdb0b9406fb" y="142.390544"/>
     <use style="fill:#ff7f0e;stroke:#ff7f0e;" x="91.619992" xlink:href="#mdb0b9406fb" y="117.007435"/>
     <use style="fill:#ff7f0e;stroke:#ff7f0e;" x="104.30181" xlink:href="#mdb0b9406fb" y="117.007435"/>
     <use style="fill:#ff7f0e;stroke:#ff7f0e;" x="116.983628" xlink:href="#mdb0b9406fb" y="137.313922"/>
     <use style="fill:#ff7f0e;stroke:#ff7f0e;" x="129.665446" xlink:href="#mdb0b9406fb" y="164.389239"/>
     <use style="fill:#ff7f0e;stroke:#ff7f0e;" x="142.347265" xlink:href="#mdb0b9406fb" y="187.596654"/>
     <use style="fill:#ff7f0e;stroke:#ff7f0e;" x="155.029083" xlink:href="#mdb0b9406fb" y="203.068264"/>
     <use style="fill:#ff7f0e;stroke:#ff7f0e;" x="167.710901" xlink:href="#mdb0b9406fb" y="211.663602"/>
     <use style="fill:#ff7f0e;stroke:#ff7f0e;" x="180.392719" xlink:href="#mdb0b9406fb" y="215.789365"/>
     <use style="fill:#ff7f0e;stroke:#ff7f0e;" x="193.074537" xlink:href="#mdb0b9406fb" y="217.539688"/>
     <use style="fill:#ff7f0e;stroke:#ff7f0e;" x="205.756355" xlink:href="#mdb0b9406fb" y="218.206478"/>
     <use style="fill:#ff7f0e;stroke:#ff7f0e;" x="218.438174" xlink:href="#mdb0b9406fb" y="218.43729"/>
     <use style="fill:#ff7f0e;stroke:#ff7f0e;" x="231.119992" xlink:href="#mdb0b9406fb" y="218.510564"/>
     <use style="fill:#ff7f0e;stroke:#ff7f0e;" x="243.80181" xlink:href="#mdb0b9406fb" y="218.532057"/>
     <use style="fill:#ff7f0e;stroke:#ff7f0e;" x="256.483628" xlink:href="#mdb0b9406fb" y="218.537919"/>
     <use style="fill:#ff7f0e;stroke:#ff7f0e;" x="269.165446" xlink:href="#mdb0b9406fb" y="218.539413"/>
     <use style="fill:#ff7f0e;stroke:#ff7f0e;" x="281.847265" xlink:href="#mdb0b9406fb" y="218.539771"/>
     <use style="fill:#ff7f0e;stroke:#ff7f0e;" x="294.529083" xlink:href="#mdb0b9406fb" y="218.539852"/>
     <use style="fill:#ff7f0e;stroke:#ff7f0e;" x="307.210901" xlink:href="#mdb0b9406fb" y="218.539869"/>
    </g>
   </g>
   <g id="line2d_13">
    <path clip-path="url(#pc9174e9d10)" d="M 53.574537 218.516279 
L 66.256355 218.303929 
L 78.938174 217.360152 
L 91.619992 214.607471 
L 104.30181 208.708867 
L 116.983628 198.877861 
L 129.665446 185.769853 
L 142.347265 171.725559 
L 155.029083 160.021981 
L 167.710901 153.519992 
L 180.392719 153.519992 
L 193.074537 159.430891 
L 205.756355 169.282388 
L 218.438174 180.6495 
L 231.119992 191.475321 
L 243.80181 200.496838 
L 256.483628 207.262976 
L 269.165446 211.906404 
L 281.847265 214.854613 
L 294.529083 216.600262 
L 307.210901 217.570068 
" style="fill:none;stroke:#2ca02c;stroke-linecap:square;stroke-width:1.5;"/>
    <defs>
     <path d="M 0 3 
C 0.795609 3 1.55874 2.683901 2.12132 2.12132 
C 2.683901 1.55874 3 0.795609 3 0 
C 3 -0.795609 2.683901 -1.55874 2.12132 -2.12132 
C 1.55874 -2.683901 0.795609 -3 0 -3 
C -0.795609 -3 -1.55874 -2.683901 -2.12132 -2.12132 
C -2.683901 -1.55874 -3 -0.795609 -3 0 
C -3 0.795609 -2.683901 1.55874 -2.12132 2.12132 
C -1.55874 2.683901 -0.795609 3 0 3 
z
" id="maeb5967f01" style="stroke:#2ca02c;"/>
    </defs>
    <g clip-path="url(#pc9174e9d10)">
     <use style="fill:#2ca02c;stroke:#2ca02c;" x="53.574537" xlink:href="#maeb5967f01" y="218.516279"/>
     <use style="fill:#2ca02c;stroke:#2ca02c;" x="66.256355" xlink:href="#maeb5967f01" y="218.303929"/>
     <use style="fill:#2ca02c;stroke:#2ca02c;" x="78.938174" xlink:href="#maeb5967f01" y="217.360152"/>
     <use style="fill:#2ca02c;stroke:#2ca02c;" x="91.619992" xlink:href="#maeb5967f01" y="214.607471"/>
     <use style="fill:#2ca02c;stroke:#2ca02c;" x="104.30181" xlink:href="#maeb5967f01" y="208.708867"/>
     <use style="fill:#2ca02c;stroke:#2ca02c;" x="116.983628" xlink:href="#maeb5967f01" y="198.877861"/>
     <use style="fill:#2ca02c;stroke:#2ca02c;" x="129.665446" xlink:href="#maeb5967f01" y="185.769853"/>
     <use style="fill:#2ca02c;stroke:#2ca02c;" x="142.347265" xlink:href="#maeb5967f01" y="171.725559"/>
     <use style="fill:#2ca02c;stroke:#2ca02c;" x="155.029083" xlink:href="#maeb5967f01" y="160.021981"/>
     <use style="fill:#2ca02c;stroke:#2ca02c;" x="167.710901" xlink:href="#maeb5967f01" y="153.519992"/>
     <use style="fill:#2ca02c;stroke:#2ca02c;" x="180.392719" xlink:href="#maeb5967f01" y="153.519992"/>
     <use style="fill:#2ca02c;stroke:#2ca02c;" x="193.074537" xlink:href="#maeb5967f01" y="159.430891"/>
     <use style="fill:#2ca02c;stroke:#2ca02c;" x="205.756355" xlink:href="#maeb5967f01" y="169.282388"/>
     <use style="fill:#2ca02c;stroke:#2ca02c;" x="218.438174" xlink:href="#maeb5967f01" y="180.6495"/>
     <use style="fill:#2ca02c;stroke:#2ca02c;" x="231.119992" xlink:href="#maeb5967f01" y="191.475321"/>
     <use style="fill:#2ca02c;stroke:#2ca02c;" x="243.80181" xlink:href="#maeb5967f01" y="200.496838"/>
     <use style="fill:#2ca02c;stroke:#2ca02c;" x="256.483628" xlink:href="#maeb5967f01" y="207.262976"/>
     <use style="fill:#2ca02c;stroke:#2ca02c;" x="269.165446" xlink:href="#maeb5967f01" y="211.906404"/>
     <use style="fill:#2ca02c;stroke:#2ca02c;" x="281.847265" xlink:href="#maeb5967f01" y="214.854613"/>
     <use style="fill:#2ca02c;stroke:#2ca02c;" x="294.529083" xlink:href="#maeb5967f01" y="216.600262"/>
     <use style="fill:#2ca02c;stroke:#2ca02c;" x="307.210901" xlink:href="#maeb5967f01" y="217.570068"/>
    </g>
   </g>
   <g id="patch_3">
    <path d="M 40.892719 228.099249 
L 40.892719 10.659249 
" style="fill:none;stroke:#000000;stroke-linecap:square;stroke-linejoin:miter;stroke-width:0.8;"/>
   </g>
   <g id="patch_4">
    <path d="M 319.892719 228.099249 
L 319.892719 10.659249 
" style="fill:none;stroke:#000000;stroke-linecap:square;stroke-linejoin:miter;stroke-width:0.8;"/>
   </g>
   <g id="patch_5">
    <path d="M 40.892719 228.099249 
L 319.892719 228.099249 
" style="fill:none;stroke:#000000;stroke-linecap:square;stroke-linejoin:miter;stroke-width:0.8;"/>
   </g>
   <g id="patch_6">
    <path d="M 40.892719 10.659249 
L 319.892719 10.659249 
" style="fill:none;stroke:#000000;stroke-linecap:square;stroke-linejoin:miter;stroke-width:0.8;"/>
   </g>
   <g id="legend_1">
    <g id="patch_7">
     <path d="M 251.835075 60.470784 
L 312.892719 60.470784 
Q 314.892719 60.470784 314.892719 58.470784 
L 314.892719 17.659249 
Q 314.892719 15.659249 312.892719 15.659249 
L 251.835075 15.659249 
Q 249.835075 15.659249 249.835075 17.659249 
L 249.835075 58.470784 
Q 249.835075 60.470784 251.835075 60.470784 
z
" style="fill:#ffffff;opacity:0.8;stroke:#cccccc;stroke-linejoin:miter;"/>
    </g>
    <g id="line2d_14">
     <path d="M 253.835075 23.159249 
L 273.835075 23.159249 
" style="fill:none;stroke:#1f77b4;stroke-linecap:square;stroke-width:1.5;"/>
    </g>
    <g id="line2d_15">
     <g>
      <use style="fill:#1f77b4;stroke:#1f77b4;" x="263.835075" xlink:href="#me7428cf1e4" y="23.159249"/>
     </g>
    </g>
    <g id="text_13">
     <!-- $\lambda=1$ -->
     <g transform="translate(281.835075 26.659249)scale(0.1 -0.1)">
      <defs>
       <path d="M 1978 3965 
C 1818 4416 1312 4416 1229 4416 
C 1190 4416 1120 4416 1120 4352 
C 1120 4302 1158 4295 1190 4289 
C 1286 4276 1363 4263 1466 4080 
C 1530 3959 2189 2059 2189 2046 
C 2189 2040 2182 2033 2131 1982 
L 467 311 
C 390 234 339 183 339 102 
C 339 12 416 -64 518 -64 
C 544 -64 614 -51 653 -13 
C 755 82 1670 1194 2253 1881 
C 2419 1383 2624 797 2822 261 
C 2854 166 2886 76 2976 -6 
C 3040 -64 3053 -64 3232 -64 
L 3354 -64 
C 3379 -64 3424 -64 3424 -13 
C 3424 13 3418 19 3392 45 
C 3334 115 3290 229 3264 306 
L 1978 3965 
z
" id="CMMI12-15" transform="scale(0.015625)"/>
       <path d="M 4115 2017 
C 4211 2017 4307 2017 4307 2125 
C 4307 2240 4198 2240 4090 2240 
L 512 2240 
C 403 2240 294 2240 294 2125 
C 294 2017 390 2017 486 2017 
L 4115 2017 
z
M 4090 896 
C 4198 896 4307 896 4307 1011 
C 4307 1119 4211 1119 4115 1119 
L 486 1119 
C 390 1119 294 1119 294 1011 
C 294 896 403 896 512 896 
L 4090 896 
z
" id="CMR17-3d" transform="scale(0.015625)"/>
      </defs>
      <use transform="scale(0.996264)" xlink:href="#CMMI12-15"/>
      <use transform="translate(84.578081 0)scale(0.996264)" xlink:href="#CMR17-3d"/>
      <use transform="translate(183.966878 0)scale(0.996264)" xlink:href="#CMR17-31"/>
     </g>
    </g>
    <g id="line2d_16">
     <path d="M 253.835075 37.096428 
L 273.835075 37.096428 
" style="fill:none;stroke:#ff7f0e;stroke-linecap:square;stroke-width:1.5;"/>
    </g>
    <g id="line2d_17">
     <g>
      <use style="fill:#ff7f0e;stroke:#ff7f0e;" x="263.835075" xlink:href="#mdb0b9406fb" y="37.096428"/>
     </g>
    </g>
    <g id="text_14">
     <!-- $\lambda=4$ -->
     <g transform="translate(281.835075 40.596428)scale(0.1 -0.1)">
      <use transform="scale(0.996264)" xlink:href="#CMMI12-15"/>
      <use transform="translate(84.578081 0)scale(0.996264)" xlink:href="#CMR17-3d"/>
      <use transform="translate(183.966878 0)scale(0.996264)" xlink:href="#CMR17-34"/>
     </g>
    </g>
    <g id="line2d_18">
     <path d="M 253.835075 51.033606 
L 273.835075 51.033606 
" style="fill:none;stroke:#2ca02c;stroke-linecap:square;stroke-width:1.5;"/>
    </g>
    <g id="line2d_19">
     <g>
      <use style="fill:#2ca02c;stroke:#2ca02c;" x="263.835075" xlink:href="#maeb5967f01" y="51.033606"/>
     </g>
    </g>
    <g id="text_15">
     <!-- $\lambda=10$ -->
     <g transform="translate(281.835075 54.533606)scale(0.1 -0.1)">
      <use transform="scale(0.996264)" xlink:href="#CMMI12-15"/>
      <use transform="translate(84.578081 0)scale(0.996264)" xlink:href="#CMR17-3d"/>
      <use transform="translate(183.966878 0)scale(0.996264)" xlink:href="#CMR17-31"/>
      <use transform="translate(229.657355 0)scale(0.996264)" xlink:href="#CMR17-30"/>
     </g>
    </g>
   </g>
  </g>
 </g>
 <defs>
  <clipPath id="pc9174e9d10">
   <rect height="217.44" width="279" x="40.892719" y="10.659249"/>
  </clipPath>
 </defs>
</svg>
